<?xml version="1.0" encoding="UTF-8" standalone="no"?>
<!-- Generator: Adobe Illustrator 19.0.0, SVG Export Plug-In . SVG Version: 6.00 Build 0)  -->

<svg
   xmlns:dc="http://purl.org/dc/elements/1.1/"
   xmlns:cc="http://creativecommons.org/ns#"
   xmlns:rdf="http://www.w3.org/1999/02/22-rdf-syntax-ns#"
   xmlns:svg="http://www.w3.org/2000/svg"
   xmlns="http://www.w3.org/2000/svg"
   xmlns:sodipodi="http://sodipodi.sourceforge.net/DTD/sodipodi-0.dtd"
   xmlns:inkscape="http://www.inkscape.org/namespaces/inkscape"
   version="1.1"
   id="Capa_1"
   x="0px"
   y="0px"
   viewBox="0 0 555.99492 92.66582"
   xml:space="preserve"
   width="600"
   height="100"
   inkscape:version="0.91 r13725"
   sodipodi:docname="main_icons.svg"><metadata
     id="metadata51"><rdf:RDF><cc:Work
         rdf:about=""><dc:format>image/svg+xml</dc:format><dc:type
           rdf:resource="http://purl.org/dc/dcmitype/StillImage" /><dc:title></dc:title></cc:Work></rdf:RDF></metadata><defs
     id="defs49" /><sodipodi:namedview
     pagecolor="#ffffff"
     bordercolor="#666666"
     borderopacity="1"
     objecttolerance="10"
     gridtolerance="10"
     guidetolerance="10"
     inkscape:pageopacity="0"
     inkscape:pageshadow="2"
     inkscape:window-width="1920"
     inkscape:window-height="1027"
     id="namedview47"
     showgrid="true"
     inkscape:zoom="0.921875"
     inkscape:cx="31.164821"
     inkscape:cy="93.964266"
     inkscape:window-x="1272"
     inkscape:window-y="-8"
     inkscape:window-maximized="1"
     inkscape:current-layer="g9"
     showguides="true"
     showborder="true"><inkscape:grid
       type="xygrid"
       id="grid4286" /></sodipodi:namedview><g
     id="g3"
     transform="translate(0,-381.78319)"><g
       id="g5"><g
         id="g7"><g
           id="g9"><g
             id="g4198"
             transform="matrix(0.22695753,0,0,0.22695753,-7.3806778,378.94118)"><path
               style="fill:#ffffff"
               inkscape:connector-curvature="0"
               id="path13"
               d="m 248.205,113.622 c -3.178,-3.178 -7.31,-4.704 -11.473,-4.64 -4.227,-0.064 -8.391,1.462 -11.569,4.64 l -106.312,94.044 c -6.229,6.229 -6.229,16.368 0,22.597 6.229,6.261 16.368,6.261 22.597,0 l 95.22,-84.255 95.22,84.255 c 6.229,6.261 16.4,6.261 22.597,0 6.229,-6.229 6.229,-16.368 0,-22.597 l -106.28,-94.044 z" /><path
               style="fill:#ffffff"
               inkscape:connector-curvature="0"
               id="path15"
               d="m 248.205,197.43835 c -3.178,-3.178 -7.31,-4.704 -11.473,-4.64 -4.227,-0.064 -8.391,1.462 -11.569,4.64 l -106.312,94.013 c -6.229,6.261 -6.229,16.4 0,22.597 6.229,6.261 16.368,6.261 22.597,0 l 95.22,-84.192 95.22,84.192 c 6.229,6.261 16.4,6.261 22.597,0 6.229,-6.198 6.229,-16.336 0,-22.597 l -106.28,-94.013 z" /></g><g
             id="g4207"
             transform="matrix(2.3828352,0,0,2.3828352,97.429896,386.41648)"><g
               id="g4167"><path
                 id="path4169"
                 d="M 25.302,0 9.698,0 C 8.398,0 7.334,1.063 7.334,2.364 l 0,30.271 C 7.334,33.936 8.398,35 9.698,35 l 15.604,0 c 1.3,0 2.364,-1.062 2.364,-2.364 l 0,-30.272 C 27.666,1.063 26.602,0 25.302,0 Z m -10.298,1.704 4.992,0 c 0.158,0 0.286,0.128 0.286,0.287 0,0.158 -0.128,0.286 -0.286,0.286 l -4.992,0 c -0.158,0 -0.286,-0.128 -0.286,-0.286 0,-0.159 0.128,-0.287 0.286,-0.287 z M 17.5,33.818 c -0.653,0 -1.182,-0.529 -1.182,-1.183 0,-0.654 0.529,-1.182 1.182,-1.182 0.653,0 1.182,0.528 1.182,1.182 0,0.654 -0.529,1.183 -1.182,1.183 z m 8.521,-3.193 -17.042,0 0,-26.876 17.042,0 0,26.876 z"
                 inkscape:connector-curvature="0"
                 style="fill:#ffffff" /></g><g
               id="g4171" /><g
               id="g4173" /><g
               id="g4175" /><g
               id="g4177" /><g
               id="g4179" /><g
               id="g4181" /><g
               id="g4183" /><g
               id="g4185" /><g
               id="g4187" /><g
               id="g4189" /><g
               id="g4191" /><g
               id="g4193" /><g
               id="g4195" /><g
               id="g4197" /><g
               id="g4199" /></g><g
             id="g4267"
             transform="matrix(0.16288913,0,0,0.16288913,189.96492,386.64814)"><g
               id="g4227"><path
                 id="path4229"
                 d="M 448,64 64,64 C 28.656,64 0,92.656 0,128 l 0,256 c 0,35.344 28.656,64 64,64 l 384,0 c 35.344,0 64,-28.656 64,-64 l 0,-256 C 512,92.656 483.344,64 448,64 Z M 342.656,234.781 478.125,118.687 c 0.938,3 1.875,6 1.875,9.313 l 0,256 c 0,2.219 -0.844,4.188 -1.281,6.281 L 342.656,234.781 Z M 448,96 c 2.125,0 4,0.813 6,1.219 L 256,266.938 58,97.219 C 60,96.813 61.875,96 64,96 l 384,0 z M 33.266,390.25 C 32.828,388.156 32,386.219 32,384 l 0,-256 c 0,-3.313 0.953,-6.313 1.891,-9.313 L 169.313,234.75 33.266,390.25 Z M 64,416 c -3.234,0 -6.172,-0.938 -9.125,-1.844 l 138.75,-158.563 51.969,44.531 c 2.984,2.595 6.703,3.876 10.406,3.876 3.703,0 7.422,-1.281 10.406,-3.875 l 51.969,-44.531 138.75,158.563 C 454.188,415.062 451.25,416 448,416 l -384,0 z"
                 inkscape:connector-curvature="0"
                 style="fill:#ffffff" /></g><g
               id="g4231" /><g
               id="g4233" /><g
               id="g4235" /><g
               id="g4237" /><g
               id="g4239" /><g
               id="g4241" /><g
               id="g4243" /><g
               id="g4245" /><g
               id="g4247" /><g
               id="g4249" /><g
               id="g4251" /><g
               id="g4253" /><g
               id="g4255" /><g
               id="g4257" /><g
               id="g4259" /></g><g
             transform="matrix(0.13562945,0,0,0.13562946,272.38595,384.94058)"
             id="layer1"
             inkscape:label="Layer 1"><g
               transform="translate(-147.66175,-92.359713)"
               id="g3351"><path
                 sodipodi:nodetypes="ccccccccccccccccccccccccc"
                 inkscape:connector-curvature="0"
                 id="path3365"
                 d="m 246.34807,606.00291 c -31.08366,-15.81146 -19.42937,-55.89362 -22.28775,-83.99859 -0.93461,-95.17918 -1.91475,-190.4091 1.7365,-285.54698 6.4792,-33.67247 47.27113,-27.12758 72.68898,-27.32772 170.74528,-1.16569 335.98109,-0.22807 510.22306,0.0465 34.14575,0.2803 28.92004,53.70474 27.9966,80.37345 1.14326,96.88542 1.9684,190.96473 0.9021,287.81247 -0.45079,33.31866 -49.44538,31.2966 -75.01287,31.06416 -42.64154,0.41631 -85.43888,1.48292 -127.90527,-3.22432 -21.39776,-7.96179 -29.28468,-56.61402 -44.92882,-84.13846 -11.80962,-27.94218 -21.01842,-71.79707 -58.62025,-72.53339 -33.61119,-1.34228 -44.92698,34.09416 -55.14967,59.39795 -12.02487,29.71124 -22.42367,60.25719 -38.22705,88.26693 -22.20547,20.04593 -54.48679,8.1127 -81.32827,12.18328 -36.69873,0.26075 -73.51407,1.42222 -110.08729,-2.37532 z M 400.79191,476.04418 c 48.85644,-6.2265 74.49919,-72.56112 42.40662,-110.08481 -23.15848,-32.08519 -76.44884,-34.10696 -100.62948,-2.03973 -25.76874,28.90071 -19.94011,78.32097 12.40887,99.99422 12.84738,9.74783 29.66633,15.76122 45.81399,12.13032 z m 289.14941,-3.20907 c 41.48655,-14.16471 59.36699,-72.10682 30.34963,-106.02044 -21.47395,-31.22222 -71.34476,-36.15114 -96.9325,-7.19918 -31.46366,30.63329 -24.00532,90.80175 16.82435,109.71544 15.1319,7.95658 33.6993,9.73533 49.75852,3.50418 z"
                 style="fill:#ffffff;fill-opacity:1" /></g></g><g
             id="g4216"
             transform="matrix(0.83399242,0,0,0.83399233,375.29659,386.41648)"><g
               transform="matrix(0.14446286,0,0,0.14446286,19.210233,17.177321)"
               id="g3374"><g
                 id="g3334" /><g
                 id="g3338" /><g
                 id="g3340" /><g
                 id="g3342" /><g
                 id="g3344" /><g
                 id="g3346" /><g
                 id="g3348" /><g
                 id="g3350" /><g
                 id="g3352" /><g
                 id="g3354" /><g
                 id="g3356" /><g
                 id="g3358" /><g
                 id="g3360" /><g
                 id="g3362" /><g
                 id="g3364" /><g
                 id="g3366" /></g><path
               id="path3"
               d="M 50,0 C 22.386,0 0,22.386 0,50 0,77.614 22.386,100 50,100 77.614,100 100,77.614 100,50 100,22.386 77.614,0 50,0 Z m 17.710938,17.177734 c 4.484741,0 8.970252,1.711138 12.392578,5.132813 6.841327,6.843061 6.841327,17.938333 0,24.78125 L 67.708984,59.482422 c -6.840605,6.84465 -17.937535,6.84465 -24.779296,0 -1.077693,-1.074659 -1.921738,-2.286419 -2.66211,-3.535156 l 5.759766,-5.757813 c 0.273757,-0.276068 0.610575,-0.434737 0.933594,-0.621094 0.398139,1.360263 1.094315,2.648858 2.164062,3.71875 3.416258,3.419003 8.974437,3.414236 12.388672,0 L 73.904297,40.896484 c 3.418858,-3.418569 3.418858,-8.976609 0,-12.392578 -3.41438,-3.415969 -8.9722,-3.415969 -12.390625,0 l -4.40625,4.41211 C 53.531966,31.523827 49.679654,31.149682 45.929688,31.699219 l 9.390624,-9.388672 c 3.422326,-3.421675 7.905884,-5.132813 12.390626,-5.132813 z M 49.125,35.763672 c 4.484976,0 8.968658,1.711137 12.388672,5.132812 1.078126,1.075815 1.926504,2.283461 2.662109,3.53711 l -5.759765,5.755859 c -0.273613,0.274046 -0.606744,0.426422 -0.931641,0.615235 -0.401896,-1.358529 -1.098724,-2.645311 -2.166016,-3.712891 -3.415968,-3.41828 -8.969958,-3.41828 -12.388671,0 L 30.537109,59.482422 c -3.416257,3.417558 -3.416257,8.975529 0,12.394531 3.416547,3.414235 8.97661,3.414235 12.392579,0 l 4.408203,-4.412109 c 3.572422,1.389588 7.425745,1.767558 11.177734,1.214844 L 49.125,78.070312 c -6.843206,6.841184 -17.939853,6.841184 -24.783203,0 -6.842628,-6.844794 -6.842628,-17.93783 0,-24.783203 L 36.732422,40.896484 C 40.154097,37.474809 44.640024,35.763672 49.125,35.763672 Z"
               style="clip-rule:evenodd;fill:#ffffff;fill-opacity:1;fill-rule:evenodd"
               inkscape:connector-curvature="0" /></g><g
             id="g4260"
             transform="matrix(0.83399242,0,0,0.83399233,467.96241,386.41648)"><path
               id="path3-3"
               d="M 50,0 C 22.386,0 0,22.386 0,50 0,77.614 22.386,100 50,100 77.614,100 100,77.614 100,50 100,22.386 77.614,0 50,0 Z M 27.484375,41.914062 c 4.546563,0 8.267578,3.719058 8.267578,8.265626 0,4.546557 -3.721015,8.267578 -8.267578,8.267578 -4.546569,0 -8.265625,-3.721021 -8.265625,-8.267578 0,-4.546568 3.719056,-8.265626 8.265625,-8.265626 z m 24.798828,0 c 4.546577,0 8.267578,3.719058 8.267578,8.265626 0,4.546557 -3.721001,8.267578 -8.267578,8.267578 -4.546567,0 -8.265625,-3.721021 -8.265625,-8.267578 0,-4.546568 3.719058,-8.265626 8.265625,-8.265626 z m 24.800781,0 c 4.546558,0 8.265625,3.719058 8.265625,8.265626 0,4.546557 -3.719067,8.267578 -8.265625,8.267578 -4.546567,0 -8.267578,-3.721021 -8.267578,-8.267578 0,-4.546568 3.721011,-8.265626 8.267578,-8.265626 z"
               style="clip-rule:evenodd;fill:#ffffff;fill-opacity:1;fill-rule:evenodd"
               inkscape:connector-curvature="0" /><g
               transform="matrix(0.92848667,0,0,0.92848667,-51.721588,-91.520424)"
               id="g3438"><g
                 id="g3397"><g
                   id="more-horiz" /></g><g
                 id="g3402" /><g
                 id="g3404" /><g
                 id="g3406" /><g
                 id="g3408" /><g
                 id="g3410" /><g
                 id="g3412" /><g
                 id="g3414" /><g
                 id="g3416" /><g
                 id="g3418" /><g
                 id="g3420" /><g
                 id="g3422" /><g
                 id="g3424" /><g
                 id="g3426" /><g
                 id="g3428" /><g
                 id="g3430" /></g></g></g></g></g></g><g
     id="g17"
     transform="translate(0,-381.78319)" /><g
     id="g19"
     transform="translate(0,-381.78319)" /><g
     id="g21"
     transform="translate(0,-381.78319)" /><g
     id="g23"
     transform="translate(0,-381.78319)" /><g
     id="g25"
     transform="translate(0,-381.78319)" /><g
     id="g27"
     transform="translate(0,-381.78319)" /><g
     id="g29"
     transform="translate(0,-381.78319)" /><g
     id="g31"
     transform="translate(0,-381.78319)" /><g
     id="g33"
     transform="translate(0,-381.78319)" /><g
     id="g35"
     transform="translate(0,-381.78319)" /><g
     id="g37"
     transform="translate(0,-381.78319)" /><g
     id="g39"
     transform="translate(0,-381.78319)" /><g
     id="g41"
     transform="translate(0,-381.78319)" /><g
     id="g43"
     transform="translate(0,-381.78319)" /><g
     id="g45"
     transform="translate(0,-381.78319)" /></svg>