<svg xmlns="http://www.w3.org/2000/svg" viewBox="0 0 1111.9898 92.665818" width="1200" height="100"><path d="M9.267 4.633l6.702 75.092 30.076 8.308 30.16-8.299 6.708-75.1H9.267zm59.706 17.779l-.42 4.804-.185 2.204h-35.28l.841 9.378h33.6l-.225 2.326-2.166 24.196-.16 1.52-18.888 5.192-.023.013-18.876-4.973-1.281-14.206h9.254l.656 7.315 10.241 2.734h.029v-.366l10.286-2.596 1.075-11.776H25.498L23.23 22.642l-.22-2.601h46.183l-.221 2.37z" fill="#e44d26"/><path d="M101.932 4.633l6.684 75.037 29.992 8.363 30.075-8.393 6.689-75.007h-73.44zm59.554 17.192l-2.224 24.997.006.135-.01.31v-.003l-1.58 17.479-.174 1.552-18.852 5.215-.015.013-18.819-5.244-1.274-14.45h9.228l.655 7.348 10.228 2.772-.003.005v-.001l10.265-2.811 1.085-11.966h-21.46l-.184-2.023-.42-4.739-.22-2.544h23.1l.84-9.307h-35.182l-.184-2.021-.419-4.74-.22-2.545h46.053l-.22 2.567z" fill="#1572b6"/><path d="M189.965 4.633v83.4h83.4v-83.4h-83.4zm44.114 71.065c-1.23 2.501-3.58 4.145-6.304 4.938-4.184.96-8.185.413-11.162-1.374-1.993-1.222-3.548-3.104-4.605-5.271l6.352-3.89c.055.023.222.325.445.715.81 1.357 1.509 2.317 2.882 2.992 1.349.46 4.31.755 5.454-1.62.699-1.207.476-5.089.476-9.383 0-6.75.031-13.47.031-20.142h7.812c0 7.34.04 14.29 0 21.452.017 4.39.398 8.304-1.38 11.583zm32.408-2.207c-2.715 9.289-17.855 9.59-23.905 3.453-1.279-1.444-2.08-2.199-2.842-3.866 3.215-1.85 3.215-1.85 6.343-3.66 1.7 2.613 3.27 4.049 6.098 4.637 3.835.468 7.693-.85 6.828-4.923-.89-3.326-7.853-4.136-12.592-7.693-4.811-3.231-5.939-11.083-1.985-15.57 1.318-1.658 3.565-2.897 5.923-3.492l2.46-.318c4.725-.096 7.678 1.152 9.845 3.573.604.61 1.096 1.27 2.017 2.698-2.517 1.604-2.509 1.59-6.114 3.923-.77-1.659-2.047-2.7-3.398-3.152-2.096-.635-4.74.055-5.288 2.27-.19.683-.15 1.318.151 2.446.85 1.937 3.7 2.779 6.257 3.954 7.36 2.985 9.845 6.185 10.456 9.995.588 3.28-.142 5.407-.254 5.725z" fill="#f0db4f"/><path d="M312.915 57.63l.131.064.235.113c.3.143.602.284.906.42l.192.085c.35.154.702.3 1.058.44l.258.1c.328.13.663.253.997.371l.126.043c.367.128.738.248 1.113.364l.27.08c.38.116.756.253 1.148.326 24.93 4.545 32.171-14.982 32.171-14.982-6.082 7.924-16.877 10.014-27.106 7.687-.387-.087-.764-.209-1.142-.32l-.284-.087a35.022 35.022 0 0 1-1.1-.357l-.15-.054a34.852 34.852 0 0 1-.97-.36l-.27-.106a29.344 29.344 0 0 1-1.047-.435l-.21-.093c-.296-.134-.59-.27-.882-.41l-.256-.123c-.229-.112-.456-.232-.682-.348l-.456-.239a25.876 25.876 0 0 1-.818-.459l-.276-.154a40.05 40.05 0 0 1-1.066-.653l-.287-.191a28.112 28.112 0 0 1-.758-.504l-.244-.172c-.242-.17-.48-.343-.717-.519l-.318-.24a32.32 32.32 0 0 1-.646-.505l-.289-.232c-.271-.224-.54-.448-.806-.678l-.088-.075a33.75 33.75 0 0 1-.848-.768l-.24-.23a28.479 28.479 0 0 1-.608-.596l-.239-.24a30.837 30.837 0 0 1-.747-.789l-.036-.04c-.259-.282-.511-.57-.758-.861l-.199-.236a30.552 30.552 0 0 1-.545-.674l-.2-.248a36.322 36.322 0 0 1-.629-.839c-5.678-7.746-7.719-18.43-3.18-27.203l-4.023 5.103c-5.155 7.408-4.513 17.048-.576 24.92l.289.56.185.355.114.204.205.368c.122.215.247.43.376.643l.214.354c.142.23.287.456.437.682l.185.288c.206.306.416.611.632.911l.018.024.107.144c.187.259.38.514.575.766l.217.275c.174.22.352.438.532.655l.203.242c.242.285.49.57.742.847l.015.015.028.032a43 43 0 0 0 .753.794l.242.243c.197.2.398.395.601.59l.246.234c.271.255.545.505.824.75l.014.01.143.124c.246.212.497.425.75.633l.31.246c.206.166.414.329.625.489l.333.253c.232.171.465.339.7.503l.256.182.07.05c.224.153.453.3.681.449l.295.196c.35.222.706.44 1.065.652l.295.167c.264.152.53.301.799.447l.442.23.573.297zm2.518-25.094c.559.8 1.178 1.753 1.919 2.396.269.296.55.584.836.869l.221.217c.279.27.562.535.854.793l.035.03.008.01c.324.283.658.556.998.825l.227.177c.341.261.688.518 1.044.762l.031.023.476.314.227.15c.254.162.511.322.774.473l.109.063c.225.13.455.259.684.383l.243.128.478.247.073.033c.328.161.66.317.998.465l.22.09a25 25 0 0 0 .818.333l.35.128c.25.093.5.177.752.261l.34.11c.36.11.713.251 1.087.313 19.247 3.19 23.691-11.63 23.691-11.63-4.006 5.768-11.763 8.52-20.041 6.372a23.06 23.06 0 0 1-1.09-.315l-.328-.106c-.256-.082-.51-.17-.762-.262l-.344-.129c-.276-.106-.55-.216-.821-.33l-.221-.095a21.35 21.35 0 0 1-1.004-.467l-.504-.256-.29-.15a24.237 24.237 0 0 1-.638-.359l-.152-.087a24.45 24.45 0 0 1-.772-.47l-.232-.156-.5-.33c-.355-.245-.7-.5-1.04-.76l-.234-.185c-3.623-2.86-6.495-6.77-7.86-11.204-1.432-4.596-1.123-9.758 1.356-13.946l-3.046 4.3c-3.728 5.365-3.525 12.547-.617 18.22.487.95 1.034 1.874 1.647 2.752zm20.288-6.637l.478.166.21.067c.228.07.452.154.686.198 10.628 2.053 13.511-5.454 14.278-6.559-2.525 3.636-6.768 4.508-11.976 3.244a13.2 13.2 0 0 1-1.26-.389 15.621 15.621 0 0 1-1.495-.62 15.466 15.466 0 0 1-2.623-1.6c-4.66-3.537-7.554-10.28-4.514-15.773L327.86 6.9c-2.197 3.235-2.413 7.252-.889 10.823 1.609 3.792 4.904 6.765 8.75 8.176zm-10.259 43.513h-2.882a.379.379 0 0 0-.353.284l-1.023 4.733-1.023 4.733a.378.378 0 0 1-.351.284h-2.04c-2.018 0-1.785-1.396-1.372-3.308l.013-.058.045-.241.008-.045.092-.491.099-.526.105-.536.465-2.272.465-2.272a.23.23 0 0 0-.232-.286h-2.958a.375.375 0 0 0-.35.285l-.637 3.017-.635 3.018-.001.004-.06.28c-.732 3.345-.538 6.534 3.444 6.635l.116.002h6.249c.16 0 .318-.128.352-.285l1.347-6.335 1.348-6.336a.227.227 0 0 0-.23-.285zm-30.864-.034h-3.165c-.16 0-.32.128-.355.284l-.3 1.324-.3 1.325c-.035.156.067.283.227.283h3.189a.38.38 0 0 0 .353-.284l.29-1.324.29-1.323c.033-.157-.069-.285-.23-.285zm-.918 4.122h-3.19c-.16 0-.32.128-.355.284l-.448 1.984-.448 1.984-.125.57-.43 2.025-.43 2.026a6.113 6.113 0 0 1-.153.56s-.596 1.773-1.598 1.753l-.125-.003-.867-.016a.38.38 0 0 0-.358.277l-.331 1.391-.33 1.39c-.038.155.063.284.222.286.568.007 1.84.022 2.61.022 2.503 0 3.823-1.387 4.668-5.377l.99-4.579.928-4.294c.033-.155-.07-.283-.23-.283zm58.731-1.073l-.132-.547-.13-.559-.066-.282c-.26-1.007-1.02-1.588-2.672-1.588l-2.571-.003-2.368-.004h-2.664a.377.377 0 0 0-.352.285l-.118.556-.139.657-.039.185-1.2 5.62-1.138 5.335c-.034.156-.045.349-.026.426.019.079.327.143.486.143h2.404c.16 0 .362-.029.45-.064.087-.036.216-.35.248-.506l.427-2.114.427-2.114.001-.004.057-.281.519-2.428.457-2.145a.378.378 0 0 1 .352-.284l7.562-.004c.16.001.261-.126.225-.282zm9.736-4.938l-.583.002h-2.42a.616.616 0 0 0-.455.24l-5.353 7.842c-.09.133-.193.114-.228-.042l-.395-1.727a.383.383 0 0 0-.356-.284h-3.44c-.16 0-.255.125-.212.279l1.542 5.402c.044.154.047.406.008.562l-.671 2.614c-.04.156.058.282.218.282h3.4c.16 0 .324-.127.364-.282l.672-2.614c.04-.156.15-.387.248-.515l8.69-11.533c.097-.128.044-.233-.115-.231l-.914.005zm-27.339 6.765v-.003a.35.35 0 0 1-.34.3h-4.363c-.151 0-.228-.102-.205-.229l.004-.01-.003.001.002-.014.02-.075c.416-1.107 1.265-1.834 2.86-1.834 1.796 0 2.147.876 2.025 1.863zm-1.28-5.036c-5.6 0-6.927 3.399-7.672 6.83-.744 3.497-.68 6.766 5.115 6.766h.918l.696-.002h.012c1.53-.006 3.066-.018 3.687-.023a.377.377 0 0 0 .347-.286l.235-1.147.046-.223.28-1.368a.229.229 0 0 0-.233-.285h-5.21c-2.073 0-2.688-.55-2.46-2.17h8.327v.001h.004a.343.343 0 0 0 .304-.215l.02-.073-.001.001c1.236-4.664.882-7.805-4.415-7.806zm-26.468 5.018l-.08.279-.628 2.23-.629 2.228a.407.407 0 0 1-.37.28h-3.328c-2.525 0-3.14-1.975-2.525-4.887.614-2.98 1.82-4.831 4.305-5.019 3.396-.256 4.075 2.132 3.255 4.889zm2.283 4.846s1.57-3.811 1.925-6.011c.487-2.946-.988-7.22-6.686-7.22-5.665 0-8.125 4.08-9.064 8.515-.938 4.467.292 8.383 5.924 8.351l4.444-.016 4.153-.015a.402.402 0 0 0 .364-.282l.724-2.76c.04-.155-.058-.282-.218-.283l-.694-.004-.693-.004c-.136-.001-.214-.09-.197-.206l.018-.065zm28.044-2.552a.191.191 0 1 1-.382.001.191.191 0 0 1 .382 0z" fill="#0868ac"/><path d="M375.297 40.548c0 .467.137.775.214 1.074.502 1.949 1.582 3.62 2.862 5.146 1.824 2.173 4.058 3.923 6.347 5.568 1.984 1.427 4.01 2.822 6.002 4.238.343.243.666.523 1.037.821-.32.173-.585.325-.861.465-2.63 1.334-5.16 2.829-7.492 4.64-1.406 1.092-2.765 2.253-3.725 3.77-1.544 2.438-2.09 5.037-.94 7.812.336.81.85 1.51 1.573 2.028.234.167.497.333.771.398.703.166 1.42.274 2.13.405l2.015-.001c2.228-.199 4.256-.962 6.089-2.227 2.864-1.977 4.794-4.627 5.623-8.029.604-2.472.628-4.947-.083-7.408a7.745 7.745 0 0 0-.235-.674c-.086-.22-.188-.436-.307-.712l4.567-2.626.069.058c-.083.272-.172.543-.247.817-.543 1.982-.903 3.999-.774 6.056.138 2.192.75 4.244 2.034 6.075 1.037 1.482 3.51 1.537 4.612.05.391-.528.77-1.08 1.056-1.669.744-1.538 1.434-3.103 2.145-4.657l.124-.284c-.05.736-.11 1.382-.138 2.029-.042 1.01.017 2.015.362 2.976.296.822.799 1.437 1.74 1.545.645.074 1.158-.221 1.632-.595a6.898 6.898 0 0 0 1.787-2.125c1.263-2.32 2.56-4.624 3.704-7.001 1.238-2.572 2.321-5.218 3.471-7.833l.19-.464c.272 1.067.461 2.113.81 3.103.405 1.148.906 2.27 1.452 3.36.259.514.229.848-.13 1.28-1.498 1.807-2.97 3.636-4.444 5.462-.326.404-.651.814-.923 1.254a2.459 2.459 0 0 0-.319.906c-.088.597.28 1.172.919 1.31a6.417 6.417 0 0 0 1.799.128c2.057-.152 3.925-.874 5.576-2.097 2.14-1.585 2.826-3.748 2.308-6.311-.14-.696-.388-1.372-.629-2.042-.108-.302-.115-.514.082-.796 1.71-2.442 3.172-5.034 4.53-7.685.055-.104.11-.208.204-.32.44 2.292 1.103 4.5 2.291 6.505-.606.583-1.206 1.113-1.748 1.696-1.195 1.285-2.231 2.68-2.772 4.38-.233.734-.411 1.48-.308 2.263.161 1.216 1.157 2.006 2.354 1.73 2.56-.593 4.77-1.8 6.385-3.936 1.086-1.44 1.185-3.044.73-4.725-.125-.457-.273-.907-.432-1.431.631-.196 1.247-.431 1.884-.577 3.308-.754 6.579-.623 9.766.572 1.86.697 3.364 1.864 4.255 3.7 1.089 2.245.487 4.374-1.629 5.793-.197.132-.423.237-.586.402a.577.577 0 0 0-.136.445c.014.082.23.184.354.183.695-.005 1.26-.37 1.8-.745 1.357-.938 2.347-2.201 2.56-3.864l.042-.125-.051-1.082c-.02-.063.015-.125.01-.172-.288-2.421-1.581-4.299-3.462-5.77-2.18-1.705-4.752-2.406-7.473-2.517-2.217-.09-4.396.24-6.486.998-.596.216-1.186.472-1.785.713-.08-.145-.167-.285-.238-.429-.615-1.26-1.36-2.463-1.525-3.907-.117-1.026-.26-2.05-.017-3.064.235-.976.54-1.935.828-2.898.148-.495.044-.773-.43-.996a1.896 1.896 0 0 0-.521-.171 8.041 8.041 0 0 0-3.435.255c-.399.116-.688.339-.777.78-.05.253-.153.496-.225.745-.294 1.039-.503 2.097-.978 3.086-1.192 2.48-2.553 4.868-3.945 7.238-.15.256-.31.507-.5.817-.488-1.023-1.01-1.94-1.168-3.017-.178-1.217-.32-2.432-.016-3.64.225-.9.52-1.784.79-2.673.128-.422.07-.644-.313-.867a1.843 1.843 0 0 0-.63-.244 7.734 7.734 0 0 0-3.556.29c-.361.118-.55.35-.66.723-.325 1.097-.601 2.221-1.056 3.265-1.843 4.224-3.739 8.427-5.632 12.629-.396.877-.859 1.724-1.304 2.579-.113.216-.278.407-.419.61-.113-.133-.157-.225-.156-.317.004-.54-.061-1.096.042-1.618.312-1.58.67-3.15 1.048-4.715.312-1.293.676-2.574 1.022-3.858.116-.43.118-.831-.19-1.193-.52-.605-1.604-.738-2.247-.271l-.284.16.055-.458c.136-.982.163-1.962-.107-2.93-.336-1.206-1.197-1.9-2.448-1.861-.583.018-1.196.117-1.736.33-2.271.89-4.017 2.466-5.504 4.363a1.722 1.722 0 0 1-.503.434c-1.921 1.066-3.85 2.118-5.776 3.174l-2.145 1.175c-.575-.549-1.098-1.118-1.691-1.6-1.812-1.478-3.652-2.919-5.476-4.38-1.617-1.294-3.183-2.643-4.382-4.357-.891-1.275-1.466-2.671-1.52-4.248-.07-2.01.5-3.845 1.522-5.554 1.309-2.187 3.094-3.942 5.056-5.532 2.076-1.68 4.321-3.107 6.648-4.41 3.255-1.822 6.604-3.434 10.194-4.5 3.681-1.091 7.416-1.716 11.27-1.28 1.514.17 2.984.518 4.335 1.258 1.034.567 1.882 1.309 2.277 2.469.389 1.14.377 2.297.107 3.456-.548 2.348-1.833 4.283-3.45 6.012-2.653 2.834-5.89 4.764-9.533 6.038a26.223 26.223 0 0 1-6.487 1.384c-1.812.152-3.587-.009-5.304-.639-1.136-.418-2.126-1.057-2.922-1.984-.142-.166-.324-.346-.589-.19-.26.152-.305.4-.218.65.145.415.28.849.506 1.22.57.934 1.4 1.61 2.313 2.191 1.756 1.117 3.718 1.492 5.753 1.58 3.087.133 6.1-.328 9.07-1.157 4.24-1.182 7.926-3.27 10.883-6.565 2.461-2.743 4.22-5.84 4.596-9.578.184-1.825-.012-3.612-.866-5.277-.927-1.803-2.4-3.144-4.162-4.068-2.565-1.345-5.333-2.129-8.191-2.129h-2.863c-3.46 0-6.807.992-10.059 2.175a69.096 69.096 0 0 0-7.219 3.124c-5.103 2.55-9.856 5.625-13.76 9.853-1.945 2.106-3.591 4.43-4.539 7.167-.277.801-.54 1.66-.738 2.489m18.493 23.921c-.222 2.962-1.564 5.363-3.758 7.308-1.234 1.094-2.65 1.872-4.298 2.146-.598.099-1.21.123-1.79-.125-.827-.353-1.012-1.087-1.028-1.87-.025-1.245.412-2.372 1.01-3.444.781-1.398 1.926-2.463 3.15-3.458 1.926-1.568 4.015-2.896 6.156-4.148l.161-.067c.33 1.222.488 2.43.397 3.658zm16.71-12.872a22.347 22.347 0 0 1-.627 2.809c-.955 3.173-2.182 6.248-3.508 9.281-.246.562-.602 1.074-.912 1.606a1.12 1.12 0 0 1-.188.222c-.384.379-.748.36-.942-.137-.226-.577-.365-1.194-.485-1.804-.08-.41-.06-.84-.086-1.26.026-2.985.937-5.698 2.482-8.224.637-1.041 1.33-2.034 2.39-2.693.325-.202.69-.365 1.06-.469.564-.158.91.103.817.669zM421.96 64.92l4.098-4.785c.17 1.777-2.85 5.324-4.098 4.785zm13.088-3.22c-.29.166-.605.286-.902.439-.272.14-.362-.001-.37-.235a1.592 1.592 0 0 1 .062-.48c.553-1.95 1.572-3.617 3.087-4.972l.106-.054c.72 2.016-.112 4.23-1.983 5.302z" clip-rule="evenodd" fill="#cb6699" fill-rule="evenodd"/><path d="M549.809 42.618L513.395 6.206a5.372 5.372 0 0 0-7.596 0l-7.56 7.562 9.591 9.592a6.377 6.377 0 0 1 8.077 8.13l9.244 9.246a6.378 6.378 0 0 1 6.603 1.516 6.387 6.387 0 0 1 0 9.038 6.39 6.39 0 0 1-10.43-6.951l-8.621-8.621-.001 22.688a6.4 6.4 0 0 1 1.69 1.207 6.392 6.392 0 0 1-9.037 9.04c-2.496-2.5-2.7-6.544-.205-9.04.617-.616 1.225-1.082 1.886-1.394V35.321c-.66-.312-1.269-.774-1.887-1.395-1.89-1.889-2.244-4.664-1.274-6.987l-9.403-9.456-24.943 24.967c-2.098 2.099-2.084 5.5.013 7.598l36.42 36.412a5.377 5.377 0 0 0 7.6 0l36.245-36.243a5.375 5.375 0 0 0 .003-7.599z" fill="#f34f29"/><path d="M583.81 26.998l1.786 18.831c.983-1.69 1.694-3.311 2.767-4.639 1-1.237 2.259-2.378 3.63-3.169 1.788-1.032 4.134-.06 4.714 1.771.156.491-.216 1.15-.346 1.732-.438-.231-1.002-.359-1.288-.712-1.215-1.502-1.946-1.68-3.29-.382-2.505 2.423-3.914 5.458-4.452 8.868-.104.66.309 1.4.483 2.104.685-.236 1.48-.323 2.033-.735 1.8-1.339 2.915-3.16 3.53-5.338.133-.471.857-.775 1.31-1.157.216.446.71.971.607 1.324a253.228 253.228 0 0 1-3.073 9.774c-.11.328-.712.492-1.087.731-.15-.43-.468-.882-.418-1.287.114-.92.41-1.818.617-2.66l-4.905 2.257c.275 3.131.56 6.644.897 10.151.258 2.679.697 3.373 3.335 3.88 3.078.593 6.214.972 9.343 1.202a40.91 40.91 0 0 0 13.704-1.29c1.674-.45 2.342-1.55 2.462-3.195.11-1.514.355-3.018.525-4.528.334-2.975.659-5.95 1-9.05-1.13.716-2.017 1.517-3.056 1.856-.756.247-1.71-.114-2.576-.205.166-.795.156-1.692.54-2.362.624-1.096 1.506-2.047 2.278-3.059l-.333-.4c-.553.327-1.24.542-1.634 1.006-.8.944-1.585 1.955-2.12 3.062-.897 1.852-1.58 3.808-2.384 5.708-.348.823-.65 2.083-1.818 1.602-1.25-.515-.37-1.616-.077-2.399.467-1.25 1.083-2.443 1.5-3.361-1.182.14-2.381.31-3.586.416-.51.043-1.115-.236-1.531-.048-1.386.626-2.264.375-2.552-1.159-.641.417-1.184.981-1.825 1.133-.777.185-1.83.306-2.4-.082-.456-.311-.622-1.48-.466-2.165.31-1.363.888-2.673 1.438-3.97.34-.802.682-2.084 1.83-1.526 1.133.551.104 1.48-.158 2.226-.406 1.153-.819 2.304-1.228 3.456l.65.393c.62-.538 1.391-.976 1.825-1.636.71-1.079 1.138-2.339 1.81-3.445.279-.46.878-.722 1.333-1.073.092.583.313 1.184.24 1.747-.073.57-.473 1.09-.665 1.655-.288.844-.52 1.707-.813 2.688 1.384.053 1.977-.53 2.368-1.557 1.237-3.247 2.487-6.49 3.847-9.687.232-.548 1.022-.857 1.555-1.277.062.66.356 1.408.147 1.964-1.115 2.946-2.366 5.84-3.542 8.763-.198.492-.262 1.039-.387 1.56 2.072-.931 3.801-1.96 4.433-4.163.154-.535.787-.933 1.2-1.394l.959 1.016c.29-.245.558-.524.874-.728.996-.642 2.068-1.207 3.118-.214 1.087 1.028.265 2.03-.303 2.918-.618.97-1.375 1.85-2.071 2.768 1.566-1.01 3.705-1.462 3.99-3.643.693-5.328 1.303-10.667 1.921-16.004.184-1.58.282-3.17.425-4.816-12.336 2.987-24.407 3.005-36.64-.047zm5.294 41.573c.594 1.57 1.497 3.111 1.733 4.75.5 3.486.626 7.026.98 10.536.051.511.382 1.214.796 1.439 6.083 3.306 12.225 3.879 18.432.263.926-.539 1.097-1.25 1.217-2.252.58-4.865-.712-10.025 2.398-14.605-8.709 2.16-17.209 2.227-25.556-.131zm20.994-40.7c2.955-.285 5.874-.978 8.797-1.552.55-.107 1.04-.527 1.557-.802-.682-.6-1.272-.888-1.889-.96-3.068-.363-6.148-.642-9.215-1.022-.463-.058-1.29-.63-1.256-.734.895-2.696.851-5.748 2.882-8.02 2.567-2.872 5.16-5.72 7.734-8.568-1.915-2.06-1.94-2.062-3.675-.26-.981 1.02-1.878 2.134-2.942 3.057-3.938 3.413-6.704 7.455-7.243 12.784-.124 1.223-.795 1.665-2.079 1.684-4.238.061-8.48.178-12.709.456-2.095.138-4.165.676-6.246 1.032l-.02.778c1.303.402 2.58.93 3.911 1.185 7.414 1.421 14.898 1.665 22.393.942zm-2.368-1.861c-1.678 1.355-3.065 1.355-4.404 0h4.404z" clip-rule="evenodd" fill="#eb4a4b" fill-rule="evenodd"/><path d="M703.134 47.069c-1.557-.513-3.799-.402-6.725-.402h-11.757v15.345h12.573c1.964 0 3.344-.21 4.138-.357 1.4-.25 2.572-.737 3.512-1.322.94-.585 1.714-1.472 2.32-2.59.607-1.118.91-2.426.91-3.89 0-1.713-.439-3.029-1.317-4.294-.878-1.265-2.096-1.978-3.654-2.49zm-1.614-7.016c1.546-.46 2.712-1.261 3.496-2.327.784-1.066 1.176-2.422 1.176-4.032 0-1.526-.367-2.879-1.098-4.04-.732-1.16-1.776-1.61-3.136-2.039-1.359-.427-3.69-.297-6.992-.297h-10.314v13.344h11.067c2.697 0 4.63-.254 5.801-.61zm35.173-24.328c0-6.126-4.966-11.092-11.092-11.092h-61.215c-6.126 0-11.092 4.966-11.092 11.092V76.94c0 6.127 4.966 11.093 11.092 11.093h61.215c6.126 0 11.092-4.966 11.092-11.093V15.725zm-23.65 44.115c-.909 1.85-2.033 3.277-3.37 4.28-1.339 1.004-3.017 1.855-5.034 2.368-2.016.513-4.489.862-7.414.862h-18.578V21.313h18.295c3.512 0 6.328.406 8.45 1.336 2.122.93 3.783 2.333 4.986 4.267 1.202 1.933 1.803 3.94 1.803 6.052 0 1.965-.534 3.808-1.6 5.543-1.065 1.736-2.675 3.132-4.828 4.198 2.78.815 4.918 2.204 6.412 4.168 1.495 1.965 2.242 4.285 2.242 6.96 0 2.154-.454 4.154-1.364 6.003z" fill="#5b4282"/><path d="M787.591 88.032c22.938-.034 41.506-18.693 41.506-41.709 0-22.642-18.482-41.289-40.563-41.683-23.19-.414-42.568 18.404-42.574 41.222-.006 23.476 18.478 42.204 41.631 42.17zm-.067-81.373c22.022-.007 39.568 17.885 39.562 40.34-.007 21.201-18.02 38.936-39.546 38.94-21.931.005-39.568-17.776-39.567-39.89 0-21.544 17.912-39.383 39.55-39.39zm-16.621 20.924c.36 1.2-.648 1.617-1.72 1.701l-3.563.272c4.32 12.872 8.576 25.553 12.933 38.529.31-.508.438-.651.494-.819 2.392-7.148 4.797-14.292 7.128-21.46.213-.655.107-1.52-.125-2.192-1.234-3.56-2.711-7.043-3.793-10.646-.74-2.467-1.72-4.063-4.636-3.778-.497.05-1.103-1.02-1.66-1.572.673-.401 1.341-1.14 2.02-1.15 5.937-.09 11.876-.09 17.813.005.681.011 1.35.77 2.022 1.181-.59.538-1.097 1.345-1.786 1.553-1.105.334-2.33.27-3.652.389l12.949 38.52c1.961-6.515 3.786-12.498 5.56-18.497 1.584-5.354.64-10.354-2.222-15.07-.861-1.419-1.918-2.794-2.406-4.341-.554-1.76-1.015-3.762-.721-5.527.499-2.99 2.793-4.476 5.899-4.76C794.444 4.15 767.74 9.795 757.9 26.93c3.788-.175 7.404-.404 11.023-.454.684-.009 1.818.57 1.979 1.106zm6.77 52.18c-.078.23-.083.488-.145.871 7.323 2.03 14.505 1.884 21.856-.593l-11.23-30.757c-3.593 10.447-7.04 20.461-10.48 30.479zm-5.658-1.39l-16.919-46.411c-7.632 14.909-1.826 37.655 16.919 46.41zm51.147-29.823c.537-7.05-1.895-16.81-3.995-18.152-.235 2.593-.071 5.478-.815 8.107-1.752 6.193-3.893 12.28-5.956 18.382-2.242 6.633-4.572 13.236-6.864 19.853 10.77-6.384 16.687-15.806 17.63-28.19z" clip-rule="evenodd" fill="#494949" fill-rule="evenodd"/><path d="M871.285 31.57c-2.441-.614-4.887-.417-7.467-.015 0 4.513-.01 8.905.024 13.297.001.225.34.616.558.646 2.814.38 5.613.41 8.244-.872 2.723-1.326 4.11-4.1 3.75-7.356-.326-2.965-2.082-4.94-5.109-5.7zm50.904 14.82V6.15c0-1.39.015-1.516-1.335-1.516H840.27c-1.313 0-1.644.126-1.644 1.45v80.585c0 1.338.167 1.34 1.465 1.34 26.896 0 53.872-.006 80.768.025 1.043 0 1.323-.277 1.32-1.3-.035-13.447.01-26.896.01-40.343zm-46.854 3.873c-3.685 1.315-7.529 1.388-11.508 1.08v14.968h-7.295v-.93c0-12.531-.058-25.06-.093-37.591-.004-1.041.161-1.544 1.334-1.663 5.526-.565 11.02-1.2 16.515.088 5.906 1.384 9.312 5.29 9.57 10.684.32 6.681-2.615 11.257-8.523 13.364zm29.386 8.459c-.28 3.827-2.439 6.34-5.978 7.555-4.737 1.626-9.448 1.249-14.077-.59-.758-.303-.904-.685-.654-1.457.455-1.41.789-2.86 1.14-4.17 1.957.575 3.818 1.292 5.746 1.631 1.362.24 2.833.099 4.218-.118 1.24-.195 2.133-1.037 2.337-2.369.207-1.354-.201-2.526-1.396-3.246-.95-.572-1.997-.981-3-1.46-1.614-.772-3.333-1.377-4.821-2.342-5.857-3.798-3.95-10.865-.042-13.526 2.09-1.424 4.405-2.055 6.882-2.142 2.913-.102 5.719.4 8.474 1.74l-1.456 5.165c-1.154-.408-2.228-.939-3.362-1.15-1.346-.25-2.757-.39-4.115-.28-1.821.15-2.888 1.406-2.888 2.965 0 .923.35 1.704 1.12 2.152 1.105.643 2.278 1.173 3.44 1.71 1.257.582 2.585 1.03 3.795 1.693 3.23 1.77 4.911 4.51 4.637 8.239z" clip-rule="evenodd" fill="#80b5e2" fill-rule="evenodd"/><path d="M972.991 25.381c-23.03 0-41.7 9.462-41.7 21.133 0 11.67 18.67 21.132 41.7 21.132s41.7-9.461 41.7-21.132c0-11.671-18.67-21.133-41.7-21.133zm-10.85 25.25c-.996.93-2.1 1.315-3.318 1.71-1.217.398-2.765.316-4.648.316h-4.268l-1.183 6.825h-4.984l4.447-23.207h9.583c2.883 0 4.986.83 6.308 2.343s1.72 3.661 1.193 6.373a10.359 10.359 0 0 1-1.102 3.082 10.318 10.318 0 0 1-2.028 2.558zm14.545 2.026l1.967-9.843c.224-1.152.142-2.008-.247-2.426-.389-.42-1.216-.7-2.48-.7h-3.953l-2.546 12.969h-4.945l4.447-22.524h4.945l-1.183 6.142h4.405c2.772 0 4.683.557 5.735 1.523 1.051.967 1.367 2.29.946 4.456l-2.068 10.403h-5.023zm27.48-7.63a10.239 10.239 0 0 1-1.102 3.063 10.204 10.204 0 0 1-2.028 2.54c-.995.932-2.1 1.316-3.317 1.712-1.216.396-2.766.315-4.65.315h-4.267l-1.183 6.825h-4.983l4.446-23.207h9.584c2.883 0 4.986.83 6.307 2.343 1.321 1.513 1.719 3.698 1.192 6.41zm-9.389-5.339h-3.413l-1.861 9.556h3.031c2.009 0 3.506-.198 4.489-.956.984-.756 1.647-1.93 1.992-3.7.33-1.7.18-3.026-.45-3.725-.632-.7-1.894-1.175-3.788-1.175zm-38.895 0h-3.414l-1.861 9.556h3.031c2.009 0 3.506-.198 4.49-.956.983-.756 1.646-1.93 1.99-3.7.33-1.7.18-3.026-.45-3.725-.631-.7-1.892-1.175-3.786-1.175z" fill="#6181b6"/><path d="M1023.958 62.858h2.763V51.947l4.277 9.512c.505 1.152 1.196 1.559 2.55 1.559 1.356 0 2.02-.407 2.525-1.559l4.278-9.512v10.911h2.763V51.965c0-1.063-.425-1.577-1.302-1.842-2.1-.655-3.508-.088-4.146 1.329l-4.197 9.388-4.065-9.389c-.61-1.416-2.046-1.983-4.145-1.329-.877.266-1.302.78-1.302 1.842v10.894zm21.454-8.882h2.762v6.012c-.025.326.105 1.092 1.618 1.117.773.012 5.96 0 6.01 0v-7.159h2.768c.013 0 0 9.762 0 9.803.014 2.407-2.987 2.93-4.371 2.97h-8.725V64.86c.015 0 8.719.002 8.74 0 1.78-.188 1.569-1.072 1.568-1.369v-.725h-5.872c-2.732-.025-4.473-1.217-4.495-2.59 0-.125.06-6.14 0-6.2zm15.288 8.882h7.945c.93 0 1.834-.194 2.55-.53 1.196-.55 1.78-1.293 1.78-2.268v-2.02c0-.797-.663-1.541-1.965-2.036-.691-.266-1.542-.407-2.366-.407h-3.348c-1.116 0-1.647-.336-1.78-1.08-.026-.089-.026-.16-.026-.248V53.01c0-.07 0-.142.026-.23.133-.567.425-.727 1.409-.815l.265-.018h7.892v-1.841h-7.758c-1.116 0-1.7.07-2.232.23-1.647.514-2.365 1.328-2.365 2.745v1.612c0 1.24 1.409 2.303 3.773 2.55.266.018.531.036.797.036h2.87c.106 0 .212 0 .292.017.877.07 1.248.23 1.515.549.16.16.212.32.212.496v1.612c0 .194-.133.442-.399.655-.238.212-.637.354-1.168.39l-.293.018h-7.626v1.841zm29.514-3.205c0 1.894 1.408 2.957 4.25 3.17.266.018.532.035.797.035h7.201v-1.841h-7.253c-1.62 0-2.232-.408-2.232-1.383v-9.529h-2.763v9.548zm-15.475.095V53.18c0-1.668 1.172-2.68 3.488-3 .24-.035.506-.052.745-.052h5.246c.266 0 .505.017.771.053 2.316.32 3.489 1.33 3.489 3v6.567c0 1.355-.498 2.078-1.645 2.55l2.723 2.457h-3.209l-2.202-1.988-2.217.14h-2.956c-.506 0-1.038-.07-1.623-.23-1.758-.479-2.61-1.402-2.61-2.929zm2.983-.16c0 .09.026.179.053.285.16.764.879 1.19 1.97 1.19h2.51l-2.306-2.082h3.21l2.01 1.816c.37-.199.614-.5.7-.888.026-.089.026-.178.026-.266v-6.301c0-.07 0-.16-.026-.25-.16-.71-.88-1.117-1.944-1.117h-4.18c-1.225 0-2.024.533-2.024 1.367v6.247zm27.17-12.54c-1.697-.046-2.995.112-4.105.58-.315.133-.817.136-.869.53.173.183.2.454.338.677.265.429.712 1.003 1.111 1.304.435.329.885.681 1.353.966.83.508 1.758.797 2.56 1.304.47.3.94.677 1.4 1.015.228.166.38.426.676.53v-.047c-.155-.198-.195-.47-.338-.677l-.628-.628c-.614-.815-1.393-1.53-2.222-2.125-.66-.474-2.14-1.115-2.415-1.884l-.049-.047c.468-.054 1.017-.223 1.449-.339.726-.195 1.375-.144 2.125-.338l1.015-.29v-.193c-.38-.389-.65-.904-1.063-1.256-1.08-.92-2.262-1.84-3.477-2.609-.674-.425-1.508-.701-2.223-1.062-.239-.121-.661-.184-.82-.386-.377-.479-.58-1.085-.87-1.642a62.553 62.553 0 0 1-1.739-3.671c-.366-.837-.605-1.663-1.062-2.415-2.193-3.605-4.554-5.782-8.21-7.92-.78-.456-1.716-.635-2.705-.87l-1.594-.096c-.324-.136-.661-.532-.966-.725-1.212-.765-4.32-2.43-5.217-.24-.566 1.38.848 2.729 1.353 3.429.354.49.809 1.041 1.063 1.593.166.363.195.727.338 1.111.35.946.656 1.976 1.11 2.85.23.442.483.908.773 1.304.178.242.483.35.53.724-.297.417-.315 1.065-.482 1.593-.755 2.38-.47 5.34.628 7.1.337.542 1.13 1.702 2.222 1.256.954-.388.741-1.593 1.015-2.656.062-.24.023-.418.144-.58v.049l.87 1.739c.643 1.036 1.785 2.118 2.753 2.85.501.378.897 1.034 1.545 1.255v-.05h-.048c-.126-.195-.322-.275-.483-.434-.378-.37-.799-.83-1.11-1.255-.881-1.195-1.659-2.503-2.368-3.864-.338-.65-.632-1.367-.917-2.029-.11-.255-.109-.64-.338-.772-.313.484-.772.877-1.015 1.449-.386.915-.435 2.03-.579 3.187l-.097.048c-.673-.162-.909-.855-1.16-1.449-.631-1.502-.75-3.92-.192-5.65.144-.448.794-1.857.53-2.27-.125-.413-.54-.651-.772-.967a7.56 7.56 0 0 1-.772-1.353c-.518-1.17-.76-2.486-1.304-3.67-.26-.566-.7-1.139-1.063-1.642-.4-.558-.848-.968-1.16-1.642-.11-.24-.26-.624-.096-.87.05-.166.126-.235.29-.29.28-.216 1.06.072 1.352.193.775.322 1.422.629 2.078 1.063.315.21.633.613 1.014.724h.435c.68.156 1.442.048 2.077.241 1.123.342 2.129.872 3.042 1.45 2.784 1.758 5.06 4.26 6.617 7.245.25.48.36.939.58 1.448.445 1.028 1.006 2.086 1.448 3.091.442 1.003.873 2.016 1.498 2.85.328.439 1.597.674 2.173.918.404.17 1.066.349 1.449.579.73.44 1.44.966 2.125 1.45.342.243 1.396.772 1.449 1.208zm-21.588-18.4a3.435 3.435 0 0 0-.87.096v.048h.049c.169.348.467.571.676.87l.483 1.014.049-.048c.299-.21.435-.547.434-1.063-.12-.126-.138-.284-.241-.434-.138-.202-.405-.315-.58-.484z" fill="#00618a"/></svg>