<?xml version="1.0" encoding="UTF-8" standalone="no"?>
<!-- Generator: Adobe Illustrator 19.0.0, SVG Export Plug-In . SVG Version: 6.00 Build 0)  -->

<svg
   xmlns:dc="http://purl.org/dc/elements/1.1/"
   xmlns:cc="http://creativecommons.org/ns#"
   xmlns:rdf="http://www.w3.org/1999/02/22-rdf-syntax-ns#"
   xmlns:svg="http://www.w3.org/2000/svg"
   xmlns="http://www.w3.org/2000/svg"
   xmlns:sodipodi="http://sodipodi.sourceforge.net/DTD/sodipodi-0.dtd"
   xmlns:inkscape="http://www.inkscape.org/namespaces/inkscape"
   version="1.1"
   id="Capa_1"
   x="0px"
   y="0px"
   viewBox="0 0 1111.9898 92.665818"
   xml:space="preserve"
   width="1200"
   height="100"
   inkscape:version="0.91 r13725"
   sodipodi:docname="skills_icons.svg"><metadata
     id="metadata51"><rdf:RDF><cc:Work
         rdf:about=""><dc:format>image/svg+xml</dc:format><dc:type
           rdf:resource="http://purl.org/dc/dcmitype/StillImage" /><dc:title></dc:title></cc:Work></rdf:RDF></metadata><defs
     id="defs49" /><sodipodi:namedview
     pagecolor="#ffffff"
     bordercolor="#666666"
     borderopacity="1"
     objecttolerance="10"
     gridtolerance="10"
     guidetolerance="10"
     inkscape:pageopacity="0"
     inkscape:pageshadow="2"
     inkscape:window-width="1920"
     inkscape:window-height="1027"
     id="namedview47"
     showgrid="true"
     inkscape:zoom="0.92187499"
     inkscape:cx="630.1943"
     inkscape:cy="75.483635"
     inkscape:window-x="1272"
     inkscape:window-y="-8"
     inkscape:window-maximized="1"
     inkscape:current-layer="g9"
     showguides="true"
     showborder="true"><inkscape:grid
       type="xygrid"
       id="grid4286" /></sodipodi:namedview><g
     id="g3"
     transform="translate(0,-381.78319)"><g
       id="g5"><g
         id="g7"><g
           id="g9"><path
             id="path4371"
             d="m 9.2665814,386.41648 6.7024096,75.09173 30.076086,8.3075 30.159149,-8.29812 6.709102,-75.10111 -73.6467466,0 z m 59.7060096,17.77863 -0.420027,4.80456 -0.184896,2.20332 -35.280576,0 0.842065,9.37868 33.599794,0 -0.225091,2.32524 -2.165807,24.19632 -0.159435,1.52069 -18.888662,5.1911 0,10e-4 -0.02277,0.0121 -18.875932,-4.9727 -1.281524,-14.20603 9.254743,0 0.655839,7.31471 10.240844,2.73388 0.02884,0 0,-0.36577 10.286403,-2.59588 1.074529,-11.77627 -31.953163,0 -2.266287,-25.5348 -0.220399,-2.60124 46.182623,0 -0.22107,2.37079 z"
             inkscape:connector-curvature="0"
             style="fill:#e44d26" /><path
             id="path4382"
             d="m 101.9324,386.41648 6.68387,75.0369 29.99136,8.36233 30.07513,-8.39291 6.6892,-75.00632 -73.43956,0 z m 59.55397,17.19129 -2.22485,24.99723 0.006,0.13494 -0.009,0.31043 0,-0.003 -1.58073,17.47846 -0.17417,1.55282 -18.85178,5.21415 0,6.6e-4 -0.0146,0.0126 -18.81922,-5.2434 -1.27429,-14.45061 9.22847,0 0.65476,7.34794 10.22756,2.77194 -0.003,0.005 0,-10e-4 10.26545,-2.81115 1.08485,-11.96583 -21.45954,0 -0.18413,-2.02278 -0.41944,-4.73887 -0.22003,-2.5446 23.09876,0 0.84022,-9.30624 -35.18159,0 -0.18413,-2.02145 -0.41878,-4.7402 -0.22069,-2.54459 46.05328,0 -0.22003,2.56719 z"
             inkscape:connector-curvature="0"
             style="fill:#1572b6" /><path
             id="path4393"
             d="m 189.96492,386.41648 0,83.39923 83.39922,0 0,-83.39923 -83.39922,0 z m 44.11419,71.06482 c -1.23098,2.50131 -3.58083,4.1446 -6.30365,4.93789 -4.18397,0.96076 -8.1858,0.413 -11.16282,-1.37375 -1.99224,-1.22229 -3.54813,-3.10378 -4.6043,-5.27149 l 6.35168,-3.88975 c 0.0554,0.0233 0.22218,0.32493 0.44502,0.71457 0.80998,1.35707 1.50853,2.31783 2.88161,2.99236 1.34906,0.46037 4.31074,0.7546 5.45431,-1.61928 0.69855,-1.20762 0.47637,-5.08935 0.47637,-9.38408 -6.6e-4,-6.74866 0.0307,-13.46931 0.0307,-20.14125 l 7.81218,0 c 0,7.33914 0.04,14.28997 0,21.45162 0.0167,4.39013 0.39765,8.3039 -1.38109,11.58316 z m 32.40827,-2.20708 c -2.71548,9.28867 -17.85544,9.59024 -23.90555,3.45339 -1.27835,-1.44447 -2.07964,-2.19907 -2.84225,-3.86639 3.21521,-1.84946 3.21521,-1.84946 6.34368,-3.65955 1.69934,2.61206 3.27058,4.04853 6.09748,4.63633 3.83503,0.46836 7.69341,-0.84934 6.82807,-4.92256 -0.88938,-3.32663 -7.85288,-4.13594 -12.59195,-7.69341 -4.81114,-3.23122 -5.93869,-11.08276 -1.98491,-15.56897 1.31771,-1.65931 3.56482,-2.89763 5.92269,-3.49276 l 2.4606,-0.31825 c 4.72441,-0.0954 7.67741,1.15224 9.84512,3.57282 0.60314,0.61115 1.09553,1.27034 2.01626,2.6988 -2.51666,1.60393 -2.50866,1.58859 -6.1135,3.92243 -0.76994,-1.65864 -2.04762,-2.69946 -3.39802,-3.15182 -2.09632,-0.63517 -4.73974,0.0554 -5.28818,2.27046 -0.19015,0.68254 -0.15079,1.3177 0.15146,2.44527 0.84934,1.93686 3.69959,2.77886 6.25627,3.95378 7.35982,2.98503 9.84511,6.18556 10.45627,9.99524 0.58846,3.27992 -0.14212,5.4076 -0.25354,5.72519 z"
             inkscape:connector-curvature="0"
             style="fill:#f0db4f" /><path
             id="path4404"
             d="m 312.91481,439.41325 0.13163,0.0641 0.2346,0.11322 c 0.2994,0.14253 0.60152,0.28371 0.90637,0.41942 l 0.19165,0.0853 c 0.34986,0.15345 0.70178,0.2994 1.05777,0.43989 l 0.2578,0.10094 c 0.32873,0.12822 0.6629,0.25234 0.99776,0.37032 l 0.12549,0.043 c 0.3676,0.12822 0.73861,0.24757 1.11302,0.36419 l 0.26939,0.0798 c 0.38056,0.11526 0.75633,0.25235 1.14917,0.32532 24.92974,4.54551 32.17051,-14.98145 32.17051,-14.98145 -6.08206,7.92345 -16.8774,10.01377 -27.106,7.6868 -0.38737,-0.0873 -0.76383,-0.20869 -1.14166,-0.32054 l -0.2844,-0.0859 c -0.36896,-0.11321 -0.73587,-0.23256 -1.09937,-0.35737 l -0.15073,-0.0545 c -0.326,-0.11457 -0.64858,-0.23597 -0.96911,-0.35941 l -0.27144,-0.10639 c -0.35191,-0.13845 -0.7011,-0.28371 -1.04619,-0.43512 l -0.20937,-0.0928 c -0.29667,-0.13435 -0.59061,-0.27007 -0.88251,-0.41056 l -0.25574,-0.12276 c -0.22915,-0.11185 -0.45626,-0.2312 -0.68268,-0.34782 l -0.45558,-0.2387 c -0.2762,-0.14799 -0.54764,-0.30144 -0.81771,-0.45898 l -0.27621,-0.15414 c -0.35942,-0.2121 -0.71473,-0.43101 -1.06596,-0.65335 l -0.28713,-0.19096 c -0.25506,-0.16436 -0.50876,-0.33145 -0.75838,-0.504 l -0.24415,-0.17186 c -0.24143,-0.1705 -0.48013,-0.34305 -0.71678,-0.51832 l -0.31781,-0.24074 c -0.21688,-0.16572 -0.43307,-0.33282 -0.64654,-0.50468 l -0.28848,-0.23188 c -0.27143,-0.22369 -0.54015,-0.44807 -0.80612,-0.67858 l -0.088,-0.0744 c -0.28849,-0.25097 -0.57015,-0.50944 -0.8484,-0.7686 l -0.2387,-0.22984 c -0.20665,-0.19573 -0.4092,-0.39351 -0.60903,-0.59606 l -0.2387,-0.23871 c -0.2537,-0.25983 -0.50263,-0.52308 -0.74678,-0.78975 l -0.0368,-0.0395 c -0.25848,-0.28235 -0.51082,-0.57083 -0.7577,-0.86205 l -0.19847,-0.23597 c -0.18413,-0.22165 -0.36691,-0.44671 -0.54491,-0.67381 l -0.19983,-0.24825 c -0.21482,-0.27826 -0.4242,-0.55583 -0.62948,-0.83818 -5.67831,-7.74613 -7.71885,-18.42962 -3.18016,-27.20352 l -4.0231,5.10271 c -5.15522,7.40854 -4.51278,17.04789 -0.57561,24.92088 l 0.28849,0.55991 0.18482,0.35464 0.11457,0.20392 0.20529,0.36759 c 0.12208,0.21552 0.24688,0.42967 0.3751,0.64381 l 0.21483,0.35396 c 0.14185,0.22915 0.28712,0.45557 0.43648,0.682 l 0.1855,0.2878 c 0.20528,0.30554 0.41533,0.61107 0.63153,0.91115 l 0.0184,0.0239 0.10639,0.1439 c 0.18755,0.25848 0.38055,0.51354 0.5756,0.76588 l 0.21688,0.27553 c 0.17391,0.21892 0.35191,0.43716 0.53196,0.65404 l 0.20323,0.2421 c 0.24211,0.28576 0.48899,0.56947 0.74134,0.84705 l 0.015,0.0157 0.0286,0.0313 c 0.24552,0.26871 0.49786,0.5306 0.75293,0.79385 l 0.24142,0.24347 c 0.19778,0.19914 0.39829,0.39488 0.60153,0.58993 l 0.24619,0.23393 c 0.27076,0.25506 0.54424,0.50535 0.82386,0.75087 l 0.0136,0.0102 0.14322,0.12277 c 0.2462,0.21278 0.49718,0.42488 0.74952,0.63289 l 0.31031,0.24688 c 0.20596,0.16505 0.41465,0.32804 0.62471,0.48832 l 0.33349,0.25369 c 0.23189,0.17051 0.46512,0.33827 0.70042,0.50264 l 0.25575,0.18141 0.0702,0.0498 c 0.22369,0.15413 0.45216,0.30144 0.68063,0.44943 l 0.29462,0.19642 c 0.34987,0.22165 0.70587,0.44057 1.06528,0.65199 l 0.29462,0.16641 c 0.26462,0.15209 0.52992,0.30144 0.79931,0.44739 l 0.44193,0.22915 0.57288,0.29803 z m 2.51862,-25.09411 c 0.55855,0.80067 1.17712,1.75274 1.91846,2.39654 0.2687,0.29599 0.54968,0.58379 0.83612,0.86818 l 0.22097,0.21688 c 0.27894,0.27007 0.56196,0.53537 0.85386,0.79385 l 0.0355,0.03 0.008,0.009 c 0.32396,0.28371 0.65813,0.5565 0.99777,0.82522 l 0.2271,0.17731 c 0.341,0.26121 0.68814,0.51764 1.04415,0.76247 l 0.0307,0.0225 0.47602,0.31371 0.22643,0.15005 c 0.25439,0.16231 0.5115,0.3219 0.77407,0.4733 l 0.10912,0.0634 c 0.22574,0.13026 0.45489,0.25848 0.68404,0.3826 l 0.2428,0.12754 0.47876,0.24756 0.0723,0.0328 c 0.32872,0.16163 0.66017,0.31713 0.99844,0.46513 l 0.22029,0.0907 c 0.27007,0.11457 0.54355,0.22711 0.81771,0.33213 l 0.35055,0.12822 c 0.24961,0.0928 0.49922,0.17732 0.75156,0.26121 l 0.34032,0.10911 c 0.35872,0.11117 0.71269,0.25166 1.08642,0.31372 19.24733,3.1897 23.69124,-11.63078 23.69124,-11.63078 -4.00606,5.76901 -11.7631,8.52087 -20.04119,6.37258 -0.3676,-0.0969 -0.73042,-0.20119 -1.08983,-0.31509 l -0.32804,-0.1057 c -0.25575,-0.0825 -0.51014,-0.1705 -0.76247,-0.26257 l -0.34373,-0.12822 c -0.27621,-0.10639 -0.55037,-0.21619 -0.82113,-0.33076 l -0.22096,-0.0941 c -0.33964,-0.148 -0.6745,-0.3035 -1.0039,-0.46717 l -0.504,-0.25644 -0.29053,-0.14935 c -0.21415,-0.11594 -0.42693,-0.23733 -0.63699,-0.35941 l -0.15208,-0.0866 c -0.26121,-0.15208 -0.51764,-0.30894 -0.77202,-0.4699 l -0.23257,-0.15617 -0.49922,-0.33008 c -0.35532,-0.24484 -0.70041,-0.50059 -1.04005,-0.76044 l -0.23392,-0.18481 c -3.62346,-2.85962 -6.49534,-6.7702 -7.86139,-11.20386 -1.43083,-4.59667 -1.12257,-9.75803 1.35649,-13.94617 l -3.04579,4.30067 c -3.72781,5.36392 -3.52525,12.54604 -0.61721,18.21957 0.48695,0.95002 1.03459,1.87345 1.6477,2.75186 z m 20.28738,-6.63652 0.47808,0.16573 0.21074,0.0668 c 0.2271,0.0709 0.45148,0.15412 0.6854,0.19778 10.62758,2.05349 13.51106,-5.45394 14.27831,-6.55878 -2.52544,3.63573 -6.76883,4.50801 -11.97588,3.24427 -0.41124,-0.0996 -0.86341,-0.24756 -1.26033,-0.38874 -0.50809,-0.18141 -1.00868,-0.38737 -1.49562,-0.62062 -0.92479,-0.44466 -1.80593,-0.98276 -2.62297,-1.60065 -4.6594,-3.53615 -7.55381,-10.27907 -4.51345,-15.77187 l -1.64498,2.26696 c -2.1974,3.23471 -2.4136,7.25167 -0.88865,10.82262 1.60815,3.7919 4.90356,6.76541 8.74935,8.17647 z m -10.25861,43.51214 -2.88212,0 c -0.15959,0 -0.31849,0.12821 -0.35259,0.28439 l -1.023,4.73306 -1.023,4.73307 c -0.0334,0.15617 -0.19232,0.28439 -0.35191,0.28439 l -2.03985,0 c -2.01803,0 -1.78479,-1.39605 -1.3715,-3.30837 l 0.0123,-0.058 0.045,-0.24143 0.008,-0.045 0.0921,-0.49104 0.0989,-0.52582 0.10503,-0.53536 0.46512,-2.27242 0.46581,-2.27242 c 0.0321,-0.15686 -0.0729,-0.28575 -0.23257,-0.28575 l -2.95782,0 c -0.15958,0 -0.31781,0.12821 -0.35055,0.28507 l -0.6363,3.01716 -0.63562,3.01784 -10e-4,0.004 -0.0587,0.28098 c -0.73247,3.34384 -0.53878,6.53355 3.44272,6.6338 l 0.11595,0.002 6.24913,0 c 0.15959,0 0.3185,-0.12822 0.35192,-0.2844 l 1.34763,-6.33508 1.34762,-6.33575 c 0.0334,-0.15686 -0.0703,-0.2844 -0.23051,-0.28507 z m -30.86448,-0.0334 -3.16448,0 c -0.16026,0 -0.31985,0.12821 -0.35532,0.28371 l -0.30008,1.32444 -0.30008,1.32444 c -0.0348,0.15617 0.0668,0.28371 0.22711,0.28371 l 3.18902,0 c 0.16027,0 0.31918,-0.12822 0.35328,-0.2844 l 0.28984,-1.32375 0.28985,-1.32376 c 0.0334,-0.15618 -0.0689,-0.28439 -0.22914,-0.28439 z m -0.91798,4.12199 -3.1897,0 c -0.15958,0 -0.31985,0.12821 -0.35531,0.28371 l -0.44808,1.98462 -0.44739,1.98392 -0.12481,0.56879 -0.43034,2.02553 -0.42965,2.02622 c -0.0334,0.15618 -0.1023,0.40851 -0.15346,0.55992 0,0 -0.59606,1.77319 -1.59792,1.75273 l -0.12548,-0.003 -0.86682,-0.0157 -6.8e-4,0 c -0.15959,-0.002 -0.31986,0.12276 -0.35737,0.27758 l -0.33077,1.39059 -0.33008,1.38991 c -0.0375,0.15549 0.0634,0.28371 0.22233,0.28644 0.5681,0.007 1.84071,0.0211 2.61068,0.0211 2.50225,0 3.82192,-1.3865 4.66692,-5.37619 l 0.98957,-4.57893 0.9282,-4.29454 c 0.0334,-0.15482 -0.0702,-0.28303 -0.22984,-0.28303 z m 58.7316,-1.07347 -0.13231,-0.54627 -0.13026,-0.55924 -0.0662,-0.28235 c -0.25916,-1.00731 -1.01959,-1.58769 -2.67139,-1.58769 l -2.57113,-0.003 -2.3679,-0.004 -2.66456,0 c -0.15959,0 -0.31781,0.12822 -0.35123,0.2844 l -0.11798,0.55651 -0.13913,0.65744 -0.0389,0.18482 -1.19963,5.61967 -1.13894,5.33458 c -0.0341,0.15686 -0.045,0.34919 -0.0259,0.42693 0.0191,0.0784 0.32668,0.14254 0.48627,0.14254 l 2.40336,0 c 0.16026,0 0.36282,-0.0286 0.45011,-0.0641 0.0873,-0.0355 0.21619,-0.34987 0.24825,-0.50604 l 0.42694,-2.11351 0.4276,-2.11419 6.9e-4,-0.004 0.0573,-0.28167 0.51832,-2.42791 0.45761,-2.1442 c 0.0341,-0.15618 0.19164,-0.28371 0.35123,-0.28439 l 7.56267,-0.004 c 0.16027,0.001 0.26121,-0.12617 0.22506,-0.28235 z m 9.73552,-4.93766 -0.58243,0.002 -2.42041,0 c -0.16027,0 -0.36555,0.10843 -0.45489,0.24075 l -5.353,7.8416 c -0.09,0.13231 -0.19301,0.11322 -0.22847,-0.0422 l -0.3942,-1.72751 c -0.0355,-0.15617 -0.19573,-0.28371 -0.356,-0.28371 l -3.44067,0 c -0.16028,0 -0.25507,0.12549 -0.21143,0.27895 l 1.542,5.4021 c 0.0437,0.15413 0.047,0.40646 0.008,0.56196 l -0.67177,2.6141 c -0.0403,0.15549 0.058,0.28166 0.21824,0.28166 l 3.40112,0 c 0.15959,0 0.32327,-0.12685 0.36282,-0.28166 l 0.67245,-2.6141 c 0.0395,-0.15617 0.15073,-0.38669 0.24757,-0.5149 l 8.69002,-11.53327 c 0.0968,-0.12821 0.0443,-0.23256 -0.11526,-0.2312 l -0.9132,0.005 z m -27.33856,6.76474 0,-0.003 c -0.0198,0.17323 -0.18005,0.30077 -0.34032,0.30077 l -4.36274,0 c -0.1514,0 -0.22779,-0.1023 -0.20528,-0.22916 l 0.004,-0.0102 -0.003,10e-4 0.002,-0.0144 0.0198,-0.0743 c 0.4167,-1.10756 1.2651,-1.83457 2.8603,-1.83457 1.79638,-6.9e-4 2.14693,0.87636 2.02484,1.86322 z m -1.28011,-5.03588 c -5.59989,0 -6.92705,3.39908 -7.67179,6.83022 -0.74406,3.49728 -0.68064,6.76609 5.11498,6.76609 l 0.70246,0 0.17458,-6.8e-4 0.0409,0 0.69563,-0.002 0.0123,0 c 1.53041,-0.006 3.06558,-0.0177 3.68689,-0.0225 0.1589,-0.003 0.3144,-0.13026 0.34713,-0.28644 l 0.23461,-1.14643 0.0457,-0.22302 0.27961,-1.36809 c 0.0321,-0.15617 -0.0723,-0.28507 -0.23256,-0.28507 l -5.20978,0 c -2.07259,0 -2.68775,-0.55037 -2.46065,-2.16944 l 8.32788,0 -6.8e-4,6.9e-4 0.005,-6.9e-4 c 0.1323,-0.002 0.25506,-0.0934 0.30348,-0.21483 l 0.0198,-0.0723 -6.8e-4,6.8e-4 c 1.23646,-4.66418 0.88182,-7.80546 -4.41525,-7.80615 z m -26.46833,5.01814 -0.0791,0.27894 0,6.8e-4 -0.6288,2.22877 -0.62881,2.22809 c -0.043,0.15481 -0.21005,0.2803 -0.37033,0.2803 l -3.32814,0 c -2.52476,0 -3.13992,-1.97507 -2.52476,-4.8872 0.61448,-2.97896 1.81958,-4.83059 4.30477,-5.01813 3.39635,-0.25643 4.07562,2.13192 3.25518,4.88855 z m 2.28333,4.8456 c 0,0 1.56927,-3.811 1.92528,-6.01113 0.48626,-2.94555 -0.9889,-7.21894 -6.68631,-7.21894 -5.66467,0 -8.12532,4.07902 -9.06375,8.51405 -0.93843,4.46709 0.29122,8.3838 5.92384,8.35175 l 4.44389,-0.0163 4.15268,-0.015 c 0.15959,-10e-4 0.32327,-0.12822 0.36419,-0.28235 l 0.7236,-2.75936 c 0.0403,-0.15549 -0.0573,-0.28235 -0.21756,-0.28372 l -0.69359,-0.004 -0.69359,-0.004 c -0.13572,-6.7e-4 -0.21347,-0.0893 -0.1971,-0.20596 l 0.0184,-0.0648 z m 28.04374,-2.55136 c 0,0.10571 -0.0852,0.19164 -0.19096,0.19164 -0.10503,0 -0.19095,-0.0859 -0.19095,-0.19164 0,-0.10502 0.0852,-0.19027 0.19095,-0.19027 0.10571,0 0.19096,0.0852 0.19096,0.19027 z"
             inkscape:connector-curvature="0"
             style="fill:#0868ac" /><path
             id="path4415"
             d="m 375.29655,422.33078 c 0,0.46698 0.1375,0.77518 0.21456,1.07477 0.50217,1.94824 1.58158,3.62015 2.86225,5.14527 1.82403,2.17343 4.0579,3.92306 6.34625,5.56842 1.98477,1.4268 4.01007,2.82173 6.00282,4.23791 0.34209,0.24311 0.66558,0.52277 1.0369,0.82101 -0.31951,0.17271 -0.58521,0.32482 -0.86154,0.46498 -2.62977,1.33381 -5.15989,2.82904 -7.49207,4.64045 -1.40555,1.09203 -2.76461,2.25247 -3.72445,3.76895 -1.54439,2.43913 -2.09106,5.03767 -0.93992,7.81224 0.33611,0.81039 0.84891,1.51051 1.57228,2.02796 0.23448,0.16739 0.49753,0.33345 0.77186,0.39856 0.70278,0.16539 1.41884,0.27366 2.13025,0.40452 l 2.01467,-0.001 c 2.2279,-0.19861 4.25586,-0.96184 6.08852,-2.22657 2.86425,-1.97681 4.79389,-4.62717 5.62354,-8.02879 0.60314,-2.47234 0.62772,-4.94734 -0.083,-7.40839 -0.0657,-0.2285 -0.14879,-0.45235 -0.23515,-0.67354 -0.0863,-0.22119 -0.18798,-0.43641 -0.30754,-0.71208 l 4.56738,-2.62644 0.0684,0.0584 c -0.083,0.27168 -0.17138,0.54269 -0.24643,0.81703 -0.5427,1.98212 -0.90338,3.99879 -0.77385,6.05597 0.13816,2.19202 0.74993,4.24389 2.03327,6.07523 1.03756,1.48128 3.50989,1.53641 4.61255,0.0498 0.39124,-0.52808 0.77053,-1.08007 1.05549,-1.66926 0.74462,-1.53774 1.43412,-3.10271 2.14553,-4.65706 l 0.12421,-0.2843 c -0.0511,0.73599 -0.11093,1.38231 -0.13816,2.02928 -0.0425,1.01033 0.0166,2.01467 0.36201,2.97585 0.2956,0.82234 0.79844,1.43677 1.74034,1.54504 0.64433,0.0737 1.15779,-0.22119 1.6314,-0.59517 0.73997,-0.58387 1.34112,-1.30525 1.7875,-2.12493 1.26274,-2.3189 2.55935,-4.62385 3.70385,-7.0012 1.23817,-2.57131 2.3209,-5.21769 3.47071,-7.83284 l 0.18998,-0.46364 c 0.27167,1.06745 0.46099,2.11297 0.80971,3.10271 0.4052,1.14849 0.90671,2.26974 1.45272,3.35978 0.2584,0.51479 0.22851,0.84891 -0.12952,1.28067 -1.49855,1.80676 -2.9712,3.63544 -4.44517,5.46213 -0.32615,0.4032 -0.65096,0.8137 -0.92264,1.2541 -0.16407,0.26769 -0.273,0.59384 -0.31884,0.90604 -0.0883,0.5965 0.28032,1.17173 0.91865,1.30923 0.58322,0.12555 1.20429,0.17205 1.79879,0.12821 2.05719,-0.15145 3.92506,-0.87349 5.57639,-2.09704 2.13955,-1.5849 2.82638,-3.7477 2.30827,-6.31104 -0.14016,-0.69547 -0.38793,-1.37168 -0.62905,-2.04191 -0.10827,-0.30223 -0.11558,-0.51412 0.0817,-0.79576 1.71045,-2.44246 3.17179,-5.03369 4.53085,-7.68471 0.0538,-0.10429 0.10894,-0.20858 0.20326,-0.32017 0.4404,2.29166 1.10332,4.50029 2.291,6.50433 -0.6058,0.58388 -1.20562,1.11328 -1.74831,1.6965 -1.19499,1.28466 -2.23121,2.67958 -2.77191,4.38073 -0.23249,0.73333 -0.41117,1.47862 -0.30755,2.26177 0.16075,1.21624 1.15712,2.0067 2.35344,1.72971 2.56002,-0.59252 4.76998,-1.79879 6.38477,-3.93569 1.08672,-1.43876 1.18569,-3.04359 0.73068,-4.72481 -0.12488,-0.457 -0.27301,-0.9067 -0.43243,-1.43079 0.6317,-0.19596 1.24746,-0.4311 1.88447,-0.57657 3.3073,-0.75459 6.57874,-0.62307 9.76581,0.57126 1.86057,0.69746 3.36376,1.86454 4.25518,3.70053 1.08871,2.24451 0.4869,4.37409 -1.62874,5.79292 -0.19728,0.13219 -0.42313,0.23648 -0.58653,0.40188 -0.1003,0.10163 -0.16075,0.30489 -0.13617,0.44504 0.014,0.0817 0.22983,0.184 0.35405,0.18267 0.69546,-0.005 1.25941,-0.36999 1.80078,-0.74462 1.35639,-0.93859 2.34613,-2.20133 2.55935,-3.86394 l 0.0419,-0.12488 -0.0511,-1.08273 c -0.0206,-0.0624 0.0153,-0.12421 0.0106,-0.17137 -0.28828,-2.4212 -1.58158,-4.29903 -3.46273,-5.77101 -2.17875,-1.7038 -4.75139,-2.40525 -7.47216,-2.51618 -2.21726,-0.0903 -4.39667,0.23913 -6.48639,0.99837 -0.59584,0.21588 -1.18636,0.47161 -1.78551,0.71274 -0.0804,-0.14547 -0.16672,-0.28496 -0.2378,-0.42911 -0.6151,-1.25941 -1.36038,-2.46304 -1.52512,-3.90711 -0.1169,-1.02561 -0.26038,-2.04988 -0.0166,-3.06419 0.23448,-0.97579 0.54004,-1.93496 0.82765,-2.89746 0.14813,-0.49553 0.0439,-0.77319 -0.4291,-0.99638 -0.16473,-0.0777 -0.34408,-0.14547 -0.5221,-0.17137 -1.16244,-0.16872 -2.30893,-0.0724 -3.43484,0.25507 -0.39855,0.11625 -0.68816,0.33943 -0.7765,0.7805 -0.0505,0.25307 -0.15345,0.49552 -0.22519,0.74529 -0.29426,1.03821 -0.50283,2.09637 -0.97844,3.08543 -1.19166,2.48098 -2.55205,4.86829 -3.94431,7.23834 -0.15079,0.25573 -0.30955,0.50682 -0.49952,0.81703 -0.48889,-1.02295 -1.01033,-1.94094 -1.16841,-3.01703 -0.17869,-1.2169 -0.31951,-2.43182 -0.0166,-3.63943 0.22517,-0.90072 0.51944,-1.78484 0.79045,-2.6736 0.12821,-0.42247 0.0691,-0.64432 -0.31352,-0.86685 -0.1933,-0.11226 -0.41184,-0.2119 -0.62971,-0.24444 -1.20562,-0.17868 -2.39329,-0.085 -3.5564,0.29094 -0.36069,0.1169 -0.54999,0.35006 -0.66026,0.72204 -0.32416,1.09734 -0.60049,2.22125 -1.0555,3.26479 -1.84263,4.22463 -3.73839,8.42734 -5.63217,12.62939 -0.39523,0.87747 -0.85822,1.72439 -1.30392,2.57861 -0.11293,0.21655 -0.27766,0.40718 -0.41848,0.61045 -0.11292,-0.13352 -0.15677,-0.22519 -0.1561,-0.31685 0.004,-0.54004 -0.0611,-1.09601 0.0419,-1.61811 0.31154,-1.57959 0.67023,-3.15054 1.04819,-4.71551 0.31219,-1.29264 0.67554,-2.57331 1.02161,-3.8573 0.11625,-0.42977 0.11824,-0.83164 -0.19064,-1.193 -0.51878,-0.60513 -1.60283,-0.73798 -2.24583,-0.27167 l -0.28429,0.16075 0.0551,-0.45834 c 0.13551,-0.98242 0.16274,-1.96153 -0.10694,-2.92934 -0.33612,-1.20628 -1.19698,-1.90042 -2.44843,-1.86189 -0.58321,0.0179 -1.19565,0.11757 -1.73569,0.33013 -2.27106,0.89009 -4.01738,2.46636 -5.50397,4.36279 -0.13484,0.17204 -0.31286,0.3288 -0.50284,0.43442 -1.92167,1.06546 -3.84933,2.11763 -5.77632,3.17379 l -2.14486,1.17506 c -0.57524,-0.54868 -1.098,-1.11793 -1.69118,-1.60084 -1.81141,-1.4773 -3.65205,-2.91805 -5.47608,-4.37874 -1.61678,-1.29462 -3.18308,-2.64305 -4.38139,-4.35748 -0.89142,-1.27536 -1.466,-2.67095 -1.52113,-4.24788 -0.0697,-2.00936 0.50018,-3.84534 1.52312,-5.55446 1.30857,-2.18671 3.09341,-3.94166 5.05561,-5.53121 2.07578,-1.68055 4.32094,-3.10736 6.64781,-4.40996 3.2555,-1.82203 6.60398,-3.43483 10.19425,-4.49962 3.68128,-1.09203 7.41635,-1.71709 11.269,-1.28135 1.51449,0.17138 2.98514,0.51812 4.33556,1.25876 1.03424,0.56661 1.88249,1.30857 2.27705,2.46835 0.38925,1.14118 0.3773,2.29764 0.10761,3.45676 -0.54801,2.34746 -1.83333,4.28242 -3.45078,6.01147 -2.65302,2.83435 -5.88924,4.76399 -9.53265,6.03869 -2.10235,0.73533 -4.26515,1.19698 -6.4864,1.38364 -1.81274,0.15211 -3.58762,-0.009 -5.30404,-0.63902 -1.13653,-0.41781 -2.12626,-1.05682 -2.92204,-1.98411 -0.14214,-0.16606 -0.32415,-0.34608 -0.58918,-0.19064 -0.25973,0.15278 -0.30556,0.39988 -0.21855,0.6503 0.14547,0.41582 0.27966,0.84891 0.50616,1.22089 0.56926,0.93327 1.39958,1.61015 2.31359,2.1907 1.75561,1.1166 3.7178,1.4919 5.7524,1.57892 3.08744,0.13352 6.09981,-0.32747 9.06967,-1.15579 4.23991,-1.18237 7.9265,-3.27077 10.88308,-6.56545 2.4617,-2.74335 4.21997,-5.83942 4.59661,-9.57783 0.18399,-1.82469 -0.012,-3.61218 -0.86619,-5.2768 -0.92663,-1.80343 -2.39993,-3.14456 -4.16153,-4.06853 -2.56533,-1.3451 -5.33392,-2.12825 -8.19152,-2.12825 l -2.86292,0 c -3.46075,0 -6.80658,0.99172 -10.05874,2.17475 -2.46171,0.89607 -4.8756,1.95356 -7.21907,3.12397 -5.10343,2.55005 -9.85614,5.62487 -13.75994,9.85282 -1.94492,2.10633 -3.5916,4.43055 -4.53882,7.16726 -0.27699,0.80108 -0.54004,1.65996 -0.73798,2.48828 m 18.49212,23.92163 c -0.22119,2.9619 -1.56364,5.36316 -3.75766,7.30809 -1.23417,1.09335 -2.64969,1.87185 -4.29836,2.14552 -0.59783,0.099 -1.2096,0.12289 -1.78949,-0.12488 -0.82699,-0.35338 -1.01232,-1.08737 -1.02826,-1.8692 -0.0246,-1.24613 0.41184,-2.3727 1.01033,-3.4448 0.78116,-1.39758 1.92632,-2.46303 3.1492,-3.45808 1.92633,-1.5683 4.01606,-2.89547 6.15627,-4.14825 l 0.16142,-0.0665 c 0.3308,1.22222 0.48822,2.42917 0.39655,3.65802 z m 16.71121,-12.8725 c -0.1561,0.9459 -0.35139,1.89245 -0.62772,2.80912 -0.95519,3.17312 -2.18206,6.24793 -3.50857,9.28157 -0.24511,0.56128 -0.60181,1.07342 -0.91201,1.60549 -0.0478,0.0824 -0.1189,0.15344 -0.18799,0.22185 -0.38393,0.37929 -0.74794,0.35936 -0.9419,-0.13683 -0.22585,-0.57657 -0.36467,-1.19366 -0.48424,-1.8041 -0.0804,-0.40985 -0.0611,-0.84028 -0.0864,-1.26008 0.0259,-2.98514 0.93659,-5.69795 2.48164,-8.22342 0.63701,-1.04155 1.33049,-2.03394 2.38996,-2.69287 0.32549,-0.20259 0.69083,-0.36534 1.05948,-0.46896 0.56462,-0.15875 0.91136,0.10229 0.8177,0.66823 z m 11.40119,14.52582 4.09775,-4.78459 c 0.17072,1.77687 -2.84963,5.32396 -4.09775,4.78459 z m 13.08772,-3.21962 c -0.28962,0.16607 -0.60514,0.28563 -0.90206,0.43907 -0.27168,0.14083 -0.36135,-0.001 -0.36932,-0.23514 -0.005,-0.15875 0.0179,-0.32482 0.0618,-0.47892 0.55332,-1.95158 1.57162,-3.61751 3.08677,-4.97258 l 0.10628,-0.0545 c 0.72071,2.01599 -0.11226,4.22994 -1.98345,5.30204 z"
             inkscape:connector-curvature="0"
             style="clip-rule:evenodd;fill:#cb6699;fill-rule:evenodd" /><path
             id="path4426"
             d="m 549.80883,424.40147 -36.41424,-36.41226 c -2.09565,-2.09697 -5.49679,-2.09697 -7.59575,0 l -7.56006,7.56205 9.59163,9.59163 c 2.22977,-0.7525 4.78525,-0.24775 6.56179,1.5288 1.7858,1.78778 2.28725,4.36506 1.51492,6.60209 l 9.24412,9.24544 c 2.23638,-0.771 4.81762,-0.27286 6.60275,1.51624 2.49734,2.49536 2.49734,6.54065 0,9.03733 -2.49733,2.49734 -6.54131,2.49734 -9.03997,0 -1.87762,-1.87895 -2.34208,-4.63726 -1.39071,-6.95092 l -8.62044,-8.62112 -10e-4,22.68813 c 0.60914,0.30061 1.18326,0.7023 1.69066,1.20771 2.49668,2.49536 2.49668,6.53933 0,9.03998 -2.49668,2.49535 -6.54329,2.49535 -9.03733,0 -2.49601,-2.49999 -2.70083,-6.54396 -0.20547,-9.03998 0.61707,-0.6164 1.22555,-1.08218 1.88622,-1.39402 l 0,-22.89821 c -0.66067,-0.31184 -1.26849,-0.77431 -1.88688,-1.39469 -1.89018,-1.88952 -2.24364,-4.66433 -1.27377,-6.98726 l -9.40331,-9.45619 -24.943,24.96678 c -2.09763,2.09895 -2.08442,5.50009 0.0132,7.59773 l 36.42019,36.41226 c 2.09631,2.09697 5.50009,2.09697 7.5997,0 l 36.24446,-36.24313 c 2.09763,-2.09829 2.09961,-5.50142 0.003,-7.59839 z"
             inkscape:connector-curvature="0"
             style="fill:#f34f29" /><path
             id="path4437"
             d="m 583.80947,408.78146 c 0.5941,6.25396 1.18346,12.4727 1.78636,18.83098 0.98294,-1.69017 1.69423,-3.31124 2.76727,-4.63898 0.9992,-1.23698 2.25853,-2.37844 3.62896,-3.16899 1.78906,-1.03238 4.13498,-0.0603 4.71485,1.77079 0.15581,0.49112 -0.2161,1.14958 -0.34616,1.73148 -0.43762,-0.231 -1.00191,-0.35835 -1.28778,-0.71196 -1.21462,-1.50185 -1.94623,-1.67933 -3.28956,-0.38139 -2.50579,2.42246 -3.91482,5.45731 -4.4527,8.86813 -0.10365,0.65981 0.30891,1.40023 0.483,2.10339 0.68488,-0.23573 1.48017,-0.32245 2.03363,-0.73432 1.79923,-1.33927 2.91426,-3.16085 3.52937,-5.33809 0.13345,-0.47148 0.85693,-0.77564 1.30945,-1.15703 0.21678,0.44574 0.7113,0.97074 0.60765,1.32368 -0.95313,3.27872 -1.98756,6.53644 -3.07279,9.77452 -0.10974,0.32788 -0.71197,0.49114 -1.08658,0.73094 -0.15107,-0.43084 -0.46878,-0.882 -0.41797,-1.28777 0.11381,-0.91995 0.40984,-1.81753 0.61645,-2.66024 l -4.90454,2.25784 c 0.27436,3.13105 0.55888,6.64348 0.89623,10.15117 0.25878,2.67853 0.69707,3.37221 3.33495,3.88028 3.07821,0.59275 6.214,0.97142 9.34301,1.20174 4.6234,0.34075 9.20616,-0.0806 13.70425,-1.28981 1.67458,-0.44981 2.34253,-1.55129 2.46243,-3.1954 0.10974,-1.51403 0.35496,-3.01859 0.525,-4.52856 0.33397,-2.97457 0.65846,-5.9498 0.99987,-9.04901 -1.12926,0.71536 -2.01735,1.51607 -3.05584,1.85546 -0.75601,0.24726 -1.70982,-0.11448 -2.57624,-0.20526 0.16597,-0.79529 0.15581,-1.69152 0.53923,-2.36217 0.62458,-1.09607 1.50659,-2.04649 2.27885,-3.05856 l -0.33262,-0.40035 c -0.55345,0.32719 -1.24104,0.54193 -1.63462,1.00596 -0.80071,0.94433 -1.58449,1.95505 -2.12033,3.06196 -0.8969,1.85274 -1.58042,3.80846 -2.38317,5.70795 -0.34887,0.82375 -0.64965,2.08375 -1.8182,1.60278 -1.24985,-0.51551 -0.37056,-1.61632 -0.0772,-2.39943 0.46675,-1.24916 1.0832,-2.44278 1.50049,-3.36137 -1.18278,0.14091 -2.38181,0.31094 -3.58627,0.41594 -0.50942,0.0434 -1.11504,-0.23574 -1.53166,-0.0474 -1.38532,0.62594 -2.26326,0.37462 -2.55116,-1.15907 -0.64153,0.41662 -1.18482,0.98091 -1.82498,1.13265 -0.77701,0.18494 -1.83107,0.30619 -2.40011,-0.082 -0.4559,-0.31094 -0.62187,-1.47949 -0.46606,-2.16505 0.30958,-1.36297 0.8881,-2.6731 1.43749,-3.96901 0.34006,-0.80275 0.68216,-2.08443 1.82971,-1.52623 1.13401,0.55074 0.10433,1.48016 -0.15716,2.22601 -0.40577,1.15297 -0.819,2.30391 -1.22816,3.45552 l 0.65032,0.39291 c 0.61916,-0.53788 1.39075,-0.97616 1.8243,-1.63598 0.70994,-1.07845 1.13874,-2.33846 1.81075,-3.44536 0.27842,-0.45862 0.87794,-0.72146 1.33249,-1.07304 0.0921,0.58394 0.31297,1.18413 0.2398,1.74775 -0.0725,0.56971 -0.47284,1.09065 -0.66455,1.65426 -0.2879,0.84407 -0.52025,1.70711 -0.8129,2.68869 1.38397,0.0529 1.97672,-0.52974 2.36759,-1.55739 1.23697,-3.24688 2.48749,-6.49038 3.84708,-9.68714 0.23235,-0.54735 1.02223,-0.85626 1.55536,-1.27626 0.0616,0.65981 0.35564,1.40768 0.14633,1.96384 -1.11437,2.94611 -2.36556,5.83938 -3.54157,8.76246 -0.19848,0.49249 -0.26216,1.03916 -0.38749,1.56078 2.07224,-0.93146 3.80169,-1.96114 4.43305,-4.16343 0.15446,-0.53517 0.78717,-0.93282 1.19972,-1.39414 l 0.95923,1.01613 c 0.29129,-0.24523 0.5582,-0.52432 0.87455,-0.72823 0.99581,-0.64151 2.06817,-1.20716 3.11817,-0.21338 1.08659,1.02765 0.2642,2.02888 -0.30348,2.91765 -0.61781,0.96939 -1.37449,1.84936 -2.07088,2.76795 1.5662,-1.00936 3.70482,-1.46188 3.98934,-3.64318 0.69368,-5.32792 1.30336,-10.66669 1.92184,-16.0041 0.18359,-1.57974 0.28181,-3.16965 0.42475,-4.81579 -12.33586,2.98676 -24.40684,3.00505 -36.64041,-0.0467 z m 5.29473,41.57272 c 0.5941,1.56959 1.49643,3.1114 1.73285,4.7494 0.49926,3.48669 0.62594,7.02623 0.97955,10.53663 0.0515,0.51145 0.38274,1.21394 0.79598,1.43885 6.08325,3.30581 12.22543,3.87891 18.43197,0.26351 0.92604,-0.53922 1.09742,-1.2512 1.21733,-2.25243 0.58055,-4.86456 -0.71198,-10.02449 2.39807,-14.60522 -8.70894,2.1603 -17.20855,2.22736 -25.55575,-0.13074 z m 20.99399,-40.69952 c 2.95492,-0.2852 5.87393,-0.97888 8.79633,-1.55197 0.55074,-0.10772 1.03984,-0.52704 1.55739,-0.80275 -0.68217,-0.59952 -1.2722,-0.8881 -1.88865,-0.96058 -3.06873,-0.36242 -6.14828,-0.64153 -9.21497,-1.02156 -0.46336,-0.0576 -1.29049,-0.62932 -1.25595,-0.73364 0.89488,-2.69614 0.85084,-5.74793 2.88175,-8.02001 2.56676,-2.87227 5.15993,-5.71947 7.73346,-8.56803 -1.91439,-2.05936 -1.94013,-2.06208 -3.67502,-0.25945 -0.9809,1.01884 -1.87714,2.13387 -2.94137,3.05652 -3.93785,3.41285 -6.70376,7.45503 -7.24299,12.78431 -0.12397,1.22275 -0.79529,1.66443 -2.07901,1.6834 -4.23795,0.0616 -8.48064,0.17816 -12.70911,0.45658 -2.09527,0.13752 -4.1648,0.67539 -6.24652,1.03172 l -0.0189,0.77836 c 1.30269,0.4017 2.5803,0.92942 3.91076,1.1848 7.41371,1.42124 14.89719,1.66511 22.39286,0.9423 z m -2.36827,-1.86155 c -1.67797,1.35484 -3.06465,1.35484 -4.40392,0 l 4.40392,0 z"
             inkscape:connector-curvature="0"
             style="clip-rule:evenodd;fill:#eb4a4b;fill-rule:evenodd" /><path
             id="path4448"
             d="m 703.13404,428.85201 c -1.55723,-0.5124 -3.799,-0.40231 -6.72532,-0.40231 l -11.75662,0 0,15.34546 12.5726,0 c 1.96422,0 3.34398,-0.21017 4.13861,-0.35696 1.40043,-0.25086 2.57136,-0.73658 3.51211,-1.32237 0.94007,-0.58446 1.71334,-1.47116 2.32049,-2.58938 0.60582,-1.11822 0.90939,-2.42659 0.90939,-3.88974 0,-1.71336 -0.43901,-3.02907 -1.31771,-4.29406 -0.87802,-1.26501 -2.09566,-1.97823 -3.65355,-2.49064 z m -1.61395,-7.01621 c 1.54589,-0.45902 2.71148,-1.261 3.49543,-2.3265 0.78462,-1.06618 1.17626,-2.42259 1.17626,-4.03252 0,-1.52521 -0.36628,-2.87828 -1.0982,-4.03919 -0.73191,-1.16092 -1.77606,-1.60995 -3.13514,-2.03895 -1.35908,-0.42767 -3.68958,-0.29757 -6.99219,-0.29757 l -10.31415,0 0,13.34388 11.06674,0 c 2.6968,0 4.62966,-0.25353 5.80125,-0.60915 z m 35.17313,-24.32722 c 0,-6.12618 -4.96592,-11.0921 -11.0921,-11.0921 l -61.21503,0 c -6.12617,0 -11.0921,4.96592 -11.0921,11.0921 l 0,61.21503 c 0,6.12618 4.96593,11.0921 11.0921,11.0921 l 61.21503,0 c 6.12618,0 11.0921,-4.96592 11.0921,-11.0921 l 0,-61.21503 z m -23.65002,44.11485 c -0.90872,1.85014 -2.03294,3.27659 -3.37066,4.28006 -1.3384,1.00345 -3.01638,1.8548 -5.03331,2.3672 -2.01626,0.51307 -4.48889,0.86201 -7.41453,0.86201 l -18.57734,0 0,-46.03637 18.29445,0 c 3.51211,0 6.32834,0.40632 8.45001,1.33572 2.12234,0.93074 3.78366,2.33318 4.98661,4.26671 1.20161,1.93352 1.80275,3.94111 1.80275,6.05211 0,1.96488 -0.53375,3.80834 -1.59926,5.54305 -1.06618,1.73603 -2.67611,3.1318 -4.82848,4.19798 2.77953,0.81531 4.91722,2.20441 6.41173,4.16863 1.49452,1.96488 2.24177,4.28472 2.24177,6.96016 0,2.15304 -0.45436,4.15329 -1.36374,6.00274 z"
             inkscape:connector-curvature="0"
             style="fill:#5b4282" /><path
             id="path4459"
             d="m 787.59146,469.81567 c 22.93761,-0.0348 41.50586,-18.6934 41.50586,-41.7093 0,-22.64181 -18.48259,-41.28903 -40.56359,-41.6832 -23.1899,-0.41358 -42.56791,18.40362 -42.57393,41.2221 -0.006,23.47566 18.47857,42.20386 41.63166,42.1704 z m -0.0676,-81.37345 c 22.0221,-0.007 39.56845,17.88497 39.56176,40.34073 -0.007,21.2003 -18.01881,38.93537 -39.5457,38.94006 -21.93109,0.004 -39.56779,-17.77656 -39.56711,-39.89102 10e-4,-21.54429 17.91241,-39.38241 39.55105,-39.38977 z m -16.62082,20.92391 c 0.36005,1.19991 -0.6478,1.61751 -1.71922,1.70116 -1.12765,0.087 -2.25461,0.17199 -3.56362,0.27171 4.32051,12.87182 8.57609,25.55292 12.93273,38.52915 0.31052,-0.50795 0.43834,-0.65116 0.49455,-0.81847 2.39181,-7.14863 4.79699,-14.29258 7.1279,-21.46129 0.21281,-0.65383 0.10707,-1.51981 -0.12582,-2.1917 -1.23337,-3.56027 -2.71102,-7.0429 -3.79248,-10.646 -0.73949,-2.46675 -1.72057,-4.06285 -4.63637,-3.77709 -0.49657,0.0489 -1.10289,-1.01989 -1.65901,-1.57201 0.67257,-0.40153 1.34045,-1.14035 2.01905,-1.15039 5.93734,-0.0903 11.87669,-0.0903 17.81336,0.005 0.68127,0.0114 1.34916,0.76961 2.02172,1.18118 -0.58891,0.53806 -1.09685,1.34514 -1.78548,1.55327 -1.10489,0.33326 -2.33024,0.27036 -3.65262,0.38814 4.32519,12.86581 8.56136,25.46861 12.94879,38.52045 1.96149,-6.51554 3.78646,-12.4984 5.56124,-18.49664 1.58338,-5.35445 0.63978,-10.35488 -2.22316,-15.07089 -0.86062,-1.41808 -1.91799,-2.794 -2.40585,-4.34058 -0.55412,-1.75938 -1.01454,-3.76237 -0.72076,-5.52711 0.49857,-2.99075 2.79334,-4.47576 5.89853,-4.76018 -16.9929,-15.77089 -43.69622,-10.12534 -53.5358,7.01011 3.7878,-0.17467 7.40428,-0.40421 11.02344,-0.45374 0.68394,-0.009 1.81828,0.56952 1.97888,1.10556 z m 6.77053,52.17995 c -0.079,0.23088 -0.0837,0.48787 -0.14589,0.87133 7.3233,2.03042 14.5054,1.88386 21.85614,-0.59293 l -11.22956,-30.75747 c -3.59372,10.44723 -7.04022,20.46148 -10.48069,30.47907 z m -5.65895,-1.39064 -16.91861,-46.41059 c -7.63249,14.90894 -1.82631,37.65581 16.91861,46.41059 z m 51.14735,-29.8219 c 0.53672,-7.04959 -1.89524,-16.8102 -3.99526,-18.15267 -0.23423,2.59324 -0.0709,5.47826 -0.81511,8.10697 -1.75136,6.19365 -3.89287,12.27956 -5.95541,18.38221 -2.2419,6.63333 -4.57213,13.23655 -6.86422,19.85315 10.76913,-6.38371 16.68707,-15.80569 17.63,-28.18966 z"
             inkscape:connector-curvature="0"
             style="clip-rule:evenodd;fill:#494949;fill-rule:evenodd" /><path
             id="path4470"
             d="m 871.28549,413.35301 c -2.4419,-0.61346 -4.88711,-0.41649 -7.46761,-0.0146 0,4.51307 -0.009,8.90477 0.0245,13.29713 10e-4,0.22483 0.33889,0.61612 0.55775,0.64596 2.81395,0.38001 5.61264,0.41052 8.24421,-0.87211 2.72244,-1.32639 4.10919,-4.09989 3.74973,-7.3562 -0.3263,-2.96516 -2.08178,-4.9395 -5.10862,-5.70018 z m 50.90315,14.8205 0,-40.24157 c 0,-1.39006 0.0152,-1.5154 -1.33435,-1.5154 l -80.58461,0 c -1.31247,0 -1.64407,0.126 -1.64407,1.44974 l 0,80.58461 c 0,1.33833 0.16713,1.34032 1.46501,1.34032 26.89602,6.7e-4 53.87229,-0.006 80.7683,0.0245 1.04322,10e-4 1.32309,-0.27655 1.32043,-1.2992 -0.0358,-13.44768 0.009,-26.89669 0.009,-40.34305 z m -46.85366,3.87308 c -3.68539,1.31446 -7.52863,1.38807 -11.50782,1.07969 l 0,14.96773 -7.29519,0 0,-0.92981 c 0,-12.53114 -0.0577,-25.06095 -0.0928,-37.59142 -0.004,-1.04056 0.16116,-1.54327 1.33369,-1.66264 5.52577,-0.56505 11.02037,-1.20039 16.51497,0.0882 5.90645,1.38409 9.31198,5.28901 9.57062,10.68412 0.32033,6.68107 -2.61566,11.25714 -8.52343,13.36412 z m 29.38633,8.45844 c -0.28119,3.82732 -2.43924,6.34018 -5.97873,7.55516 -4.73656,1.62616 -9.44726,1.2488 -14.07639,-0.59092 -0.75804,-0.30175 -0.90461,-0.68375 -0.65458,-1.45638 0.45561,-1.40996 0.7892,-2.85971 1.1407,-4.16886 1.9571,0.57432 3.81803,1.29124 5.74596,1.63013 1.36154,0.23942 2.83318,0.0988 4.21728,-0.11804 1.24084,-0.19498 2.13351,-1.03724 2.33711,-2.36895 0.20692,-1.35358 -0.20095,-2.52612 -1.39603,-3.24636 -0.94971,-0.57167 -1.99624,-0.98086 -2.99965,-1.46036 -1.61357,-0.7713 -3.33324,-1.37613 -4.82145,-2.34109 -5.85671,-3.79814 -3.95002,-10.86518 -0.0418,-13.5266 2.09106,-1.42323 4.40496,-2.05459 6.88201,-2.14147 2.91343,-0.10213 5.71876,0.40057 8.47435,1.73957 l -1.45572,5.16566 c -1.15397,-0.40854 -2.22835,-0.93909 -3.36242,-1.14999 -1.34563,-0.25069 -2.75691,-0.39062 -4.11514,-0.27987 -1.82115,0.14922 -2.88757,1.40598 -2.88757,2.9645 0,0.92317 0.35017,1.70441 1.12014,2.15208 1.10489,0.64264 2.27742,1.17253 3.43935,1.71039 1.25742,0.58162 2.58515,1.02862 3.79549,1.69248 3.22977,1.77074 4.91098,4.50975 4.63708,8.23892 z"
             inkscape:connector-curvature="0"
             style="clip-rule:evenodd;fill:#80b5e2;fill-rule:evenodd" /><path
             id="path4481"
             d="m 972.99105,407.16447 c -23.02919,0 -41.69962,9.46148 -41.69962,21.13238 0,11.6709 18.67043,21.13238 41.69962,21.13238 23.02918,0 41.69965,-9.46148 41.69965,-21.13238 0,-11.6709 -18.67047,-21.13238 -41.69965,-21.13238 z m -10.85048,25.24951 c -0.99515,0.931 -2.1002,1.31527 -3.31718,1.71115 -1.21699,0.39656 -2.76569,0.31465 -4.64884,0.31465 l -4.26797,0 -1.18286,6.82549 -4.98329,0 4.44681,-23.20665 9.58298,0 c 2.88308,0 4.98602,0.8293 6.30811,2.34251 1.3221,1.51321 1.71934,3.66119 1.19241,6.37296 -0.21773,1.11733 -0.58426,2.15617 -1.10163,3.0817 -0.51805,0.92622 -1.19446,1.79101 -2.02854,2.55819 z m 14.54579,2.0258 1.96643,-9.84234 c 0.22387,-1.15215 0.14197,-2.00806 -0.24641,-2.42646 -0.38904,-0.41908 -1.21629,-0.69961 -2.48106,-0.69961 l -3.95195,0 -2.54659,12.96841 -4.94438,0 4.4468,-22.52409 4.94439,0 -1.18218,6.14293 4.40448,0 c 2.77183,0 4.68297,0.55628 5.73478,1.52277 1.0518,0.96649 1.36714,2.29063 0.94669,4.45568 l -2.06881,10.40271 -5.02219,0 z m 27.47874,-7.62952 c -0.2171,1.11733 -0.5843,2.13842 -1.101,3.06328 -0.5173,0.92622 -1.1931,1.77326 -2.0278,2.54044 -0.9952,0.931 -2.1009,1.31527 -3.31721,1.71115 -1.2163,0.39656 -2.76636,0.31465 -4.64951,0.31465 l -4.26798,0 -1.18218,6.82549 -4.98328,0 4.44612,-23.20665 9.58366,0 c 2.88308,0 4.98598,0.8293 6.30738,2.34251 1.3208,1.51321 1.7187,3.69805 1.1918,6.40913 z m -9.38779,-5.33889 -3.41342,0 -1.86132,9.55567 3.03189,0 c 2.00806,0 3.50556,-0.19794 4.48843,-0.95557 0.98424,-0.75626 1.647,-1.93024 1.99168,-3.70009 0.33035,-1.70023 0.18019,-3.02642 -0.45048,-3.72535 -0.63136,-0.69893 -1.89339,-1.17466 -3.78678,-1.17466 z m -38.89502,0 -3.41411,0 -1.86131,9.55567 3.0312,0 c 2.00874,0 3.50557,-0.19794 4.48912,-0.95557 0.98355,-0.75626 1.64699,-1.93024 1.99099,-3.70009 0.33036,-1.70023 0.1802,-3.02642 -0.45048,-3.72535 -0.63067,-0.69893 -1.89202,-1.17466 -3.78541,-1.17466 z"
             inkscape:connector-curvature="0"
             style="fill:#6181b6" /><path
             id="path4492"
             d="m 1023.9579,444.6413 2.7629,0 0,-10.91126 4.2776,9.51229 c 0.5045,1.15146 1.1952,1.55837 2.5505,1.55837 1.3552,0 2.0197,-0.40691 2.5241,-1.55837 l 4.2777,-9.51229 0,10.91126 2.7629,0 0,-10.8931 c 0,-1.06268 -0.4251,-1.57721 -1.3021,-1.8422 -2.0991,-0.6551 -3.5075,-0.0881 -4.1451,1.32902 l -4.1976,9.38786 -4.0644,-9.38854 c -0.6113,-1.41645 -2.046,-1.98344 -4.1451,-1.32902 -0.8771,0.26567 -1.3021,0.77953 -1.3021,1.8422 l 0,10.89378 z m 21.4539,-8.8821 2.7623,0 0,6.01152 c -0.025,0.3262 0.1049,1.09295 1.6182,1.11716 0.7722,0.0121 5.9604,0 6.0088,0 l 0,-7.15827 2.7691,0 c 0.013,0 0,9.76183 0,9.80218 0.014,2.40784 -2.987,2.93043 -4.3712,2.97079 l -8.7247,0 0,-1.85902 c 0.015,0 8.7187,0.002 8.7403,-6.6e-4 1.7789,-0.18765 1.5684,-1.07143 1.5677,-1.3687 l 0,-0.72505 -5.8723,0 c -2.732,-0.0249 -4.4726,-1.21736 -4.4948,-2.58943 0,-0.12577 0.059,-6.13998 -7e-4,-6.20052 z m 15.2884,8.8821 7.9445,0 c 0.9302,0 1.8342,-0.19438 2.5511,-0.53067 1.1952,-0.54882 1.7797,-1.2927 1.7797,-2.26794 l 0,-2.01908 c 0,-0.79701 -0.6639,-1.54155 -1.966,-2.03657 -0.6907,-0.26635 -1.5416,-0.40691 -2.3654,-0.40691 l -3.3481,0 c -1.1158,0 -1.6472,-0.3363 -1.7797,-1.08017 -0.026,-0.0888 -0.026,-0.1594 -0.026,-0.24818 l 0,-1.25772 c 0,-0.0706 0,-0.14191 0.026,-0.23003 0.1325,-0.56698 0.4251,-0.72638 1.4084,-0.81517 l 0.2657,-0.0175 7.8914,0 0,-1.84152 -7.7582,0 c -1.1159,0 -1.7003,0.0706 -2.2317,0.23002 -1.6472,0.51385 -2.3654,1.32835 -2.3654,2.74548 l 0,1.61149 c 0,1.24024 1.409,2.30292 3.7731,2.5511 0.2664,0.0168 0.5314,0.0356 0.797,0.0356 l 2.87,0 c 0.1062,0 0.2125,0 0.2925,0.0168 0.877,0.0706 1.2483,0.2307 1.5147,0.54883 0.1594,0.1594 0.2118,0.31948 0.2118,0.49569 l 0,1.61217 c 0,0.19438 -0.1325,0.44256 -0.3982,0.6551 -0.2387,0.21253 -0.6376,0.35445 -1.1689,0.39009 l -0.2925,0.0175 -7.6258,0 0,1.84152 z m 29.5135,-3.20552 c 0,1.89466 1.4084,2.95733 4.2507,3.17055 0.2657,0.0175 0.5313,0.035 0.797,0.035 l 7.2007,0 0,-1.84152 -7.2532,0 c -1.6208,0 -2.2316,-0.40758 -2.2316,-1.38215 l 0,-9.52911 -2.763,0 0,9.54727 z m -15.4747,0.0955 0,-6.56773 c 0,-1.668 1.1716,-2.68023 3.488,-2.99971 0.2394,-0.0356 0.5064,-0.0531 0.7452,-0.0531 l 5.2455,0 c 0.2663,0 0.5057,0.0175 0.7714,0.0531 2.3163,0.31948 3.4887,1.33104 3.4887,2.99971 l 0,6.56773 c 0,1.35458 -0.4977,2.07828 -1.6445,2.55043 l 2.7226,2.45693 -3.2088,0 -2.2021,-1.98814 -2.2168,0.14056 -2.956,0 c -0.5058,0 -1.0378,-0.0706 -1.6236,-0.23069 -1.7575,-0.47887 -2.6096,-1.40233 -2.6096,-2.92909 z m 2.9829,-0.15939 c 0,0.0888 0.026,0.17823 0.053,0.2845 0.1594,0.76338 0.879,1.18912 1.97,1.18912 l 2.51,0 -2.3056,-2.08163 3.2089,0 2.0103,1.81596 c 0.3713,-0.19841 0.6148,-0.49973 0.7002,-0.8878 0.026,-0.0888 0.026,-0.17757 0.026,-0.26635 l 0,-6.30072 c 0,-0.0706 0,-0.16008 -0.026,-0.24886 -0.1601,-0.71024 -0.879,-1.11782 -1.9437,-1.11782 l -4.1808,0 c -1.2241,0 -2.0231,0.53268 -2.0231,1.36668 l 0,6.24692 z m 27.1708,-12.54025 c -1.6982,-0.0464 -2.9956,0.11164 -4.1054,0.57909 -0.3154,0.13317 -0.8178,0.13653 -0.8689,0.53134 0.1728,0.18226 0.1997,0.45332 0.3376,0.67661 0.265,0.42844 0.7123,1.00281 1.1111,1.30346 0.4351,0.3289 0.8844,0.68132 1.3526,0.9665 0.8306,0.50712 1.7587,0.79633 2.5598,1.30346 0.4714,0.29997 0.9396,0.67661 1.4003,1.01492 0.228,0.16613 0.38,0.42642 0.6766,0.53066 l 0,-0.0478 c -0.1554,-0.19774 -0.1957,-0.46947 -0.3383,-0.67662 l -0.6282,-0.62819 c -0.6141,-0.81517 -1.3929,-1.53012 -2.2222,-2.12468 -0.6605,-0.47417 -2.1388,-1.11514 -2.4145,-1.88389 l -0.049,-0.0478 c 0.4681,-0.0531 1.017,-0.22263 1.4488,-0.33831 0.7263,-0.19505 1.3754,-0.1446 2.1253,-0.33831 l 1.0142,-0.29056 0,-0.19235 c -0.3786,-0.38875 -0.6496,-0.90395 -1.0626,-1.25571 -1.0808,-0.92076 -2.2619,-1.84085 -3.4773,-2.60894 -0.6739,-0.42507 -1.5072,-0.70149 -2.2222,-1.062 -0.2394,-0.12174 -0.6618,-0.18429 -0.8212,-0.38673 -0.3759,-0.47821 -0.5797,-1.0842 -0.8696,-1.64177 -0.6054,-1.16693 -1.2012,-2.44214 -1.7386,-3.67094 -0.3659,-0.83736 -0.6054,-1.66329 -1.062,-2.41456 -2.1933,-3.6057 -4.5541,-5.78217 -8.2109,-7.92097 -0.7782,-0.45534 -1.7151,-0.63425 -2.7044,-0.86898 l -1.594,-0.0968 c -0.3235,-0.13519 -0.6612,-0.53201 -0.9659,-0.72437 -1.2119,-0.76539 -4.3193,-2.43003 -5.2165,-0.24078 -0.5663,1.38148 0.8474,2.72933 1.3526,3.42948 0.3544,0.49099 0.809,1.04116 1.0626,1.59335 0.1668,0.36319 0.1951,0.72706 0.3383,1.1111 0.3505,0.94565 0.6565,1.97536 1.1105,2.84904 0.2293,0.44256 0.4828,0.90866 0.7727,1.30414 0.1776,0.24213 0.483,0.34974 0.5308,0.72436 -0.2981,0.417 -0.3155,1.06537 -0.483,1.59335 -0.7546,2.38026 -0.4701,5.33894 0.6282,7.10043 0.337,0.54141 1.1306,1.70094 2.2216,1.2557 0.9543,-0.38875 0.7418,-1.59335 1.0149,-2.65669 0.062,-0.24011 0.023,-0.41768 0.1445,-0.5791 l 0,0.0484 0.8697,1.73861 c 0.6437,1.03645 1.785,2.11863 2.7529,2.84972 0.5017,0.37867 0.8972,1.03443 1.5456,1.25572 l 0,-0.0491 -0.048,0 c -0.1265,-0.19572 -0.3222,-0.27643 -0.4836,-0.43449 -0.378,-0.37059 -0.7984,-0.83063 -1.1105,-1.2557 -0.8804,-1.19451 -1.6579,-2.50268 -2.3668,-3.86397 -0.3383,-0.64972 -0.6322,-1.36668 -0.9174,-2.0285 -0.1102,-0.25491 -0.1089,-0.64097 -0.3376,-0.77213 -0.3134,0.48426 -0.7728,0.87638 -1.0149,1.44874 -0.3861,0.91471 -0.4359,2.03051 -0.5791,3.18736 l -0.097,0.0478 c -0.6732,-0.1621 -0.9093,-0.85485 -1.1595,-1.44874 -0.6322,-1.50187 -0.7499,-3.92114 -0.193,-5.65035 0.1439,-0.44793 0.7943,-1.85699 0.5307,-2.27063 -0.1258,-0.41229 -0.5408,-0.65038 -0.7722,-0.96649 -0.2871,-0.38943 -0.5743,-0.90193 -0.7728,-1.35256 -0.5178,-1.17096 -0.7593,-2.48585 -1.3034,-3.67027 -0.261,-0.56631 -0.7008,-1.13867 -1.0627,-1.64176 -0.4002,-0.55824 -0.8488,-0.96852 -1.1595,-1.64244 -0.1103,-0.23944 -0.2603,-0.62348 -0.097,-0.86965 0.051,-0.16613 0.1264,-0.2354 0.2906,-0.28988 0.2797,-0.2159 1.06,0.072 1.3518,0.19303 0.7748,0.32216 1.4212,0.62819 2.0777,1.06267 0.3148,0.20918 0.6329,0.61273 1.0142,0.72438 l 0.4345,0 c 0.68,0.15603 1.442,0.0478 2.0769,0.24078 1.1232,0.34167 2.1294,0.87233 3.0428,1.44941 2.7838,1.75812 5.0591,4.26012 6.6168,7.24503 0.2502,0.48089 0.3592,0.93892 0.5791,1.44873 0.4453,1.0277 1.0062,2.08568 1.4488,3.09118 0.4418,1.00282 0.873,2.01505 1.4978,2.84972 0.3282,0.43852 1.5967,0.67392 2.1731,0.9174 0.4042,0.17083 1.066,0.34907 1.4487,0.57909 0.7311,0.44121 1.44,0.9665 2.1254,1.44941 0.3423,0.24347 1.3963,0.77279 1.4487,1.2093 z m -21.5891,-18.40111 c -0.3538,-0.007 -0.6046,0.039 -0.8696,0.0968 l 0,0.0478 0.049,0 c 0.1689,0.34773 0.4668,0.57102 0.676,0.86965 l 0.4835,1.01425 0.048,-0.0478 c 0.2993,-0.21051 0.4359,-0.54748 0.4345,-1.06268 -0.1203,-0.12644 -0.1378,-0.28449 -0.2414,-0.43448 -0.1373,-0.20177 -0.4049,-0.31476 -0.5791,-0.48358 z"
             inkscape:connector-curvature="0"
             style="fill:#00618a" /></g></g></g></g><g
     id="g17"
     transform="translate(0,-381.78319)" /><g
     id="g19"
     transform="translate(0,-381.78319)" /><g
     id="g21"
     transform="translate(0,-381.78319)" /><g
     id="g23"
     transform="translate(0,-381.78319)" /><g
     id="g25"
     transform="translate(0,-381.78319)" /><g
     id="g27"
     transform="translate(0,-381.78319)" /><g
     id="g29"
     transform="translate(0,-381.78319)" /><g
     id="g31"
     transform="translate(0,-381.78319)" /><g
     id="g33"
     transform="translate(0,-381.78319)" /><g
     id="g35"
     transform="translate(0,-381.78319)" /><g
     id="g37"
     transform="translate(0,-381.78319)" /><g
     id="g39"
     transform="translate(0,-381.78319)" /><g
     id="g41"
     transform="translate(0,-381.78319)" /><g
     id="g43"
     transform="translate(0,-381.78319)" /><g
     id="g45"
     transform="translate(0,-381.78319)" /></svg>