<?xml version="1.0" encoding="UTF-8" standalone="no"?>
<!-- Generator: Adobe Illustrator 15.0.0, SVG Export Plug-In . SVG Version: 6.00 Build 0)  -->

<svg
   xmlns:dc="http://purl.org/dc/elements/1.1/"
   xmlns:cc="http://creativecommons.org/ns#"
   xmlns:rdf="http://www.w3.org/1999/02/22-rdf-syntax-ns#"
   xmlns:svg="http://www.w3.org/2000/svg"
   xmlns="http://www.w3.org/2000/svg"
   xmlns:sodipodi="http://sodipodi.sourceforge.net/DTD/sodipodi-0.dtd"
   xmlns:inkscape="http://www.inkscape.org/namespaces/inkscape"
   version="1.1"
   id="Facebook"
   x="0px"
   y="0px"
   width="100px"
   height="100px"
   viewBox="0 0 100 100"
   enable-background="new 0 0 100 100"
   xml:space="preserve"
   inkscape:version="0.91 r13725"
   sodipodi:docname="icon_link.svg"><metadata
     id="metadata9"><rdf:RDF><cc:Work
         rdf:about=""><dc:format>image/svg+xml</dc:format><dc:type
           rdf:resource="http://purl.org/dc/dcmitype/StillImage" /><dc:title></dc:title></cc:Work></rdf:RDF></metadata><defs
     id="defs7" /><sodipodi:namedview
     pagecolor="#ffffff"
     bordercolor="#666666"
     borderopacity="1"
     objecttolerance="10"
     gridtolerance="10"
     guidetolerance="10"
     inkscape:pageopacity="0"
     inkscape:pageshadow="2"
     inkscape:window-width="1920"
     inkscape:window-height="1027"
     id="namedview5"
     showgrid="false"
     inkscape:zoom="3.337544"
     inkscape:cx="40.685349"
     inkscape:cy="23.63991"
     inkscape:window-x="1272"
     inkscape:window-y="-8"
     inkscape:window-maximized="1"
     inkscape:current-layer="Facebook" /><g
     id="g3374"
     transform="matrix(0.14446286,0,0,0.14446286,19.210233,17.177321)"><g
       id="g3334" /><g
       id="g3338" /><g
       id="g3340" /><g
       id="g3342" /><g
       id="g3344" /><g
       id="g3346" /><g
       id="g3348" /><g
       id="g3350" /><g
       id="g3352" /><g
       id="g3354" /><g
       id="g3356" /><g
       id="g3358" /><g
       id="g3360" /><g
       id="g3362" /><g
       id="g3364" /><g
       id="g3366" /></g><path
     style="clip-rule:evenodd;fill:#ffffff;fill-opacity:1;fill-rule:evenodd"
     d="M 50 0 C 22.386 0 0 22.386 0 50 C 0 77.614 22.386 100 50 100 C 77.614 100 100 77.614 100 50 C 100 22.386 77.614 0 50 0 z M 67.710938 17.177734 C 72.195679 17.177734 76.68119 18.888872 80.103516 22.310547 C 86.944843 29.153608 86.944843 40.24888 80.103516 47.091797 L 67.708984 59.482422 C 60.868379 66.327072 49.771449 66.327072 42.929688 59.482422 C 41.851995 58.407763 41.00795 57.196003 40.267578 55.947266 L 46.027344 50.189453 C 46.301101 49.913385 46.637919 49.754716 46.960938 49.568359 C 47.359077 50.928622 48.055253 52.217217 49.125 53.287109 C 52.541258 56.706112 58.099437 56.701345 61.513672 53.287109 L 73.904297 40.896484 C 77.323155 37.477915 77.323155 31.919875 73.904297 28.503906 C 70.489917 25.087937 64.932097 25.087937 61.513672 28.503906 L 57.107422 32.916016 C 53.531966 31.523827 49.679654 31.149682 45.929688 31.699219 L 55.320312 22.310547 C 58.742638 18.888872 63.226196 17.177734 67.710938 17.177734 z M 49.125 35.763672 C 53.609976 35.763672 58.093658 37.474809 61.513672 40.896484 C 62.591798 41.972299 63.440176 43.179945 64.175781 44.433594 L 58.416016 50.189453 C 58.142403 50.463499 57.809272 50.615875 57.484375 50.804688 C 57.082479 49.446159 56.385651 48.159377 55.318359 47.091797 C 51.902391 43.673517 46.348401 43.673517 42.929688 47.091797 L 30.537109 59.482422 C 27.120852 62.89998 27.120852 68.457951 30.537109 71.876953 C 33.953656 75.291188 39.513719 75.291188 42.929688 71.876953 L 47.337891 67.464844 C 50.910313 68.854432 54.763636 69.232402 58.515625 68.679688 L 49.125 78.070312 C 42.281794 84.911496 31.185147 84.911496 24.341797 78.070312 C 17.499169 71.225518 17.499169 60.132482 24.341797 53.287109 L 36.732422 40.896484 C 40.154097 37.474809 44.640024 35.763672 49.125 35.763672 z "
     id="path3" /></svg>