<?xml version="1.0" encoding="UTF-8" standalone="no"?>
<!-- Generator: Adobe Illustrator 16.0.0, SVG Export Plug-In . SVG Version: 6.00 Build 0)  -->

<svg
   xmlns:dc="http://purl.org/dc/elements/1.1/"
   xmlns:cc="http://creativecommons.org/ns#"
   xmlns:rdf="http://www.w3.org/1999/02/22-rdf-syntax-ns#"
   xmlns:svg="http://www.w3.org/2000/svg"
   xmlns="http://www.w3.org/2000/svg"
   xmlns:sodipodi="http://sodipodi.sourceforge.net/DTD/sodipodi-0.dtd"
   xmlns:inkscape="http://www.inkscape.org/namespaces/inkscape"
   version="1.1"
   id="Capa_1"
   x="0px"
   y="0px"
   width="1251.9021"
   height="512"
   viewBox="0 0 85.579245 35"
   xml:space="preserve"
   inkscape:version="0.91 r13725"
   sodipodi:docname="icon_switch.svg"><metadata
     id="metadata41"><rdf:RDF><cc:Work
         rdf:about=""><dc:format>image/svg+xml</dc:format><dc:type
           rdf:resource="http://purl.org/dc/dcmitype/StillImage" /><dc:title /></cc:Work></rdf:RDF></metadata><defs
     id="defs39" /><sodipodi:namedview
     pagecolor="#ffffff"
     bordercolor="#666666"
     borderopacity="1"
     objecttolerance="10"
     gridtolerance="10"
     guidetolerance="10"
     inkscape:pageopacity="0"
     inkscape:pageshadow="2"
     inkscape:window-width="1920"
     inkscape:window-height="1027"
     id="namedview37"
     showgrid="false"
     fit-margin-top="0"
     fit-margin-left="0"
     fit-margin-right="0"
     fit-margin-bottom="0"
     inkscape:zoom="0.65186408"
     inkscape:cx="383.64698"
     inkscape:cy="508.49323"
     inkscape:window-x="1272"
     inkscape:window-y="-8"
     inkscape:window-maximized="1"
     inkscape:current-layer="Capa_1" /><rect
     style="fill:#ffffff;fill-opacity:0;stroke:none"
     id="rect4152"
     width="41.212936"
     height="24.853601"
     x="43.310287"
     y="1.4423907" /><rect
     style="fill:#ffffff;fill-opacity:0;stroke:none"
     id="rect4150"
     width="18.246948"
     height="32.404064"
     x="1.3632778"
     y="1.1277881" /><g
     id="g3"
     style="fill:#cccccc;fill-opacity:1"
     transform="translate(-7.334,0)"><path
       d="M 25.302,0 9.698,0 C 8.398,0 7.334,1.063 7.334,2.364 l 0,30.271 C 7.334,33.936 8.398,35 9.698,35 l 15.604,0 c 1.3,0 2.364,-1.062 2.364,-2.364 l 0,-30.272 C 27.666,1.063 26.602,0 25.302,0 Z m -10.298,1.704 4.992,0 c 0.158,0 0.286,0.128 0.286,0.287 0,0.158 -0.128,0.286 -0.286,0.286 l -4.992,0 c -0.158,0 -0.286,-0.128 -0.286,-0.286 0,-0.159 0.128,-0.287 0.286,-0.287 z M 17.5,33.818 c -0.653,0 -1.182,-0.529 -1.182,-1.183 0,-0.654 0.529,-1.182 1.182,-1.182 0.653,0 1.182,0.528 1.182,1.182 0,0.654 -0.529,1.183 -1.182,1.183 z m 8.521,-3.193 -17.042,0 0,-26.876 17.042,0 0,26.876 z"
       id="path5"
       style="fill:#cccccc;fill-opacity:1"
       inkscape:connector-curvature="0" /></g><g
     id="g7"
     transform="translate(-7.334,0)" /><g
     id="g9"
     transform="translate(-7.334,0)" /><g
     id="g11"
     transform="translate(-7.334,0)" /><g
     id="g13"
     transform="translate(-7.334,0)" /><g
     id="g15"
     transform="translate(-7.334,0)" /><g
     id="g17"
     transform="translate(-7.334,0)" /><g
     id="g19"
     transform="translate(-7.334,0)" /><g
     id="g21"
     transform="translate(-7.334,0)" /><g
     id="g23"
     transform="translate(-7.334,0)" /><g
     id="g25"
     transform="translate(-7.334,0)" /><g
     id="g27"
     transform="translate(-7.334,0)" /><g
     id="g29"
     transform="translate(-7.334,0)" /><g
     id="g31"
     transform="translate(-7.334,0)" /><g
     id="g33"
     transform="translate(-7.334,0)" /><g
     id="g35"
     transform="translate(-7.334,0)" /><path
     style="fill:#cccccc"
     d="m 56.9776,34.935961 c -0.403336,0.0092 -0.652338,0.01107 -1.099621,0.01906 l 0.02446,-0.339336 c 0.02287,-0.317451 0.464037,-0.799902 1.190473,-1.235603 0.829698,-0.471128 1.67688,-1.080355 2.051348,-1.929457 0.101429,-0.225559 0.216035,-0.486636 0.254681,-0.580173 0.134338,-0.325154 0.245155,-3.216943 0.127774,-3.334328 -0.03686,-0.03686 -3.837557,-0.07022 -8.445983,-0.07412 l -8.378959,-0.0071 -0.165162,-0.205487 c -0.09085,-0.112982 -0.239164,-0.320243 -0.329608,-0.460548 -0.160694,-0.249283 -0.164431,-0.543107 -0.163826,-12.882625 3.4e-4,-6.9451373 0.02496,-12.7748553 0.05471,-12.95492852 0.04073,-0.2465127 0.268364,-0.48262453 0.365128,-0.55271984 l 0.311037,-0.22531407 20.913651,0.0199884 c 11.502508,0.0109967 20.990182,0.0321269 21.083719,0.0469614 0.273355,0.0433546 0.412855,0.16551524 0.616494,0.53986444 l 0.191327,0.35171309 0,12.6839441 c 0,11.203189 -0.01514,12.713231 -0.129735,12.934822 -0.07135,0.137983 -0.103694,0.250878 -0.07185,0.250878 0.03183,0 -0.01057,0.07563 -0.09421,0.168063 -0.08365,0.09244 -0.184454,0.148062 -0.224005,0.123621 -0.03956,-0.02444 -0.158497,0.0018 -0.264318,0.05853 -0.146535,0.07842 -2.152245,0.1047 -8.413023,0.110224 -4.52134,0.0039 -8.24782,0.03445 -8.281067,0.06771 -0.122452,0.122464 -0.02057,2.660053 0.128473,3.199839 0.220717,1.55279 1.711842,2.452746 2.963015,3.164406 0.219263,0.114367 0.410986,0.327737 0.44598,0.374505 0.07353,0.09827 0.289775,0.492452 0.18016,0.609045 -0.05997,0.06376 -14.777935,0.121755 -14.841054,0.05863 z m 28.272355,-7.828266 c 0.105771,-0.134869 0.102761,-0.137877 -0.0321,-0.0321 -0.141645,0.111082 -0.186689,0.180914 -0.116705,0.180914 0.01765,0 0.08462,-0.06696 0.148809,-0.148808 z m -1.741904,-13.626518 0.0028,-11.1920819 -19.62194,0.00499 c -10.792069,0.00275 -19.65383,0.036879 -19.692804,0.075856 -0.03897,0.038976 -0.07284,5.0738932 -0.07526,11.1887059 l -0.0043,11.117841 19.694387,-0.0016 19.694387,-0.0016 0.0028,-11.19208 z"
     id="path3380"
     inkscape:connector-curvature="0"
     sodipodi:nodetypes="ccsccscscssscscssscscscscssccccccccsccccscsccccc" /></svg>