<?xml version="1.0" encoding="UTF-8" standalone="no"?>
<!-- Generator: Adobe Illustrator 19.0.0, SVG Export Plug-In . SVG Version: 6.00 Build 0)  -->

<svg
   xmlns:dc="http://purl.org/dc/elements/1.1/"
   xmlns:cc="http://creativecommons.org/ns#"
   xmlns:rdf="http://www.w3.org/1999/02/22-rdf-syntax-ns#"
   xmlns:svg="http://www.w3.org/2000/svg"
   xmlns="http://www.w3.org/2000/svg"
   xmlns:sodipodi="http://sodipodi.sourceforge.net/DTD/sodipodi-0.dtd"
   xmlns:inkscape="http://www.inkscape.org/namespaces/inkscape"
   version="1.1"
   id="Capa_1"
   x="0px"
   y="0px"
   viewBox="0 0 474.449 474.449"
   style="enable-background:new 0 0 474.449 474.449;"
   xml:space="preserve"
   width="512px"
   height="512px"
   inkscape:version="0.91 r13725"
   sodipodi:docname="icon_arrow.svg"><metadata
     id="metadata51"><rdf:RDF><cc:Work
         rdf:about=""><dc:format>image/svg+xml</dc:format><dc:type
           rdf:resource="http://purl.org/dc/dcmitype/StillImage" /></cc:Work></rdf:RDF></metadata><defs
     id="defs49" /><sodipodi:namedview
     pagecolor="#ffffff"
     bordercolor="#666666"
     borderopacity="1"
     objecttolerance="10"
     gridtolerance="10"
     guidetolerance="10"
     inkscape:pageopacity="0"
     inkscape:pageshadow="2"
     inkscape:window-width="1920"
     inkscape:window-height="1027"
     id="namedview47"
     showgrid="false"
     inkscape:zoom="0.65186406"
     inkscape:cx="32.075728"
     inkscape:cy="455.68691"
     inkscape:window-x="1272"
     inkscape:window-y="-8"
     inkscape:window-maximized="1"
     inkscape:current-layer="g9" /><g
     id="g3"><g
       id="g5"><g
         id="g7"><g
           id="g9"><path
             d="M248.205,113.622c-3.178-3.178-7.31-4.704-11.473-4.64c-4.227-0.064-8.391,1.462-11.569,4.64      l-106.312,94.044c-6.229,6.229-6.229,16.368,0,22.597c6.229,6.261,16.368,6.261,22.597,0l95.22-84.255l95.22,84.255      c6.229,6.261,16.4,6.261,22.597,0c6.229-6.229,6.229-16.368,0-22.597L248.205,113.622z"
             fill="#FFFFFF"
             id="path13" /><path
             d="M248.205,227.594c-3.178-3.178-7.31-4.704-11.473-4.64c-4.227-0.064-8.391,1.462-11.569,4.64      l-106.312,94.013c-6.229,6.261-6.229,16.4,0,22.597c6.229,6.261,16.368,6.261,22.597,0l95.22-84.192l95.22,84.192      c6.229,6.261,16.4,6.261,22.597,0c6.229-6.198,6.229-16.336,0-22.597L248.205,227.594z"
             fill="#FFFFFF"
             id="path15" /></g></g></g></g><g
     id="g17" /><g
     id="g19" /><g
     id="g21" /><g
     id="g23" /><g
     id="g25" /><g
     id="g27" /><g
     id="g29" /><g
     id="g31" /><g
     id="g33" /><g
     id="g35" /><g
     id="g37" /><g
     id="g39" /><g
     id="g41" /><g
     id="g43" /><g
     id="g45" /></svg>