<?xml version="1.0" encoding="UTF-8" standalone="no"?>
<!-- Generator: Adobe Illustrator 15.0.0, SVG Export Plug-In . SVG Version: 6.00 Build 0)  -->

<svg
   xmlns:dc="http://purl.org/dc/elements/1.1/"
   xmlns:cc="http://creativecommons.org/ns#"
   xmlns:rdf="http://www.w3.org/1999/02/22-rdf-syntax-ns#"
   xmlns:svg="http://www.w3.org/2000/svg"
   xmlns="http://www.w3.org/2000/svg"
   xmlns:sodipodi="http://sodipodi.sourceforge.net/DTD/sodipodi-0.dtd"
   xmlns:inkscape="http://www.inkscape.org/namespaces/inkscape"
   version="1.1"
   id="Facebook"
   x="0px"
   y="0px"
   width="100px"
   height="100px"
   viewBox="0 0 100 100"
   enable-background="new 0 0 100 100"
   xml:space="preserve"
   inkscape:version="0.91 r13725"
   sodipodi:docname="icon_more.svg"><metadata
     id="metadata9"><rdf:RDF><cc:Work
         rdf:about=""><dc:format>image/svg+xml</dc:format><dc:type
           rdf:resource="http://purl.org/dc/dcmitype/StillImage" /><dc:title></dc:title></cc:Work></rdf:RDF></metadata><defs
     id="defs7" /><sodipodi:namedview
     pagecolor="#ffffff"
     bordercolor="#666666"
     borderopacity="1"
     objecttolerance="10"
     gridtolerance="10"
     guidetolerance="10"
     inkscape:pageopacity="0"
     inkscape:pageshadow="2"
     inkscape:window-width="1920"
     inkscape:window-height="1027"
     id="namedview5"
     showgrid="false"
     inkscape:zoom="3.337544"
     inkscape:cx="40.685349"
     inkscape:cy="23.63991"
     inkscape:window-x="1272"
     inkscape:window-y="-8"
     inkscape:window-maximized="1"
     inkscape:current-layer="Facebook" /><path
     style="clip-rule:evenodd;fill:#ffffff;fill-opacity:1;fill-rule:evenodd"
     d="M 50 0 C 22.386 0 0 22.386 0 50 C 0 77.614 22.386 100 50 100 C 77.614 100 100 77.614 100 50 C 100 22.386 77.614 0 50 0 z M 27.484375 41.914062 C 32.030938 41.914062 35.751953 45.63312 35.751953 50.179688 C 35.751953 54.726245 32.030938 58.447266 27.484375 58.447266 C 22.937806 58.447266 19.21875 54.726245 19.21875 50.179688 C 19.21875 45.63312 22.937806 41.914062 27.484375 41.914062 z M 52.283203 41.914062 C 56.82978 41.914062 60.550781 45.63312 60.550781 50.179688 C 60.550781 54.726245 56.82978 58.447266 52.283203 58.447266 C 47.736636 58.447266 44.017578 54.726245 44.017578 50.179688 C 44.017578 45.63312 47.736636 41.914062 52.283203 41.914062 z M 77.083984 41.914062 C 81.630542 41.914062 85.349609 45.63312 85.349609 50.179688 C 85.349609 54.726245 81.630542 58.447266 77.083984 58.447266 C 72.537417 58.447266 68.816406 54.726245 68.816406 50.179688 C 68.816406 45.63312 72.537417 41.914062 77.083984 41.914062 z "
     id="path3" /><g
     id="g3438"
     transform="matrix(0.92848667,0,0,0.92848667,-51.721588,-91.520424)"><g
       id="g3397"><g
         id="more-horiz" /></g><g
       id="g3402" /><g
       id="g3404" /><g
       id="g3406" /><g
       id="g3408" /><g
       id="g3410" /><g
       id="g3412" /><g
       id="g3414" /><g
       id="g3416" /><g
       id="g3418" /><g
       id="g3420" /><g
       id="g3422" /><g
       id="g3424" /><g
       id="g3426" /><g
       id="g3428" /><g
       id="g3430" /></g></svg>