<svg xmlns="http://www.w3.org/2000/svg" viewBox="0 0 555.99492 92.66582" width="600" height="100"><g fill="#fff"><path d="M48.951 22.945a3.576 3.576 0 0 0-2.604-1.053 3.602 3.602 0 0 0-2.625 1.053L19.593 44.29a3.631 3.631 0 0 0 0 5.129 3.618 3.618 0 0 0 5.129 0l21.61-19.122 21.612 19.122a3.618 3.618 0 0 0 5.128 0 3.631 3.631 0 0 0 0-5.129l-24.12-21.344z"/><path d="M48.951 41.968a3.576 3.576 0 0 0-2.604-1.053 3.602 3.602 0 0 0-2.625 1.053L19.593 63.305c-1.413 1.421-1.413 3.722 0 5.129a3.618 3.618 0 0 0 5.129 0l21.61-19.108 21.612 19.108a3.618 3.618 0 0 0 5.128 0c1.414-1.407 1.414-3.708 0-5.129l-24.12-21.337z"/></g><path d="M157.72 4.633h-37.18c-3.098 0-5.633 2.533-5.633 5.633v72.131c0 3.1 2.535 5.636 5.633 5.636h37.181c3.098 0 5.633-2.531 5.633-5.634V10.266c0-3.1-2.535-5.633-5.633-5.633zm-24.538 4.06h11.895a.682.682 0 0 1 0 1.366h-11.895a.682.682 0 1 1 0-1.365zm5.948 76.523a2.816 2.816 0 0 1-2.817-2.819 2.814 2.814 0 0 1 2.817-2.816 2.814 2.814 0 0 1 2.816 2.816 2.816 2.816 0 0 1-2.816 2.819zm20.304-7.608h-40.609V13.567h40.609v64.04zM262.94 15.29h-62.55c-5.757 0-10.425 4.668-10.425 10.425v41.7c0 5.757 4.668 10.424 10.425 10.424h62.55c5.756 0 10.424-4.667 10.424-10.425v-41.7c0-5.756-4.668-10.424-10.425-10.424zm-17.16 27.818l22.066-18.91c.153.488.306.977.306 1.517v41.7c0 .36-.138.682-.209 1.022L245.78 43.108zm17.16-22.606c.345 0 .65.133.977.199l-32.252 27.645-32.253-27.645c.326-.066.632-.199.978-.199h62.55zm-67.556 47.93c-.072-.34-.207-.656-.207-1.018v-41.7c0-.539.156-1.028.308-1.516l22.06 18.905-22.161 25.33zm5.006 4.195c-.527 0-1.006-.153-1.487-.3l22.601-25.829 8.466 7.254a2.577 2.577 0 0 0 1.695.631 2.58 2.58 0 0 0 1.695-.63l8.465-7.255 22.6 25.829c-.478.147-.956.3-1.486.3h-62.55zm85.38.196c-4.215-2.145-2.634-7.581-3.022-11.393-.127-12.91-.26-25.825.235-38.729.88-4.567 6.412-3.679 9.86-3.706 23.157-.158 45.568-.031 69.2.006 4.632.038 3.923 7.284 3.798 10.901.155 13.14.267 25.9.122 39.036-.061 4.519-6.706 4.245-10.174 4.213-5.783.057-11.588.201-17.348-.437-2.902-1.08-3.972-7.679-6.093-11.412-1.602-3.79-2.851-9.738-7.951-9.837-4.559-.182-6.093 4.624-7.48 8.056-1.63 4.03-3.041 8.172-5.185 11.971-3.011 2.72-7.39 1.1-11.03 1.653-4.978.035-9.97.193-14.931-.322zm20.948-17.627c6.626-.844 10.104-9.841 5.751-14.93-3.14-4.352-10.368-4.626-13.648-.277-3.495 3.92-2.704 10.623 1.683 13.562 1.743 1.322 4.024 2.138 6.214 1.645zm39.217-.435c5.627-1.921 8.052-9.78 4.116-14.38-2.912-4.234-9.676-4.903-13.147-.976-4.267 4.155-3.255 12.316 2.282 14.88 2.053 1.08 4.57 1.321 6.749.476z" fill="#fff"/><path d="M416.996 4.633c-23.03 0-41.7 18.67-41.7 41.7s18.67 41.7 41.7 41.7 41.7-18.67 41.7-41.7-18.67-41.7-41.7-41.7zm14.771 14.326c3.74 0 7.481 1.427 10.335 4.281 5.706 5.707 5.706 14.96 0 20.667l-10.337 10.334c-5.705 5.709-14.96 5.709-20.665 0-.9-.896-1.603-1.907-2.22-2.948l4.803-4.802c.228-.23.51-.363.779-.518.332 1.134.912 2.209 1.804 3.101 2.85 2.852 7.485 2.848 10.333 0l10.333-10.333c2.852-2.851 2.852-7.487 0-10.336-2.847-2.849-7.483-2.849-10.333 0l-3.675 3.68c-2.982-1.161-6.195-1.473-9.322-1.015l7.831-7.83a14.57 14.57 0 0 1 10.334-4.28zm-15.5 15.5c3.74 0 7.48 1.428 10.332 4.282.899.897 1.606 1.904 2.22 2.95l-4.804 4.8c-.228.228-.506.356-.777.513-.335-1.133-.916-2.206-1.806-3.097a7.311 7.311 0 0 0-10.332 0l-10.336 10.334c-2.849 2.85-2.849 7.486 0 10.337 2.85 2.848 7.487 2.848 10.336 0l3.676-3.68c2.98 1.16 6.193 1.475 9.322 1.014l-7.832 7.831c-5.707 5.706-14.961 5.706-20.669 0-5.706-5.708-5.706-14.96 0-20.669l10.334-10.333a14.572 14.572 0 0 1 10.335-4.281zm93.395-29.826c-23.03 0-41.7 18.67-41.7 41.7s18.67 41.7 41.7 41.7 41.7-18.67 41.7-41.7-18.67-41.7-41.7-41.7zM490.884 39.59c3.792 0 6.895 3.102 6.895 6.894 0 3.792-3.103 6.895-6.895 6.895-3.792 0-6.893-3.103-6.893-6.895 0-3.792 3.101-6.894 6.893-6.894zm20.682 0c3.792 0 6.895 3.102 6.895 6.894 0 3.792-3.103 6.895-6.895 6.895-3.792 0-6.893-3.103-6.893-6.895 0-3.792 3.101-6.894 6.893-6.894zm20.684 0c3.792 0 6.893 3.102 6.893 6.894 0 3.792-3.101 6.895-6.893 6.895s-6.895-3.103-6.895-6.895c0-3.792 3.103-6.894 6.895-6.894z" clip-rule="evenodd" fill="#fff" fill-rule="evenodd"/></svg>