<svg xmlns="http://www.w3.org/2000/svg" class="realization__switcher" viewBox="0 0 200 50" width="200" height="50"><path d="M50.489 9.629h38.526v23.235H50.489zm-39.215-.294h17.059V39.63H11.274z" fill="none"/><path d="M26.798 8.28H12.21c-1.215 0-2.21.994-2.21 2.21v28.3c0 1.216.995 2.211 2.21 2.211h14.588c1.215 0 2.21-.993 2.21-2.21V10.492c0-1.217-.995-2.21-2.21-2.21M17.17 9.875h4.667a.268.268 0 0 1 0 .535H17.17a.267.267 0 1 1 0-.535zm2.334 30.018a1.105 1.105 0 1 1 0-2.21 1.105 1.105 0 0 1 0 2.21m7.966-2.985H11.54V11.783h15.93v25.125" class="realization__switcher__phone" fill="#ccc"/><path d="M63.267 40.941c-.377.009-.61.01-1.029.018l.023-.317c.021-.296.434-.748 1.112-1.156.776-.44 1.568-1.01 1.918-1.803.094-.211.202-.455.238-.542.125-.304.23-3.008.12-3.117-.035-.035-3.588-.065-7.896-.07l-7.833-.006-.155-.191a6.143 6.143 0 0 1-.308-.431c-.15-.233-.153-.508-.153-12.044 0-6.493.023-11.943.05-12.111.04-.231.251-.452.342-.517l.29-.21 19.553.018c10.753.01 19.622.03 19.707.044.255.04.386.155.575.505L90 9.34v11.858c0 10.473-.014 11.885-.122 12.092-.066.13-.097.235-.067.235s-.01.07-.088.157c-.078.086-.172.138-.21.116-.037-.023-.147.002-.246.055-.137.073-2.012.098-7.865.103-4.226.004-7.71.032-7.742.063-.114.114-.02 2.487.12 2.992.207 1.452 1.6 2.293 2.77 2.958a1.5 1.5 0 0 1 .417.35c.07.092.271.46.168.57-.056.06-13.815.114-13.874.055m26.429-7.318c.099-.126.096-.13-.03-.03-.133.104-.175.17-.11.17.017 0 .08-.064.14-.14m-1.629-12.74l.003-10.463-18.344.005c-10.089.003-18.374.035-18.41.071-.037.037-.069 4.744-.07 10.46l-.004 10.396 18.411-.002 18.411-.002.003-10.463" class="realization__switcher__desktop is-active" fill="#bf3448"/><path d="M150.489 9.629h38.526v23.235h-38.526zm-39.215-.294h17.059V39.63h-17.059z" fill="none"/><path d="M126.798 8.28H112.21c-1.215 0-2.21.994-2.21 2.21v28.3c0 1.216.995 2.211 2.21 2.211h14.588c1.215 0 2.21-.993 2.21-2.21V10.492c0-1.217-.995-2.21-2.21-2.21m-9.628 1.593h4.667a.268.268 0 0 1 0 .535h-4.667a.267.267 0 1 1 0-.535zm2.334 30.018a1.105 1.105 0 1 1 0-2.21 1.105 1.105 0 0 1 0 2.21m7.966-2.985h-15.93V11.783h15.93v25.125" class="realization__switcher__phone" fill="#bf3448"/><path d="M163.267 40.941c-.377.009-.61.01-1.029.018l.023-.317c.021-.296.434-.748 1.112-1.156.776-.44 1.568-1.01 1.918-1.803.094-.211.202-.455.238-.542.125-.304.23-3.008.12-3.117-.035-.035-3.588-.065-7.896-.07l-7.833-.006-.155-.191a6.143 6.143 0 0 1-.308-.431c-.15-.233-.153-.508-.153-12.044 0-6.493.023-11.943.05-12.111.04-.231.251-.452.342-.517l.29-.21 19.553.018c10.753.01 19.622.03 19.707.044.255.04.386.155.575.505l.179.329v11.858c0 10.473-.014 11.885-.122 12.092-.066.13-.097.235-.067.235s-.01.07-.088.157c-.078.086-.172.138-.21.116-.037-.023-.147.002-.246.055-.137.073-2.012.098-7.865.103-4.226.004-7.71.032-7.742.063-.114.114-.02 2.487.12 2.992.207 1.452 1.6 2.293 2.77 2.958a1.5 1.5 0 0 1 .417.35c.07.092.271.46.168.57-.056.06-13.815.114-13.874.055m26.429-7.318c.099-.126.096-.13-.03-.03-.133.104-.175.17-.11.17.017 0 .08-.064.14-.14m-1.629-12.74l.003-10.463-18.344.005c-10.089.003-18.374.035-18.41.071-.037.037-.069 4.744-.07 10.46l-.004 10.396 18.411-.002 18.411-.002.003-10.463" class="realization__switcher__desktop is-active" fill="#ccc"/></svg>