<svg xmlns="http://www.w3.org/2000/svg" viewBox="0 0 1111.9898 92.665818" width="1200" height="100"><g transform="translate(0-381.78)"><path d="m9.267 386.42l6.702 75.09 30.08 8.308 30.16-8.298 6.709-75.1h-73.65m59.706 17.779l-.42 4.805-.185 2.203h-35.28l.842 9.379h33.6l-.225 2.325-2.166 24.2-.159 1.521-18.889 5.191-.023.013-18.876-4.973-1.282-14.206h9.255l.656 7.315 10.241 2.734h.029v-.366l10.286-2.596 1.075-11.776h-31.953l-2.266-25.535-.22-2.601h46.18l-.221 2.371" fill="#e44d26"/><path d="m101.93 386.42l6.684 75.04 29.991 8.362 30.08-8.393 6.689-75.01h-73.44m59.55 17.191l-2.225 24.997.006.135-.009.31v-.003l-1.581 17.478-.174 1.553-18.852 5.214-.015.013-18.819-5.243-1.274-14.451h9.228l.655 7.348 10.228 2.772-.003.005 10.265-2.812 1.085-11.966h-21.46l-.184-2.023-.419-4.739-.22-2.545h23.1l.84-9.306h-35.18l-.184-2.02-.419-4.74-.221-2.545h46.05l-.22 2.567" fill="#1572b6"/><path d="m189.96 386.42v83.4h83.4v-83.4h-83.4m44.11 71.06c-1.231 2.501-3.581 4.145-6.304 4.938-4.184.961-8.186.413-11.163-1.374-1.992-1.222-3.548-3.104-4.604-5.271l6.352-3.89c.055.023.222.325.445.715.81 1.357 1.509 2.318 2.882 2.992 1.349.46 4.311.755 5.454-1.619.699-1.208.476-5.089.476-9.384-.0001-6.749.031-13.469.031-20.14h7.812c0 7.339.04 14.29 0 21.452.017 4.39.398 8.304-1.381 11.583m32.408-2.207c-2.715 9.289-17.855 9.59-23.906 3.453-1.278-1.444-2.08-2.199-2.842-3.866 3.215-1.849 3.215-1.849 6.344-3.66 1.699 2.612 3.271 4.049 6.097 4.636 3.835.468 7.693-.849 6.828-4.923-.889-3.327-7.853-4.136-12.592-7.693-4.811-3.231-5.939-11.08-1.985-15.569 1.318-1.659 3.565-2.898 5.923-3.493l2.461-.318c4.724-.095 7.677 1.152 9.845 3.573.603.611 1.096 1.27 2.02 2.699-2.517 1.604-2.509 1.589-6.113 3.922-.77-1.659-2.048-2.699-3.398-3.152-2.096-.635-4.74.055-5.288 2.27-.19.683-.151 1.318.151 2.445.849 1.937 3.7 2.779 6.256 3.954 7.36 2.985 9.845 6.186 10.456 9.995.588 3.28-.142 5.408-.254 5.725" fill="#f0db4f"/><path d="m312.91 439.41l.132.064.235.113c.299.143.602.284.906.419l.192.085c.35.153.702.299 1.058.44l.258.101c.329.128.663.252.998.37l.125.043c.368.128.739.248 1.113.364l.269.08c.381.115.756.252 1.149.325 24.93 4.546 32.17-14.981 32.17-14.981-6.082 7.923-16.877 10.01-27.11 7.687-.387-.087-.764-.209-1.142-.321l-.284-.086c-.369-.113-.736-.233-1.099-.357l-.151-.055c-.326-.115-.649-.236-.969-.359l-.271-.106c-.352-.138-.701-.284-1.046-.435l-.209-.093c-.297-.134-.591-.27-.883-.411l-.256-.123c-.229-.112-.456-.231-.683-.348l-.456-.239c-.276-.148-.548-.301-.818-.459l-.276-.154c-.359-.212-.715-.431-1.066-.653l-.287-.191c-.255-.164-.509-.331-.758-.504l-.244-.172c-.241-.171-.48-.343-.717-.518l-.318-.241c-.217-.166-.433-.333-.647-.505l-.288-.232c-.271-.224-.54-.448-.806-.679l-.088-.074c-.288-.251-.57-.509-.848-.769l-.239-.23c-.207-.196-.409-.394-.609-.596l-.239-.239c-.254-.26-.503-.523-.747-.79l-.037-.039c-.258-.282-.511-.571-.758-.862l-.198-.236c-.184-.222-.367-.447-.545-.674l-.2-.248c-.215-.278-.424-.556-.629-.838-5.678-7.746-7.719-18.43-3.18-27.2l-4.02 5.103c-5.155 7.409-4.513 17.05-.576 24.921l.288.56.185.355.115.204.205.368c.122.216.247.43.375.644l.215.354c.142.229.287.456.436.682l.185.288c.205.306.415.611.632.911l.018.024.106.144c.188.258.381.514.576.766l.217.276c.174.219.352.437.532.654l.203.242c.242.286.489.569.741.847l.015.016.029.031c.246.269.498.531.753.794l.241.243c.198.199.398.395.602.59l.246.234c.271.255.544.505.824.751l.014.001.143.123c.246.213.497.425.75.633l.31.247c.206.165.415.328.625.488l.333.254c.232.171.465.338.7.503l.256.181.07.05c.224.154.452.301.681.449l.295.196c.35.222.706.441 1.065.652l.295.166c.265.152.53.301.799.447l.442.229.573.298m2.519-25.09c.559.801 1.177 1.753 1.918 2.397.269.296.55.584.836.868l.221.217c.279.27.562.535.854.794l.036.03.008.009c.324.284.658.557.998.825l.227.177c.341.261.688.518 1.044.762l.031.022.476.314.226.15c.254.162.512.322.774.473l.109.063c.226.13.455.258.684.383l.243.128.479.248.072.033c.329.162.66.317.998.465l.22.091c.27.115.544.227.818.332l.351.128c.25.093.499.177.752.261l.34.109c.359.111.713.252 1.086.314 19.247 3.19 23.691-11.631 23.691-11.631-4.01 5.769-11.763 8.521-20.04 6.373-.368-.097-.73-.201-1.09-.315l-.328-.106c-.256-.082-.51-.171-.762-.263l-.344-.128c-.276-.106-.55-.216-.821-.331l-.221-.094c-.34-.148-.675-.303-1-.467l-.504-.256-.291-.149c-.214-.116-.427-.237-.637-.359l-.152-.087c-.261-.152-.518-.309-.772-.47l-.233-.156-.499-.33c-.355-.245-.7-.501-1.04-.76l-.234-.185c-3.623-2.86-6.495-6.77-7.861-11.204-1.431-4.597-1.123-9.758 1.356-13.946l-3.046 4.301c-3.728 5.364-3.525 12.546-.617 18.22.487.95 1.035 1.873 1.648 2.752m20.288-6.637l.478.166.211.067c.227.071.451.154.685.198 10.628 2.053 13.511-5.454 14.278-6.559-2.525 3.636-6.769 4.508-11.976 3.244-.411-.1-.863-.248-1.26-.389-.508-.181-1.01-.387-1.496-.621-.925-.445-1.806-.983-2.623-1.601-4.659-3.536-7.554-10.279-4.513-15.772l-1.645 2.267c-2.197 3.235-2.414 7.252-.889 10.823 1.608 3.792 4.904 6.765 8.749 8.176m-10.259 43.512h-2.882c-.16 0-.318.128-.353.284l-1.023 4.733-1.023 4.733c-.033.156-.192.284-.352.284h-2.04c-2.02 0-1.785-1.396-1.372-3.308l.012-.058.045-.241.008-.045.092-.491.099-.526.105-.535.465-2.272.466-2.272c.032-.157-.073-.286-.233-.286h-2.958c-.16 0-.318.128-.351.285l-.636 3.02-.636 3.02v.004l-.059.281c-.732 3.344-.539 6.534 3.443 6.634l.116.002h6.249c.16 0 .318-.128.352-.284l1.348-6.335 1.348-6.336c.033-.157-.07-.284-.231-.285m-30.865-.033h-3.164c-.16 0-.32.128-.355.284l-.3 1.324-.3 1.324c-.035.156.067.284.227.284h3.189c.16 0 .319-.128.353-.284l.29-1.324.29-1.324c.033-.156-.069-.284-.229-.284m-.918 4.122h-3.19c-.16 0-.32.128-.355.284l-.448 1.985-.447 1.984-.125.569-.43 2.026-.43 2.026c-.033.156-.102.409-.153.56 0 0-.596 1.773-1.598 1.753l-.125-.003-.867-.016c-.16-.002-.321.123-.358.278l-.331 1.391-.33 1.39c-.038.155.063.284.222.286.568.007 1.841.021 2.611.021 2.502 0 3.822-1.387 4.667-5.376l.99-4.579.928-4.295c.033-.155-.07-.283-.23-.283m58.732-1.073l-.132-.546-.13-.559-.066-.282c-.259-1.01-1.02-1.588-2.671-1.588l-2.571-.003-2.368-.004h-2.665c-.16 0-.318.128-.351.284l-.118.557-.139.657-.039.185-1.2 5.62-1.139 5.335c-.034.157-.045.349-.026.427.019.078.327.143.486.143h2.403c.16 0 .363-.029.45-.064.087-.036.216-.35.248-.506l.427-2.114.428-2.114v-.004l.057-.282.518-2.428.458-2.144c.034-.156.192-.284.351-.284l7.563-.004c.16.0001.261-.126.225-.282zm9.736-4.938l-.582.002h-2.42c-.16 0-.366.108-.455.241l-5.353 7.842c-.09.132-.193.113-.228-.042l-.394-1.728c-.036-.156-.196-.284-.356-.284h-3.441c-.16 0-.255.125-.211.279l1.542 5.402c.044.154.047.406.008.562l-.672 2.614c-.04.155.058.282.218.282h3.401c.16 0 .323-.127.363-.282l.672-2.614c.039-.156.151-.387.248-.515l8.69-11.533c.097-.128.044-.233-.115-.231l-.913.005m-27.339 6.765v-.003c-.02.173-.18.301-.34.301h-4.363c-.151 0-.228-.102-.205-.229l.004-.001h-.003l.002-.014.02-.074c.417-1.108 1.265-1.835 2.86-1.835 1.796-.0001 2.147.876 2.025 1.863m-1.28-5.04c-5.6 0-6.927 3.399-7.672 6.83-.744 3.497-.681 6.766 5.115 6.766h.702.175.041l.696-.002h.012c1.53-.006 3.066-.018 3.687-.022.159-.003.314-.13.347-.286l.235-1.146.046-.223.28-1.368c.032-.156-.072-.285-.233-.285h-5.21c-2.073 0-2.688-.55-2.461-2.169h8.328.004c.132-.002.255-.093.303-.215l.02-.072c1.236-4.663.881-7.805-4.416-7.805m-26.468 5.02l-.079.279-.629 2.229-.629 2.228c-.043.155-.21.28-.37.28h-3.328c-2.525 0-3.14-1.975-2.525-4.887.614-2.979 1.82-4.831 4.305-5.02 3.396-.256 4.076 2.132 3.255 4.889m2.283 4.846c0 0 1.569-3.811 1.925-6.01.486-2.946-.989-7.219-6.686-7.219-5.665 0-8.125 4.079-9.06 8.514-.938 4.467.291 8.384 5.924 8.352l4.444-.016 4.153-.015c.16-.0001.323-.128.364-.282l.724-2.759c.04-.155-.057-.282-.218-.284l-.694-.004-.694-.004c-.136-.0001-.213-.089-.197-.206l.018-.065m28.04-2.552c0 .106-.085.192-.191.192-.105 0-.191-.086-.191-.192 0-.105.085-.19.191-.19.106 0 .191.085.191.19" fill="#0868ac"/><path d="m375.3 422.33c0 .467.137.775.215 1.075.502 1.948 1.582 3.62 2.862 5.145 1.824 2.173 4.058 3.923 6.346 5.568 1.985 1.427 4.01 2.822 6 4.238.342.243.666.523 1.037.821-.32.173-.585.325-.862.465-2.63 1.334-5.16 2.829-7.492 4.64-1.406 1.092-2.765 2.252-3.724 3.769-1.544 2.439-2.091 5.04-.94 7.812.336.81.849 1.511 1.572 2.028.234.167.498.333.772.399.703.165 1.419.274 2.13.405h2.01c2.228-.199 4.256-.962 6.089-2.227 2.864-1.977 4.794-4.627 5.624-8.03.603-2.472.628-4.947-.083-7.408-.066-.228-.149-.452-.235-.674-.086-.221-.188-.436-.308-.712l4.567-2.626.068.058c-.083.272-.171.543-.246.817-.543 1.982-.903 3.999-.774 6.06.138 2.192.75 4.244 2.033 6.075 1.038 1.481 3.51 1.536 4.613.05.391-.528.771-1.08 1.055-1.669.745-1.538 1.434-3.103 2.146-4.657l.124-.284c-.051.736-.111 1.382-.138 2.029-.043 1.01.017 2.01.362 2.976.296.822.798 1.437 1.74 1.545.644.074 1.158-.221 1.631-.595.74-.584 1.341-1.305 1.788-2.125 1.263-2.319 2.559-4.624 3.704-7 1.238-2.571 2.321-5.218 3.471-7.833l.19-.464c.272 1.067.461 2.113.81 3.103.405 1.148.907 2.27 1.453 3.36.258.515.229.849-.13 1.281-1.499 1.807-2.971 3.635-4.445 5.462-.326.403-.651.814-.923 1.254-.164.268-.273.594-.319.906-.088.596.28 1.172.919 1.309.583.126 1.204.172 1.799.128 2.057-.151 3.925-.873 5.576-2.097 2.14-1.585 2.826-3.748 2.308-6.311-.14-.695-.388-1.372-.629-2.042-.108-.302-.116-.514.082-.796 1.71-2.442 3.172-5.03 4.531-7.685.054-.104.109-.209.203-.32.44 2.292 1.103 4.5 2.291 6.504-.606.584-1.206 1.113-1.748 1.697-1.195 1.285-2.231 2.68-2.772 4.381-.232.733-.411 1.479-.308 2.262.161 1.216 1.157 2.01 2.353 1.73 2.56-.593 4.77-1.799 6.385-3.936 1.087-1.439 1.186-3.044.731-4.725-.125-.457-.273-.907-.432-1.431.632-.196 1.247-.431 1.884-.577 3.307-.755 6.579-.623 9.766.571 1.861.697 3.364 1.865 4.255 3.701 1.089 2.245.487 4.374-1.629 5.793-.197.132-.423.236-.587.402-.1.102-.161.305-.136.445.014.082.23.184.354.183.695-.005 1.259-.37 1.801-.745 1.356-.939 2.346-2.201 2.559-3.864l.042-.125-.051-1.083c-.021-.062.015-.124.011-.171-.288-2.421-1.582-4.299-3.463-5.771-2.179-1.704-4.751-2.405-7.472-2.516-2.217-.09-4.397.239-6.486.998-.596.216-1.186.472-1.786.713-.08-.145-.167-.285-.238-.429-.615-1.259-1.36-2.463-1.525-3.907-.117-1.026-.26-2.05-.017-3.064.234-.976.54-1.935.828-2.897.148-.496.044-.773-.429-.996-.165-.078-.344-.145-.522-.171-1.162-.169-2.309-.072-3.435.255-.399.116-.688.339-.776.781-.05.253-.153.496-.225.745-.294 1.038-.503 2.096-.978 3.085-1.192 2.481-2.552 4.868-3.944 7.238-.151.256-.31.507-.5.817-.489-1.023-1.01-1.941-1.168-3.02-.179-1.217-.32-2.432-.017-3.639.225-.901.519-1.785.79-2.674.128-.422.069-.644-.314-.867-.193-.112-.412-.212-.63-.244-1.206-.179-2.393-.085-3.556.291-.361.117-.55.35-.66.722-.324 1.097-.6 2.221-1.055 3.265-1.843 4.225-3.738 8.427-5.632 12.629-.395.877-.858 1.724-1.304 2.579-.113.217-.278.407-.418.61-.113-.134-.157-.225-.156-.317.004-.54-.061-1.096.042-1.618.312-1.58.67-3.151 1.048-4.716.312-1.293.676-2.573 1.022-3.857.116-.43.118-.832-.191-1.193-.519-.605-1.603-.738-2.246-.272l-.284.161.055-.458c.136-.982.163-1.962-.107-2.929-.336-1.206-1.197-1.9-2.448-1.862-.583.018-1.196.118-1.736.33-2.271.89-4.02 2.466-5.504 4.363-.135.172-.313.329-.503.434-1.922 1.065-3.849 2.118-5.776 3.174l-2.145 1.175c-.575-.549-1.098-1.118-1.691-1.601-1.811-1.477-3.652-2.918-5.476-4.379-1.617-1.295-3.183-2.643-4.381-4.357-.891-1.275-1.466-2.671-1.521-4.248-.07-2.01.5-3.845 1.523-5.554 1.309-2.187 3.093-3.942 5.056-5.531 2.076-1.681 4.321-3.107 6.648-4.41 3.255-1.822 6.604-3.435 10.194-4.5 3.681-1.092 7.416-1.717 11.269-1.281 1.514.171 2.985.518 4.336 1.259 1.034.567 1.882 1.309 2.277 2.468.389 1.141.377 2.298.108 3.457-.548 2.347-1.833 4.282-3.451 6.01-2.653 2.834-5.889 4.764-9.533 6.04-2.102.735-4.265 1.197-6.486 1.384-1.813.152-3.588-.009-5.304-.639-1.137-.418-2.126-1.057-2.922-1.984-.142-.166-.324-.346-.589-.191-.26.153-.306.4-.219.65.145.416.28.849.506 1.221.569.933 1.4 1.61 2.314 2.191 1.756 1.117 3.718 1.492 5.752 1.579 3.087.134 6.1-.327 9.07-1.156 4.24-1.182 7.926-3.271 10.883-6.565 2.462-2.743 4.22-5.839 4.597-9.578.184-1.825-.012-3.612-.866-5.277-.927-1.803-2.4-3.145-4.162-4.069-2.565-1.345-5.334-2.128-8.192-2.128h-2.863c-3.461 0-6.807.992-10.06 2.175-2.462.896-4.876 1.954-7.219 3.124-5.103 2.55-9.856 5.625-13.76 9.853-1.945 2.106-3.592 4.431-4.539 7.167-.277.801-.54 1.66-.738 2.488m18.492 23.922c-.221 2.962-1.564 5.363-3.758 7.308-1.234 1.093-2.65 1.872-4.298 2.146-.598.099-1.21.123-1.789-.125-.827-.353-1.012-1.087-1.028-1.869-.025-1.246.412-2.373 1.01-3.445.781-1.398 1.926-2.463 3.149-3.458 1.926-1.568 4.02-2.895 6.156-4.148l.161-.067c.331 1.222.488 2.429.397 3.658zm16.711-12.873c-.156.946-.351 1.892-.628 2.809-.955 3.173-2.182 6.248-3.509 9.282-.245.561-.602 1.073-.912 1.605-.048.082-.119.153-.188.222-.384.379-.748.359-.942-.137-.226-.577-.365-1.194-.484-1.804-.08-.41-.061-.84-.086-1.26.026-2.985.937-5.698 2.482-8.223.637-1.042 1.33-2.034 2.39-2.693.325-.203.691-.365 1.059-.469.565-.159.911.102.818.668m11.401 14.526l4.098-4.785c.171 1.777-2.85 5.324-4.098 4.785m13.09-3.22c-.29.166-.605.286-.902.439-.272.141-.361-.0001-.369-.235-.005-.159.018-.325.062-.479.553-1.952 1.572-3.618 3.087-4.973l.106-.055c.721 2.02-.112 4.23-1.983 5.302" fill="#cb6699" fill-rule="evenodd"/><path d="m549.81 424.4l-36.414-36.412c-2.096-2.097-5.497-2.097-7.596 0l-7.56 7.562 9.592 9.592c2.23-.752 4.785-.248 6.562 1.529 1.786 1.788 2.287 4.365 1.515 6.602l9.244 9.245c2.236-.771 4.818-.273 6.603 1.516 2.497 2.495 2.497 6.541 0 9.04-2.497 2.497-6.541 2.497-9.04 0-1.878-1.879-2.342-4.637-1.391-6.951l-8.62-8.621v22.688c.609.301 1.183.702 1.691 1.208 2.497 2.495 2.497 6.539 0 9.04-2.497 2.495-6.543 2.495-9.04 0-2.496-2.5-2.701-6.544-.205-9.04.617-.616 1.226-1.082 1.886-1.394v-22.898c-.661-.312-1.268-.774-1.887-1.395-1.89-1.89-2.244-4.664-1.274-6.987l-9.403-9.456-24.943 24.967c-2.098 2.099-2.084 5.5.013 7.598l36.42 36.412c2.096 2.097 5.5 2.097 7.6 0l36.24-36.24c2.098-2.098 2.1-5.501.003-7.598" fill="#f34f29"/><path d="m583.81 408.78c.594 6.254 1.183 12.473 1.786 18.831.983-1.69 1.694-3.311 2.767-4.639.999-1.237 2.259-2.378 3.629-3.169 1.789-1.032 4.135-.06 4.715 1.771.156.491-.216 1.15-.346 1.731-.438-.231-1-.358-1.288-.712-1.215-1.502-1.946-1.679-3.29-.381-2.506 2.422-3.915 5.457-4.453 8.868-.104.66.309 1.4.483 2.103.685-.236 1.48-.322 2.034-.734 1.799-1.339 2.914-3.161 3.529-5.338.133-.471.857-.776 1.309-1.157.217.446.711.971.608 1.324-.953 3.279-1.988 6.536-3.073 9.775-.11.328-.712.491-1.087.731-.151-.431-.469-.882-.418-1.288.114-.92.41-1.818.616-2.66l-4.905 2.258c.274 3.131.559 6.643.896 10.151.259 2.679.697 3.372 3.335 3.88 3.078.593 6.214.971 9.343 1.202 4.623.341 9.206-.081 13.704-1.29 1.675-.45 2.343-1.551 2.462-3.195.11-1.514.355-3.02.525-4.529.334-2.975.658-5.95 1-9.05-1.129.715-2.02 1.516-3.056 1.855-.756.247-1.71-.114-2.576-.205.166-.795.156-1.692.539-2.362.625-1.096 1.507-2.046 2.279-3.059l-.333-.4c-.553.327-1.241.542-1.635 1.01-.801.944-1.584 1.955-2.12 3.062-.897 1.853-1.58 3.808-2.383 5.708-.349.824-.65 2.084-1.818 1.603-1.25-.516-.371-1.616-.077-2.399.467-1.249 1.083-2.443 1.5-3.361-1.183.141-2.382.311-3.586.416-.509.043-1.115-.236-1.532-.047-1.385.626-2.263.375-2.551-1.159-.642.417-1.185.981-1.825 1.133-.777.185-1.831.306-2.4-.082-.456-.311-.622-1.479-.466-2.165.31-1.363.888-2.673 1.437-3.969.34-.803.682-2.084 1.83-1.526 1.134.551.104 1.48-.157 2.226-.406 1.153-.819 2.304-1.228 3.456l.65.393c.619-.538 1.391-.976 1.824-1.636.71-1.078 1.139-2.338 1.811-3.445.278-.459.878-.721 1.332-1.073.092.584.313 1.184.24 1.748-.072.57-.473 1.091-.665 1.654-.288.844-.52 1.707-.813 2.689 1.384.053 1.977-.53 2.368-1.557 1.237-3.247 2.487-6.49 3.847-9.687.232-.547 1.022-.856 1.555-1.276.062.66.356 1.408.146 1.964-1.114 2.946-2.366 5.839-3.542 8.762-.198.492-.262 1.039-.387 1.561 2.072-.931 3.802-1.961 4.433-4.163.154-.535.787-.933 1.2-1.394l.959 1.016c.291-.245.558-.524.875-.728.996-.642 2.068-1.207 3.118-.213 1.087 1.028.264 2.029-.303 2.918-.618.969-1.374 1.849-2.071 2.768 1.566-1.01 3.705-1.462 3.989-3.643.694-5.328 1.303-10.667 1.922-16 .184-1.58.282-3.17.425-4.816-12.336 2.987-24.407 3.01-36.64-.047m5.295 41.573c.594 1.57 1.496 3.111 1.733 4.749.499 3.487.626 7.03.98 10.537.052.511.383 1.214.796 1.439 6.083 3.306 12.225 3.879 18.432.264.926-.539 1.097-1.251 1.217-2.252.581-4.865-.712-10.02 2.398-14.605-8.709 2.16-17.209 2.227-25.556-.131m20.994-40.7c2.955-.285 5.874-.979 8.796-1.552.551-.108 1.04-.527 1.557-.803-.682-.6-1.272-.888-1.889-.961-3.069-.362-6.148-.642-9.215-1.022-.463-.058-1.29-.629-1.256-.734.895-2.696.851-5.748 2.882-8.02 2.567-2.872 5.16-5.719 7.733-8.568-1.914-2.059-1.94-2.062-3.675-.259-.981 1.019-1.877 2.134-2.941 3.057-3.938 3.413-6.704 7.455-7.243 12.784-.124 1.223-.795 1.664-2.079 1.683-4.238.062-8.481.178-12.709.457-2.095.138-4.165.675-6.247 1.032l-.019.778c1.303.402 2.58.929 3.911 1.185 7.414 1.421 14.897 1.665 22.393.942m-2.368-1.862c-1.678 1.355-3.065 1.355-4.404 0h4.404" fill="#eb4a4b" fill-rule="evenodd"/><path d="m703.13 428.85c-1.557-.512-3.799-.402-6.725-.402h-11.757v15.345h12.573c1.964 0 3.344-.21 4.139-.357 1.4-.251 2.571-.737 3.512-1.322.94-.584 1.713-1.471 2.32-2.589.606-1.118.909-2.427.909-3.89 0-1.713-.439-3.03-1.318-4.294-.878-1.265-2.096-1.978-3.654-2.491m-1.614-7.02c1.546-.459 2.711-1.261 3.495-2.327.785-1.066 1.176-2.423 1.176-4.03 0-1.525-.366-2.878-1.098-4.04-.732-1.161-1.776-1.61-3.135-2.039-1.359-.428-3.69-.298-6.992-.298h-10.314v13.344h11.07c2.697 0 4.63-.254 5.801-.609m35.17-24.327c0-6.126-4.966-11.09-11.09-11.09h-61.22c-6.126 0-11.09 4.966-11.09 11.09v61.22c0 6.126 4.966 11.09 11.09 11.09h61.22c6.126 0 11.09-4.966 11.09-11.09v-61.22m-23.65 44.11c-.909 1.85-2.033 3.277-3.371 4.28-1.338 1-3.02 1.855-5.03 2.367-2.02.513-4.489.862-7.415.862h-18.577v-46.04h18.294c3.512 0 6.328.406 8.45 1.336 2.122.931 3.784 2.333 4.987 4.267 1.202 1.934 1.803 3.941 1.803 6.05 0 1.965-.534 3.808-1.599 5.543-1.066 1.736-2.676 3.132-4.828 4.198 2.78.815 4.917 2.204 6.412 4.169 1.495 1.965 2.242 4.285 2.242 6.96 0 2.153-.454 4.153-1.364 6" fill="#5b4282"/><g fill-rule="evenodd"><path d="m787.59 469.82c22.938-.035 41.506-18.693 41.506-41.709 0-22.642-18.483-41.29-40.564-41.683-23.19-.414-42.568 18.404-42.574 41.22-.006 23.476 18.479 42.2 41.632 42.17m-.068-81.37c22.02-.007 39.568 17.885 39.562 40.34-.007 21.2-18.02 38.935-39.546 38.94-21.931.004-39.568-17.777-39.567-39.891.0001-21.544 17.912-39.38 39.551-39.39m-16.621 20.924c.36 1.2-.648 1.618-1.719 1.701-1.128.087-2.255.172-3.564.272 4.321 12.872 8.576 25.553 12.933 38.529.311-.508.438-.651.495-.818 2.392-7.149 4.797-14.293 7.128-21.461.213-.654.107-1.52-.126-2.192-1.233-3.56-2.711-7.04-3.792-10.646-.739-2.467-1.721-4.063-4.636-3.777-.497.049-1.103-1.02-1.659-1.572.673-.402 1.34-1.14 2.02-1.15 5.937-.09 11.877-.09 17.813.005.681.011 1.349.77 2.02 1.181-.589.538-1.097 1.345-1.785 1.553-1.105.333-2.33.27-3.653.388 4.325 12.866 8.561 25.469 12.949 38.52 1.961-6.516 3.786-12.498 5.561-18.497 1.583-5.354.64-10.355-2.223-15.07-.861-1.418-1.918-2.794-2.406-4.341-.554-1.759-1.015-3.762-.721-5.527.499-2.991 2.793-4.476 5.899-4.76-16.993-15.771-43.696-10.125-53.54 7.01 3.788-.175 7.404-.404 11.02-.454.684-.009 1.818.57 1.979 1.106m6.771 52.18c-.079.231-.084.488-.146.871 7.323 2.03 14.505 1.884 21.856-.593l-11.23-30.757c-3.594 10.447-7.04 20.461-10.481 30.479m-5.659-1.391l-16.919-46.41c-7.632 14.909-1.826 37.656 16.919 46.41m51.15-29.822c.537-7.05-1.895-16.81-3.995-18.15-.234 2.593-.071 5.478-.815 8.107-1.751 6.194-3.893 12.28-5.955 18.382-2.242 6.633-4.572 13.237-6.864 19.853 10.769-6.384 16.687-15.806 17.63-28.19" fill="#494949"/><path d="m871.29 413.35c-2.442-.613-4.887-.416-7.468-.015 0 4.513-.009 8.905.024 13.297.0001.225.339.616.558.646 2.814.38 5.613.411 8.244-.872 2.722-1.326 4.109-4.1 3.75-7.356-.326-2.965-2.082-4.94-5.109-5.7m50.903 14.82v-40.24c0-1.39.015-1.515-1.334-1.515h-80.58c-1.312 0-1.644.126-1.644 1.45v80.58c0 1.338.167 1.34 1.465 1.34 26.896.0001 53.872-.006 80.77.024 1.043.0001 1.323-.277 1.32-1.299-.036-13.448.009-26.897.009-40.34m-46.853 3.873c-3.685 1.314-7.529 1.388-11.508 1.08v14.968h-7.295v-.93c0-12.531-.058-25.06-.093-37.591-.004-1.041.161-1.543 1.334-1.663 5.526-.565 11.02-1.2 16.515.088 5.906 1.384 9.312 5.289 9.571 10.684.32 6.681-2.616 11.257-8.523 13.364m29.386 8.458c-.281 3.827-2.439 6.34-5.979 7.555-4.737 1.626-9.447 1.249-14.08-.591-.758-.302-.905-.684-.655-1.456.456-1.41.789-2.86 1.141-4.169 1.957.574 3.818 1.291 5.746 1.63 1.362.239 2.833.099 4.217-.118 1.241-.195 2.134-1.037 2.337-2.369.207-1.354-.201-2.526-1.396-3.246-.95-.572-1.996-.981-3-1.46-1.614-.771-3.333-1.376-4.821-2.341-5.857-3.798-3.95-10.865-.042-13.527 2.091-1.423 4.405-2.055 6.882-2.141 2.913-.102 5.719.401 8.474 1.74l-1.456 5.166c-1.154-.409-2.228-.939-3.362-1.15-1.346-.251-2.757-.391-4.115-.28-1.821.149-2.888 1.406-2.888 2.964 0 .923.35 1.704 1.12 2.152 1.105.643 2.277 1.173 3.439 1.71 1.257.582 2.585 1.029 3.795 1.692 3.23 1.771 4.911 4.51 4.637 8.239" fill="#80b5e2"/></g><path d="m972.99 407.16c-23.03 0-41.7 9.461-41.7 21.13 0 11.671 18.67 21.13 41.7 21.13 23.03 0 41.7-9.461 41.7-21.13 0-11.671-18.67-21.13-41.7-21.13m-10.85 25.25c-.995.931-2.1 1.315-3.317 1.711-1.217.397-2.766.315-4.649.315h-4.268l-1.183 6.825h-4.983l4.447-23.21h9.583c2.883 0 4.986.829 6.308 2.343 1.322 1.513 1.719 3.661 1.192 6.373-.218 1.117-.584 2.156-1.102 3.082-.518.926-1.194 1.791-2.029 2.558m14.546 2.026l1.966-9.842c.224-1.152.142-2.01-.246-2.426-.389-.419-1.216-.7-2.481-.7h-3.952l-2.547 12.968h-4.944l4.447-22.524h4.944l-1.182 6.143h4.404c2.772 0 4.683.556 5.735 1.523 1.052.966 1.367 2.291.947 4.456l-2.069 10.403h-5.02m27.479-7.63c-.217 1.117-.584 2.138-1.101 3.063-.517.926-1.193 1.773-2.028 2.54-.995.931-2.101 1.315-3.317 1.711-1.216.397-2.766.315-4.65.315h-4.268l-1.182 6.825h-4.983l4.446-23.21h9.584c2.883 0 4.986.829 6.307 2.343 1.321 1.513 1.719 3.698 1.192 6.409m-9.388-5.339h-3.413l-1.861 9.556h3.03c2.01 0 3.506-.198 4.488-.956.984-.756 1.647-1.93 1.992-3.7.33-1.7.18-3.03-.45-3.725-.631-.699-1.893-1.175-3.787-1.175m-38.895 0h-3.414l-1.861 9.556h3.03c2.01 0 3.506-.198 4.489-.956.984-.756 1.647-1.93 1.991-3.7.33-1.7.18-3.03-.45-3.725-.631-.699-1.892-1.175-3.785-1.175" fill="#6181b6"/><path d="m1023.96 444.64h2.763v-10.911l4.278 9.512c.505 1.151 1.195 1.558 2.551 1.558 1.355 0 2.02-.407 2.524-1.558l4.278-9.512v10.911h2.763v-10.893c0-1.063-.425-1.577-1.302-1.842-2.099-.655-3.507-.088-4.145 1.329l-4.198 9.388-4.064-9.389c-.611-1.416-2.046-1.983-4.145-1.329-.877.266-1.302.78-1.302 1.842v10.894m21.455-8.882h2.762v6.01c-.025.326.105 1.093 1.618 1.117.772.012 5.96 0 6.01 0v-7.158h2.769c.013 0 0 9.762 0 9.802.014 2.408-2.987 2.93-4.371 2.971h-8.725v-1.859c.015 0 8.719.002 8.74-.0001 1.779-.188 1.568-1.071 1.568-1.369v-.725h-5.872c-2.732-.025-4.473-1.217-4.495-2.589 0-.126.059-6.14-.0001-6.201zm15.288 8.882h7.945c.93 0 1.834-.194 2.551-.531 1.195-.549 1.78-1.293 1.78-2.268v-2.02c0-.797-.664-1.542-1.966-2.037-.691-.266-1.542-.407-2.365-.407h-3.348c-1.116 0-1.647-.336-1.78-1.08-.026-.089-.026-.159-.026-.248v-1.258c0-.071 0-.142.026-.23.132-.567.425-.726 1.408-.815l.266-.017h7.891v-1.842h-7.758c-1.116 0-1.7.071-2.232.23-1.647.514-2.365 1.328-2.365 2.745v1.611c0 1.24 1.409 2.303 3.773 2.551.266.017.531.036.797.036h2.87c.106 0 .213 0 .293.017.877.071 1.248.231 1.515.549.159.159.212.319.212.496v1.612c0 .194-.132.443-.398.655-.239.213-.638.354-1.169.39l-.293.017h-7.626v1.842m29.513-3.205c0 1.895 1.408 2.957 4.251 3.171.266.017.531.035.797.035h7.201v-1.842h-7.253c-1.621 0-2.232-.408-2.232-1.382v-9.529h-2.763v9.547m-15.475.095v-6.568c0-1.668 1.172-2.68 3.488-3 .239-.036.506-.053.745-.053h5.245c.266 0 .506.017.771.053 2.316.319 3.489 1.331 3.489 3v6.568c0 1.355-.498 2.078-1.645 2.55l2.723 2.457h-3.209l-2.202-1.988-2.217.141h-2.956c-.506 0-1.038-.071-1.624-.231-1.757-.479-2.61-1.402-2.61-2.929m2.983-.159c0 .089.026.178.053.284.159.763.879 1.189 1.97 1.189h2.51l-2.306-2.082h3.209l2.01 1.816c.371-.198.615-.5.7-.888.026-.089.026-.178.026-.266v-6.301c0-.071 0-.16-.026-.249-.16-.71-.879-1.118-1.944-1.118h-4.181c-1.224 0-2.023.533-2.023 1.367v6.247m27.17-12.54c-1.698-.046-2.996.112-4.105.579-.315.133-.818.137-.869.531.173.182.2.453.338.677.265.428.712 1 1.111 1.303.435.329.884.681 1.353.966.831.507 1.759.796 2.56 1.303.471.3.94.677 1.4 1.015.228.166.38.426.677.531v-.048c-.155-.198-.196-.469-.338-.677l-.628-.628c-.614-.815-1.393-1.53-2.222-2.125-.66-.474-2.139-1.115-2.415-1.884l-.049-.048c.468-.053 1.017-.223 1.449-.338.726-.195 1.375-.145 2.125-.338l1.014-.291v-.192c-.379-.389-.65-.904-1.063-1.256-1.081-.921-2.262-1.841-3.477-2.609-.674-.425-1.507-.701-2.222-1.062-.239-.122-.662-.184-.821-.387-.376-.478-.58-1.084-.87-1.642-.605-1.167-1.201-2.442-1.739-3.671-.366-.837-.605-1.663-1.062-2.415-2.193-3.606-4.554-5.782-8.211-7.921-.778-.455-1.715-.634-2.704-.869l-1.594-.097c-.323-.135-.661-.532-.966-.724-1.212-.765-4.319-2.43-5.216-.241-.566 1.381.847 2.729 1.353 3.429.354.491.809 1.041 1.063 1.593.167.363.195.727.338 1.111.351.946.657 1.975 1.111 2.849.229.443.483.909.773 1.304.178.242.483.35.531.724-.298.417-.315 1.065-.483 1.593-.755 2.38-.47 5.339.628 7.1.337.541 1.131 1.701 2.222 1.256.954-.389.742-1.593 1.015-2.657.062-.24.023-.418.145-.579v.048l.87 1.739c.644 1.036 1.785 2.119 2.753 2.85.502.379.897 1.034 1.546 1.256v-.049h-.048c-.127-.196-.322-.276-.484-.434-.378-.371-.798-.831-1.111-1.256-.88-1.195-1.658-2.503-2.367-3.864-.338-.65-.632-1.367-.917-2.029-.11-.255-.109-.641-.338-.772-.313.484-.773.876-1.015 1.449-.386.915-.436 2.031-.579 3.187l-.097.048c-.673-.162-.909-.855-1.159-1.449-.632-1.502-.75-3.921-.193-5.65.144-.448.794-1.857.531-2.271-.126-.412-.541-.65-.772-.966-.287-.389-.574-.902-.773-1.353-.518-1.171-.759-2.486-1.303-3.67-.261-.566-.701-1.139-1.063-1.642-.4-.558-.849-.969-1.159-1.642-.11-.239-.26-.623-.097-.87.051-.166.126-.235.291-.29.28-.216 1.06.072 1.352.193.775.322 1.421.628 2.078 1.063.315.209.633.613 1.014.724h.435c.68.156 1.442.048 2.077.241 1.123.342 2.129.872 3.043 1.449 2.784 1.758 5.059 4.26 6.617 7.245.25.481.359.939.579 1.449.445 1.028 1.01 2.086 1.449 3.091.442 1 .873 2.02 1.498 2.85.328.439 1.597.674 2.173.917.404.171 1.066.349 1.449.579.731.441 1.44.966 2.125 1.449.342.243 1.396.773 1.449 1.209m-21.588-18.401c-.354-.007-.605.039-.87.097v.048h.049c.169.348.467.571.676.87l.484 1.014.048-.048c.299-.211.436-.547.435-1.063-.12-.126-.138-.284-.241-.434-.137-.202-.405-.315-.579-.484" fill="#00618a"/></g></svg>