<svg xmlns="http://www.w3.org/2000/svg" viewBox="0 0 1423.347 474.449" width="1536" height="512"><g clip-rule="evenodd" fill="#fff" fill-rule="evenodd"><path d="M237.225 5.56C109.28 5.56 5.56 109.28 5.56 237.225c0 127.943 103.721 231.664 231.665 231.664 127.943 0 231.664-103.72 231.664-231.665C468.89 109.281 365.168 5.56 237.225 5.56zm32.215 171.154c16.411.171 33.499-.339 49.497.255-.537 17.064-.125 35.074-.26 52.541h-49.238v162.188h-69.296V229.765c-14.382-.593-29.866-.088-44.674-.255v-52.796h44.165c.653-13.84-.205-26.29.764-37.562.936-10.907 4.592-20.248 9.897-28.175 10.078-15.05 26.873-26.85 49.498-27.916 18.704-.885 39.591.45 59.144.255-.17 17.514.335 35.704-.26 52.796-9.87.565-19.798-.755-28.426 0-8.79.765-15.155 6.195-18.278 12.69-3.489 7.257-2.451 16.875-2.534 27.912zM711.674 5.56c-127.944 0-231.665 103.72-231.665 231.664 0 127.944 103.72 231.665 231.665 231.665 127.943 0 231.664-103.72 231.664-231.665 0-127.943-103.72-231.664-231.664-231.664zm147.26 283.761c-2.878 10.221-3.934 13.251-5.134 16.17l-.806 1.882c-12.733 28.879-40.356 47.463-97.925 53.176l-81.639-.097c-53.977-5.815-84.316-24.348-99.708-53.033 0 0-.473-.792-.987-1.867a94.296 94.296 0 0 1-4.054-9.24c-.51-1.014-.412-.75-.718-1.931-5.472-15.35-7.715-33.012-7.715-52.704 0-26.076 9.43-47.357 24.867-64.018-2.47-6.042-10.587-30.362 2.548-63.217 0 0 20.123-6.37 65.714 24.724 19.122-5.245 39.634-7.821 59.927-7.821 18.44 0 36.858 2.135 54.159 6.458 31.757-21.253 50.776-24.033 58.963-23.907 3.197.046 4.75.537 4.75.537 11.073 27.689 7.047 49.312 4.026 59.051 17.263 17.232 27.897 39.879 27.897 68.18 0 19.746-1.293 37.44-4.166 47.657z"/><path d="M795.314 228.996c-8.549-8.97-19.933-11.25-33.226-11.222-14.154.028-30.464 2.678-47.834 2.678-33.841 0-63.67-9.869-81.29 8.77-10.565 11.19-16.732 24.673-16.732 39.19 0 60.64 43.878 70.096 98.022 70.096 54.126 0 98.018-1.858 98.018-70.097 0-14.613-6.26-28.175-16.958-39.406v-.01zm-134.06 76.922c-11.268 0-20.396-15.235-20.396-34.032 0-18.792 9.128-34.022 20.396-34.022 11.264.014 20.391 15.234 20.391 34.022.005 18.797-9.127 34.032-20.39 34.032zm109.424 0c-11.268 0-20.395-15.235-20.395-34.032 0-18.792 9.132-34.022 20.395-34.022 11.269.014 20.392 15.234 20.392 34.022.004 18.797-9.128 34.032-20.392 34.032zM1186.122 5.56c-127.943 0-231.664 103.72-231.664 231.664 0 127.944 103.72 231.665 231.664 231.665 127.944 0 231.665-103.72 231.665-231.665 0-127.943-103.72-231.664-231.665-231.664zm-64.796 348.873h-48.867V198.699c-.05-.515-.06-1.029.365-1.09h48.505v156.824zm-40.481-182.723c-7.59-5.176-13.604-15.712-12.033-28.083 1.158-9.155 7.867-17.12 14.952-20.79 2.418-1.25 5.643-2.112 9.118-2.548 18.496-2.349 32.61 10.676 32.456 28.083-.185 21.568-24.931 36.677-44.493 23.338zm222.838 182.723h-48.872v-56.17c0-23.745 3.012-51.003-12.765-59.079-7.784-3.98-18.741-2.993-25.534 0-17.782 7.85-16.045 32.776-16.045 60.178v55.075h-48.506V197.61h46.685v21.517c1.728-1.344 2.437-3.461 3.647-5.106 8.173-11.11 23.101-20.285 42.306-20.424 24.172-.176 41.098 8.174 49.966 23.709 9.21 16.142 9.118 39.119 9.118 64.19v72.937z"/></g></svg>