<?xml version="1.0" encoding="UTF-8" standalone="no"?>
<!-- Created with Inkscape (http://www.inkscape.org/) -->

<svg
   xmlns:dc="http://purl.org/dc/elements/1.1/"
   xmlns:cc="http://creativecommons.org/ns#"
   xmlns:rdf="http://www.w3.org/1999/02/22-rdf-syntax-ns#"
   xmlns:svg="http://www.w3.org/2000/svg"
   xmlns="http://www.w3.org/2000/svg"
   xmlns:sodipodi="http://sodipodi.sourceforge.net/DTD/sodipodi-0.dtd"
   xmlns:inkscape="http://www.inkscape.org/namespaces/inkscape"
   width="173.53987mm"
   height="112.96532mm"
   viewBox="0 0 614.90506 400.27081"
   id="svg2"
   version="1.1"
   inkscape:version="0.91 r13725"
   sodipodi:docname="vr_icon.svg">
  <defs
     id="defs4" />
  <sodipodi:namedview
     id="base"
     pagecolor="#ffffff"
     bordercolor="#666666"
     borderopacity="1.0"
     inkscape:pageopacity="0.0"
     inkscape:pageshadow="2"
     inkscape:zoom="0.98994949"
     inkscape:cx="175.62484"
     inkscape:cy="377.21633"
     inkscape:document-units="px"
     inkscape:current-layer="g3351"
     showgrid="false"
     fit-margin-top="0"
     fit-margin-left="0"
     fit-margin-right="0"
     fit-margin-bottom="0"
     inkscape:window-width="1920"
     inkscape:window-height="1027"
     inkscape:window-x="1272"
     inkscape:window-y="-8"
     inkscape:window-maximized="1" />
  <metadata
     id="metadata7">
    <rdf:RDF>
      <cc:Work
         rdf:about="">
        <dc:format>image/svg+xml</dc:format>
        <dc:type
           rdf:resource="http://purl.org/dc/dcmitype/StillImage" />
        <dc:title></dc:title>
      </cc:Work>
    </rdf:RDF>
  </metadata>
  <g
     inkscape:label="Layer 1"
     inkscape:groupmode="layer"
     id="layer1"
     transform="translate(-75.535077,-116.1996)">
    <g
       id="g3351"
       transform="translate(-147.66175,-92.359713)">
      <path
         style="fill:#ffffff;fill-opacity:1"
         d="m 246.34807,606.00291 c -31.08366,-15.81146 -19.42937,-55.89362 -22.28775,-83.99859 -0.93461,-95.17918 -1.91475,-190.4091 1.7365,-285.54698 6.4792,-33.67247 47.27113,-27.12758 72.68898,-27.32772 170.74528,-1.16569 335.98109,-0.22807 510.22306,0.0465 34.14575,0.2803 28.92004,53.70474 27.9966,80.37345 1.14326,96.88542 1.9684,190.96473 0.9021,287.81247 -0.45079,33.31866 -49.44538,31.2966 -75.01287,31.06416 -42.64154,0.41631 -85.43888,1.48292 -127.90527,-3.22432 -21.39776,-7.96179 -29.28468,-56.61402 -44.92882,-84.13846 -11.80962,-27.94218 -21.01842,-71.79707 -58.62025,-72.53339 -33.61119,-1.34228 -44.92698,34.09416 -55.14967,59.39795 -12.02487,29.71124 -22.42367,60.25719 -38.22705,88.26693 -22.20547,20.04593 -54.48679,8.1127 -81.32827,12.18328 -36.69873,0.26075 -73.51407,1.42222 -110.08729,-2.37532 z M 400.79191,476.04418 c 48.85644,-6.2265 74.49919,-72.56112 42.40662,-110.08481 -23.15848,-32.08519 -76.44884,-34.10696 -100.62948,-2.03973 -25.76874,28.90071 -19.94011,78.32097 12.40887,99.99422 12.84738,9.74783 29.66633,15.76122 45.81399,12.13032 z m 289.14941,-3.20907 c 41.48655,-14.16471 59.36699,-72.10682 30.34963,-106.02044 -21.47395,-31.22222 -71.34476,-36.15114 -96.9325,-7.19918 -31.46366,30.63329 -24.00532,90.80175 16.82435,109.71544 15.1319,7.95658 33.6993,9.73533 49.75852,3.50418 z"
         id="path3365"
         inkscape:connector-curvature="0"
         sodipodi:nodetypes="ccccccccccccccccccccccccc" />
    </g>
  </g>
</svg>
