<svg xmlns="http://www.w3.org/2000/svg" height="899.34" viewBox="0 0 1742.5 899.3379"><g transform="matrix(1.25 0 0 1.25-.003 3.085)"><path transform="matrix(.8 0 0 .8 0-2.47)" d="m0 0v899.34h1742.5v-898.66c-580.84-.674-1161.66.45-1742.5-.674m160.18 180.61c107.03.206 214.05-.165 321.08.205-.243 148.41.027 296.87-.148 445.29-106.96-.206-213.94.124-320.91-.205-.013-148.42.04-296.83-.027-445.29z" fill="#210a34"/><path d="m1008.37 103.67c10.53-1.33 21.47.26 30.97 5.06 14.3 6.97 25.12 20.64 28.51 36.19 3.49 14.72.12 30.84-8.75 43.06-8.03 11.24-20.58 19.16-34.2 21.47-13.67 2.52-28.26-.73-39.64-8.68-13.95-9.44-22.91-25.89-23.05-42.75-.38-10.69 2.67-21.45 8.52-30.39 8.32-12.92 22.4-21.93 37.64-23.96" fill="#066e7c"/><path d="m1006.56 109.86c11.02-1.77 22.71-.41 32.42 5.34 14.49 8.09 24.36 24.15 24.31 40.84.31 11.77-4.18 23.48-11.98 32.25-9.47 10.77-23.96 17.05-38.33 16.02-23.84-.79-45.06-22.28-44.82-46.26-.73-12.28 4.15-24.51 12.39-33.52 6.82-7.48 16.12-12.62 26.01-14.67" fill="#fff"/><path d="m1014.21 110.54c.638.04 1.324.253 1.702.804.417.61.437 1.38.423 2.092-.021.934-.178 1.869-.075 2.803-.652.145-1.306.285-1.96.42-.11-2.038-.14-4.08-.09-6.12" fill="#10737a"/><path d="m1013.27 119.97c-.194-2.365 3.925-2.225 2.945.209.094 10.97-.012 21.941.045 32.911-.673 2.383 2.062 2.215 3.083 3.542 1.681 1.398 3.712 2.255 5.587 3.348-.297 1.25-.067 3.522-1.887 2.306-2.444-.881-4.49-2.533-6.763-3.746-.04 2.96-.04 5.92-.04 8.88-1.5.175-3.543.926-2.962-1.372-.13-3.058-.081-6.119-.038-9.178-5.148-3.158-10.483-5.996-15.656-9.112-1.709-1.466.446-3.878 2.083-2.2 4.666 2.213 8.833 5.337 13.514 7.522.12-11.04-.07-22.07.09-33.11"/><path transform="matrix(.8 0 0 .8 0-2.47)" d="m497.49 170.09c-116.36.213-232.74-.0001-349.11.111-.088 156.91.149 313.83-.113 470.74l.039.4c-4.625-.038-9.238-.026-13.863-.014.088 7.212-.2 14.426.15 21.639 127.14-.188 254.27-.026 381.41-.076.063-7.2-.188-14.399.188-21.574-6.238.05-12.463-.1-18.676.1-.125-1.925-.187-3.85-.199-5.775v-238.85c.125-75.56-.237-151.14.176-226.7m-323.25 22.15c99.3.075 198.59-.05 297.87.063-.275 40.1.049 80.2-.139 120.3-93.56.1-187.14.037-280.7.037-5.713-.038-11.451.325-17.14-.375.313-40 .102-80.02.102-120.02m.012 137.5c99.29.063 198.56-.05 297.85.063-.225 45.1.026 90.21-.137 135.31-99.22-.063-198.46.038-297.69-.063-.012-45.1.037-90.2-.025-135.31m297.21 152.72c.925 5.6.511 11.274.549 16.924.012 40.26-.024 80.53.014 120.8-95.7.275-191.4-.013-287.1.137-3.6.063-7.214.025-10.789-.438.325-45.788.063-91.6.125-137.39 99.06.038 198.14.1 297.2-.037" fill="#e9e9e7"/><path d="m397.99 133.6c.68 1.37 1.36 2.8 1.29 4.37-.08 67.35.02 134.69-.001 202.04-.05 53.34-.001 106.68.001 160.02-.19 3.53.89 7.5-1.27 10.63-.1-1.54-.15-3.08-.16-4.62 0-63.69 0-127.39 0-191.08.1-60.45-.19-120.91.14-181.36"/><path d="m138.43 149.89c.52.22 1.57.68 2.1.91l-.24-1.1c79.1.09 158.2.08 237.3.001.03.41.08 1.25.1 1.66-79.43-.09-158.86.001-238.3-.05 0 32 .17 64.02-.08 96.02-.19.16-.57.5-.76.66-.25-32.7 0-65.41-.12-98.11"/><g fill="#14757c"><path d="m969.21 156.03c.561-.691 1.404-1.107 2.275-1.242 1.289-.216 2.599-.018 3.895-.108.02.867.04 1.734.08 2.6-1.482-.091-2.995.165-4.452-.211-.679-.176-1.314-.527-1.798-1.039"/><path d="m1055.43 154.81c1.628-.181 3.267-.069 4.9-.04.169.575.229 1.257-.143 1.77-.397.532-1.08.717-1.709.795-1.03.114-2.072-.008-3.086-.193-.463-.108-.837-.523-.862-1-.056-.585.337-1.166.901-1.329"/></g><path d="m1010.43 155.19c.93.56 1.86 1.12 2.81 1.68-11.98.93-23.92 2.81-35.92 3.09.77-1.28 2.13-1.76 3.56-1.79 9.85-.98 19.73-1.72 29.55-2.98" fill="#f09b88"/><path d="m1014.31 195.43c.48.08 1.44.25 1.92.33-.25 1.81.75 4.18-.69 5.59-1.65.91-1.23-1.36-1.38-2.29 0-1.22.04-2.43.15-3.63" fill="#10737a"/><path d="m138.46 369.56c-.02-36.63.001-73.25-.02-109.87 79.73.05 159.46.07 239.18-.02.02.43.05 1.28.06 1.7-79.43-.09-158.85 0-238.28-.05.05 36.09.001 72.17.02 108.25-.24 0-.72-.001-.96-.001"/><g fill="#61687d"><path d="m984.74 322.62c.19-2.58-.67-7.56 3.26-7.3 4.5-.85 3.8 4.45 3.83 7.3-.11 3.6.24 7.25-.43 10.81-1.77 1.77-6.2 1.74-6.42-1.37-.39-3.13-.2-6.29-.24-9.44"/><path d="m1030.52 316.41c1.22-1.47 3.42-1.22 5.09-.81 2.04 1.6 1.23 4.72 1.6 7.02-.11 3.62.39 7.41-.76 10.92-1.57 1.5-4.43 1.39-5.95-.1-.62-3.58-.3-7.22-.38-10.82.02-2.08-.03-4.17.4-6.21"/></g><path d="m962.85 324.86c.11-1.49 1.69-2.28 3.05-2.19 6.27-.21 12.56.02 18.84-.05.04 3.15-.15 6.31.24 9.44.22 3.11 4.65 3.14 6.42 1.37.67-3.56.32-7.21.43-10.81 12.76-.02 25.52-.001 38.29 0 .08 3.6-.24 7.24.38 10.82 1.52 1.49 4.38 1.6 5.95.1 1.15-3.51.65-7.3.76-10.92 5.93.1 11.88-.24 17.81.11 1.24-.06 2.43 1.07 2.47 2.32.37 4.52.04 9.06.13 13.59-31.65-.001-63.3-.02-94.94.001.11-4.6-.3-9.21.17-13.79" fill="#f05755"/><path d="m962.67 340.07c0-.36.001-1.07.001-1.42 31.64-.03 63.29-.02 94.94-.001-.02 21.16.07 42.31-.05 63.46-.29.39-.86 1.17-1.15 1.56-30.17.25-60.36.12-90.54.07-2.24.41-3.39-1.75-3.21-3.69-.001-19.99 0-39.98 0-59.97" fill="#fef6e9"/><g fill="#f05755"><path d="m1020.21 346.75c3.743.02 7.487.02 11.23.02.04 3.917.04 7.833.03 11.75-3.783.02-7.567.02-11.35-.02 0-3.917-.02-7.834.09-11.75"/><path d="m989.35 358.53c0-3.95-.14-7.91.17-11.85 3.72.11 7.45.09 11.18.14 0 3.9.001 7.8 0 11.71-3.79.001-7.57.001-11.35 0"/><path d="m1004.83 358.48c.17-3.94-.54-7.969.54-11.83 3.658.16 7.32.13 10.98.12.03 3.913.03 7.827.02 11.74-3.847.04-7.694.04-11.54-.03"/><path d="m1035.08 346.75c3.76.03 7.51.02 11.28.03.03 3.91.03 7.82.03 11.73-3.86.04-7.7.04-11.54-.03 0-3.91-.18-7.84.23-11.73"/><path d="m1020.22 363.69c3.73.03 7.47.03 11.22.03.04 3.93.04 7.86.02 11.79-3.88.04-7.76.04-11.63-.05.2-3.92.33-7.84.39-11.77"/><path d="m973.74 363.84c3.82-.03 7.64-.1 11.47.12.02 3.88.03 7.76.02 11.65-3.85.07-7.69.07-11.53.02-.001-3.93-.001-7.86.04-11.79"/><path d="m989.38 363.71c3.73.02 7.47.02 11.21-.05.18 3.95.12 7.91.11 11.87-3.79 0-7.57-.001-11.34.001-.04-3.95-.04-7.89.02-11.83"/><path d="m1004.96 363.74c3.79-.03 7.59-.04 11.39-.001.03 3.93.03 7.85.02 11.78-3.85.03-7.7.03-11.54-.03-.02-3.92-.09-7.83.13-11.74"/><path d="m1035.06 363.7c3.76.02 7.53.001 11.3.02.03 3.93.03 7.85.03 11.78-3.86.04-7.7.05-11.55-.02 0-3.93-.15-7.87.22-11.78"/><path d="m989.58 381.34c3.8-.02 7.6 0 11.4-.03.09 3.99.72 8.1-.43 12-3.58-.2-7.17.02-10.74-.22-.58-3.89-.09-7.84-.23-11.75"/><path d="m1005.26 381.33c3.78 0 7.56 0 11.35.001-.02 3.98.17 7.97-.19 11.95-3.74-.13-7.48-.02-11.21-.23.06-3.91.03-7.82.05-11.73"/><path d="m1020.33 381.34c3.78-.001 7.56-.001 11.35 0-.06 3.81.19 7.64-.1 11.46-3.55.96-7.57.21-11.29.27.06-3.92.02-7.82.04-11.73"/><path d="m1035.27 381.33c3.78 0 7.56 0 11.36.001 0 3.9-.04 7.81.04 11.71-3.74.22-7.48.11-11.21.24-.35-3.98-.19-7.97-.19-11.96"/></g><path d="m138.37 382.29c79.96.19 159.93-.1 239.89.14-.27.27-.82.8-1.09 1.07-79.25.11-158.51.06-237.76.03-.05 36.63.16 73.28-.1 109.91-.19.18-.56.52-.74.69-.32-37.28.07-74.57-.2-111.84"/><path d="m973.8 381.7c3.84-.04 7.68-.04 11.53-.001.02 3.9.02 7.8 0 11.7-3.85.03-7.7.03-11.53-.001-.02-3.9-.02-7.79 0-11.68" fill="#f05755"/><path d="m518.8 390.41c4.31-.4 8.65-.13 12.98-.2.04 14.44.02 28.88 0 43.31-9.51-1.7-19.19-.96-28.78-.73-4.8.11-9.69 1.04-14.43-.11 1.92-11.26 3-22.73 2.44-34.15.25-.41.75-1.22 1-1.63 13.01-.22 26.03.22 39.04-.17.001-1.92.02-3.84.04-5.76-3.55-.28-7.12-.28-10.67.06l-1.62-.62" fill="#fcda92"/><path d="m429.82 437.01c.98-6.92-.03-13.84-.63-20.73 4.71.29 9.44.22 14.16.49.1 1.31.2 2.63.3 3.95 5.03-.19 10.26-.11 15.04-1.9.2-.5.62-1.51.83-2.01 4.03-.2 8.07-.24 12.11-.49 1.46 5.8.73 11.82-.18 17.65-1.3 8.07-1.66 16.39-.17 24.46-7.9-2.69-16.18.68-24.24.82-6.83.41-14.78-1.22-18.74-7.35-.09-5 1.41-9.89 1.52-14.89" fill="#d7d8da"/><path d="m484.31 463.9c13.75-.03 27.49.03 41.24.001-.28 9.03-.03 18.08.63 27.09.12 1.77-.08 3.55-.47 5.28-13.21 4.25-27.26 3.79-40.94 3.16.06-11.85-.04-23.7-.46-35.54" fill="#ff73a8"/><path d="m412.95 510.58c.93 6.27.17 12.64.63 18.96-101.72-.14-203.45.06-305.17-.11-.19-.38-.56-1.15-.74-1.53 101.71-.15 203.42-.02 305.13-.06.05-5.76-.15-11.52.15-17.26"/><path fill="#fbd17f" fill-rule="evenodd" d="m490.93 389.93h40.877v8.555h-40.877z"/><path d="m503.67 388.87c5.19.001 10.37-.6 15.45-1.67.06 1.73.12 3.47.14 5.21-5.06-.52-10.17-.4-15.25-.29-.08-.81-.25-2.44-.34-3.25" fill="#e77b5c" fill-opacity=".784"/><path fill="#fe679e" d="m484.29 456.32h41.25v8.321h-41.25z"/><path d="m497.27 455.59c5.12.04 10.2-.71 15.22-1.62.31 1.6.68 3.2 1.18 4.76-5.45-.001-10.89.1-16.33.27-.02-1.15-.04-2.28-.07-3.41" fill="#e4be86" fill-opacity=".784"/><path fill="#bbbcbf" d="m429.01 416.02h43.44v6.667h-43.44z"/><path d="m443.87 414.59c4.82-.09 9.56-1.04 14.37-1.43.21 1.6.44 3.22 1.13 4.71-5.39-.11-10.78.23-16.17-.04-.98-.97-1.07-3.31.67-3.24" fill="#26a09d" fill-opacity=".784"/></g></svg>