<svg xmlns="http://www.w3.org/2000/svg" height="899.34" viewBox="0 0 1742.5 899.3379"><g transform="translate(1171.42 949.75)"><path d="m-836.84-390.19c.038 8.425-.042 17.08.021 25.518 1.913-1.363 3.813-2.738 5.725-4.087.313.413.938 1.212 1.25 1.625.362.313 1.087.962 1.45 1.275-2.813 2.038-5.612 4.1-8.413 6.15-.038 3.275-.05 6.563-.063 9.863-.987-.012-2.975-.012-3.962-.012-.425-5.337.125-10.675.025-16.01.175-3.438-3.625-4.8-5.625-6.9.563-.675 1.112-1.363 1.625-2.063l.413-1.1c.8.613 2.413 1.837 3.212 2.45.612-5.225.329-12.695.116-17.907.803 2.613 2.266 1.92 4.226 1.202" fill="#7bbe1c"/><path d="m-849.3-403.27c-.013-7.725 5.362-13.9 10.975-18.563.3 10.725-.15 21.45.05 32.18-.45.075-1.325.225-1.775.3-6.125-1.438-9.763-7.887-9.25-13.913" fill="#6cae0d"/><g fill="#5ea018"><path d="m-838.45-421.83c5.188 4.813 10.05 11.09 9.725 18.563.3 5.475-2.625 11.788-8.25 13.3l-1.425.352c-.2-10.725.25-21.489-.05-32.21"/><path d="m-875.54-396.48c7.288-1.988 15.525-2.038 22.19 1.925 6.462 3.462 11.275 11.2 8.962 18.625l-.413 1.1c-10.513-6.813-21.337-13.325-30.737-21.65"/></g><g fill="#6cae0d"><path d="m-814.68-395.57c7.337-2.063 15.08-.85 22.325 1l-.7.488c-12.388 8.8-24.587 17.887-36.788 26.95-.313-.413-.938-1.212-1.25-1.625-2.087-3.913-2.275-8.75-.5-12.813 2.9-7.07 9.625-12.1 16.913-14"/><path d="m-869.45-375.92c-5.163-5.725-8.02-13.738-7.112-21.438l1.025.875c9.4 8.325 20.225 14.837 30.737 21.65-.513.7-1.063 1.387-1.625 2.063-6.712 6.3-17.45 3.075-23.02-3.15"/></g><path d="m-829.84-367.13c12.2-9.06 24.4-18.15 36.788-26.95-.763 9.813-4.163 20.11-12.25 26.313-6.35 5.02-16.275 7.35-23.09 1.913-.362-.313-1.087-.962-1.45-1.275" fill="#5ea018"/><path d="m-864.9-349.81c8.02-.075 16.05-.025 24.08-.05.987 0 2.975 0 3.962.012 7.725 0 15.45 0 23.19 0 .013 3.163.013 6.35 0 9.525-.638 0-1.925 0-2.563 0-14.9-.025-29.8-.025-44.688.025-1-.012-2.987-.038-3.975-.05-.013-3.163-.013-6.313 0-9.462" fill="#9f4e26"/><path d="m-860.93-340.29c14.888-.05 29.788-.05 44.688-.025-3.038 10.637-6.05 21.288-9.163 31.913-8.9-.087-17.813.137-26.712-.15-2.663-10.663-6.15-21.09-8.813-31.738" fill="#cc5b31"/></g></svg>