<?xml version="1.0" encoding="UTF-8" standalone="no"?>
<!-- Created with Inkscape (http://www.inkscape.org/) -->

<svg
   xmlns:dc="http://purl.org/dc/elements/1.1/"
   xmlns:cc="http://creativecommons.org/ns#"
   xmlns:rdf="http://www.w3.org/1999/02/22-rdf-syntax-ns#"
   xmlns:svg="http://www.w3.org/2000/svg"
   xmlns="http://www.w3.org/2000/svg"
   xmlns:sodipodi="http://sodipodi.sourceforge.net/DTD/sodipodi-0.dtd"
   xmlns:inkscape="http://www.inkscape.org/namespaces/inkscape"
   width="491.77222mm"
   height="253.81314mm"
   viewBox="0 0 1742.5 899.3379"
   id="svg4827"
   version="1.1"
   inkscape:version="0.91 r13725"
   sodipodi:docname="lay2.svg">
  <defs
     id="defs4829" />
  <sodipodi:namedview
     id="base"
     pagecolor="#ffffff"
     bordercolor="#666666"
     borderopacity="1.0"
     inkscape:pageopacity="0.0"
     inkscape:pageshadow="2"
     inkscape:zoom="0.49497475"
     inkscape:cx="1468.4995"
     inkscape:cy="423.71011"
     inkscape:document-units="px"
     inkscape:current-layer="g5675"
     showgrid="false"
     fit-margin-top="0"
     fit-margin-left="0"
     fit-margin-right="0"
     fit-margin-bottom="0"
     inkscape:window-width="1920"
     inkscape:window-height="1027"
     inkscape:window-x="1272"
     inkscape:window-y="-8"
     inkscape:window-maximized="1" />
  <metadata
     id="metadata4832">
    <rdf:RDF>
      <cc:Work
         rdf:about="">
        <dc:format>image/svg+xml</dc:format>
        <dc:type
           rdf:resource="http://purl.org/dc/dcmitype/StillImage" />
        <dc:title></dc:title>
      </cc:Work>
    </rdf:RDF>
  </metadata>
  <g
     inkscape:label="Layer 1"
     inkscape:groupmode="layer"
     id="layer1"
     transform="translate(-205.89286,-31.26469)">
    <g
       id="layer1-0"
       inkscape:label="Layer 1"
       transform="translate(-1008.5738,65.95826)">
      <g
         id="g5675">
        <g
           transform="translate(2385.8874,915.05511)"
           id="g4816">
          <g
             id="g5640">
            <path
               id="path8002"
               d="m -836.83616,-390.18701 c 0.0375,8.425 -0.0418,17.08014 0.0207,25.51764 1.9125,-1.3625 3.8125,-2.7375 5.725,-4.0875 0.3125,0.4125 0.9375,1.2125 1.25,1.625 0.3625,0.3125 1.0875,0.9625 1.45,1.275 -2.8125,2.0375 -5.6125,4.1 -8.4125,6.15 -0.0375,3.275 -0.05,6.5625 -0.0625,9.8625 -0.9875,-0.0125 -2.975,-0.0125 -3.9625,-0.0125 -0.425,-5.3375 0.125,-10.675 0.025,-16.0125 0.175,-3.4375 -3.625,-4.8 -5.625,-6.9 0.5625,-0.675 1.1125,-1.3625 1.625,-2.0625 l 0.4125,-1.1 c 0.8,0.6125 2.4125,1.8375 3.2125,2.45 0.6125,-5.225 0.32857,-12.69464 0.11612,-17.90714 0.80333,2.61306 2.26575,1.91975 4.22561,1.202 z"
               inkscape:connector-curvature="0"
               style="fill:#7bbe1c"
               sodipodi:nodetypes="ccccccccccccccc" />
            <path
               id="path7990"
               d="m -849.3029,-403.26937 c -0.0125,-7.725 5.3625,-13.9 10.975,-18.5625 0.3,10.725 -0.15,21.45 0.05,32.175 -0.45,0.075 -1.325,0.225 -1.775,0.3 -6.125,-1.4375 -9.7625,-7.8875 -9.25,-13.9125 z"
               inkscape:connector-curvature="0"
               style="fill:#6cae0d" />
            <path
               id="path7992"
               d="m -838.45416,-421.83187 c 5.1875,4.8125 10.05,11.0875 9.725,18.5625 0.3,5.475 -2.625,11.7875 -8.25,13.3 l -1.425,0.35156 c -0.2,-10.725 0.25,-21.48906 -0.05,-32.21406 z"
               inkscape:connector-curvature="0"
               style="fill:#5ea018"
               sodipodi:nodetypes="ccccc" />
            <path
               id="path7994"
               d="m -875.5404,-396.48187 c 7.2875,-1.9875 15.525,-2.0375 22.1875,1.925 6.4625,3.4625 11.275,11.2 8.9625,18.625 l -0.4125,1.1 c -10.5125,-6.8125 -21.3375,-13.325 -30.7375,-21.65 z"
               inkscape:connector-curvature="0"
               style="fill:#5ea018" />
            <path
               id="path7996"
               d="m -814.6779,-395.56937 c 7.3375,-2.0625 15.075,-0.85 22.325,1 l -0.7,0.4875 c -12.3875,8.8 -24.5875,17.8875 -36.7875,26.95 -0.3125,-0.4125 -0.9375,-1.2125 -1.25,-1.625 -2.0875,-3.9125 -2.275,-8.75 -0.5,-12.8125 2.9,-7.075 9.625,-12.1 16.9125,-14 z"
               inkscape:connector-curvature="0"
               style="fill:#6cae0d" />
            <path
               id="path7998"
               d="m -869.4529,-375.91937 c -5.1625,-5.725 -8.025,-13.7375 -7.1125,-21.4375 l 1.025,0.875 c 9.4,8.325 20.225,14.8375 30.7375,21.65 -0.5125,0.7 -1.0625,1.3875 -1.625,2.0625 -6.7125,6.3 -17.45,3.075 -23.025,-3.15 z"
               inkscape:connector-curvature="0"
               style="fill:#6cae0d" />
            <path
               id="path8000"
               d="m -829.8404,-367.13187 c 12.2,-9.0625 24.4,-18.15 36.7875,-26.95 -0.7625,9.8125 -4.1625,20.1125 -12.25,26.3125 -6.35,5.025 -16.275,7.35 -23.0875,1.9125 -0.3625,-0.3125 -1.0875,-0.9625 -1.45,-1.275 z"
               inkscape:connector-curvature="0"
               style="fill:#5ea018" />
            <path
               id="path8008"
               d="m -864.9029,-349.80687 c 8.025,-0.075 16.05,-0.025 24.075,-0.05 0.9875,0 2.975,0 3.9625,0.0125 7.725,0 15.45,0 23.1875,0 0.0125,3.1625 0.0125,6.35 0,9.525 -0.6375,0 -1.925,0 -2.5625,0 -14.9,-0.025 -29.8,-0.025 -44.6875,0.025 -1,-0.0125 -2.9875,-0.0375 -3.975,-0.05 -0.0125,-3.1625 -0.0125,-6.3125 0,-9.4625 z"
               inkscape:connector-curvature="0"
               style="fill:#9f4e26" />
            <path
               id="path8010"
               d="m -860.9279,-340.29437 c 14.8875,-0.05 29.7875,-0.05 44.6875,-0.025 -3.0375,10.6375 -6.05,21.2875 -9.1625,31.9125 -8.9,-0.0875 -17.8125,0.1375 -26.7125,-0.15 -2.6625,-10.6625 -6.15,-21.0875 -8.8125,-31.7375 z"
               inkscape:connector-curvature="0"
               style="fill:#cc5b31" />
          </g>
        </g>
      </g>
    </g>
  </g>
</svg>
