<svg xmlns="http://www.w3.org/2000/svg" height="899.34" viewBox="0 0 1742.5 899.3379"><g transform="translate(-1214.47 34.694)"><g transform="matrix(1.14123 0 0 1.14123 1714.2-286.34)"><path d="m212.1 637.74c2.267-.412 4.596-.151 6.891-.206 103.98.014 207.96-.014 311.94.014 2.439-.337 3.944 2.164 3.621 4.342-.028 61.42.034 122.84-.028 184.26.234 2.357-2.102 3.923-4.267 3.621-40.927-.007-81.85 0-122.79-.007-23.373 0-46.753 0-70.13 0-41.09 0-82.17 0-123.26 0-1.353.103-2.721-.405-3.6-1.457-.859-2.247-.495-4.713-.563-7.06.028-59.786-.007-119.58.021-179.37-.014-1.621.371-3.6 2.157-4.136" fill="#161916"/><path d="m222.67 650.29c99.74-.021 199.48 0 299.22-.007-.206 3.566-.117 7.138-.117 10.711-95.95.041-191.88.014-287.82.028-3.772 0-7.537-.007-11.302-.007.021-3.573.007-7.145.021-10.725" fill="#f6f7f5"/><path d="m521.89 650.28c.515 3.827.412 7.715.014 11.549-16.303.069-32.607-.041-48.91.055 7.736 8.135 15.871 15.891 23.737 23.902 8.375 8.327 16.654 16.75 25.08 25.03.028 35.444.021 70.882 0 106.33-44.37.117-88.74.007-133.11.062-9.495-.158-18.997.33-28.478-.192-2.941-3.353-6.355-6.266-9.124-9.77 6.03.041 12.05 0 18.08.021-.007-1.388-.014-2.776-.007-4.157-6.396.007-12.786-.028-19.18.021-.014.914-.041 1.814-.034 2.741-3.573-2.666-8.04-5.716-7.764-10.759-.144 1.257-.309 2.515-.529 3.765l-.495.034c.027-1.395.055-2.783.089-4.163-1.099-.014-2.192-.014-3.284-.014-.797-1.051-1.594-2.089-2.391-3.14 4.933-.646 10.09.873 14.868-.797-.165-1.484-.302-2.968-.433-4.445-6.726.014-13.452-.076-20.17.034-2.473-1.8-4.287-4.349-4.452-7.475-1.086 1.099-2.164 2.192-3.215 3.325.021-1.463.027-2.92.034-4.37-4.603-3.408-8.828-7.386-12.202-12.02.295-.028.893-.082 1.195-.11.055-1.36.069-2.714.089-4.067-2.075-.007-4.15-.007-6.218.007-1.347-1.367-2.679-2.734-4.01-4.109.027-1.408.055-2.81.089-4.205-1.457.014-2.913.041-4.37.048-2.762-2.934-5.696-5.689-8.691-8.382-.055-.069-.172-.206-.234-.275-5.909-6.637-12.353-12.786-18.742-18.962.027-.611.055-1.216.082-1.821.062-1.436.11-2.865.158-4.294-2.315-.021-4.617-.021-6.925 0-.694-1.154-1.381-2.295-2.075-3.435 2.947.021 5.902.096 8.856-.082.007-.137.027-.405.041-.543.055-1.463.062-2.92.082-4.376-4.933-.028-9.859-.007-14.792-.014-1.353-1.45-2.734-2.872-4.15-4.253 6.307.103 12.614.028 18.914.021-.007-1.381-.014-2.755-.014-4.129-6.424-.014-12.848.007-19.272-.014.014 1.278.021 2.556.082 3.841-5.249-5.407-10.622-10.69-15.96-16.01.117-9.887.124-19.773-.206-29.66 95.94-.014 191.88.014 287.82-.028 0-3.573-.089-7.145.117-10.711" fill="#5a454e"/><path d="m226.85 656.8c-2.01-2.13 1.498-5.311 3.683-3.703 1.862.502 1.017 2.748 1.113 4.143-1.587.453-3.648 1.237-4.796-.44" fill="#e175b2"/><path d="m235.2 653.53c.776-.309 1.546-.611 2.322-.921.818.282 1.642.57 2.466.859-.028 1.202-.041 2.412-.055 3.621-.845.357-1.676.728-2.515 1.099-.804-.508-1.608-1.01-2.405-1.511.062-1.051.124-2.102.185-3.147" fill="#f4ab94"/><path d="m244.54 653.07c1.862-1.25 4.493.605 4.335 2.693-.666 1.56-2.7 2.892-4.308 1.814-1.766-.735-1.889-3.82-.028-4.507" fill="#c0c798"/><path d="m222.65 661.01c3.765 0 7.53.007 11.302.007.33 9.887.323 19.773.206 29.66-3.628-3.806-7.448-7.42-11.213-11.09-.605-6.149-.028-12.394-.295-18.578" fill="#473941"/><path d="m472.99 661.88c16.303-.096 32.607.014 48.91-.055-.22 16.324-.021 32.655-.096 48.986-8.423-8.279-16.702-16.702-25.08-25.03-7.867-8.01-16-15.768-23.737-23.902" fill="#47303a"/><path d="m239.96 669.25c9.371-.021 18.749-.014 28.12-.007 0 1.402 0 2.803.007 4.205-9.371-.062-18.742-.007-28.11-.028-.007-1.388-.014-2.783-.014-4.17" fill="#a8cfb2"/><path d="m273.79 669.23c8.409.021 16.826-.014 25.24.034-.014 1.395-.021 2.789-.027 4.191-8.423-.144-16.853.124-25.27-.144.021-1.36.041-2.721.062-4.081" fill="#a8cfb1"/><path d="m239.97 677.75c7.372.062 14.744-.034 22.11-.172-.027 1.457-.041 2.906-.069 4.363-7.338-.048-14.682.007-22.03-.028-.007-1.388-.007-2.776-.014-4.163" fill="#a9cfb0"/><path d="m222.95 679.59c3.765 3.669 7.585 7.283 11.213 11.09-.337 13.734-.337 27.482.048 41.22-.495 28.389-.206 56.798-.213 85.19-3.683.186-7.365.186-11.04-.082-.398-10.718-.048-21.449-.179-32.17.014-22.446 0-44.884.014-67.33.11-12.635-.234-25.283.158-37.911" fill="#32232b"/><path d="m239.95 686.13c7.379-.076 14.751-.021 22.13-.034 0 1.388.007 2.783.021 4.177-7.372-.021-14.744.014-22.12-.007-.014-1.381-.028-2.762-.034-4.136" fill="#a8cfb0"/><path d="m234.16 690.68c5.338 5.318 10.711 10.601 15.96 16.01.076.069.22.213.289.282 1.415 1.381 2.796 2.803 4.15 4.253-1.484-.007-2.961.007-4.438.014-.007 1.367-.007 2.734-.007 4.102 6.389-.151 12.758.515 19.15.275-.014.137-.034.405-.041.543-2.954.179-5.909.103-8.856.082.694 1.14 1.381 2.281 2.075 3.435-4.115.028-8.231.014-12.346-.014 0 1.415.007 2.844.007 4.267 6.369-.028 12.738-.041 19.11.041-.027.605-.055 1.209-.082 1.821 6.389 6.177 12.834 12.326 18.742 18.962-5.345.007-10.69-.014-16.04.007-.948.103-2.13-.165-2.789.701-.089 1.154-.069 2.322-.055 3.483 6.376.103 12.758-.014 19.14.021 0-1.319 0-2.631-.027-3.937 2.995 2.693 5.929 5.448 8.691 8.382-3.902 0-7.812-.385-11.714-.055.034 1.374.069 2.755.11 4.136 5.29.034 10.587-.034 15.884.076 1.326 1.374 2.659 2.741 4.01 4.109-3.366.021-6.733.014-10.09.014.007 1.374.021 2.762.034 4.143 4.995-.082 9.99.076 14.991.014 3.373 4.638 7.599 8.615 12.202 12.02-4.363-.055-8.732-.007-13.1-.041.055 1.491.117 2.995.179 4.493 4.287-.481 8.588-.192 12.882-.082 1.051-1.134 2.13-2.226 3.215-3.325.165 3.126 1.979 5.675 4.452 7.475-.453.007-1.353.028-1.807.034 0 1.367.007 2.734.014 4.102 7.468.179 14.943-.137 22.398.275-4.775 1.67-9.935.151-14.868.797.797 1.051 1.594 2.089 2.391 3.14-3.305-.007-6.609-.007-9.907.028-.014 1.381-.014 2.769-.021 4.157 4.376 0 8.746.076 13.12-.007l.495-.034c.22-1.25.385-2.508.529-3.765-.275 5.04 4.191 8.093 7.764 10.759-.007.344-.014 1.024-.021 1.36.295.007.873.014 1.161.014 2.769 3.504 6.183 6.417 9.124 9.77-3.105.213-6.218.268-9.323.103-9.612-.165-19.23.371-28.842-.096-13.287.35-26.589-.295-39.876.165-8.471-.646-16.942.357-25.414-.124-7.592-.302-15.19.467-22.775.028.007-28.395-.282-56.805.213-85.19-.385-13.734-.385-27.482-.048-41.22" fill="#47303a"/><g fill="#aacfb2"><path d="m250.08 694.47c8.348.021 16.702.007 25.06.007-.014 1.388-.021 2.783-.021 4.184-8.348-.028-16.695-.021-25.04-.014 0-1.395 0-2.783.007-4.177"/><path d="m314.71 694.47c7.379.014 14.765.007 22.15.007-.014 1.395-.014 2.783-.007 4.177-7.379-.014-14.758-.014-22.13.007-.007-1.402-.014-2.796-.014-4.191"/></g><path d="m280.99 694.5c9.371.055 18.749-.041 28.12.048 0 1.347.007 2.693.021 4.047-9.385.11-18.777-.007-28.16.055.007-1.381.007-2.769.021-4.15" fill="#fdfefd"/><path d="m250.04 702.84c6.424.021 12.848 0 19.272.014 0 1.374.007 2.748.014 4.129-6.3.007-12.607.082-18.914-.021-.069-.069-.213-.213-.289-.282-.062-1.285-.069-2.563-.082-3.841" fill="#a9cfb2"/><path d="m274.95 706.94c.021-1.367.041-2.734.076-4.095 5.304.007 10.615-.014 15.926-.055.172 1.353.344 2.707.515 4.067-5.503.199-11.01.117-16.516.082" fill="#e25484"/><path d="m296.87 706.99c0-1.374 0-2.741.007-4.109 12.353.007 24.706 0 37.07.007-.007 1.36 0 2.721.007 4.088-12.36.021-24.72 0-37.08.014" fill="#fbb48c"/><path d="m339.65 702.78c9.337.131 18.681-.007 28.02.062.021 1.347.041 2.693.069 4.04-9.371.103-18.736.089-28.11.028.007-1.381.014-2.755.021-4.129" fill="#e55283"/><path d="m373.38 702.88c32.18 0 64.36-.041 96.54.021.007 1.347.021 2.693.041 4.054-32.21.041-64.42.041-96.63-.007.014-1.36.034-2.714.055-4.067" fill="#fbb58b"/><path d="m475.66 706.97c.014-1.374.034-2.741.055-4.109 2.439-.014 4.885-.014 7.331-.007.007 1.367.014 2.741.034 4.115-2.48.055-4.954.055-7.42 0" fill="#acceb4"/><path d="m250.12 711.23c1.477-.007 2.954-.021 4.438-.014 4.933.007 9.859-.014 14.792.014-.021 1.457-.027 2.913-.082 4.376-6.396.24-12.765-.426-19.15-.275 0-1.367 0-2.734.007-4.102" fill="#a9ccb2"/><path d="m274.98 711.36c5.462-.192 10.993-.563 16.42.179-.027 1.189-.055 2.384-.076 3.579-5.428.776-10.945.584-16.393.24.014-1.34.034-2.666.048-3.999" fill="#e35586"/><path d="m296.85 711.38c24.25-.034 48.5-.041 72.74.021-.11 1.367.11 2.817-.412 4.115-24.09-.344-48.19-.11-72.28-.124-.027-1.34-.041-2.679-.055-4.01" fill="#fbb68e"/><path d="m375.3 711.42c4.328-.522 8.691-.172 13.04-.289.069 1.374.131 2.748.206 4.129-4.39.591-8.828.213-13.239.378-.007-1.408-.007-2.817-.007-4.218" fill="#e45584"/><path d="m394.4 711.24c15.218.275 30.436.055 45.661.11-.014 1.408-.021 2.817 0 4.232-11.618-.495-23.256-.117-34.888-.22-3.579.021-7.166-.103-10.745.179-.021-1.436-.027-2.872-.027-4.301" fill="#fbb78d"/><path d="m445.96 715.66c.048-1.525.082-3.044.131-4.562 5.283.151 10.58-.124 15.864.282-.007 1.264 0 2.535.007 3.806-5.318.577-10.67.199-16 .474" fill="#e35482"/><path d="m467.93 711.38c5.359-.199 10.718-.048 16.08-.028-.021 1.333-.027 2.673-.034 4.01-5.338-.007-10.683-.055-16.02.007-.014-1.333-.021-2.666-.021-3.992" fill="#fcb68d"/><path d="m489.85 711.2c2.398-.007 4.802.007 7.207.117-.027 1.388-.048 2.776-.062 4.17-2.37.048-4.741.062-7.104.062-.027-1.45-.041-2.899-.041-4.349" fill="#abceb1"/><path d="m250.1 719.66c4.115.028 8.231.041 12.346.014 2.308-.021 4.61-.021 6.925 0-.048 1.429-.096 2.858-.158 4.294-6.369-.082-12.738-.069-19.11-.041 0-1.422-.007-2.851-.007-4.267" fill="#a0cbaa"/><path d="m274.93 719.72c5.469.028 10.938-.131 16.4.096.007 1.367.014 2.741.034 4.115-5.428.028-10.848-.028-16.276-.041-.055-1.395-.11-2.783-.158-4.17" fill="#e35483"/><path d="m296.86 719.66c26.12 0 52.24.062 78.37-.034 2.061.021 4.129.069 6.204.062-.014 1.415-.027 2.837-.027 4.26-28.17-.158-56.34-.055-84.52-.048-.014-1.415-.021-2.831-.027-4.239" fill="#fcb58c"/><path d="m386.96 719.9c4.541-.302 9.09-.192 13.638-.089-.254 1.299.639 3.257-.845 3.978-4.067.337-8.162-.028-12.236.192-.165-1.367-.35-2.728-.557-4.081" fill="#e45483"/><path d="m406.13 719.55c9.845.254 19.697.082 29.543.089 5.483.082 10.958 0 16.434.055-.021 1.395-.034 2.789-.041 4.191-15.3-.034-30.594-.021-45.894-.007-.014-1.45-.021-2.892-.041-4.328" fill="#fcb58b"/><path d="m457.77 719.81c5.421-.158 10.848-.11 16.269-.034.021 1.367.034 2.741.062 4.122-5.421.021-10.848.028-16.269.014-.027-1.374-.048-2.741-.062-4.102" fill="#e45482"/><path d="m479.77 719.69c5.4-.021 10.807-.041 16.214.028-.014 1.381-.014 2.762-.014 4.157-5.386 0-10.773-.014-16.15.014-.027-1.402-.041-2.803-.048-4.198" fill="#fcb58d"/><path d="m501.68 719.69c2.446-.007 4.899-.007 7.351.014-.014 1.388-.021 2.783-.021 4.177-2.439.021-4.871.021-7.303.034-.014-1.408-.027-2.817-.027-4.225" fill="#acceb5"/><path d="m239.96 728.05c7.379-.062 14.751-.007 22.13-.034-.014 1.415-.021 2.831-.027 4.246-7.365-.014-14.73.021-22.1-.007-.007-1.408-.007-2.81-.007-4.205" fill="#9dc9a7"/><path d="m239.97 736.42c7.365-.028 14.737.007 22.1-.014 0 1.408 0 2.817.007 4.225-7.379-.014-14.751.055-22.12-.021 0-1.402.007-2.796.014-4.191" fill="#9fc9a9"/><path d="m324.63 744.83c2.446-.034 4.892-.034 7.338-.034.014 1.395.021 2.789.041 4.191-2.473 0-4.94-.014-7.406-.048.007-1.374.014-2.741.027-4.109" fill="#accdb4"/><path d="m250.08 748.97c.014-1.402.021-2.796.048-4.191 4.376.028 8.76.007 13.143.007 0 1.395 0 2.789 0 4.191-4.397.014-8.794-.014-13.191-.007" fill="#a0c9a9"/><path d="m269.05 745.45c.66-.866 1.841-.598 2.789-.701 5.345-.021 10.69 0 16.04-.007.062.069.179.206.234.275.027 1.305.027 2.618.027 3.937-6.383-.034-12.765.082-19.14-.021-.014-1.161-.034-2.329.055-3.483" fill="#de4276"/><path d="m294.07 744.84c8.327.021 16.654-.021 24.981.021-.014 1.36-.021 2.728-.021 4.095-8.334-.007-16.661-.034-24.995-.007.007-1.374.021-2.741.034-4.109" fill="#fbb690"/><path d="m259.98 753.35c6.417.069 12.834-.213 19.251-.179-.034 1.443-.055 2.886-.089 4.328-6.369-.069-12.745-.014-19.11-.028-.021-1.374-.034-2.748-.048-4.122" fill="#a0caaa"/><path d="m285.08 753.35c3.902-.33 7.812.055 11.714.055 1.457-.007 2.913-.034 4.37-.048-.034 1.395-.062 2.796-.089 4.205-5.297-.11-10.594-.041-15.884-.076-.041-1.381-.076-2.762-.11-4.136" fill="#e24379"/><path d="m307.04 753.33c10.319.028 20.646-.034 30.965.021 0 1.353.007 2.7.014 4.06-10.312.007-20.632.028-30.951 0-.014-1.36-.021-2.721-.027-4.081" fill="#fcb58a"/><path d="m343.71 753.11c2.466-.021 4.933.048 7.399.234-.014 1.367-.027 2.734-.027 4.109-2.46.014-4.912.014-7.365.021-.014-1.457-.014-2.913-.007-4.363" fill="#a9d0af"/><path d="m270.1 761.63c6.41.069 12.827-.014 19.244.048-.021 1.381-.034 2.769-.041 4.163-6.396.007-12.786-.007-19.18 0-.007-1.408-.021-2.817-.021-4.212" fill="#9dcaac"/><path d="m294.99 761.68c3.36 0 6.726.007 10.09-.014 2.068-.014 4.143-.014 6.218-.007-.021 1.353-.034 2.707-.089 4.067-.302.028-.9.082-1.195.11-5 .062-9.996-.096-14.991-.014-.014-1.381-.027-2.769-.034-4.143" fill="#e14479"/><path d="m316.93 761.68c10.34-.048 20.673 0 31.01-.028-.007 1.381-.007 2.769 0 4.163-10.333.021-20.666.048-30.999-.021-.007-1.381-.014-2.755-.014-4.115" fill="#fcb488"/><path d="m353.79 761.64c2.398.007 4.802.007 7.207 0-.007 1.395-.014 2.796-.014 4.198-2.391 0-4.782-.007-7.173-.007-.014-1.402-.021-2.803-.021-4.191" fill="#accfb4"/><path d="m366.81 761.66c13.349 0 26.698-.007 40.05 0-.014 1.381-.027 2.769-.027 4.163-13.329.021-26.657 0-39.979.007-.021-1.395-.027-2.783-.041-4.17" fill="#fefefd"/><path d="m412.41 761.65c2.453-.007 4.912-.007 7.365.014 0 1.381.007 2.769.014 4.157-2.453.028-4.899.021-7.344.021-.014-1.402-.027-2.803-.034-4.191" fill="#aacfb0"/><path d="m270.08 770.02c3.463-.014 6.919-.028 10.381-.007-.014 1.395-.014 2.789-.021 4.191-3.442.021-6.884.021-10.326.041-.014-1.415-.027-2.817-.034-4.225" fill="#9dcaa4"/><path d="m279.98 778.09c3.442-.309 6.905-.234 10.361-.213-.014 1.388.014 2.783-.103 4.17-3.435.344-6.946.371-10.347-.192.021-1.264.055-2.515.089-3.765" fill="#a1cba7"/><path d="m296.22 777.87c2.377.007 4.761.007 7.145.028 0 1.436-.007 2.879-.014 4.328-2.37 0-4.747 0-7.111 0-.021-1.457-.021-2.906-.021-4.356" fill="#a1cba9"/><path d="m309.12 777.82c4.363.034 8.732-.014 13.1.041-.007 1.45-.014 2.906-.034 4.37-4.294-.11-8.595-.398-12.882.082-.062-1.498-.124-3-.179-4.493" fill="#e24072"/><path d="m328.06 778.08c5.421-.096 10.842-.055 16.262-.041-.007 1.374-.014 2.748-.014 4.122-5.434-.11-10.89.344-16.303-.227.014-1.292.034-2.57.055-3.854" fill="#fbb68a"/><path d="m349.99 778.11c6.403-.302 12.8-.096 19.2-.041-.027 1.381-.048 2.762-.069 4.15-6.396-.179-12.834.405-19.2-.33.021-1.271.041-2.521.062-3.779" fill="#fefdfd"/><path d="m375.07 777.88c2.37 0 4.734 0 7.111-.007 0 1.457 0 2.913 0 4.376-2.37-.014-4.741-.021-7.111-.014-.007-1.457-.007-2.906 0-4.356" fill="#a9cfb3"/><path d="m387.83 778.01c3.421-.192 6.85-.151 10.278-.131-.014 1.45-.027 2.906-.034 4.363-3.442-.034-6.898.137-10.326-.275.021-1.326.055-2.645.082-3.957" fill="#a9cfb2"/><path d="m279.97 786.39c3.449-.076 6.891-.062 10.34-.062.014 1.408.027 2.817.041 4.239-3.47.014-6.932.021-10.395-.034 0-1.388.007-2.769.014-4.143" fill="#9ecaa7"/><path d="m296.19 786.36c2.405-.021 4.802-.028 7.207-.021-.021 1.408-.041 2.824-.055 4.239-2.377-.007-4.747-.007-7.118-.007-.014-1.408-.021-2.81-.034-4.212" fill="#a2c9ad"/><path d="m309.16 786.35c4.37.055 8.746.014 13.12.028.014 1.408.027 2.81.048 4.225-4.376-.014-8.76-.028-13.14.007-.021-1.422-.027-2.837-.034-4.26" fill="#df3e74"/><path d="m328.04 786.42c.453-.007 1.353-.028 1.807-.034 6.719-.11 13.445-.021 20.17-.034.131 1.477.268 2.961.433 4.445-7.454-.412-14.929-.096-22.398-.275-.007-1.367-.014-2.734-.014-4.102" fill="#fbb488"/><path d="m355.94 786.37c8.348.007 16.695.007 25.04 0-.007 1.402-.014 2.796-.014 4.205-8.334-.028-16.668-.028-25 .007-.007-1.408-.014-2.81-.021-4.212" fill="#fefefc"/><path d="m386.85 786.35c2.398 0 4.789 0 7.186-.014-.007 1.408-.007 2.831-.007 4.246-2.384 0-4.761-.007-7.138 0-.014-1.415-.027-2.824-.041-4.232" fill="#adcfb0"/><path d="m399.82 786.34c2.405.014 4.809.007 7.214-.007-.014 1.408-.021 2.824-.027 4.239-2.384-.014-4.768-.007-7.152 0-.014-1.415-.027-2.824-.034-4.232" fill="#acceb5"/><path d="m279.95 794.76c3.463-.089 6.932-.069 10.402-.076-.007 1.422-.014 2.837-.014 4.267-3.463.028-6.925.048-10.381-.055-.007-1.388-.007-2.762-.007-4.136" fill="#9bcaa4"/><path d="m296.2 794.72c2.384-.007 4.768-.007 7.159-.014-.007 1.408-.007 2.831 0 4.253-2.384-.007-4.761-.021-7.131-.021-.014-1.408-.021-2.817-.027-4.218" fill="#a2caaa"/><path d="m309.2 794.72c4.363.034 8.732-.007 13.1.028.021 1.388.041 2.783.062 4.184-4.39.041-8.787.034-13.177.034.007-1.422.014-2.837.021-4.246" fill="#df4277"/><path d="m328.07 794.76c3.298-.034 6.602-.034 9.907-.028 1.092 0 2.185 0 3.284.014-.034 1.381-.062 2.769-.089 4.163-4.376.082-8.746.007-13.12.007.007-1.388.007-2.776.021-4.157" fill="#fbae80"/><path d="m347.04 794.72c5.352 0 10.697.014 16.04 0 0 1.408 0 2.824.007 4.239-5.345-.028-10.697 0-16.05-.014 0-1.415 0-2.817 0-4.225" fill="#fcfcfb"/><path d="m369.02 794.72c2.377-.007 4.754-.007 7.131 0-.007 1.408-.007 2.817 0 4.232-2.377-.007-4.754-.007-7.125.014 0-1.422-.007-2.837-.007-4.246" fill="#aed0b4"/><path d="m382.07 794.74c3.415-.021 6.829-.034 10.244.014-.021 1.381-.027 2.776-.034 4.17-3.401.028-6.795.014-10.189.021-.007-1.408-.014-2.81-.021-4.205" fill="#abcfb4"/><path d="m296.21 803.08c2.391.014 4.775.014 7.166.021-.007 1.395-.007 2.796 0 4.205-2.398.007-4.789 0-7.173-.007 0-1.408 0-2.817.007-4.218" fill="#9ecaa8"/><path d="m349.96 805.87c-.007-.928.021-1.828.034-2.741 6.389-.048 12.779-.014 19.18-.021-.007 1.381 0 2.769.007 4.157-6.03-.021-12.05.021-18.08-.021-.289 0-.866-.007-1.161-.014.007-.337.014-1.017.021-1.36" fill="#fcfefc"/><path d="m387.83 803.11c3.428-.028 6.857-.014 10.285 0 0 1.402 0 2.796.007 4.205-3.449-.028-6.898-.021-10.34-.028.014-1.395.034-2.789.048-4.177" fill="#abceb2"/><path d="m279.96 803.12c3.463-.041 6.925-.034 10.388-.034-.021 1.395-.027 2.796-.041 4.205-3.456.007-6.905.048-10.361-.062.007-1.374.007-2.748.014-4.109" fill="#9dcba9"/><path d="m309.18 807.29c.007-1.422.014-2.831.021-4.239 4.376.055 8.746.007 13.12.076.014 1.374.034 2.748.048 4.129-4.397.069-8.794.048-13.191.034" fill="#e14073"/><path d="m328.08 803.14c5.414-.034 10.828-.014 16.242-.007 0 1.381 0 2.762.021 4.15-5.441-.028-10.883.041-16.324-.041.021-1.374.041-2.741.062-4.102" fill="#faad7d"/><path d="m375.1 803.28c2.329-.426 4.734-.117 7.097-.165-.007 1.395-.014 2.789-.014 4.191-2.48 0-4.96-.007-7.441-.069.103-1.319-.124-2.707.357-3.957" fill="#aacdb6"/><path d="m270.13 811.46c3.428.007 6.857-.014 10.292.007.007 1.395.014 2.789.027 4.198-3.456.014-6.905 0-10.361.014.014-1.408.027-2.817.041-4.218" fill="#a1c9a6"/><path d="m337.34 829.76c23.373 0 46.753 0 70.13 0v.447c-.433 8.403.014 16.812-.282 25.21-23.277.028-46.561.007-69.845.014.014-8.561.014-17.11 0-25.675" fill="#c2c4c3"/><path d="m407.47 830.21c.488 8.396-.021 16.812.323 25.21 4.981.076 9.976-.069 14.964.124.041 1.58.082 3.16.131 4.754-34.23.007-68.46.007-102.69 0 .048-1.573.096-3.147.144-4.713 5.668-.282 11.336-.089 17-.144 23.284-.007 46.568.014 69.845-.014.295-8.403-.151-16.812.282-25.21" fill="#e0e2e1"/><path d="m.041 860.28c106.72.007 213.44-.007 320.15.014 34.23.007 68.46.007 102.69 0 107.18-.021 214.35-.007 321.52-.014.069 7.448.034 14.888.021 22.336-5.359 0-10.711-.014-16.07.014-237.61.028-475.23.014-712.84 0h-.44c-5.02-.028-10.04-.014-15.06-.014-.014-7.448-.048-14.888.021-22.336" fill="#b08260"/><path d="m15.08 881.53h.44c.014 2.233.041 4.473.082 6.712 15.795.364 31.604.034 47.41.151 140.17 0 280.34-.007 420.51 0 81.61-.048 163.22.076 244.83-.062-.021 2.384-.028 4.775-.028 7.166-7.276 0-14.558-.007-21.834 0-7.949 0-15.898 0-23.847.007-206.77-.014-413.53-.014-620.3 0-7.949-.014-15.905-.007-23.861-.007-7.777-.007-15.561 0-23.339-.007.014-4.651-.082-9.309-.069-13.961" fill="#816852"/><path d="m15.52 882.63c237.61.014 475.23.028 712.84 0 .007 2.26 0 4.528-.007 6.802-81.61.137-163.23.014-244.83.062-140.17-.007-280.34 0-420.51 0-15.802-.117-31.611.213-47.41-.151-.041-2.24-.069-4.48-.082-6.712" fill="#6c5a47"/><g fill="#a78869"><path d="m682.64 895.5c7.949-.007 15.898-.007 23.847-.007 10.292 52.28 20.419 104.61 30.855 156.87h-18.791c-2.913-14.249-6.486-28.361-9.632-42.555-8.76-38.1-17.568-76.19-26.28-114.3"/><path d="m38.488 895.5c7.956 0 15.912-.007 23.861.007-12.03 52.28-24.04 104.58-36.1 156.86h-18.42c3.174-17.63 6.87-35.17 10.23-52.772 6.822-34.696 13.617-69.4 20.433-104.09"/></g></g><g transform="translate(0-52)"><path d="m1981.97 307.42c15.843.007 31.693.014 47.543 0 6.575.007 13.157.007 19.739.007 2.817 0 5.634 0 8.457 0 6.85.007 13.7.007 20.556 0 4.727 0 9.461.007 14.201 0 11.01-.007 22.01 0 33.03-.007 31.556.007 63.1.007 94.66 0 9.172.021 18.351-.014 27.523.021 0 2.473 0 4.947-.021 7.42-14.923.364-29.852.062-44.781.158-79.937.007-159.87.007-239.82.007-16.338-.131-32.676.234-49.01-.179-.028-2.473-.028-4.94-.021-7.413 10.581-.021 21.16 0 31.741-.007 5.263 0 10.519.007 15.781 0 1.855 0 3.717-.007 5.579-.007 4.947.007 9.893.007 14.847 0" fill="#997b5f"/><path d="m1914.05 313.75c16.338.412 32.676.048 49.01.179 79.944 0 159.88 0 239.82-.007 14.929-.096 29.859.206 44.781-.158-.014 2.556-.028 5.112-.089 7.667-111.16-.007-222.33.034-333.48-.021 0-2.556.001-5.112-.041-7.661" fill="#af8c6c"/><g transform="translate(0 24)"><path d="m1945.77 184.61c5.249-.007 10.505.007 15.754-.007.082 32.944 0 65.887.027 98.83-5.263.007-10.519 0-15.781 0-.014-3.916-.001-7.825-.001-11.735 5.091.337 10.203.35 15.3.158.275-2.831.282-5.682.001-8.512-5.105-.144-10.209-.137-15.307.172 0-18.935 0-37.877 0-56.811 5.098-.028 10.196.069 15.293-.069.302-2.837.302-5.696-.001-8.533-5.098-.117-10.196-.089-15.287.165 0-4.548-.001-9.103.001-13.658" fill="#8b1046"/><path d="m2078.15 185.93l.474.062c-.048 3.387.117 6.788-.124 10.168-.557 7.228-.124 14.483-.22 21.724.028 3.669.028 7.344 0 11.01-.021 18.01-.041 36.04-.028 54.05-.66-6.08.151-12.195-.536-18.268-6.664-.24-13.335.007-20-.131 0-19.265 0-38.529 0-57.794 6.692-.076 13.383.137 20.07-.11.357-6.898.385-13.81.364-20.714" fill="#0b4616"/><path d="m1961.77 192.01c4.885-.185 9.749-.653 14.634-.811 1.759 30.752 3.641 61.49 5.572 92.23-4.954.007-9.9.007-14.847 0-1.079-20.749-2.542-41.463-3.676-62.2-.584-9.735-1.374-19.464-1.683-29.21" fill="#1f5b92"/><path d="m2125.5 283.42c.021-21.257-.034-42.521.027-63.785 31.542.014 63.09-.007 94.63.014.014 21.257.014 42.514 0 63.771-31.556.007-63.1.007-94.66 0" fill="#414c5f"/><path d="m2077.18 228.9c4.734.021 9.467.021 14.201-.034-.001 18.19.001 36.38-.001 54.56-4.741.007-9.474 0-14.201 0l-.021-.481c-.014-18.01.001-36.04.028-54.05z" fill="#494949"/><path d="m2057.71 263.57c6.664.145 13.336-.116 20 .137.687 6.389-.124 12.822.536 19.218l.021.506c-6.857.007-13.706.007-20.556 0-.001-6.62 0-13.241 0-19.861" fill="#0c5219"/><g transform="translate(0-20)"><path d="m2057.71 205.93c6.809 0 13.617-.007 20.433.007.021 7.425-.001 14.857-.364 22.275-6.685.266-13.377.037-20.07.118-.041-7.469-.014-14.931 0-22.4" fill="#0c5219"/><path d="m2036.4 229.11c.68-6.403 1.099-12.834 1.869-19.223 6.451.666 12.916 1.34 19.395 1.731-.447 6.314-1.195 12.593-1.615 18.907-6.568-.24-13.11-.866-19.649-1.415" fill="#c8581b"/><path d="m2077.4 216.16c4.658.069 9.316.021 13.974.034.001 7.255 0 14.503.001 21.752-4.734.069-9.467.076-14.201-.062.096-7.241-.337-14.497.22-21.724z" fill="#494949"/><path d="m1945.76 217.36c5.091-.335 10.189-.371 15.287-.217.309 3.736.309 7.5.001 11.236-5.098.181-10.196.054-15.293.09 0-3.7 0-7.409 0-11.11z" fill="#76103d"/><path d="m1962.94 224.3c4.61-.282 9.227-.577 13.851-.687.165 1.353.337 2.7.508 4.054-4.768.44-9.55.653-14.332.907-.22-1.415-.172-2.851-.027-4.273" fill="#18456e"/><path d="m2036.4 229.11c6.541.55 13.08 1.175 19.649 1.415-.137 1.14-.296 2.281-.44 3.421-6.493-.508-12.985-.982-19.471-1.512.082-1.106.172-2.212.261-3.325" fill="#ea7637"/><path d="m2036.14 232.44c6.486.529 12.978 1 19.471 1.512-1.532 18.296-3.38 36.564-4.988 54.853-4.899-.364-9.797-.749-14.703-1.058-1.656-.062-3.215-.639-4.747-1.216 1.587-18.03 3.277-36.06 4.967-54.09" fill="#c8581b"/><path d="m2077.18 236.71c4.734.169 9.467.161 14.201.076 0 4.484 0 8.96 0 13.444-4.734.068-9.467.068-14.201.042.028-4.518.028-9.04 0-13.562" fill="#595959"/><path d="m2131.11 292.24c-.199-15.692-.069-31.391-.069-47.08 27.784-.028 55.56.089 83.34-.055.488 3.724.227 7.482.282 11.226 0 13.906 0 27.818-.001 41.724-3.655.041-7.303.034-10.958.014-.076-.096-.227-.289-.302-.378-6.513-8.19-12.916-16.455-19.409-24.658-3.209 4.06-6.376 8.155-9.612 12.195-6.376-7.977-12.628-16.05-18.955-24.06-8.093 10.367-16.379 20.591-24.307 31.07z" fill="#67c8cf"/><path d="m2196.98 253.31c4.129-1.553 9.06 2.041 8.485 6.499.076 4.94-6.424 7.819-10.196 4.796-4.15-2.728-3.099-9.928 1.711-11.295" fill="#f0ae67"/><path d="m2131.11 292.24c7.928-10.484 16.214-20.707 24.307-31.07 6.328 8.01 12.58 16.08 18.956 24.06 3.229 4.163 6.403 8.375 9.749 12.442-1.532.344-3.078.687-4.644.639-10.752-.179-21.511 0-32.26-.082-5.414-.076-10.835.289-16.228-.22-.103-1.896-.728-3.964.124-5.764" fill="#465163"/><path d="m2183.98 273.03c6.492 8.203 12.896 16.468 19.409 24.658-4.03.838-8.141.309-12.209.46-2.336-.11-4.851.378-7.06-.481-3.346-4.067-6.52-8.279-9.749-12.442 3.236-4.04 6.403-8.135 9.612-12.195" fill="#313c50"/><path d="m1945.76 282.03c5.098-.413 10.203-.423 15.307-.23.275 3.786.268 7.599-.001 11.384-5.098.257-10.209.239-15.3-.211 0-3.648 0-7.295 0-10.943z" fill="#76103d"/><path d="m2030.95 286.45l.227.082c1.532.577 3.092 1.154 4.747 1.216 4.906.309 9.804.694 14.703 1.058-.11 1.786-.295 3.573-.625 5.331-.069-.508-.199-1.525-.268-2.027-6.3-.618-12.621-1.01-18.942-1.436.076-1.408.131-2.817.158-4.225" fill="#ea7637"/></g><path d="m2030.79 270.67c6.321.426 12.642.818 18.942 1.436.069.502.199 1.518.268 2.027.001 3.112-.55 6.19-.742 9.296-6.582 0-13.164 0-19.739-.007.605-4.232.735-8.512 1.271-12.751" fill="#c8581b"/></g></g></g></svg>