<svg xmlns="http://www.w3.org/2000/svg" height="899.34" viewBox="0 0 1742.5 899.3379"><g transform="translate(1315.21 994.28)"><path d="m-73.48-389.67c4.888.05 9.536-.06 14.788-.03.038 37.675-.063 76.12-.125 113.79-65.14-.3-130.28-.038-195.43-.125.1-37.625-.347-76.09-.272-113.71 62.24.144 127.3.052 181.03.073" fill="#202020"/><path d="m-245.85-381.4c19.286.153 39.21.556 58.696.331 32.09-.137 64.17.225 96.26-.225 7.912.063 15.85-.35 23.763.375.612 19.225-.112 38.475.125 57.712-.175 13.65.35 27.325-.362 40.962-27.04.525-54.09.05-81.12.15-32.463.137-64.925.5-97.37 0 .661-35.559.275-67.69.017-99.31" fill="#141515"/><path d="m-254.24-276.03c65.15.087 130.29-.175 195.43.125 2.494 1.863 5.328 3.525 8.175 5.613-67.59.413-135.19 0-202.79.2-.35 1.988-.713 3.988-1.037 6-.162-3.988-.088-7.975.225-11.938" fill="#e0e2e1"/><path d="m-254.43-270.25c67.6-.2 136.28.369 203.87-.044-.017 2.125.018 4.577-.002 6.172-68.25.05-135.65.053-203.9.028-.032-2.01.063-4.124.033-6.156" fill="#c2c4c3"/></g></svg>