<svg xmlns="http://www.w3.org/2000/svg" height="899.34" viewBox="0 0 1742.5 899.3379"><g transform="translate(1254.02 950.06)"><path d="m247.48-656.82c5.912-.487 11.85-.425 17.788-.362 33.11-.013 66.23 0 99.35-.013 9.01 59.75 17.725 119.56 26.563 179.34-25.8.038-51.6 0-77.4.012-4.637 0-9.262 0-13.887 0-26.26-.012-52.53.038-78.79-.025 8.775-59.65 17.775-119.28 26.375-178.95" fill="#ffce41"/><path d="m299.9-477.84c4.625 0 9.25 0 13.887 0-.012 142.37 0 284.75 0 427.12h-13.887c0-142.37 0-284.75 0-427.12" fill="#4b5161"/></g></svg>