<svg xmlns="http://www.w3.org/2000/svg" viewBox="0 0 1920 1080"><defs><filter id="0" color-interpolation-filters="sRGB"><feComposite in2="SourceGraphic" operator="arithmetic" k1="0" k2="1" result="composite1"/><feColorMatrix in="composite1" values="1" type="saturate" result="colormatrix1"/><feFlood flood-opacity="1" flood-color="#498f2f" result="flood1"/><feBlend in="flood1" in2="colormatrix1" mode="multiply" result="blend1"/><feBlend in2="blend1" mode="screen" result="blend2"/><feColorMatrix in="blend2" values="1" type="saturate" result="colormatrix2"/><feComposite in="colormatrix2" in2="SourceGraphic" operator="in" k2="1" result="composite2"/></filter></defs><g stroke-width="1.51"><path d="m1679.61 607.41l101 372 188-593z" transform="matrix(1.05987 0 0 .99806 6.247 17.646)" fill="#1c7a41" filter="url(#0)" stroke="#1c7a41"/><path d="m1780.61 979.41l66 207 122-800z" transform="matrix(1.05987 0 0 .99806 6.247 17.646)" fill="#106d39" filter="url(#0)" stroke="#106d39"/><path d="m1802.61 153.41l166 233 42-386z" transform="matrix(1.05987 0 0 .99806 6.247 17.646)" fill="#438d54" filter="url(#0)" stroke="#438d54"/><path d="m1659.61 59.41l143 94 208-153z" transform="matrix(1.05987 0 0 .99806 6.247 17.646)" fill="#4f9558" filter="url(#0)" stroke="#4f9558"/><path d="m1623.61-204.59l36 264 351-59z" transform="matrix(1.05987 0 0 .99806 6.247 17.646)" fill="#5b9c5e" filter="url(#0)" stroke="#5b9c5e"/><path d="m1802.61 153.41l-123 454 289-221z" transform="matrix(1.05987 0 0 .99806 6.247 17.646)" fill="#31894d" filter="url(#0)" stroke="#31894d"/><path d="m1679.61 607.41l-111 215 212 157z" transform="matrix(1.05987 0 0 .99806 6.247 17.646)" fill="#16773e" filter="url(#0)" stroke="#16773e"/><path d="m1659.61 59.41l20 548 123-454z" transform="matrix(1.05987 0 0 .99806 6.247 17.646)" fill="#3d9353" filter="url(#0)" stroke="#3d9353"/><path d="m1780.61 979.41l-51 353 117-146z" transform="matrix(1.05987 0 0 .99806 6.247 17.646)" fill="#006134" filter="url(#0)" stroke="#006134"/><path d="m1659.61 59.41l-523 282 543 266z" transform="matrix(1.05987 0 0 .99806 6.247 17.646)" fill="#3e9854" filter="url(#0)" stroke="#3e9854"/><path d="m1568.61 822.41l-373 342 534 168z" transform="matrix(1.05987 0 0 .99806 6.247 17.646)" fill="#0c6f3a" filter="url(#0)" stroke="#0c6f3a"/><path d="m1568.61 822.41l161 510 51-353z" transform="matrix(1.05987 0 0 .99806 6.247 17.646)" fill="#056b39" filter="url(#0)" stroke="#056b39"/><path d="m1297.61 854.41l-102 310 373-342z" transform="matrix(1.05987 0 0 .99806 6.247 17.646)" fill="#1b7c3f" filter="url(#0)" stroke="#1b7c3f"/><path d="m1623.61-204.59l-281 41 317 223z" transform="matrix(1.05987 0 0 .99806 6.247 17.646)" fill="#66a764" filter="url(#0)" stroke="#66a764"/><path d="m1185.61 643.41l383 179 111-215z" transform="matrix(1.05987 0 0 .99806 6.247 17.646)" fill="#248545" filter="url(#0)" stroke="#248545"/><path d="m1136.61 341.41l49 302 494-36z" transform="matrix(1.05987 0 0 .99806 6.247 17.646)" fill="#30954e" filter="url(#0)" stroke="#30954e"/><path d="m1342.61-163.59l-206 505 523-282z" transform="matrix(1.05987 0 0 .99806 6.247 17.646)" fill="#5aa761" filter="url(#0)" stroke="#5aa761"/><path d="m1185.61 643.41l112 211 271-32z" transform="matrix(1.05987 0 0 .99806 6.247 17.646)" fill="#248544" filter="url(#0)" stroke="#248544"/><path d="m963.61-182.59l-161 269 334 255z" transform="matrix(1.05987 0 0 .99806 6.247 17.646)" fill="#68bb6e" filter="url(#0)" stroke="#68bb6e"/><path d="m963.61-182.59l173 524 206-505z" transform="matrix(1.05987 0 0 .99806 6.247 17.646)" fill="#69b66a" filter="url(#0)" stroke="#69b66a"/><path d="m993.61 821.41l202 343 102-310z" transform="matrix(1.05987 0 0 .99806 6.247 17.646)" fill="#238546" filter="url(#0)" stroke="#238546"/><path d="m1136.61 341.41l-145 131 194 171z" transform="matrix(1.05987 0 0 .99806 6.247 17.646)" fill="#3ca358" filter="url(#0)" stroke="#3ca358"/><path d="m1185.61 643.41l-192 178 304 33z" transform="matrix(1.05987 0 0 .99806 6.247 17.646)" fill="#2b8e4a" filter="url(#0)" stroke="#2b8e4a"/><path d="m993.61 821.41l-153 406 355-63z" transform="matrix(1.05987 0 0 .99806 6.247 17.646)" fill="#238748" filter="url(#0)" stroke="#238748"/><path d="m991.61 472.41l2 349 192-178z" transform="matrix(1.05987 0 0 .99806 6.247 17.646)" fill="#369b53" filter="url(#0)" stroke="#369b53"/><path d="m802.61 86.41l189 386 145-131z" transform="matrix(1.05987 0 0 .99806 6.247 17.646)" fill="#53b265" filter="url(#0)" stroke="#53b265"/><path d="m517.61 738.41l-51 395 374 94z" transform="matrix(1.05987 0 0 .99806 6.247 17.646)" fill="#449857" filter="url(#0)" stroke="#449857"/><path d="m687.61-110.59l115 197 161-269z" transform="matrix(1.05987 0 0 .99806 6.247 17.646)" fill="#7fc778" filter="url(#0)" stroke="#7fc778"/><path d="m802.61 86.41l-302 305 491 81z" transform="matrix(1.05987 0 0 .99806 6.247 17.646)" fill="#60b96b" filter="url(#0)" stroke="#60b96b"/><path d="m500.61 391.41l17 347 474-266z" transform="matrix(1.05987 0 0 .99806 6.247 17.646)" fill="#55b265" filter="url(#0)" stroke="#55b265"/><path d="m991.61 472.41l-474 266 476 83z" transform="matrix(1.05987 0 0 .99806 6.247 17.646)" fill="#42a359" filter="url(#0)" stroke="#42a359"/><path d="m517.61 738.41l323 489 153-406z" transform="matrix(1.05987 0 0 .99806 6.247 17.646)" fill="#3a9653" filter="url(#0)" stroke="#3a9653"/><path d="m497.61 264.41l3 127 302-305z" transform="matrix(1.05987 0 0 .99806 6.247 17.646)" fill="#71c275" filter="url(#0)" stroke="#71c275"/><path d="m687.61-110.59l-190 375 305-178z" transform="matrix(1.05987 0 0 .99806 6.247 17.646)" fill="#7cc779" filter="url(#0)" stroke="#7cc779"/><path d="m212.61-125.59l285 390 190-375z" transform="matrix(1.05987 0 0 .99806 6.247 17.646)" fill="#8fd082" filter="url(#0)" stroke="#8fd082"/><path d="m212.61-125.59l54 466 231-76z" transform="matrix(1.05987 0 0 .99806 6.247 17.646)" fill="#8cce80" filter="url(#0)" stroke="#8cce80"/><path d="m203.61 820.41l263 313 51-395z" transform="matrix(1.05987 0 0 .99806 6.247 17.646)" fill="#59a460" filter="url(#0)" stroke="#59a460"/><path d="m500.61 391.41l-258 94 275 253z" transform="matrix(1.05987 0 0 .99806 6.247 17.646)" fill="#67b96d" filter="url(#0)" stroke="#67b96d"/><path d="m242.61 485.41l-39 335 314-82z" transform="matrix(1.05987 0 0 .99806 6.247 17.646)" fill="#67b369" filter="url(#0)" stroke="#67b369"/><path d="m497.61 264.41l-231 76 234 51z" transform="matrix(1.05987 0 0 .99806 6.247 17.646)" fill="#77c476" filter="url(#0)" stroke="#77c476"/><path d="m266.61 340.41l-24 145 258-94z" transform="matrix(1.05987 0 0 .99806 6.247 17.646)" fill="#76c375" filter="url(#0)" stroke="#76c375"/><path d="m203.61 820.41l-92 406 355-93z" transform="matrix(1.05987 0 0 .99806 6.247 17.646)" fill="#5ca05f" filter="url(#0)" stroke="#5ca05f"/><path d="m212.61-125.59l-439 190 493 276" transform="matrix(1.05987 0 0 .99806 6.247 17.646)" fill="#a1d889" filter="url(#0)" stroke="#a1d889"/><path d="m-226.39 64.41l175 357 318-81z" transform="matrix(1.05987 0 0 .99806 6.247 17.646)" fill="#97d284" filter="url(#0)" stroke="#97d284"/><path d="m-122.39 1192.41l234 34 92-406z" transform="matrix(1.05987 0 0 .99806 6.247 17.646)" fill="#68a464" filter="url(#0)" stroke="#68a464"/><path d="m-51.39 421.41l255 399 39-335z" transform="matrix(1.05987 0 0 .99806 6.247 17.646)" fill="#79bf72" filter="url(#0)" stroke="#79bf72"/><path d="m-51.39 421.41l294 64 24-145z" transform="matrix(1.05987 0 0 .99806 6.247 17.646)" fill="#82c879" filter="url(#0)" stroke="#82c879"/><path d="m-51.39 421.41l-196 372 451 27z" transform="matrix(1.05987 0 0 .99806 6.247 17.646)" fill="#7ebd72" filter="url(#0)" stroke="#7ebd72"/><path d="m-247.39 793.41l125 399 326-372" transform="matrix(1.05987 0 0 .99806 6.247 17.646)" fill="#75ae6a" filter="url(#0)" stroke="#75ae6a"/><path d="m-80.39-269.59l-146 334 439-190" transform="matrix(1.05987 0 0 .99806 6.247 17.646)" fill="#b9e293" filter="url(#0)" stroke="#b9e293"/></g></svg>