<svg xmlns="http://www.w3.org/2000/svg" width="1251.9" height="512" viewBox="0 0 85.579245 35"><g fill="#fff" fill-opacity="0"><path d="m43.31 1.442h41.21v24.854h-41.21z"/><path d="m1.363 1.128h18.247v32.404h-18.247z"/></g><g fill="#ccc"><path d="m25.302 0h-15.604c-1.3 0-2.364 1.063-2.364 2.364v30.27c0 1.301 1.064 2.365 2.364 2.365h15.604c1.3 0 2.364-1.062 2.364-2.364v-30.27c0-1.301-1.064-2.364-2.364-2.364m-10.298 1.704h4.992c.158 0 .286.128.286.287 0 .158-.128.286-.286.286h-4.992c-.158 0-.286-.128-.286-.286 0-.159.128-.287.286-.287zm2.496 32.11c-.653 0-1.182-.529-1.182-1.183 0-.654.529-1.182 1.182-1.182.653 0 1.182.528 1.182 1.182 0 .654-.529 1.183-1.182 1.183m8.521-3.193h-17.04v-26.876h17.04v26.876" fill="#ccc" transform="translate(-7.334)"/></g><path d="m56.978 34.936c-.403.009-.652.011-1.1.019l.024-.339c.023-.317.464-.8 1.19-1.236.83-.471 1.677-1.08 2.051-1.929.101-.226.216-.487.255-.58.134-.325.245-3.217.128-3.334-.037-.037-3.838-.07-8.446-.074l-8.379-.007-.165-.205c-.091-.113-.239-.32-.33-.461-.161-.249-.164-.543-.164-12.883 0-6.945.025-12.775.055-12.955.041-.247.268-.483.365-.553l.311-.225 20.914.02c11.503.011 20.99.032 21.08.047.273.043.413.166.616.54l.191.352v12.684c0 11.203-.015 12.713-.13 12.935-.071.138-.104.251-.072.251.032 0-.011.076-.094.168-.084.092-.184.148-.224.124-.04-.024-.158.002-.264.059-.147.078-2.152.105-8.413.11-4.521.004-8.248.034-8.281.068-.122.122-.021 2.66.128 3.2.221 1.553 1.712 2.453 2.963 3.164.219.114.411.328.446.375.074.098.29.492.18.609-.06.064-14.778.122-14.841.059m28.27-7.828c.106-.135.103-.138-.032-.032-.142.111-.187.181-.117.181.018 0 .085-.067.149-.149m-1.742-13.627l.003-11.192-19.622.005c-10.792.003-19.654.037-19.693.076-.039.039-.073 5.074-.075 11.189l-.004 11.12 19.694-.002 19.694-.002.003-11.192" fill="#ccc"/></svg>