<svg xmlns="http://www.w3.org/2000/svg" viewBox="0 0 555.99492 92.66582" width="600" height="100"><g transform="translate(0-381.78)" fill="#fff"><g transform="matrix(.22696 0 0 .22696-7.381 378.94)"><path d="m248.21 113.62c-3.178-3.178-7.31-4.704-11.473-4.64-4.227-.064-8.391 1.462-11.569 4.64l-106.31 94.04c-6.229 6.229-6.229 16.368 0 22.597 6.229 6.261 16.368 6.261 22.597 0l95.22-84.25 95.22 84.25c6.229 6.261 16.4 6.261 22.597 0 6.229-6.229 6.229-16.368 0-22.597l-106.28-94.04"/><path d="m248.21 197.44c-3.178-3.178-7.31-4.704-11.473-4.64-4.227-.064-8.391 1.462-11.569 4.64l-106.31 94.01c-6.229 6.261-6.229 16.4 0 22.597 6.229 6.261 16.368 6.261 22.597 0l95.22-84.19 95.22 84.19c6.229 6.261 16.4 6.261 22.597 0 6.229-6.198 6.229-16.336 0-22.597l-106.28-94.01"/></g><path d="m25.302 0h-15.604c-1.3 0-2.364 1.063-2.364 2.364v30.27c0 1.301 1.064 2.365 2.364 2.365h15.604c1.3 0 2.364-1.062 2.364-2.364v-30.27c0-1.301-1.064-2.364-2.364-2.364m-10.298 1.704h4.992c.158 0 .286.128.286.287 0 .158-.128.286-.286.286h-4.992c-.158 0-.286-.128-.286-.286 0-.159.128-.287.286-.287zm2.496 32.11c-.653 0-1.182-.529-1.182-1.183 0-.654.529-1.182 1.182-1.182.653 0 1.182.528 1.182 1.182 0 .654-.529 1.183-1.182 1.183m8.521-3.193h-17.04v-26.876h17.04v26.876" transform="matrix(2.38284 0 0 2.38284 97.43 386.42)"/><path d="m448 64h-384c-35.34 0-64 28.656-64 64v256c0 35.34 28.656 64 64 64h384c35.34 0 64-28.656 64-64v-256c0-35.34-28.656-64-64-64m-105.34 170.78l135.47-116.09c.938 3 1.875 6 1.875 9.313v256c0 2.219-.844 4.188-1.281 6.281l-136.06-155.5m105.34-138.78c2.125 0 4 .813 6 1.219l-198 169.72-198-169.72c2-.406 3.875-1.219 6-1.219h384zm-414.73 294.25c-.438-2.094-1.266-4.03-1.266-6.25v-256c0-3.313.953-6.313 1.891-9.313l135.42 116.06-136.05 155.5m30.734 25.75c-3.234 0-6.172-.938-9.125-1.844l138.75-158.56 51.969 44.531c2.984 2.595 6.703 3.876 10.406 3.876 3.703 0 7.422-1.281 10.406-3.875l51.969-44.531 138.75 158.56c-2.937.905-5.875 1.843-9.125 1.843h-384z" transform="matrix(.16289 0 0 .16289 189.96 386.65)"/><path d="m246.35 606c-31.08-15.811-19.429-55.894-22.288-83.999-.935-95.18-1.915-190.41 1.737-285.55 6.479-33.672 47.27-27.13 72.69-27.328 170.75-1.166 335.98-.228 510.22.047 34.15.28 28.92 53.705 27.997 80.37 1.143 96.89 1.968 190.96.902 287.81-.451 33.32-49.45 31.3-75.01 31.06-42.642.416-85.44 1.483-127.91-3.224-21.398-7.962-29.28-56.61-44.929-84.14-11.81-27.942-21.02-71.797-58.62-72.53-33.611-1.342-44.927 34.09-55.15 59.4-12.02 29.711-22.424 60.26-38.23 88.27-22.21 20.05-54.49 8.113-81.33 12.183-36.699.261-73.51 1.422-110.09-2.375m154.44-129.96c48.856-6.226 74.5-72.56 42.41-110.08-23.16-32.09-76.45-34.11-100.63-2.04-25.769 28.901-19.94 78.32 12.409 99.99 12.847 9.748 29.666 15.761 45.814 12.13m289.15-3.209c41.487-14.165 59.37-72.11 30.35-106.02-21.474-31.22-71.34-36.15-96.93-7.199-31.464 30.633-24.01 90.8 16.824 109.72 15.13 7.957 33.699 9.735 49.759 3.504" transform="matrix(.13563 0 0 .13563 252.36 372.41)"/><g fill-rule="evenodd"><path d="m50 0c-27.614 0-50 22.386-50 50 0 27.614 22.386 50 50 50 27.614 0 50-22.386 50-50 0-27.614-22.386-50-50-50m17.711 17.18c4.485 0 8.97 1.711 12.393 5.133 6.841 6.843 6.841 17.938 0 24.781l-12.395 12.391c-6.841 6.845-17.938 6.845-24.779 0-1.078-1.075-1.922-2.286-2.662-3.535l5.76-5.758c.274-.276.611-.435.934-.621.398 1.36 1.094 2.649 2.164 3.719 3.416 3.419 8.974 3.414 12.389 0l12.391-12.391c3.419-3.419 3.419-8.977 0-12.393-3.414-3.416-8.972-3.416-12.391 0l-4.406 4.412c-3.575-1.392-7.428-1.766-11.178-1.217l9.391-9.389c3.422-3.422 7.906-5.133 12.391-5.133zm-18.586 18.586c4.485 0 8.969 1.711 12.389 5.133 1.078 1.076 1.927 2.283 2.662 3.537l-5.76 5.756c-.274.274-.607.426-.932.615-.402-1.359-1.099-2.645-2.166-3.713-3.416-3.418-8.97-3.418-12.389 0l-12.393 12.391c-3.416 3.418-3.416 8.976 0 12.395 3.417 3.414 8.977 3.414 12.393 0l4.408-4.412c3.572 1.39 7.426 1.768 11.178 1.215l-9.391 9.391c-6.843 6.841-17.94 6.841-24.783 0-6.843-6.845-6.843-17.938 0-24.783l12.391-12.391c3.422-3.422 7.908-5.133 12.393-5.133" transform="matrix(.83399 0 0 .83399 375.3 386.42)"/><path d="m50 0c-27.614 0-50 22.386-50 50 0 27.614 22.386 50 50 50 27.614 0 50-22.386 50-50 0-27.614-22.386-50-50-50m-22.516 41.914c4.547 0 8.268 3.719 8.268 8.266 0 4.547-3.721 8.268-8.268 8.268-4.547 0-8.266-3.721-8.266-8.268 0-4.547 3.719-8.266 8.266-8.266zm24.799 0c4.547 0 8.268 3.719 8.268 8.266 0 4.547-3.721 8.268-8.268 8.268-4.547 0-8.266-3.721-8.266-8.268 0-4.547 3.719-8.266 8.266-8.266m24.801 0c4.547 0 8.266 3.719 8.266 8.266 0 4.547-3.719 8.268-8.266 8.268-4.547 0-8.268-3.721-8.268-8.268 0-4.547 3.721-8.266 8.268-8.266" transform="matrix(.83399 0 0 .83399 467.96 386.42)"/></g></g></svg>