<svg xmlns="http://www.w3.org/2000/svg" viewBox="0 0 1423.347 474.449" width="1536" height="512"><g fill="#fff" fill-rule="evenodd"><path d="m237.22 5.56c-127.94 0-231.66 103.72-231.66 231.66 0 127.94 103.72 231.66 231.66 231.66 127.94 0 231.66-103.72 231.66-231.66 0-127.94-103.72-231.66-231.66-231.66m32.22 171.15c16.411.171 33.498-.338 49.5.255-.537 17.06-.125 35.07-.26 52.54-16.411 0-32.827 0-49.24 0 0 54.06 0 108.13 0 162.19-23.1 0-46.2 0-69.3 0 0-53.978 0-107.96 0-161.93-14.382-.593-29.867-.088-44.675-.255 0-17.597 0-35.19 0-52.796 14.72 0 29.445 0 44.16 0 .654-13.84-.205-26.289.765-37.562.936-10.907 4.591-20.247 9.897-28.18 10.08-15.05 26.873-26.85 49.5-27.916 18.705-.885 39.592.449 59.14.255-.17 17.514.335 35.704-.26 52.796-9.869.565-19.798-.755-28.426 0-8.789.764-15.16 6.195-18.278 12.691-3.489 7.256-2.451 16.874-2.534 27.911z"/><g transform="matrix(4.63329 0 0 4.63329 480.01 5.56)"><path d="m50 0c-27.614 0-50 22.386-50 50 0 27.614 22.386 50 50 50 27.614 0 50-22.386 50-50 0-27.614-22.386-50-50-50m31.783 61.24c-.621 2.206-.849 2.86-1.108 3.49l-.174.406c-2.748 6.233-8.71 10.244-21.14 11.477l-17.62-.021c-11.65-1.255-18.2-5.255-21.52-11.446 0 0-.102-.171-.213-.403-.326-.643-.615-1.308-.875-1.994-.11-.219-.089-.162-.155-.417-1.181-3.313-1.665-7.125-1.665-11.375 0-5.628 2.035-10.221 5.367-13.817-.533-1.304-2.285-6.553.55-13.644 0 0 4.343-1.375 14.183 5.336 4.127-1.132 8.554-1.688 12.934-1.688 3.98 0 7.955.461 11.689 1.394 6.854-4.587 10.959-5.187 12.726-5.16.69.001 1.025.116 1.025.116 2.39 5.976 1.521 10.643.869 12.745 3.726 3.719 6.02 8.607 6.02 14.715 0 4.262-.279 8.08-.899 10.286z"/><path d="m68.05 48.22c-1.845-1.936-4.302-2.428-7.171-2.422-3.055.006-6.575.578-10.324.578-7.304 0-13.742-2.13-17.545 1.893-2.28 2.415-3.611 5.325-3.611 8.458 0 13.09 9.47 15.13 21.16 15.13 11.682 0 21.16-.401 21.16-15.13 0-3.154-1.351-6.081-3.66-8.505v-.002m-28.934 16.602c-2.432 0-4.402-3.288-4.402-7.345 0-4.056 1.97-7.343 4.402-7.343 2.431.003 4.401 3.288 4.401 7.343.0001 4.057-1.97 7.345-4.401 7.345m23.617 0c-2.432 0-4.402-3.288-4.402-7.345 0-4.056 1.971-7.343 4.402-7.343 2.432.003 4.401 3.288 4.401 7.343.0001 4.057-1.97 7.345-4.401 7.345"/></g><path d="m1186.12 5.56c-127.94 0-231.66 103.72-231.66 231.66 0 127.94 103.72 231.66 231.66 231.66 127.94 0 231.66-103.72 231.66-231.66 0-127.94-103.72-231.66-231.66-231.66m-64.796 348.87c-16.29 0-32.581 0-48.867 0 0-51.911 0-103.82 0-155.73-.05-.514-.06-1.029.365-1.089 16.17 0 32.34 0 48.51 0 0 52.27 0 104.55 0 156.82zm-40.481-182.72c-7.589-5.175-13.603-15.711-12.03-28.08 1.158-9.155 7.867-17.12 14.952-20.79 2.418-1.251 5.643-2.113 9.118-2.548 18.496-2.349 32.609 10.675 32.456 28.08-.185 21.568-24.931 36.677-44.494 23.338m222.84 182.72c-16.291 0-32.581 0-48.872 0 0-17.542 0-36.13 0-56.17 0-23.746 3.01-51-12.764-59.08-7.784-3.98-18.742-2.993-25.534 0-17.783 7.849-16.05 32.776-16.05 60.18 0 19.04 0 38.795 0 55.08-16.17 0-32.34 0-48.51 0 0-52.28 0-104.55 0-156.83 15.563 0 31.12 0 46.685 0 0 7.172 0 14.345 0 21.517 1.728-1.344 2.437-3.461 3.647-5.106 8.173-11.11 23.1-20.285 42.31-20.424 24.17-.176 41.1 8.173 49.966 23.709 9.211 16.14 9.118 39.12 9.118 64.19 0 24.03 0 49.845 0 72.937"/></g></svg>