<?xml version="1.0" encoding="UTF-8" standalone="no"?>
<!-- Created with Inkscape (http://www.inkscape.org/) -->

<svg
   xmlns:dc="http://purl.org/dc/elements/1.1/"
   xmlns:cc="http://creativecommons.org/ns#"
   xmlns:rdf="http://www.w3.org/1999/02/22-rdf-syntax-ns#"
   xmlns:svg="http://www.w3.org/2000/svg"
   xmlns="http://www.w3.org/2000/svg"
   xmlns:sodipodi="http://sodipodi.sourceforge.net/DTD/sodipodi-0.dtd"
   xmlns:inkscape="http://www.inkscape.org/namespaces/inkscape"
   width="491.77222mm"
   height="253.81314mm"
   viewBox="0 0 1742.5 899.3379"
   id="svg4827"
   version="1.1"
   inkscape:version="0.91 r13725"
   sodipodi:docname="lay1.svg">
  <defs
     id="defs4829" />
  <sodipodi:namedview
     id="base"
     pagecolor="#ffffff"
     bordercolor="#666666"
     borderopacity="1.0"
     inkscape:pageopacity="0.0"
     inkscape:pageshadow="2"
     inkscape:zoom="0.35"
     inkscape:cx="1010.698"
     inkscape:cy="688.61712"
     inkscape:document-units="px"
     inkscape:current-layer="layer1"
     showgrid="false"
     fit-margin-top="0"
     fit-margin-left="0"
     fit-margin-right="0"
     fit-margin-bottom="0"
     inkscape:window-width="1920"
     inkscape:window-height="1027"
     inkscape:window-x="1272"
     inkscape:window-y="-8"
     inkscape:window-maximized="1" />
  <metadata
     id="metadata4832">
    <rdf:RDF>
      <cc:Work
         rdf:about="">
        <dc:format>image/svg+xml</dc:format>
        <dc:type
           rdf:resource="http://purl.org/dc/dcmitype/StillImage" />
        <dc:title></dc:title>
      </cc:Work>
    </rdf:RDF>
  </metadata>
  <g
     inkscape:label="Layer 1"
     inkscape:groupmode="layer"
     id="layer1"
     transform="translate(-205.89286,-31.26469)">
    <g
       transform="translate(431.54242,-420.7989)"
       id="layer1-5"
       inkscape:label="Layer 1">
      <g
         transform="matrix(1.25,0,0,1.25,-225.64956,455.15093)"
         id="g5608">
        <path
           transform="matrix(0.8,0,0,0.8,0,-2.469864)"
           inkscape:connector-curvature="0"
           id="path5600"
           d="m 0,0 0,899.33789 1742.5,0 0,-898.66406188 C 1161.6625,-1.82625e-4 580.8375,1.1234352 0,0 Z m 160.18164,180.60742 c 107.03233,0.20568 214.05165,-0.16513 321.08398,0.20508 -0.24254,148.415 0.0268,296.87012 -0.14843,445.28516 -106.96497,-0.20568 -213.94326,0.12397 -320.90821,-0.20508 -0.0135,-148.41504 0.04,-296.82902 -0.0273,-445.28516 z"
           style="fill:#210a34" />
        <path
           style="fill:#066e7c"
           inkscape:connector-curvature="0"
           d="m 1008.37,103.67 c 10.53,-1.33 21.47,0.26 30.97,5.06 14.3,6.97 25.12,20.64 28.51,36.19 3.49,14.72 0.12,30.84 -8.75,43.06 -8.03,11.24 -20.58,19.16 -34.2,21.47 -13.67,2.52 -28.26,-0.73 -39.64,-8.68 -13.95,-9.44 -22.91,-25.89 -23.05,-42.75 -0.38,-10.69 2.67,-21.45 8.52,-30.39 8.32,-12.92 22.4,-21.93 37.64,-23.96 z"
           id="path5506" />
        <path
           style="fill:#ffffff"
           inkscape:connector-curvature="0"
           d="m 1006.56,109.86 c 11.02,-1.77 22.71,-0.41 32.42,5.34 14.49,8.09 24.36,24.15 24.31,40.84 0.31,11.77 -4.18,23.48 -11.98,32.25 -9.47,10.77 -23.96,17.05 -38.33,16.02 -23.84,-0.79 -45.06,-22.28 -44.82,-46.26 -0.73,-12.28 4.15,-24.51 12.39,-33.52 6.82,-7.48 16.12,-12.62 26.01,-14.67 z"
           id="path5508" />
        <path
           inkscape:connector-curvature="0"
           id="path5510"
           d="m 1014.21,110.54 c 0.6376,0.0397 1.3238,0.25321 1.702,0.80446 0.4165,0.60952 0.4374,1.37951 0.4231,2.09211 -0.021,0.93427 -0.1778,1.86925 -0.075,2.80343 -0.6523,0.14494 -1.3056,0.28497 -1.96,0.42 -0.1099,-2.03778 -0.14,-4.07987 -0.09,-6.12 z"
           style="fill:#10737a" />
        <path
           inkscape:connector-curvature="0"
           id="path5512"
           d="m 1013.27,119.97 c -0.194,-2.36514 3.9246,-2.22528 2.9453,0.20859 0.094,10.97029 -0.012,21.94101 0.045,32.91141 -0.6732,2.38281 2.0621,2.21456 3.0831,3.54247 1.6807,1.39796 3.7125,2.25499 5.5869,3.34753 -0.2972,1.24959 -0.067,3.52192 -1.8869,2.3065 -2.4441,-0.88071 -4.4898,-2.53325 -6.7631,-3.7465 -0.04,2.95982 -0.04,5.91997 -0.04,8.88 -1.5003,0.17526 -3.5429,0.92649 -2.9617,-1.37152 -0.1297,-3.05786 -0.081,-6.11928 -0.038,-9.17848 -5.1482,-3.15838 -10.4834,-5.99619 -15.6562,-9.11229 -1.70928,-1.46633 0.44636,-3.8781 2.08258,-2.19983 4.66582,2.21346 8.83312,5.33654 13.51362,7.52212 0.12,-11.03637 -0.07,-22.07388 0.09,-33.11 z"
           style="fill:#000000" />
        <path
           inkscape:connector-curvature="0"
           id="path5514"
           transform="matrix(0.8,0,0,0.8,0,-2.469864)"
           d="m 497.48828,170.08789 c -116.3625,0.2125 -232.73828,-10e-4 -349.11328,0.11133 -0.0875,156.9125 0.14922,313.82578 -0.11328,470.73828 l 0.0391,0.40039 c -4.625,-0.0375 -9.23828,-0.0262 -13.86328,-0.0137 0.0875,7.2125 -0.19961,14.42617 0.15039,21.63867 127.1375,-0.1875 254.27461,-0.0262 381.41211,-0.0762 0.0625,-7.2 -0.1875,-14.39922 0.1875,-21.57422 -6.2375,0.05 -12.46328,-0.10039 -18.67578,0.0996 -0.125,-1.925 -0.18672,-3.85039 -0.19922,-5.77539 l 0,-238.84961 c 0.125,-75.5625 -0.23672,-151.13672 0.17578,-226.69922 z m -323.25,22.15039 c 99.3,0.075 198.5875,-0.05 297.875,0.0625 -0.275,40.1 0.0488,80.19883 -0.13867,120.29883 -93.5625,0.1 -187.13672,0.0371 -280.69922,0.0371 -5.7125,-0.0375 -11.45117,0.325 -17.13867,-0.375 0.3125,-40 0.10156,-80.02344 0.10156,-120.02344 z m 0.0117,137.5 c 99.2875,0.0625 198.56211,-0.05 297.84961,0.0625 -0.225,45.1 0.0258,90.2125 -0.13672,135.3125 -99.225,-0.0625 -198.4625,0.0375 -297.6875,-0.0625 -0.0125,-45.1 0.0371,-90.2 -0.0254,-135.3125 z m 297.21289,152.72461 c 0.925,5.6 0.51133,11.27383 0.54883,16.92383 0.0125,40.2625 -0.0238,80.52578 0.0137,120.80078 -95.7,0.275 -191.39961,-0.0133 -287.09961,0.13672 -3.6,0.0625 -7.21406,0.025 -10.78906,-0.4375 0.325,-45.7875 0.0625,-91.59922 0.125,-137.38672 99.0625,0.0375 198.13867,0.10039 297.20117,-0.0371 z"
           style="fill:#e9e9e7" />
        <path
           style="fill:#000000"
           inkscape:connector-curvature="0"
           d="m 397.99,133.6 c 0.68,1.37 1.36,2.8 1.29,4.37 -0.08,67.35 0.02,134.69 -0.01,202.04 -0.05,53.34 -0.01,106.68 0.01,160.02 -0.19,3.53 0.89,7.5 -1.27,10.63 -0.1,-1.54 -0.15,-3.08 -0.16,-4.62 0,-63.69 0,-127.39 0,-191.08 0.1,-60.45 -0.19,-120.91 0.14,-181.36 z"
           id="path5516" />
        <path
           style="fill:#000000"
           inkscape:connector-curvature="0"
           d="m 138.43,149.89 c 0.52,0.22 1.57,0.68 2.1,0.91 l -0.24,-1.1 c 79.1,0.09 158.2,0.08 237.3,0.01 0.03,0.41 0.08,1.25 0.1,1.66 -79.43,-0.09 -158.86,0.01 -238.3,-0.05 0,32 0.17,64.02 -0.08,96.02 -0.19,0.16 -0.57,0.5 -0.76,0.66 -0.25,-32.7 0,-65.41 -0.12,-98.11 z"
           id="path5518" />
        <path
           inkscape:connector-curvature="0"
           id="path5522"
           d="m 969.21,156.03 c 0.56145,-0.69097 1.40369,-1.10699 2.27455,-1.24245 1.28919,-0.21637 2.59857,-0.0176 3.89545,-0.10755 0.0199,0.86685 0.0401,1.73379 0.08,2.6 -1.48217,-0.091 -2.99527,0.16485 -4.45227,-0.21105 -0.67947,-0.17555 -1.31385,-0.5274 -1.79773,-1.03895 z"
           style="fill:#14757c" />
        <path
           inkscape:connector-curvature="0"
           id="path5524"
           d="m 1055.43,154.81 c 1.628,-0.18083 3.2674,-0.0692 4.9,-0.04 0.1694,0.57539 0.2295,1.25717 -0.1432,1.7698 -0.3965,0.53224 -1.0803,0.71667 -1.7093,0.79545 -1.0304,0.1141 -2.0719,-0.008 -3.0865,-0.19276 -0.4625,-0.10849 -0.8369,-0.5228 -0.8623,-1.0032 -0.056,-0.58492 0.337,-1.16562 0.9013,-1.32929 z"
           style="fill:#14757c" />
        <path
           style="fill:#f09b88"
           inkscape:connector-curvature="0"
           d="m 1010.43,155.19 c 0.93,0.56 1.86,1.12 2.81,1.68 -11.98,0.93 -23.92,2.81 -35.92,3.09 0.77,-1.28 2.13,-1.76 3.56,-1.79 9.85,-0.98 19.73,-1.72 29.55,-2.98 z"
           id="path5526" />
        <path
           style="fill:#10737a"
           inkscape:connector-curvature="0"
           d="m 1014.31,195.43 c 0.48,0.08 1.44,0.25 1.92,0.33 -0.25,1.81 0.75,4.18 -0.69,5.59 -1.65,0.91 -1.23,-1.36 -1.38,-2.29 0,-1.22 0.04,-2.43 0.15,-3.63 z"
           id="path5528" />
        <path
           style="fill:#000000"
           inkscape:connector-curvature="0"
           d="m 138.46,369.56 c -0.02,-36.63 0.01,-73.25 -0.02,-109.87 79.73,0.05 159.46,0.07 239.18,-0.02 0.02,0.43 0.05,1.28 0.06,1.7 -79.43,-0.09 -158.85,0 -238.28,-0.05 0.05,36.09 0.01,72.17 0.02,108.25 -0.24,0 -0.72,-0.01 -0.96,-0.01 z"
           id="path5530" />
        <path
           style="fill:#61687d"
           inkscape:connector-curvature="0"
           d="m 984.74,322.62 c 0.19,-2.58 -0.67,-7.56 3.26,-7.3 4.5,-0.85 3.8,4.45 3.83,7.3 -0.11,3.6 0.24,7.25 -0.43,10.81 -1.77,1.77 -6.2,1.74 -6.42,-1.37 -0.39,-3.13 -0.2,-6.29 -0.24,-9.44 z"
           id="path5534" />
        <path
           style="fill:#61687d"
           inkscape:connector-curvature="0"
           d="m 1030.52,316.41 c 1.22,-1.47 3.42,-1.22 5.09,-0.81 2.04,1.6 1.23,4.72 1.6,7.02 -0.11,3.62 0.39,7.41 -0.76,10.92 -1.57,1.5 -4.43,1.39 -5.95,-0.1 -0.62,-3.58 -0.3,-7.22 -0.38,-10.82 0.02,-2.08 -0.03,-4.17 0.4,-6.21 z"
           id="path5536" />
        <path
           style="fill:#f05755"
           inkscape:connector-curvature="0"
           d="m 962.85,324.86 c 0.11,-1.49 1.69,-2.28 3.05,-2.19 6.27,-0.21 12.56,0.02 18.84,-0.05 0.04,3.15 -0.15,6.31 0.24,9.44 0.22,3.11 4.65,3.14 6.42,1.37 0.67,-3.56 0.32,-7.21 0.43,-10.81 12.76,-0.02 25.52,-0.01 38.29,0 0.08,3.6 -0.24,7.24 0.38,10.82 1.52,1.49 4.38,1.6 5.95,0.1 1.15,-3.51 0.65,-7.3 0.76,-10.92 5.93,0.1 11.88,-0.24 17.81,0.11 1.24,-0.06 2.43,1.07 2.47,2.32 0.37,4.52 0.04,9.06 0.13,13.59 -31.65,-0.01 -63.3,-0.02 -94.94,0.01 0.11,-4.6 -0.3,-9.21 0.17,-13.79 z"
           id="path5538" />
        <path
           style="fill:#fef6e9"
           inkscape:connector-curvature="0"
           d="m 962.67,340.07 c 0,-0.36 0.01,-1.07 0.01,-1.42 31.64,-0.03 63.29,-0.02 94.94,-0.01 -0.02,21.16 0.07,42.31 -0.05,63.46 -0.29,0.39 -0.86,1.17 -1.15,1.56 -30.17,0.25 -60.36,0.12 -90.54,0.07 -2.24,0.41 -3.39,-1.75 -3.21,-3.69 -0.01,-19.99 0,-39.98 0,-59.97 z"
           id="path5540" />
        <path
           inkscape:connector-curvature="0"
           id="path5544"
           d="m 1020.21,346.75 c 3.7433,0.02 7.4867,0.02 11.23,0.02 0.04,3.91652 0.04,7.83332 0.03,11.75 -3.7833,0.0199 -7.5668,0.0201 -11.35,-0.02 0,-3.91677 -0.02,-7.83432 0.09,-11.75 z"
           style="fill:#f05755" />
        <path
           style="fill:#f05755"
           inkscape:connector-curvature="0"
           d="m 989.35,358.53 c 0,-3.95 -0.14,-7.91 0.17,-11.85 3.72,0.11 7.45,0.09 11.18,0.14 0,3.9 0.01,7.8 0,11.71 -3.79,0.01 -7.57,0.01 -11.35,0 z"
           id="path5546" />
        <path
           inkscape:connector-curvature="0"
           id="path5548"
           d="m 1004.83,358.48 c 0.1699,-3.93959 -0.5399,-7.96902 0.54,-11.83 3.6577,0.16026 7.3199,0.12988 10.98,0.12 0.03,3.91325 0.03,7.82667 0.02,11.74 -3.8466,0.0399 -7.6938,0.0401 -11.54,-0.03 z"
           style="fill:#f05755" />
        <path
           style="fill:#f05755"
           inkscape:connector-curvature="0"
           d="m 1035.08,346.75 c 3.76,0.03 7.51,0.02 11.28,0.03 0.03,3.91 0.03,7.82 0.03,11.73 -3.86,0.04 -7.7,0.04 -11.54,-0.03 0,-3.91 -0.18,-7.84 0.23,-11.73 z"
           id="path5550" />
        <path
           style="fill:#f05755"
           inkscape:connector-curvature="0"
           d="m 1020.22,363.69 c 3.73,0.03 7.47,0.03 11.22,0.03 0.04,3.93 0.04,7.86 0.02,11.79 -3.88,0.04 -7.76,0.04 -11.63,-0.05 0.2,-3.92 0.33,-7.84 0.39,-11.77 z"
           id="path5552" />
        <path
           style="fill:#f05755"
           inkscape:connector-curvature="0"
           d="m 973.74,363.84 c 3.82,-0.03 7.64,-0.1 11.47,0.12 0.02,3.88 0.03,7.76 0.02,11.65 -3.85,0.07 -7.69,0.07 -11.53,0.02 -0.01,-3.93 -0.01,-7.86 0.04,-11.79 z"
           id="path5554" />
        <path
           style="fill:#f05755"
           inkscape:connector-curvature="0"
           d="m 989.38,363.71 c 3.73,0.02 7.47,0.02 11.21,-0.05 0.18,3.95 0.12,7.91 0.11,11.87 -3.79,0 -7.57,-0.01 -11.34,0.01 -0.04,-3.95 -0.04,-7.89 0.02,-11.83 z"
           id="path5556" />
        <path
           style="fill:#f05755"
           inkscape:connector-curvature="0"
           d="m 1004.96,363.74 c 3.79,-0.03 7.59,-0.04 11.39,-0.01 0.03,3.93 0.03,7.85 0.02,11.78 -3.85,0.03 -7.7,0.03 -11.54,-0.03 -0.02,-3.92 -0.09,-7.83 0.13,-11.74 z"
           id="path5558" />
        <path
           style="fill:#f05755"
           inkscape:connector-curvature="0"
           d="m 1035.06,363.7 c 3.76,0.02 7.53,0.01 11.3,0.02 0.03,3.93 0.03,7.85 0.03,11.78 -3.86,0.04 -7.7,0.05 -11.55,-0.02 0,-3.93 -0.15,-7.87 0.22,-11.78 z"
           id="path5560" />
        <path
           style="fill:#f05755"
           inkscape:connector-curvature="0"
           d="m 989.58,381.34 c 3.8,-0.02 7.6,0 11.4,-0.03 0.09,3.99 0.72,8.1 -0.43,12 -3.58,-0.2 -7.17,0.02 -10.74,-0.22 -0.58,-3.89 -0.09,-7.84 -0.23,-11.75 z"
           id="path5562" />
        <path
           style="fill:#f05755"
           inkscape:connector-curvature="0"
           d="m 1005.26,381.33 c 3.78,0 7.56,0 11.35,0.01 -0.02,3.98 0.17,7.97 -0.19,11.95 -3.74,-0.13 -7.48,-0.02 -11.21,-0.23 0.06,-3.91 0.03,-7.82 0.05,-11.73 z"
           id="path5564" />
        <path
           style="fill:#f05755"
           inkscape:connector-curvature="0"
           d="m 1020.33,381.34 c 3.78,-0.01 7.56,-0.01 11.35,0 -0.06,3.81 0.19,7.64 -0.1,11.46 -3.55,0.96 -7.57,0.21 -11.29,0.27 0.06,-3.92 0.02,-7.82 0.04,-11.73 z"
           id="path5566" />
        <path
           style="fill:#f05755"
           inkscape:connector-curvature="0"
           d="m 1035.27,381.33 c 3.78,0 7.56,0 11.36,0.01 0,3.9 -0.04,7.81 0.04,11.71 -3.74,0.22 -7.48,0.11 -11.21,0.24 -0.35,-3.98 -0.19,-7.97 -0.19,-11.96 z"
           id="path5568" />
        <path
           style="fill:#000000"
           inkscape:connector-curvature="0"
           d="m 138.37,382.29 c 79.96,0.19 159.93,-0.1 239.89,0.14 -0.27,0.27 -0.82,0.8 -1.09,1.07 -79.25,0.11 -158.51,0.06 -237.76,0.03 -0.05,36.63 0.16,73.28 -0.1,109.91 -0.19,0.18 -0.56,0.52 -0.74,0.69 -0.32,-37.28 0.07,-74.57 -0.2,-111.84 z"
           id="path5570" />
        <path
           style="fill:#f05755"
           inkscape:connector-curvature="0"
           d="m 973.8,381.7 c 3.84,-0.04 7.68,-0.04 11.53,-0.01 0.02,3.9 0.02,7.8 0,11.7 -3.85,0.03 -7.7,0.03 -11.53,-0.01 -0.02,-3.9 -0.02,-7.79 0,-11.68 z"
           id="path5572" />
        <path
           style="fill:#fcda92"
           inkscape:connector-curvature="0"
           d="m 518.8,390.41 c 4.31,-0.4 8.65,-0.13 12.98,-0.2 0.04,14.44 0.02,28.88 0,43.31 -9.51,-1.7 -19.19,-0.96 -28.78,-0.73 -4.8,0.11 -9.69,1.04 -14.43,-0.11 1.92,-11.26 3,-22.73 2.44,-34.15 0.25,-0.41 0.75,-1.22 1,-1.63 13.01,-0.22 26.03,0.22 39.04,-0.17 0.01,-1.92 0.02,-3.84 0.04,-5.76 -3.55,-0.28 -7.12,-0.28 -10.67,0.06 l -1.62,-0.62 z"
           id="path5582" />
        <path
           style="fill:#d7d8da"
           inkscape:connector-curvature="0"
           d="m 429.82,437.01 c 0.98,-6.92 -0.03,-13.84 -0.63,-20.73 4.71,0.29 9.44,0.22 14.16,0.49 0.1,1.31 0.2,2.63 0.3,3.95 5.03,-0.19 10.26,-0.11 15.04,-1.9 0.2,-0.5 0.62,-1.51 0.83,-2.01 4.03,-0.2 8.07,-0.24 12.11,-0.49 1.46,5.8 0.73,11.82 -0.18,17.65 -1.3,8.07 -1.66,16.39 -0.17,24.46 -7.9,-2.69 -16.18,0.68 -24.24,0.82 -6.83,0.41 -14.78,-1.22 -18.74,-7.35 -0.09,-5 1.41,-9.89 1.52,-14.89 z"
           id="path5586" />
        <path
           style="fill:#ff73a8"
           inkscape:connector-curvature="0"
           d="m 484.31,463.9 c 13.75,-0.03 27.49,0.03 41.24,0.01 -0.28,9.03 -0.03,18.08 0.63,27.09 0.12,1.77 -0.08,3.55 -0.47,5.28 -13.21,4.25 -27.26,3.79 -40.94,3.16 0.06,-11.85 -0.04,-23.7 -0.46,-35.54 z"
           id="path5596" />
        <path
           style="fill:#000000"
           inkscape:connector-curvature="0"
           d="m 412.95,510.58 c 0.93,6.27 0.17,12.64 0.63,18.96 -101.72,-0.14 -203.45,0.06 -305.17,-0.11 -0.19,-0.38 -0.56,-1.15 -0.74,-1.53 101.71,-0.15 203.42,-0.02 305.13,-0.06 0.05,-5.76 -0.15,-11.52 0.15,-17.26 z"
           id="path5598" />
        <rect
           y="389.93155"
           x="490.93112"
           height="8.5550833"
           width="40.876511"
           id="rect7954"
           style="fill:#fbd17f;fill-opacity:1;fill-rule:evenodd;stroke:none;stroke-width:1.20920324px;stroke-linecap:butt;stroke-linejoin:miter;stroke-opacity:1" />
        <path
           style="fill:#e77b5c;fill-opacity:0.78431373"
           inkscape:connector-curvature="0"
           d="m 503.67429,388.87 c 5.19,0.01 10.37,-0.6 15.45,-1.67 0.06,1.73 0.12,3.47 0.14,5.21 -5.06,-0.52 -10.17,-0.4 -15.25,-0.29 -0.08,-0.81 -0.25,-2.44 -0.34,-3.25 z"
           id="path5576" />
        <rect
           y="456.3219"
           x="484.28571"
           height="8.3214283"
           width="41.25"
           id="rect7958"
           style="fill:#fe679e;fill-opacity:1;stroke:none" />
        <path
           style="fill:#e4be86;fill-opacity:0.78431373"
           inkscape:connector-curvature="0"
           d="m 497.27,455.59 c 5.12,0.04 10.2,-0.71 15.22,-1.62 0.31,1.6 0.68,3.2 1.18,4.76 -5.45,-0.01 -10.89,0.1 -16.33,0.27 -0.02,-1.15 -0.04,-2.28 -0.07,-3.41 z"
           id="path5590" />
        <rect
           y="416.02548"
           x="429.01178"
           height="6.6670065"
           width="43.436558"
           id="rect7962"
           style="fill:#bbbcbf;fill-opacity:1;stroke:none" />
        <path
           style="fill:#26a09d;fill-opacity:0.78431373"
           inkscape:connector-curvature="0"
           d="m 443.86848,414.59066 c 4.82,-0.09 9.56,-1.04 14.37,-1.43 0.21,1.6 0.44,3.22 1.13,4.71 -5.39,-0.11 -10.78,0.23 -16.17,-0.04 -0.98,-0.97 -1.07,-3.31 0.67,-3.24 z"
           id="path5584" />
      </g>
    </g>
  </g>
</svg>
