<?xml version="1.0" encoding="UTF-8" standalone="no"?>
<!-- Created with Inkscape (http://www.inkscape.org/) -->

<svg
   xmlns:dc="http://purl.org/dc/elements/1.1/"
   xmlns:cc="http://creativecommons.org/ns#"
   xmlns:rdf="http://www.w3.org/1999/02/22-rdf-syntax-ns#"
   xmlns:svg="http://www.w3.org/2000/svg"
   xmlns="http://www.w3.org/2000/svg"
   xmlns:sodipodi="http://sodipodi.sourceforge.net/DTD/sodipodi-0.dtd"
   xmlns:inkscape="http://www.inkscape.org/namespaces/inkscape"
   width="491.77222mm"
   height="253.81314mm"
   viewBox="0 0 1742.5 899.3379"
   id="svg4827"
   version="1.1"
   inkscape:version="0.91 r13725"
   sodipodi:docname="lay3.svg">
  <defs
     id="defs4829" />
  <sodipodi:namedview
     id="base"
     pagecolor="#ffffff"
     bordercolor="#666666"
     borderopacity="1.0"
     inkscape:pageopacity="0.0"
     inkscape:pageshadow="2"
     inkscape:zoom="0.49497475"
     inkscape:cx="1211.9208"
     inkscape:cy="423.71011"
     inkscape:document-units="px"
     inkscape:current-layer="layer1-0"
     showgrid="false"
     fit-margin-top="0"
     fit-margin-left="0"
     fit-margin-right="0"
     fit-margin-bottom="0"
     inkscape:window-width="1920"
     inkscape:window-height="1027"
     inkscape:window-x="1272"
     inkscape:window-y="-8"
     inkscape:window-maximized="1" />
  <metadata
     id="metadata4832">
    <rdf:RDF>
      <cc:Work
         rdf:about="">
        <dc:format>image/svg+xml</dc:format>
        <dc:type
           rdf:resource="http://purl.org/dc/dcmitype/StillImage" />
        <dc:title />
      </cc:Work>
    </rdf:RDF>
  </metadata>
  <g
     inkscape:label="Layer 1"
     inkscape:groupmode="layer"
     id="layer1"
     transform="translate(-205.89286,-31.26469)">
    <g
       id="layer1-0"
       inkscape:label="Layer 1"
       transform="translate(-1008.5738,65.95826)">
      <g
         id="g4349"
         transform="translate(0,50)">
        <g
           transform="matrix(1.1412255,0,0,1.1412255,1714.2031,-336.33836)"
           id="g4551">
          <path
             id="path3386"
             d="m 212.10356,637.73972 c 2.26723,-0.41222 4.5963,-0.15115 6.89102,-0.20611 103.97681,0.0137 207.96049,-0.0137 311.93731,0.0137 2.43899,-0.33665 3.94361,2.16418 3.6207,4.3421 -0.0275,61.42148 0.0344,122.83609 -0.0275,184.25757 0.2336,2.35655 -2.10234,3.92301 -4.26652,3.62071 -40.92705,-0.007 -81.85409,0 -122.788,-0.007 -23.37314,0 -46.75316,0 -70.1263,0 -41.08506,0 -82.17012,0 -123.25518,0 -1.35347,0.10306 -2.72069,-0.40535 -3.6001,-1.45653 -0.8588,-2.24662 -0.49467,-4.7131 -0.56337,-7.06278 0.0275,-59.78632 -0.007,-119.57952 0.0206,-179.36584 -0.0137,-1.62142 0.371,-3.6001 2.15731,-4.13599 z"
             inkscape:connector-curvature="0"
             style="fill:#161916" />
          <path
             id="path3388"
             d="m 222.67025,650.28509 c 99.73777,-0.0206 199.48241,0 299.22017,-0.007 -0.20611,3.56575 -0.11679,7.13836 -0.11679,10.71098 -95.9453,0.0412 -191.88373,0.0137 -287.82216,0.0275 -3.77186,0 -7.53684,-0.007 -11.30183,-0.007 0.0206,-3.57262 0.007,-7.14523 0.0206,-10.72472 z"
             inkscape:connector-curvature="0"
             style="fill:#f6f7f5" />
          <path
             id="path3390"
             d="m 521.89042,650.27822 c 0.51528,3.82682 0.41223,7.71548 0.0137,11.54917 -16.30348,0.0687 -32.60697,-0.0412 -48.91046,0.055 7.73609,8.13457 15.87065,15.89126 23.73728,23.90216 8.37503,8.32694 16.65387,16.75007 25.077,25.02891 0.0275,35.44446 0.0206,70.88204 0,106.32649 -44.36912,0.1168 -88.73824,0.007 -133.10736,0.0618 -9.49491,-0.15802 -18.99669,0.32978 -28.47786,-0.19237 -2.94053,-3.35277 -6.35513,-6.26582 -9.1239,-9.76973 6.02535,0.0412 12.0507,0 18.07605,0.0206 -0.007,-1.38782 -0.0137,-2.77564 -0.007,-4.1566 -6.39635,0.007 -12.78584,-0.0275 -19.17532,0.0206 -0.0137,0.91377 -0.0412,1.81379 -0.0344,2.7413 -3.57261,-2.66572 -8.03838,-5.71618 -7.76357,-10.75907 -0.14427,1.25729 -0.30916,2.51457 -0.52902,3.76499 l -0.49467,0.0344 c 0.0275,-1.39469 0.055,-2.78252 0.0893,-4.16347 -1.09927,-0.0137 -2.19166,-0.0137 -3.28406,-0.0137 -0.79697,-1.05117 -1.59393,-2.0886 -2.3909,-3.13978 4.93295,-0.64582 10.09263,0.87254 14.86757,-0.79697 -0.16489,-1.484 -0.3023,-2.96801 -0.43284,-4.44515 -6.72613,0.0137 -13.45226,-0.0756 -20.17153,0.0344 -2.47334,-1.80005 -4.28713,-4.34897 -4.45202,-7.47501 -1.08553,1.09927 -2.16418,2.19166 -3.21535,3.32528 0.0206,-1.4634 0.0275,-2.91992 0.0343,-4.36958 -4.60318,-3.40772 -8.82848,-7.38569 -12.20185,-12.02322 0.29542,-0.0275 0.89315,-0.0825 1.19545,-0.10993 0.055,-1.36034 0.0687,-2.71381 0.0893,-4.06728 -2.07486,-0.007 -4.14973,-0.007 -6.21772,0.007 -1.3466,-1.36721 -2.67946,-2.73442 -4.00545,-4.10851 0.0275,-1.40843 0.055,-2.81 0.0893,-4.20469 -1.45653,0.0137 -2.91306,0.0412 -4.36959,0.0481 -2.7619,-2.93366 -5.69557,-5.6887 -8.69107,-8.3819 -0.055,-0.0687 -0.17176,-0.20611 -0.23359,-0.27481 -5.90856,-6.63682 -12.353,-12.78584 -18.74248,-18.96234 0.0275,-0.61147 0.055,-1.21606 0.0824,-1.82066 0.0618,-1.43592 0.10993,-2.86496 0.15802,-4.29401 -2.31533,-0.0206 -4.61692,-0.0206 -6.92538,0 -0.69391,-1.15423 -1.38095,-2.29472 -2.07486,-3.4352 2.94741,0.0206 5.90168,0.0962 8.85596,-0.0824 0.007,-0.13741 0.0275,-0.40535 0.0412,-0.54276 0.055,-1.4634 0.0618,-2.91993 0.0824,-4.37645 -4.93296,-0.0275 -9.85904,-0.007 -14.792,-0.0137 -1.35347,-1.44966 -2.73442,-2.87184 -4.14973,-4.25279 6.30704,0.10306 12.61408,0.0275 18.91425,0.0206 -0.007,-1.38095 -0.0137,-2.75503 -0.0137,-4.12912 -6.42384,-0.0137 -12.84767,0.007 -19.27151,-0.0137 0.0137,1.2779 0.0206,2.5558 0.0824,3.84056 -5.249,-5.40701 -10.62166,-10.69036 -15.95997,-16.00806 0.1168,-9.88652 0.12367,-19.77304 -0.20611,-29.65956 95.93843,-0.0137 191.87686,0.0137 287.82216,-0.0275 0,-3.57262 -0.0893,-7.14523 0.11679,-10.71098 z"
             inkscape:connector-curvature="0"
             style="fill:#5a454e" />
          <path
             id="path3392"
             d="m 226.84746,656.79824 c -2.00616,-2.12982 1.49775,-5.31082 3.68254,-3.70315 1.86188,0.50154 1.01682,2.74817 1.11301,4.14286 -1.58707,0.45345 -3.64819,1.23667 -4.79555,-0.43971 z"
             inkscape:connector-curvature="0"
             style="fill:#e175b2" />
          <path
             id="path3394"
             d="m 235.19501,653.52793 c 0.77636,-0.30917 1.54584,-0.61147 2.3222,-0.92064 0.81758,0.28169 1.64203,0.57025 2.46648,0.8588 -0.0275,1.20233 -0.0412,2.41152 -0.055,3.62071 -0.84507,0.35726 -1.67638,0.72827 -2.51458,1.09927 -0.80383,-0.50841 -1.60767,-1.00995 -2.40464,-1.51149 0.0618,-1.05118 0.12367,-2.10235 0.1855,-3.14665 z"
             inkscape:connector-curvature="0"
             style="fill:#f4ab94" />
          <path
             id="path3396"
             d="m 244.53877,653.06761 c 1.86188,-1.25041 4.49325,0.6046 4.33523,2.6932 -0.66643,1.55959 -2.70007,2.89245 -4.30775,1.81379 -1.76569,-0.73513 -1.88936,-3.81995 -0.0275,-4.50699 z"
             inkscape:connector-curvature="0"
             style="fill:#c0c798" />
          <path
             id="path3398"
             d="m 222.64964,661.00981 c 3.76499,0 7.52997,0.007 11.30183,0.007 0.32978,9.88652 0.32291,19.77304 0.20611,29.65956 -3.62758,-3.8062 -7.44753,-7.42004 -11.21251,-11.08884 -0.6046,-6.14902 -0.0275,-12.39422 -0.29543,-18.57759 z"
             inkscape:connector-curvature="0"
             style="fill:#473941" />
          <path
             id="path3400"
             d="m 472.9937,661.88235 c 16.30349,-0.0962 32.60698,0.0137 48.91046,-0.055 -0.21985,16.32409 -0.0206,32.65506 -0.0962,48.98603 -8.42313,-8.27884 -16.70197,-16.70197 -25.077,-25.02891 -7.86663,-8.0109 -16.00119,-15.76759 -23.73728,-23.90216 z"
             inkscape:connector-curvature="0"
             style="fill:#47303a" />
          <path
             id="path3402"
             d="m 239.96308,669.2543 c 9.37124,-0.0206 18.74935,-0.0137 28.12059,-0.007 0,1.40156 0,2.80313 0.007,4.20469 -9.37124,-0.0618 -18.74248,-0.007 -28.11372,-0.0275 -0.007,-1.38782 -0.0137,-2.78252 -0.0137,-4.17034 z"
             inkscape:connector-curvature="0"
             style="fill:#a8cfb2" />
          <path
             id="path3404"
             d="m 273.79299,669.23369 c 8.40938,0.0206 16.82563,-0.0137 25.23502,0.0344 -0.0137,1.3947 -0.0206,2.78939 -0.0275,4.19095 -8.42313,-0.14428 -16.85312,0.12367 -25.26938,-0.14428 0.0206,-1.36034 0.0412,-2.72068 0.0618,-4.08102 z"
             inkscape:connector-curvature="0"
             style="fill:#a8cfb1" />
          <path
             id="path3406"
             d="m 239.96995,677.74613 c 7.37195,0.0618 14.7439,-0.0344 22.10898,-0.17176 -0.0275,1.45653 -0.0412,2.90618 -0.0687,4.36271 -7.3376,-0.0481 -14.68207,0.007 -22.02654,-0.0275 -0.007,-1.38782 -0.007,-2.77565 -0.0137,-4.16347 z"
             inkscape:connector-curvature="0"
             style="fill:#a9cfb0" />
          <path
             id="path3408"
             d="m 222.94507,679.5874 c 3.76498,3.6688 7.58493,7.28264 11.21251,11.08884 -0.33665,13.73396 -0.33665,27.48165 0.0481,41.2156 -0.49467,28.38855 -0.20611,56.7977 -0.21298,85.19311 -3.68254,0.1855 -7.36508,0.1855 -11.04075,-0.0824 -0.39849,-10.71785 -0.0481,-21.44943 -0.17863,-32.17414 0.0137,-22.44564 0,-44.8844 0.0137,-67.33004 0.10992,-12.63469 -0.2336,-25.28311 0.15802,-37.91093 z"
             inkscape:connector-curvature="0"
             style="fill:#32232b" />
          <path
             id="path3410"
             d="m 239.94934,686.12803 c 7.37882,-0.0756 14.75077,-0.0206 22.12959,-0.0344 0,1.38782 0.007,2.78252 0.0206,4.17721 -7.37195,-0.0206 -14.7439,0.0137 -22.11585,-0.007 -0.0137,-1.38095 -0.0275,-2.76191 -0.0343,-4.13599 z"
             inkscape:connector-curvature="0"
             style="fill:#a8cfb0" />
          <path
             id="path3412"
             d="m 234.15758,690.67624 c 5.33831,5.3177 10.71097,10.60105 15.95997,16.00806 0.0756,0.0687 0.21985,0.21299 0.28855,0.28169 1.41531,1.38095 2.79626,2.80313 4.14973,4.25279 -1.48401,-0.007 -2.96115,0.007 -4.43828,0.0137 -0.007,1.36721 -0.007,2.73442 -0.007,4.10163 6.38948,-0.15115 12.75835,0.51528 19.1547,0.27482 -0.0137,0.13741 -0.0344,0.40535 -0.0412,0.54276 -2.95428,0.17863 -5.90855,0.10306 -8.85596,0.0824 0.69391,1.14048 1.38095,2.28097 2.07486,3.4352 -4.11537,0.0275 -8.23075,0.0137 -12.34612,-0.0137 0,1.41531 0.007,2.84435 0.007,4.26653 6.36887,-0.0275 12.73774,-0.0412 19.10661,0.0412 -0.0275,0.6046 -0.055,1.20919 -0.0824,1.82066 6.38948,6.1765 12.83392,12.32552 18.74248,18.96234 -5.34518,0.007 -10.69036,-0.0138 -16.03554,0.007 -0.94812,0.10305 -2.12983,-0.16489 -2.78939,0.70078 -0.0893,1.15423 -0.0687,2.3222 -0.055,3.4833 6.37574,0.10305 12.75835,-0.0137 19.14096,0.0206 0,-1.31912 0,-2.63137 -0.0275,-3.93675 2.9955,2.6932 5.92917,5.44824 8.69107,8.3819 -3.90239,0 -7.81165,-0.38474 -11.71405,-0.055 0.0343,1.37408 0.0687,2.75504 0.10993,4.13599 5.29022,0.0343 10.5873,-0.0344 15.88439,0.0756 1.32599,1.37409 2.65885,2.7413 4.00545,4.10851 -3.3665,0.0206 -6.733,0.0137 -10.09263,0.0137 0.007,1.37408 0.0206,2.76191 0.0344,4.14286 4.99479,-0.0824 9.98958,0.0756 14.99124,0.0137 3.37337,4.63753 7.59867,8.6155 12.20185,12.02322 -4.36271,-0.055 -8.7323,-0.007 -13.09501,-0.0412 0.055,1.49088 0.1168,2.9955 0.17863,4.49325 4.28714,-0.48093 8.58802,-0.19238 12.88203,-0.0824 1.05117,-1.13362 2.12982,-2.22601 3.21535,-3.32528 0.16489,3.12604 1.97868,5.67496 4.45202,7.47501 -0.45344,0.007 -1.35347,0.0275 -1.80691,0.0344 0,1.36721 0.007,2.73443 0.0137,4.10164 7.46813,0.17863 14.94314,-0.13741 22.39754,0.27481 -4.77494,1.66951 -9.93462,0.15115 -14.86757,0.79697 0.79697,1.05118 1.59393,2.08861 2.3909,3.13978 -3.30467,-0.007 -6.60933,-0.007 -9.90713,0.0275 -0.0137,1.38095 -0.0137,2.76878 -0.0206,4.1566 4.37645,0 8.74603,0.0756 13.12248,-0.007 l 0.49467,-0.0344 c 0.21986,-1.25042 0.38475,-2.5077 0.52902,-3.76499 -0.27481,5.04289 4.19096,8.09335 7.76357,10.75907 -0.007,0.34352 -0.0137,1.02369 -0.0206,1.36034 0.29543,0.007 0.87254,0.0137 1.1611,0.0137 2.76877,3.50391 6.18337,6.41696 9.1239,9.76973 -3.10542,0.21298 -6.21772,0.26794 -9.32314,0.10305 -9.61171,-0.16489 -19.23029,0.371 -28.84199,-0.0962 -13.28738,0.35039 -26.5885,-0.29543 -39.87587,0.16489 -8.47122,-0.64582 -16.94244,0.35726 -25.41366,-0.12367 -7.5918,-0.3023 -15.19048,0.46719 -22.77541,0.0275 0.007,-28.39541 -0.28169,-56.80456 0.21298,-85.19311 -0.38474,-13.73395 -0.38474,-27.48164 -0.0481,-41.2156 z"
             inkscape:connector-curvature="0"
             style="fill:#47303a" />
          <path
             id="path3414"
             d="m 250.08319,694.46871 c 8.34755,0.0206 16.70198,0.007 25.0564,0.007 -0.0137,1.38783 -0.0206,2.78252 -0.0206,4.18408 -8.34755,-0.0275 -16.6951,-0.0206 -25.04265,-0.0137 0,-1.39469 0,-2.78251 0.007,-4.17721 z"
             inkscape:connector-curvature="0"
             style="fill:#aacfb2" />
          <path
             id="path3416"
             d="m 314.70629,694.46871 c 7.37882,0.0137 14.76451,0.007 22.1502,0.007 -0.0137,1.3947 -0.0137,2.78252 -0.007,4.17721 -7.37882,-0.0137 -14.75764,-0.0137 -22.12959,0.007 -0.007,-1.40156 -0.0137,-2.79625 -0.0137,-4.19095 z"
             inkscape:connector-curvature="0"
             style="fill:#aacfb2" />
          <path
             id="path3418"
             d="m 280.98631,694.49619 c 9.37124,0.055 18.74935,-0.0412 28.12059,0.0481 0,1.3466 0.007,2.6932 0.0206,4.04667 -9.38498,0.10993 -18.77683,-0.007 -28.16181,0.055 0.007,-1.38095 0.007,-2.76877 0.0206,-4.14973 z"
             inkscape:connector-curvature="0"
             style="fill:#fdfefd" />
          <path
             id="path3420"
             d="m 250.0351,702.84374 c 6.42384,0.0206 12.84767,0 19.27151,0.0137 0,1.37409 0.007,2.74817 0.0137,4.12912 -6.30017,0.007 -12.60721,0.0824 -18.91425,-0.0206 -0.0687,-0.0687 -0.21298,-0.21298 -0.28855,-0.28169 -0.0618,-1.28476 -0.0687,-2.56266 -0.0824,-3.84056 z"
             inkscape:connector-curvature="0"
             style="fill:#a9cfb2" />
          <path
             id="path3422"
             d="m 274.95408,706.93851 c 0.0206,-1.36721 0.0412,-2.73442 0.0756,-4.09477 5.30396,0.007 10.61479,-0.0137 15.92561,-0.055 0.17176,1.35347 0.34352,2.70694 0.51528,4.06728 -5.5032,0.19925 -11.01327,0.1168 -16.51647,0.0824 z"
             inkscape:connector-curvature="0"
             style="fill:#e25484" />
          <path
             id="path3424"
             d="m 296.8707,706.9866 c 0,-1.37408 0,-2.74129 0.007,-4.1085 12.353,0.007 24.706,0 37.06587,0.007 -0.007,1.36034 0,2.72068 0.007,4.08789 -12.35987,0.0206 -24.71974,0 -37.07961,0.0137 z"
             inkscape:connector-curvature="0"
             style="fill:#fbb48c" />
          <path
             id="path3426"
             d="m 339.64588,702.78191 c 9.33689,0.13054 18.68065,-0.007 28.01754,0.0618 0.0206,1.3466 0.0412,2.69321 0.0687,4.03981 -9.37125,0.10305 -18.73562,0.0893 -28.10686,0.0275 0.007,-1.38096 0.0137,-2.75504 0.0206,-4.12912 z"
             inkscape:connector-curvature="0"
             style="fill:#e55283" />
          <path
             id="path3428"
             d="m 373.3796,702.88497 c 32.18101,0 64.35515,-0.0412 96.53616,0.0206 0.007,1.3466 0.0206,2.6932 0.0412,4.05354 -32.20849,0.0412 -64.42385,0.0412 -96.63234,-0.007 0.0137,-1.36034 0.0344,-2.71381 0.055,-4.06728 z"
             inkscape:connector-curvature="0"
             style="fill:#fbb58b" />
          <path
             id="path3430"
             d="m 475.65942,706.96599 c 0.0137,-1.37408 0.0344,-2.74129 0.055,-4.10851 2.43899,-0.0137 4.88486,-0.0137 7.33073,-0.007 0.007,1.36722 0.0137,2.7413 0.0344,4.11538 -2.48022,0.055 -4.95357,0.055 -7.42005,0 z"
             inkscape:connector-curvature="0"
             style="fill:#acceb4" />
          <path
             id="path3432"
             d="m 250.11755,711.23252 c 1.47713,-0.007 2.95427,-0.0206 4.43828,-0.0137 4.93296,0.007 9.85904,-0.0138 14.792,0.0137 -0.0206,1.45652 -0.0275,2.91305 -0.0824,4.37645 -6.39635,0.24046 -12.76522,-0.42597 -19.1547,-0.27482 0,-1.36721 0,-2.73442 0.007,-4.10163 z"
             inkscape:connector-curvature="0"
             style="fill:#a9ccb2" />
          <path
             id="path3434"
             d="m 274.98157,711.36305 c 5.46197,-0.19237 10.99266,-0.56337 16.42028,0.17864 -0.0275,1.18858 -0.055,2.38403 -0.0756,3.57948 -5.42763,0.77636 -10.94457,0.58398 -16.39281,0.24046 0.0137,-1.33973 0.0344,-2.66572 0.0481,-3.99858 z"
             inkscape:connector-curvature="0"
             style="fill:#e35586" />
          <path
             id="path3436"
             d="m 296.85009,711.38367 c 24.25255,-0.0344 48.49823,-0.0412 72.74392,0.0206 -0.10993,1.36721 0.10992,2.81687 -0.41223,4.11537 -24.08766,-0.34352 -48.18907,-0.10992 -72.27673,-0.12366 -0.0275,-1.33973 -0.0412,-2.67946 -0.055,-4.01232 z"
             inkscape:connector-curvature="0"
             style="fill:#fbb68e" />
          <path
             id="path3438"
             d="m 375.29645,711.42489 c 4.32836,-0.52215 8.69107,-0.17176 13.04004,-0.28856 0.0687,1.37408 0.13054,2.74817 0.20611,4.12912 -4.39019,0.59085 -8.82848,0.21298 -13.23928,0.37787 -0.007,-1.40843 -0.007,-2.81687 -0.007,-4.21843 z"
             inkscape:connector-curvature="0"
             style="fill:#e45584" />
          <path
             id="path3440"
             d="m 394.39619,711.23939 c 15.21797,0.27481 30.43593,0.055 45.66076,0.10992 -0.0137,1.40844 -0.0206,2.81687 0,4.23218 -11.61787,-0.49467 -23.25634,-0.1168 -34.88795,-0.21986 -3.57949,0.0206 -7.16584,-0.10305 -10.74533,0.17863 -0.0206,-1.43591 -0.0275,-2.87183 -0.0275,-4.30087 z"
             inkscape:connector-curvature="0"
             style="fill:#fbb78d" />
          <path
             id="path3442"
             d="m 445.95863,715.66393 c 0.0481,-1.52523 0.0824,-3.04359 0.13054,-4.56195 5.28335,0.15115 10.58044,-0.12367 15.86378,0.28169 -0.007,1.26415 0,2.53518 0.007,3.8062 -5.3177,0.57712 -10.66975,0.19925 -16.00119,0.47406 z"
             inkscape:connector-curvature="0"
             style="fill:#e35482" />
          <path
             id="path3444"
             d="m 467.93021,711.3768 c 5.35892,-0.19925 10.71784,-0.0481 16.07676,-0.0275 -0.0206,1.33286 -0.0275,2.67259 -0.0344,4.01232 -5.33831,-0.007 -10.68349,-0.055 -16.0218,0.007 -0.0137,-1.33286 -0.0206,-2.66572 -0.0206,-3.9917 z"
             inkscape:connector-curvature="0"
             style="fill:#fcb68d" />
          <path
             id="path3446"
             d="m 489.85369,711.19816 c 2.39778,-0.007 4.80242,0.007 7.20707,0.1168 -0.0275,1.38782 -0.0481,2.77565 -0.0618,4.17034 -2.37029,0.0481 -4.74058,0.0618 -7.104,0.0618 -0.0275,-1.44966 -0.0412,-2.89932 -0.0412,-4.34898 z"
             inkscape:connector-curvature="0"
             style="fill:#abceb1" />
          <path
             id="path3454"
             d="m 250.09694,719.65564 c 4.11537,0.0275 8.23075,0.0412 12.34612,0.0137 2.30846,-0.0206 4.61005,-0.0206 6.92538,0 -0.0481,1.42905 -0.0962,2.85809 -0.15802,4.29401 -6.36887,-0.0824 -12.73774,-0.0687 -19.10661,-0.0412 0,-1.42218 -0.007,-2.85122 -0.007,-4.26653 z"
             inkscape:connector-curvature="0"
             style="fill:#a0cbaa" />
          <path
             id="path3456"
             d="m 274.93347,719.72435 c 5.46885,0.0275 10.9377,-0.13054 16.39968,0.0962 0.007,1.36721 0.0137,2.7413 0.0344,4.11538 -5.42763,0.0275 -10.84838,-0.0275 -16.27601,-0.0412 -0.055,-1.3947 -0.10992,-2.78252 -0.15802,-4.17034 z"
             inkscape:connector-curvature="0"
             style="fill:#e35483" />
          <path
             id="path3458"
             d="m 296.85696,719.65564 c 26.1213,0 52.24261,0.0618 78.37078,-0.0343 2.06113,0.0206 4.12912,0.0687 6.20399,0.0618 -0.0137,1.41531 -0.0275,2.83748 -0.0275,4.25966 -28.16868,-0.15802 -56.34424,-0.055 -84.5198,-0.0481 -0.0137,-1.41531 -0.0206,-2.83061 -0.0275,-4.23905 z"
             inkscape:connector-curvature="0"
             style="fill:#fcb58c" />
          <path
             id="path3460"
             d="m 386.96241,719.90298 c 4.54134,-0.3023 9.08955,-0.19238 13.63776,-0.0893 -0.2542,1.29851 0.63895,3.25658 -0.84506,3.97797 -4.06728,0.33665 -8.16204,-0.0275 -12.2362,0.19237 -0.16489,-1.36721 -0.35039,-2.72755 -0.5565,-4.08102 z"
             inkscape:connector-curvature="0"
             style="fill:#e45483" />
          <path
             id="path3462"
             d="m 406.13086,719.54571 c 9.8453,0.25421 19.69747,0.0824 29.54277,0.0893 5.48259,0.0824 10.9583,0 16.43402,0.055 -0.0206,1.3947 -0.0343,2.78939 -0.0412,4.19095 -15.30041,-0.0344 -30.59394,-0.0206 -45.89435,-0.007 -0.0137,-1.44965 -0.0206,-2.89244 -0.0412,-4.32836 z"
             inkscape:connector-curvature="0"
             style="fill:#fcb58b" />
          <path
             id="path3464"
             d="m 457.76887,719.81366 c 5.42076,-0.15802 10.84838,-0.10993 16.26914,-0.0344 0.0206,1.36721 0.0344,2.74129 0.0618,4.12225 -5.42076,0.0206 -10.84838,0.0275 -16.26914,0.0137 -0.0275,-1.37409 -0.0481,-2.7413 -0.0618,-4.10164 z"
             inkscape:connector-curvature="0"
             style="fill:#e45482" />
          <path
             id="path3466"
             d="m 479.76793,719.68999 c 5.40014,-0.0206 10.80716,-0.0412 16.21417,0.0275 -0.0137,1.38095 -0.0137,2.7619 -0.0137,4.15659 -5.3864,0 -10.77281,-0.0137 -16.15234,0.0137 -0.0275,-1.40156 -0.0412,-2.80312 -0.0481,-4.19782 z"
             inkscape:connector-curvature="0"
             style="fill:#fcb58d" />
          <path
             id="path3468"
             d="m 501.68454,719.68999 c 2.44587,-0.007 4.89861,-0.007 7.35134,0.0137 -0.0137,1.38783 -0.0206,2.78252 -0.0206,4.17721 -2.43899,0.0206 -4.87112,0.0206 -7.30325,0.0344 -0.0137,-1.40844 -0.0275,-2.81687 -0.0275,-4.22531 z"
             inkscape:connector-curvature="0"
             style="fill:#acceb5" />
          <path
             id="path3470"
             d="m 239.96308,728.05128 c 7.37882,-0.0618 14.75077,-0.007 22.12959,-0.0344 -0.0137,1.41531 -0.0206,2.83061 -0.0275,4.24592 -7.36508,-0.0137 -14.73016,0.0206 -22.09524,-0.007 -0.007,-1.40844 -0.007,-2.81 -0.007,-4.2047 z"
             inkscape:connector-curvature="0"
             style="fill:#9dc9a7" />
          <path
             id="path3472"
             d="m 239.96995,736.41945 c 7.36508,-0.0275 14.73703,0.007 22.10211,-0.0137 0,1.40843 0,2.81686 0.007,4.2253 -7.37882,-0.0137 -14.75077,0.055 -22.12272,-0.0206 0,-1.40157 0.007,-2.79626 0.0137,-4.19095 z"
             inkscape:connector-curvature="0"
             style="fill:#9fc9a9" />
          <path
             id="path3474"
             d="m 324.63403,744.82883 c 2.44587,-0.0344 4.89174,-0.0344 7.3376,-0.0344 0.0137,1.39469 0.0206,2.78939 0.0412,4.19095 -2.47334,0 -4.93982,-0.0137 -7.4063,-0.0481 0.007,-1.37409 0.0137,-2.7413 0.0275,-4.10851 z"
             inkscape:connector-curvature="0"
             style="fill:#accdb4" />
          <path
             id="path3476"
             d="m 250.07632,748.97169 c 0.0137,-1.40157 0.0206,-2.79626 0.0481,-4.19095 4.37645,0.0275 8.75977,0.007 13.14309,0.007 0,1.39469 0,2.78938 0,4.19095 -4.39706,0.0137 -8.79412,-0.0137 -13.19119,-0.007 z"
             inkscape:connector-curvature="0"
             style="fill:#a0c9a9" />
          <path
             id="path3478"
             d="m 269.04553,745.45404 c 0.65956,-0.86567 1.84127,-0.59773 2.78939,-0.70078 5.34518,-0.0206 10.69036,0 16.03554,-0.007 0.0618,0.0687 0.17863,0.20611 0.23359,0.27481 0.0275,1.30538 0.0275,2.61763 0.0275,3.93675 -6.38261,-0.0344 -12.76522,0.0824 -19.14096,-0.0206 -0.0137,-1.1611 -0.0344,-2.32907 0.055,-3.4833 z"
             inkscape:connector-curvature="0"
             style="fill:#de4276" />
          <path
             id="path3480"
             d="m 294.06757,744.84257 c 8.32694,0.0206 16.65388,-0.0206 24.98082,0.0206 -0.0137,1.36034 -0.0206,2.72756 -0.0206,4.09477 -8.33381,-0.007 -16.66075,-0.0344 -24.99456,-0.007 0.007,-1.37409 0.0206,-2.7413 0.0344,-4.10851 z"
             inkscape:connector-curvature="0"
             style="fill:#fbb690" />
          <path
             id="path3482"
             d="m 259.98346,753.34814 c 6.41696,0.0687 12.83393,-0.21298 19.25089,-0.17863 -0.0344,1.44279 -0.055,2.88557 -0.0893,4.32836 -6.36888,-0.0687 -12.74462,-0.0137 -19.11349,-0.0275 -0.0206,-1.37408 -0.0343,-2.74817 -0.0481,-4.12225 z"
             inkscape:connector-curvature="0"
             style="fill:#a0caaa" />
          <path
             id="path3484"
             d="m 285.08107,753.34814 c 3.9024,-0.32978 7.81166,0.055 11.71405,0.055 1.45653,-0.007 2.91306,-0.0344 4.36959,-0.0481 -0.0344,1.39469 -0.0618,2.79626 -0.0893,4.20469 -5.29709,-0.10992 -10.59417,-0.0412 -15.88439,-0.0756 -0.0412,-1.38095 -0.0756,-2.76191 -0.10993,-4.13599 z"
             inkscape:connector-curvature="0"
             style="fill:#e24379" />
          <path
             id="path3486"
             d="m 307.03891,753.3344 c 10.31936,0.0275 20.64558,-0.0343 30.96494,0.0206 0,1.35347 0.007,2.70007 0.0137,4.06041 -10.31248,0.007 -20.63184,0.0275 -30.9512,0 -0.0137,-1.36034 -0.0206,-2.72068 -0.0275,-4.08102 z"
             inkscape:connector-curvature="0"
             style="fill:#fcb58a" />
          <path
             id="path3488"
             d="m 343.7063,753.10768 c 2.46647,-0.0206 4.93295,0.0481 7.39943,0.23359 -0.0137,1.36721 -0.0275,2.73442 -0.0275,4.10851 -2.45961,0.0137 -4.91235,0.0137 -7.36508,0.0206 -0.0138,-1.45653 -0.0138,-2.91306 -0.007,-4.36271 z"
             inkscape:connector-curvature="0"
             style="fill:#a9d0af" />
          <path
             id="path3490"
             d="m 270.10357,761.62699 c 6.4101,0.0687 12.82706,-0.0137 19.24403,0.0481 -0.0206,1.38095 -0.0344,2.76878 -0.0412,4.16347 -6.39635,0.007 -12.78583,-0.007 -19.18218,0 -0.007,-1.40844 -0.0206,-2.81687 -0.0206,-4.21156 z"
             inkscape:connector-curvature="0"
             style="fill:#9dcaac" />
          <path
             id="path3492"
             d="m 294.98821,761.68195 c 3.35963,0 6.72613,0.007 10.09263,-0.0137 2.06799,-0.0137 4.14286,-0.0137 6.21772,-0.007 -0.0206,1.35347 -0.0344,2.70694 -0.0893,4.06728 -0.3023,0.0275 -0.90003,0.0824 -1.19545,0.10993 -5.00166,0.0618 -9.99645,-0.0962 -14.99124,-0.0137 -0.0137,-1.38095 -0.0275,-2.76878 -0.0344,-4.14286 z"
             inkscape:connector-curvature="0"
             style="fill:#e14479" />
          <path
             id="path3494"
             d="m 316.9323,761.67508 c 10.33997,-0.0481 20.67307,0 31.01304,-0.0275 -0.007,1.38095 -0.007,2.76877 0,4.16347 -10.3331,0.0206 -20.6662,0.0481 -30.9993,-0.0206 -0.007,-1.38096 -0.0137,-2.75504 -0.0137,-4.11538 z"
             inkscape:connector-curvature="0"
             style="fill:#fcb488" />
          <path
             id="path3496"
             d="m 353.78519,761.64073 c 2.39777,0.007 4.80242,0.007 7.20706,0 -0.007,1.39469 -0.0137,2.79626 -0.0137,4.19782 -2.3909,0 -4.78181,-0.007 -7.17271,-0.007 -0.0137,-1.40157 -0.0206,-2.80313 -0.0206,-4.19095 z"
             inkscape:connector-curvature="0"
             style="fill:#accfb4" />
          <path
             id="path3498"
             d="m 366.81149,761.66134 c 13.34921,0 26.69842,-0.007 40.04763,0 -0.0137,1.38095 -0.0275,2.76877 -0.0275,4.16347 -13.3286,0.0206 -26.6572,0 -39.97893,0.007 -0.0206,-1.39469 -0.0275,-2.78252 -0.0412,-4.17034 z"
             inkscape:connector-curvature="0"
             style="fill:#fefefd" />
          <path
             id="path3500"
             d="m 412.41041,761.6476 c 2.45274,-0.007 4.91235,-0.007 7.36508,0.0137 0,1.38095 0.007,2.76877 0.0137,4.1566 -2.45273,0.0275 -4.8986,0.0206 -7.34447,0.0206 -0.0137,-1.40156 -0.0275,-2.80313 -0.0343,-4.19095 z"
             inkscape:connector-curvature="0"
             style="fill:#aacfb0" />
          <path
             id="path3502"
             d="m 270.07609,770.02263 c 3.46269,-0.0137 6.91851,-0.0275 10.38119,-0.007 -0.0137,1.39469 -0.0137,2.78939 -0.0206,4.19095 -3.44207,0.0206 -6.88415,0.0206 -10.32623,0.0412 -0.0137,-1.4153 -0.0275,-2.81687 -0.0343,-4.2253 z"
             inkscape:connector-curvature="0"
             style="fill:#9dcaa4" />
          <path
             id="path3504"
             d="m 279.98323,778.08849 c 3.44207,-0.30917 6.90476,-0.23359 10.36058,-0.21298 -0.0137,1.38782 0.0137,2.78252 -0.10306,4.17034 -3.4352,0.34352 -6.94599,0.371 -10.34684,-0.19237 0.0206,-1.26416 0.055,-2.51457 0.0893,-3.76499 z"
             inkscape:connector-curvature="0"
             style="fill:#a1cba7" />
          <path
             id="path3506"
             d="m 296.21801,777.86864 c 2.37716,0.007 4.76119,0.007 7.14523,0.0275 0,1.43592 -0.007,2.8787 -0.0137,4.32836 -2.3703,0 -4.74746,0 -7.11088,0 -0.0206,-1.45653 -0.0206,-2.90618 -0.0206,-4.35584 z"
             inkscape:connector-curvature="0"
             style="fill:#a1cba9" />
          <path
             id="path3508"
             d="m 309.12064,777.82055 c 4.36271,0.0344 8.7323,-0.0137 13.09501,0.0412 -0.007,1.44966 -0.0137,2.90618 -0.0343,4.36958 -4.29401,-0.10993 -8.59489,-0.39848 -12.88203,0.0824 -0.0618,-1.49775 -0.12366,-3.00237 -0.17863,-4.49325 z"
             inkscape:connector-curvature="0"
             style="fill:#e24072" />
          <path
             id="path3510"
             d="m 328.0555,778.08162 c 5.42075,-0.0962 10.84151,-0.055 16.26226,-0.0412 -0.007,1.37408 -0.0137,2.74817 -0.0137,4.12225 -5.43449,-0.10993 -10.8896,0.34352 -16.30349,-0.22673 0.0137,-1.29163 0.0344,-2.56953 0.055,-3.8543 z"
             inkscape:connector-curvature="0"
             style="fill:#fbb68a" />
          <path
             id="path3512"
             d="m 349.99272,778.1091 c 6.40323,-0.30229 12.79958,-0.0962 19.2028,-0.0412 -0.0275,1.38095 -0.0481,2.76191 -0.0687,4.14973 -6.39635,-0.17863 -12.83393,0.40535 -19.19593,-0.32978 0.0206,-1.27103 0.0412,-2.52144 0.0618,-3.77873 z"
             inkscape:connector-curvature="0"
             style="fill:#fefdfd" />
          <path
             id="path3514"
             d="m 375.06972,777.87551 c 2.3703,0 4.73372,0 7.11088,-0.007 0,1.45653 0,2.91305 0,4.37645 -2.37029,-0.0137 -4.74058,-0.0206 -7.11088,-0.0137 -0.007,-1.45653 -0.007,-2.90618 0,-4.35584 z"
             inkscape:connector-curvature="0"
             style="fill:#a9cfb3" />
          <path
             id="path3516"
             d="m 387.82808,778.01292 c 3.42146,-0.19237 6.8498,-0.15115 10.27814,-0.13054 -0.0138,1.44966 -0.0275,2.90619 -0.0344,4.36271 -3.44207,-0.0344 -6.89789,0.13741 -10.32623,-0.27481 0.0206,-1.32599 0.055,-2.64511 0.0824,-3.95736 z"
             inkscape:connector-curvature="0"
             style="fill:#a9cfb2" />
          <path
             id="path3518"
             d="m 279.96949,786.39482 c 3.44894,-0.0756 6.89102,-0.0618 10.33997,-0.0618 0.0137,1.40843 0.0275,2.81687 0.0412,4.23904 -3.46956,0.0137 -6.93225,0.0206 -10.39494,-0.0344 0,-1.38782 0.007,-2.76878 0.0138,-4.14286 z"
             inkscape:connector-curvature="0"
             style="fill:#9ecaa7" />
          <path
             id="path3520"
             d="m 296.19053,786.36047 c 2.40464,-0.0206 4.80242,-0.0275 7.20706,-0.0206 -0.0206,1.40843 -0.0412,2.82374 -0.055,4.23904 -2.37717,-0.007 -4.74746,-0.007 -7.11775,-0.007 -0.0137,-1.40843 -0.0206,-2.81 -0.0343,-4.21156 z"
             inkscape:connector-curvature="0"
             style="fill:#a2c9ad" />
          <path
             id="path3522"
             d="m 309.16186,786.34673 c 4.36959,0.055 8.74604,0.0137 13.12249,0.0275 0.0137,1.40843 0.0275,2.81 0.0481,4.2253 -4.37645,-0.0137 -8.75977,-0.0275 -13.13622,0.007 -0.0206,-1.42217 -0.0275,-2.83748 -0.0344,-4.25965 z"
             inkscape:connector-curvature="0"
             style="fill:#df3e74" />
          <path
             id="path3524"
             d="m 328.04176,786.41543 c 0.45344,-0.007 1.35347,-0.0275 1.80691,-0.0344 6.71927,-0.10993 13.4454,-0.0206 20.17153,-0.0344 0.13054,1.47714 0.26795,2.96115 0.43284,4.44515 -7.4544,-0.41222 -14.92941,-0.0962 -22.39754,-0.27481 -0.007,-1.36721 -0.0137,-2.73443 -0.0137,-4.10164 z"
             inkscape:connector-curvature="0"
             style="fill:#fbb488" />
          <path
             id="path3526"
             d="m 355.9425,786.36734 c 8.34755,0.007 16.6951,0.007 25.03578,0 -0.007,1.40156 -0.0137,2.79626 -0.0137,4.20469 -8.33381,-0.0275 -16.66762,-0.0275 -25.00143,0.007 -0.007,-1.40843 -0.0137,-2.81 -0.0206,-4.21156 z"
             inkscape:connector-curvature="0"
             style="fill:#fefefc" />
          <path
             id="path3528"
             d="m 386.84561,786.34673 c 2.39777,0 4.78868,0 7.18645,-0.0137 -0.007,1.40843 -0.007,2.83061 -0.007,4.24591 -2.38403,0 -4.76119,-0.007 -7.13836,0 -0.0137,-1.4153 -0.0275,-2.82374 -0.0412,-4.23217 z"
             inkscape:connector-curvature="0"
             style="fill:#adcfb0" />
          <path
             id="path3530"
             d="m 399.81695,786.33986 c 2.40464,0.0137 4.80929,0.007 7.21393,-0.007 -0.0137,1.40843 -0.0206,2.82374 -0.0275,4.23904 -2.38403,-0.0137 -4.76807,-0.007 -7.1521,0 -0.0137,-1.4153 -0.0275,-2.82374 -0.0343,-4.23217 z"
             inkscape:connector-curvature="0"
             style="fill:#acceb5" />
          <path
             id="path3532"
             d="m 279.94887,794.76298 c 3.46269,-0.0893 6.93225,-0.0687 10.40181,-0.0756 -0.007,1.42217 -0.0137,2.83748 -0.0137,4.26652 -3.46269,0.0275 -6.92538,0.0481 -10.3812,-0.055 -0.007,-1.38782 -0.007,-2.76191 -0.007,-4.13599 z"
             inkscape:connector-curvature="0"
             style="fill:#9bcaa4" />
          <path
             id="path3534"
             d="m 296.1974,794.72176 c 2.38403,-0.007 4.76806,-0.007 7.15897,-0.0137 -0.007,1.40843 -0.007,2.83061 0,4.25278 -2.38404,-0.007 -4.7612,-0.0206 -7.13149,-0.0206 -0.0137,-1.40843 -0.0206,-2.81687 -0.0275,-4.21843 z"
             inkscape:connector-curvature="0"
             style="fill:#a2caaa" />
          <path
             id="path3536"
             d="m 309.20309,794.72176 c 4.36271,0.0344 8.73229,-0.007 13.095,0.0275 0.0206,1.38782 0.0412,2.78252 0.0618,4.18408 -4.3902,0.0412 -8.78726,0.0344 -13.17745,0.0344 0.007,-1.42217 0.0137,-2.83748 0.0206,-4.24591 z"
             inkscape:connector-curvature="0"
             style="fill:#df4277" />
          <path
             id="path3538"
             d="m 328.06924,794.75611 c 3.2978,-0.0344 6.60246,-0.0344 9.90713,-0.0275 1.0924,0 2.18479,0 3.28406,0.0137 -0.0343,1.38095 -0.0618,2.76878 -0.0893,4.16347 -4.37645,0.0824 -8.74603,0.007 -13.12248,0.007 0.007,-1.38782 0.007,-2.77565 0.0206,-4.1566 z"
             inkscape:connector-curvature="0"
             style="fill:#fbae80" />
          <path
             id="path3540"
             d="m 347.03844,794.72176 c 5.35206,0 10.69724,0.0137 16.04242,0 0,1.40843 0,2.82374 0.007,4.23904 -5.34518,-0.0275 -10.69723,0 -16.04929,-0.0137 0,-1.4153 0,-2.81687 0,-4.2253 z"
             inkscape:connector-curvature="0"
             style="fill:#fcfcfb" />
          <path
             id="path3542"
             d="m 369.02376,794.72176 c 2.37716,-0.007 4.75433,-0.007 7.13149,0 -0.007,1.40843 -0.007,2.81687 0,4.23217 -2.37716,-0.007 -4.75433,-0.007 -7.12462,0.0137 0,-1.42217 -0.007,-2.83748 -0.007,-4.24591 z"
             inkscape:connector-curvature="0"
             style="fill:#aed0b4" />
          <path
             id="path3544"
             d="m 382.07067,794.7355 c 3.4146,-0.0206 6.82919,-0.0344 10.24379,0.0137 -0.0206,1.38095 -0.0275,2.77565 -0.0344,4.17034 -3.40086,0.0275 -6.79484,0.0137 -10.18882,0.0206 -0.007,-1.40843 -0.0138,-2.81 -0.0206,-4.20469 z"
             inkscape:connector-curvature="0"
             style="fill:#abcfb4" />
          <path
             id="path3546"
             d="m 296.21114,803.07618 c 2.3909,0.0137 4.77493,0.0137 7.16584,0.0206 -0.007,1.3947 -0.007,2.79626 0,4.20469 -2.39778,0.007 -4.78868,0 -7.17271,-0.007 0,-1.40843 0,-2.81687 0.007,-4.21843 z"
             inkscape:connector-curvature="0"
             style="fill:#9ecaa8" />
          <path
             id="path3548"
             d="m 349.95837,805.86557 c -0.007,-0.92751 0.0206,-1.82753 0.0344,-2.7413 6.38948,-0.0481 12.77897,-0.0137 19.17532,-0.0206 -0.007,1.38096 0,2.76878 0.007,4.1566 -6.02535,-0.0206 -12.0507,0.0206 -18.07605,-0.0206 -0.28856,0 -0.86567,-0.007 -1.1611,-0.0137 0.007,-0.33665 0.0137,-1.01682 0.0206,-1.36034 z"
             inkscape:connector-curvature="0"
             style="fill:#fcfefc" />
          <path
             id="path3550"
             d="m 387.82808,803.11053 c 3.42833,-0.0275 6.85667,-0.0137 10.28501,0 0,1.40157 0,2.79626 0.007,4.20469 -3.44895,-0.0275 -6.8979,-0.0206 -10.33997,-0.0275 0.0137,-1.39469 0.0344,-2.78938 0.0481,-4.17721 z"
             inkscape:connector-curvature="0"
             style="fill:#abceb2" />
          <path
             id="path3552"
             d="m 279.96261,803.12427 c 3.46269,-0.0412 6.92538,-0.0344 10.38807,-0.0344 -0.0206,1.3947 -0.0275,2.79626 -0.0412,4.20469 -3.45582,0.007 -6.90477,0.0481 -10.36059,-0.0618 0.007,-1.37408 0.007,-2.74816 0.0137,-4.10851 z"
             inkscape:connector-curvature="0"
             style="fill:#9dcba9" />
          <path
             id="path3554"
             d="m 309.17561,807.28774 c 0.007,-1.42217 0.0137,-2.83061 0.0206,-4.23904 4.37645,0.055 8.74603,0.007 13.12248,0.0756 0.0137,1.37409 0.0344,2.74817 0.0481,4.12912 -4.39707,0.0687 -8.79413,0.0481 -13.19119,0.0344 z"
             inkscape:connector-curvature="0"
             style="fill:#e14073" />
          <path
             id="path3556"
             d="m 328.07611,803.13801 c 5.41388,-0.0344 10.82777,-0.0137 16.24165,-0.007 0,1.38096 0,2.76191 0.0206,4.14973 -5.44136,-0.0275 -10.88273,0.0412 -16.3241,-0.0412 0.0206,-1.37408 0.0412,-2.74129 0.0618,-4.10164 z"
             inkscape:connector-curvature="0"
             style="fill:#faad7d" />
          <path
             id="path3558"
             d="m 375.10408,803.27542 c 2.32907,-0.42596 4.73371,-0.11679 7.09713,-0.16489 -0.007,1.3947 -0.0137,2.78939 -0.0137,4.19095 -2.48022,0 -4.96044,-0.007 -7.44065,-0.0687 0.10305,-1.31912 -0.12367,-2.70694 0.35726,-3.95736 z"
             inkscape:connector-curvature="0"
             style="fill:#aacdb6" />
          <path
             id="path3560"
             d="m 270.13106,811.45808 c 3.42833,0.007 6.85667,-0.0137 10.29187,0.007 0.007,1.3947 0.0137,2.78939 0.0275,4.19783 -3.45581,0.0137 -6.90476,0 -10.36058,0.0137 0.0137,-1.40844 0.0275,-2.81687 0.0412,-4.21844 z"
             inkscape:connector-curvature="0"
             style="fill:#a1c9a6" />
          <path
             id="path3562"
             d="m 337.34429,829.76086 c 23.37314,0 46.75316,0 70.1263,0 l 0,0.44658 c -0.43284,8.40251 0.0137,16.81189 -0.28169,25.21441 -23.27696,0.0275 -46.56078,0.007 -69.84461,0.0137 0.0137,-8.56053 0.0137,-17.1142 0,-25.67473 z"
             inkscape:connector-curvature="0"
             style="fill:#c2c4c3" />
          <path
             id="path3564"
             d="m 407.47059,830.20744 c 0.4878,8.39564 -0.0206,16.81189 0.32291,25.20754 4.98104,0.0756 9.97583,-0.0687 14.96375,0.12366 0.0412,1.5802 0.0824,3.16039 0.13054,4.75433 -34.22839,0.007 -68.46365,0.007 -102.69204,0 0.0481,-1.57332 0.0962,-3.14665 0.14427,-4.7131 5.66809,-0.28169 11.33618,-0.0893 17.00427,-0.14428 23.28383,-0.007 46.56765,0.0137 69.84461,-0.0137 0.29543,-8.40252 -0.15115,-16.8119 0.28169,-25.21441 z"
             inkscape:connector-curvature="0"
             style="fill:#e0e2e1" />
          <path
             id="path3566"
             d="m 0.04142898,860.27923 c 106.71810102,0.007 213.43621102,-0.007 320.15432102,0.0137 34.22839,0.007 68.46365,0.007 102.69204,0 107.17842,-0.0206 214.35,-0.007 321.52156,-0.0137 0.0687,7.44753 0.0341,14.88818 0.0209,22.33571 -5.35892,0 -10.71097,-0.0137 -16.06989,0.0137 -237.61322,0.0275 -475.22641,0.0137 -712.839599,0 l -0.439706,0 c -5.022271,-0.0275 -10.0376715,-0.0137 -15.05994244,-0.0137 -0.01374083,-7.44753 -0.04809289,-14.88818 0.02061123,-22.33571 z"
             inkscape:connector-curvature="0"
             style="fill:#b08260" />
          <path
             id="path3568"
             d="m 15.08076,881.52941 0.439707,0 c 0.01374,2.23289 0.04122,4.47264 0.08244,6.71239 15.795076,0.36414 31.603894,0.0344 47.405841,0.15115 140.170132,0 280.340282,-0.007 420.510422,0 81.60673,-0.0481 163.2204,0.0756 244.83402,-0.0618 -0.0209,2.38403 -0.0275,4.77494 -0.0275,7.16584 -7.27582,0 -14.55845,-0.007 -21.83422,0 -7.94901,0 -15.89809,0 -23.84714,0.007 -206.76507,-0.0137 -413.53012,-0.0137 -620.295162,0 -7.949066,-0.0137 -15.905003,-0.007 -23.86094,-0.007 -7.777306,-0.007 -15.561482,0 -23.338789,-0.007 0.01374,-4.65127 -0.08244,-9.30941 -0.0687,-13.96068 z"
             inkscape:connector-curvature="0"
             style="fill:#816852" />
          <path
             id="path3570"
             d="m 15.520467,882.62868 c 237.613193,0.0137 475.226383,0.0275 712.839543,0 0.007,2.26036 0,4.5276 -0.007,6.80171 -81.61362,0.1374 -163.22729,0.0137 -244.83402,0.0618 -140.17014,-0.007 -280.34028,0 -420.510417,0 -15.801948,-0.1168 -31.610765,0.21298 -47.405842,-0.15115 -0.04122,-2.23975 -0.0687,-4.47951 -0.08244,-6.71239 z"
             inkscape:connector-curvature="0"
             style="fill:#6c5a47" />
          <path
             id="path3572"
             d="m 682.64435,895.50383 c 7.94906,-0.007 15.89813,-0.007 23.84714,-0.007 10.29193,52.28383 20.41892,104.60897 30.85507,156.86527 l -18.79057,0 c -2.91306,-14.2492 -6.48567,-28.361 -9.63232,-42.5553 -8.75977,-38.10335 -17.56764,-76.19293 -26.27932,-114.3031 z"
             inkscape:connector-curvature="0"
             style="fill:#a78869" />
          <path
             id="path3574"
             d="m 38.488253,895.49696 c 7.955937,0 15.911874,-0.007 23.86094,0.007 -12.030091,52.28383 -24.039571,104.58144 -36.104014,156.85834 l -18.4195735,0 c 3.1741305,-17.6295 6.8704115,-35.1696 10.2300435,-52.77159 6.822318,-34.69559 13.617156,-69.39804 20.432604,-104.09362 z"
             inkscape:connector-curvature="0"
             style="fill:#a78869" />
        </g>
      </g>
      <g
         id="g4444"
         transform="translate(0,-52)">
        <path
           style="fill:#997b5f"
           inkscape:connector-curvature="0"
           d="m 1981.9738,307.42374 c 15.8431,0.007 31.6932,0.0137 47.5432,0 6.575,0.007 13.1569,0.007 19.7387,0.007 2.8169,0 5.6337,0 8.4575,0 6.8498,0.007 13.6996,0.007 20.5563,0 4.7268,0 9.4605,0.007 14.2011,0 11.0064,-0.007 22.0128,0 33.0261,-0.007 31.5558,0.007 63.1047,0.007 94.6605,0 9.172,0.0206 18.3509,-0.0137 27.5229,0.0206 0,2.47335 0,4.9467 -0.021,7.42004 -14.9226,0.36414 -29.852,0.0618 -44.7814,0.15802 -79.9372,0.007 -159.8745,0.007 -239.8186,0.007 -16.3378,-0.13053 -32.6756,0.2336 -49.0135,-0.17863 -0.028,-2.47334 -0.028,-4.93982 -0.021,-7.41317 10.5805,-0.0206 21.1609,0 31.7413,-0.007 5.2628,0 10.5186,0.007 15.7814,0 1.855,0 3.7169,-0.007 5.5787,-0.007 4.9467,0.007 9.8934,0.007 14.847,0 z"
           id="path3382" />
        <path
           style="fill:#af8c6c"
           inkscape:connector-curvature="0"
           d="m 1914.046,313.75139 c 16.3379,0.41222 32.6757,0.0481 49.0135,0.17863 79.9441,0 159.8814,0 239.8186,-0.007 14.9294,-0.0962 29.8588,0.20611 44.7814,-0.15802 -0.014,2.55579 -0.028,5.11158 -0.089,7.66738 -111.1633,-0.007 -222.3266,0.0344 -333.483,-0.0206 0,-2.5558 0.01,-5.11159 -0.041,-7.66051 z"
           id="path3384" />
        <g
           id="g5675">
          <g
             id="g5651"
             transform="translate(0,24)">
            <path
               style="fill:#8b1046"
               inkscape:connector-curvature="0"
               d="m 1945.7667,184.60661 c 5.249,-0.007 10.5049,0.007 15.7539,-0.007 0.082,32.94362 0,65.88724 0.027,98.83087 -5.2628,0.007 -10.5186,0 -15.7814,0 -0.014,-3.91614 -0.01,-7.8254 -0.01,-11.73466 5.091,0.33665 10.2026,0.35039 15.3004,0.15801 0.2749,-2.8306 0.2817,-5.68183 0.01,-8.51244 -5.1047,-0.14427 -10.2094,-0.1374 -15.3072,0.17176 0,-18.93485 0,-37.87657 0,-56.81143 5.0978,-0.0275 10.1956,0.0687 15.2935,-0.0687 0.3023,-2.83748 0.3023,-5.69557 -0.01,-8.53305 -5.0979,-0.1168 -10.1957,-0.0893 -15.2867,0.16489 0,-4.54822 -0.01,-9.1033 0.01,-13.65838 z"
               id="path3340" />
            <path
               style="fill:#0b4616"
               inkscape:connector-curvature="0"
               d="m 2078.1458,185.9326 0.4741,0.0618 c -0.048,3.38711 0.1167,6.78797 -0.1237,10.16821 -0.5565,7.22767 -0.1237,14.48283 -0.2199,21.72424 0.028,3.6688 0.028,7.34447 0,11.01327 -0.021,18.01422 -0.041,36.03531 -0.028,54.04953 -0.6595,-6.08031 0.1512,-12.19498 -0.5359,-18.26843 -6.6643,-0.24046 -13.3354,0.007 -19.9997,-0.13053 0,-19.26464 0,-38.52927 0,-57.79391 6.6918,-0.0756 13.3835,0.13741 20.0684,-0.10992 0.3573,-6.8979 0.3848,-13.80953 0.3642,-20.71429 z"
               id="path3344" />
            <path
               style="fill:#1f5b92"
               inkscape:connector-curvature="0"
               d="m 1961.7679,192.00604 c 4.8849,-0.1855 9.7491,-0.65269 14.634,-0.81071 1.7588,30.75196 3.6413,61.49019 5.5719,92.22841 -4.9536,0.007 -9.9003,0.007 -14.847,0 -1.0786,-20.74865 -2.542,-41.46294 -3.6757,-62.20471 -0.5839,-9.73537 -1.374,-19.46388 -1.6832,-29.21299 z"
               id="path3348" />
            <path
               style="fill:#414c5f"
               inkscape:connector-curvature="0"
               d="m 2125.4967,283.42374 c 0.021,-21.25706 -0.034,-42.52098 0.027,-63.7849 31.542,0.0137 63.091,-0.007 94.633,0.0137 0.014,21.25705 0.014,42.5141 0,63.77116 -31.5558,0.007 -63.1047,0.007 -94.6605,0 z"
               id="path3362" />
            <path
               style="fill:#494949"
               inkscape:connector-curvature="0"
               d="m 2077.1771,228.90015 c 4.7337,0.0206 9.4674,0.0206 14.2011,-0.0344 -0.01,18.18598 0.01,36.37883 -0.01,54.56481 -4.7406,0.007 -9.4743,0 -14.2011,0 l -0.021,-0.48093 c -0.014,-18.01422 0.01,-36.03531 0.028,-54.04953 z"
               id="path3366" />
            <path
               style="fill:#0c5219"
               inkscape:connector-curvature="0"
               d="m 2057.7132,263.56923 c 6.6643,0.14455 13.3355,-0.11564 19.9998,0.13732 0.687,6.38909 -0.1237,12.82155 0.5359,19.21787 l 0.021,0.50592 c -6.8566,0.007 -13.7064,0.007 -20.5562,0 -0.01,-6.62037 0,-13.24074 0,-19.86111 z"
               id="path3376" />
            <g
               transform="translate(0,-20)"
               id="g5495">
              <path
                 id="path3342"
                 d="m 2057.7132,205.92585 c 6.8086,0 13.6171,-0.007 20.4326,0.007 0.021,7.4249 -0.01,14.85719 -0.3641,22.2747 -6.685,0.26597 -13.3767,0.0369 -20.0685,0.11821 -0.041,-7.46923 -0.014,-14.93107 0,-22.4003 z"
                 inkscape:connector-curvature="0"
                 style="fill:#0c5219" />
              <path
                 id="path3346"
                 d="m 2036.4012,229.11337 c 0.6802,-6.40323 1.0992,-12.83393 1.8687,-19.22342 6.4513,0.66643 12.9164,1.33973 19.3952,1.73135 -0.4466,6.31391 -1.1954,12.59346 -1.6145,18.90737 -6.5682,-0.24046 -13.1088,-0.86567 -19.6494,-1.4153 z"
                 inkscape:connector-curvature="0"
                 style="fill:#c8581b" />
              <path
                 id="path3350"
                 d="m 2077.3969,216.16264 c 4.6582,0.0687 9.3163,0.0206 13.9744,0.0344 0.01,7.25516 0,14.50344 0.01,21.75172 -4.7337,0.0687 -9.4674,0.0756 -14.2011,-0.0618 0.096,-7.24141 -0.3367,-14.49657 0.2199,-21.72424 z"
                 inkscape:connector-curvature="0"
                 style="fill:#494949" />
              <path
                 id="path3352"
                 d="m 1945.7598,217.35671 c 5.091,-0.33473 10.1888,-0.37092 15.2867,-0.21713 0.3092,3.73633 0.3092,7.4998 0.01,11.23612 -5.0979,0.18094 -10.1957,0.0543 -15.2935,0.0905 0,-3.70014 0,-7.40932 0,-11.10946 z"
                 inkscape:connector-curvature="0"
                 style="fill:#76103d" />
              <path
                 id="path3354"
                 d="m 1962.9427,224.30408 c 4.6101,-0.28169 9.227,-0.57712 13.8508,-0.68704 0.1649,1.35347 0.3366,2.70007 0.5084,4.05354 -4.7681,0.43971 -9.5499,0.65269 -14.3317,0.90689 -0.2198,-1.4153 -0.1718,-2.85122 -0.027,-4.27339 z"
                 inkscape:connector-curvature="0"
                 style="fill:#18456e" />
              <path
                 id="path3356"
                 d="m 2036.4012,229.11337 c 6.5406,0.54963 13.0812,1.17484 19.6494,1.4153 -0.1375,1.14049 -0.2955,2.28098 -0.4397,3.42147 -6.4926,-0.50842 -12.9851,-0.98247 -19.4708,-1.5115 0.082,-1.10613 0.1718,-2.21227 0.2611,-3.32527 z"
                 inkscape:connector-curvature="0"
                 style="fill:#ea7637" />
              <path
                 id="path3358"
                 d="m 2036.1401,232.43864 c 6.4857,0.52903 12.9782,1.00308 19.4708,1.5115 -1.5322,18.2959 -3.3803,36.56433 -4.988,54.85336 -4.8986,-0.36413 -9.7972,-0.74887 -14.7027,-1.05804 -1.6557,-0.0618 -3.2153,-0.63895 -4.7474,-1.21606 1.5871,-18.03484 3.2772,-36.0628 4.9673,-54.09076 z"
                 inkscape:connector-curvature="0"
                 style="fill:#c8581b" />
              <path
                 id="path3360"
                 d="m 2077.1771,236.7091 c 4.7337,0.16921 9.4674,0.16075 14.2011,0.0761 0,4.48407 0,8.95968 0,13.44375 -4.7337,0.0677 -9.4674,0.0677 -14.2011,0.0423 0.028,-4.51791 0.028,-9.04429 0,-13.5622 z"
                 inkscape:connector-curvature="0"
                 style="fill:#595959" />
              <path
                 id="path3364"
                 d="m 2131.1098,292.23871 c -0.1992,-15.69202 -0.069,-31.39091 -0.069,-47.08293 27.7839,-0.0275 55.561,0.0893 83.3381,-0.055 0.4878,3.72377 0.2267,7.48188 0.2817,11.22626 0,13.90571 0,27.81829 -0.01,41.72401 -3.6551,0.0412 -7.3033,0.0344 -10.9583,0.0137 -0.076,-0.0962 -0.2268,-0.28856 -0.3023,-0.37788 -6.5132,-8.18953 -12.9164,-16.45463 -19.4089,-24.6579 -3.2085,4.06041 -6.3758,8.15518 -9.6118,12.19498 -6.3757,-7.97655 -12.6278,-16.04928 -18.9554,-24.06018 -8.0934,10.36745 -16.3791,20.59062 -24.3075,31.07487 z"
                 inkscape:connector-curvature="0"
                 style="fill:#67c8cf" />
              <path
                 id="path3368"
                 d="m 2196.9833,253.31096 c 4.1291,-1.55272 9.0621,2.04051 8.485,6.4994 0.076,4.93983 -6.4239,7.81853 -10.1957,4.79555 -4.1498,-2.72755 -3.0986,-9.92774 1.7107,-11.29495 z"
                 inkscape:connector-curvature="0"
                 style="fill:#f0ae67" />
              <path
                 id="path3370"
                 d="m 2131.1098,292.23871 c 7.9285,-10.48425 16.2142,-20.70742 24.3075,-31.07487 6.3277,8.0109 12.5797,16.08363 18.9555,24.06018 3.2291,4.16347 6.4032,8.37503 9.7491,12.44231 -1.5321,0.34352 -3.078,0.68704 -4.6444,0.63895 -10.7522,-0.17863 -21.5113,0 -32.2634,-0.0824 -5.4139,-0.0756 -10.8347,0.28855 -16.228,-0.21986 -0.103,-1.89623 -0.7282,-3.96422 0.1237,-5.76427 z"
                 inkscape:connector-curvature="0"
                 style="fill:#465163" />
              <path
                 id="path3372"
                 d="m 2183.9845,273.02904 c 6.4925,8.20327 12.8957,16.46837 19.4089,24.6579 -4.0261,0.83819 -8.1414,0.30917 -12.2087,0.46032 -2.336,-0.10992 -4.8505,0.37787 -7.0628,-0.48093 -3.3459,-4.06728 -6.52,-8.27884 -9.7491,-12.44231 3.2359,-4.0398 6.4032,-8.13457 9.6117,-12.19498 z"
                 inkscape:connector-curvature="0"
                 style="fill:#313c50" />
              <path
                 id="path3374"
                 d="m 1945.7598,282.03152 c 5.0979,-0.41346 10.2026,-0.42266 15.3073,-0.22971 0.2748,3.78554 0.268,7.59865 -0.01,11.38418 -5.0978,0.25727 -10.2094,0.2389 -15.3004,-0.21133 0,-3.64772 0,-7.29543 0,-10.94314 z"
                 inkscape:connector-curvature="0"
                 style="fill:#76103d" />
              <path
                 id="path3378"
                 d="m 2030.9461,286.44695 0.2267,0.0824 c 1.5321,0.57711 3.0917,1.15422 4.7474,1.21606 4.9055,0.30917 9.8041,0.69391 14.7027,1.05804 -0.1099,1.78631 -0.2954,3.57262 -0.6252,5.33144 -0.069,-0.50841 -0.1992,-1.52523 -0.2679,-2.02677 -6.3002,-0.61834 -12.621,-1.00995 -18.9418,-1.43592 0.076,-1.40843 0.1306,-2.81686 0.1581,-4.2253 z"
                 inkscape:connector-curvature="0"
                 style="fill:#ea7637" />
            </g>
            <path
               style="fill:#c8581b"
               inkscape:connector-curvature="0"
               d="m 2030.788,270.67225 c 6.3208,0.42597 12.6416,0.81758 18.9418,1.43592 0.069,0.50154 0.1992,1.51836 0.2679,2.02677 0.01,3.1123 -0.5496,6.19024 -0.742,9.29567 -6.5818,0 -13.1637,0 -19.7387,-0.007 0.6046,-4.23218 0.7352,-8.51244 1.271,-12.75149 z"
               id="path3380" />
          </g>
        </g>
      </g>
    </g>
  </g>
</svg>
