<svg xmlns="http://www.w3.org/2000/svg" width="1858.667" height="959.294" viewBox="0 0 1742.5 899.3379"><path d="M741.794 476.16c2.588-.47 5.246-.172 7.865-.235 118.66.015 237.33-.016 355.99.015 2.784-.384 4.501 2.47 4.132 4.956-.03 70.096.04 140.183-.03 210.28.266 2.689-2.4 4.476-4.87 4.131-46.707-.008-93.414 0-140.129-.008H744.06c-1.544.118-3.105-.462-4.108-1.662-.98-2.564-.565-5.379-.643-8.06.031-68.23-.008-136.467.023-204.697-.015-1.85.424-4.109 2.462-4.72z" fill="#161916"/><path d="M753.853 490.477c113.824-.023 227.655 0 341.478-.008-.235 4.07-.133 8.147-.133 12.224-109.495.047-218.983.015-328.47.031-4.305 0-8.601-.008-12.898-.008.023-4.077.008-8.154.023-12.24z" fill="#f6f7f5"/><path d="M1095.331 490.47c.588 4.367.47 8.804.016 13.18-18.606.078-37.212-.048-55.818.062 8.828 9.284 18.112 18.136 27.09 27.278 9.557 9.503 19.005 19.116 28.618 28.564.031 40.45.023 80.892 0 121.342-50.635.133-101.27.008-151.906.07-10.835-.18-21.68.377-32.5-.219-3.355-3.826-7.252-7.15-10.412-11.15 6.877.048 13.753 0 20.63.024-.009-1.584-.016-3.167-.009-4.743-7.3.008-14.591-.032-21.883.023-.016 1.043-.047 2.07-.04 3.129-4.077-3.043-9.173-6.524-8.86-12.279a72.55 72.55 0 0 1-.603 4.297l-.565.039c.032-1.592.063-3.176.102-4.751-1.254-.016-2.5-.016-3.748-.016-.91-1.2-1.819-2.384-2.728-3.583 5.63-.737 11.518.995 16.967-.91a226.352 226.352 0 0 1-.494-5.073c-7.676.016-15.352-.086-23.02.04-2.823-2.055-4.893-4.964-5.08-8.531a164.265 164.265 0 0 0-3.67 3.795c.023-1.67.031-3.333.039-4.987-5.253-3.889-10.075-8.429-13.925-13.721l1.364-.126c.063-1.552.078-3.097.102-4.641a700.062 700.062 0 0 0-7.096.008 640.305 640.305 0 0 1-4.571-4.69c.031-1.606.063-3.206.102-4.798-1.662.016-3.325.047-4.987.055-3.152-3.348-6.5-6.492-9.918-9.565a9.51 9.51 0 0 0-.267-.314c-6.743-7.574-14.097-14.591-21.39-21.64l.095-2.078c.07-1.639.125-3.27.18-4.9a442.842 442.842 0 0 0-7.903 0 861.836 861.836 0 0 0-2.368-3.92c3.364.023 6.735.109 10.107-.095.007-.157.03-.462.047-.62.062-1.67.07-3.332.094-4.994-5.63-.031-11.252-.008-16.881-.015a145.618 145.618 0 0 0-4.736-4.854c7.198.118 14.395.032 21.585.024a929.584 929.584 0 0 1-.015-4.713c-7.331-.015-14.663.008-21.994-.015.016 1.458.024 2.917.094 4.383-5.99-6.17-12.121-12.2-18.213-18.269.133-11.283.14-22.566-.236-33.848 109.488-.016 218.975.015 328.47-.032 0-4.077-.102-8.154.134-12.223z" fill="#5a454e"/><path d="M758.62 497.91c-2.289-2.43 1.71-6.06 4.203-4.226 2.125.572 1.16 3.136 1.27 4.728-1.81.517-4.163 1.411-5.472-.502z" fill="#e175b2"/><path d="M768.147 494.178c.886-.353 1.764-.698 2.65-1.05.933.32 1.874.65 2.815.98a376.3 376.3 0 0 0-.063 4.131c-.964.408-1.913.832-2.87 1.255-.917-.58-1.834-1.153-2.744-1.725l.212-3.591z" fill="#f4ab94"/><path d="M778.81 493.653c2.125-1.427 5.128.69 4.948 3.073-.76 1.78-3.082 3.301-4.916 2.07-2.015-.839-2.157-4.36-.032-5.143z" fill="#c0c798"/><path d="M753.83 502.716c4.297 0 8.593.008 12.898.008.376 11.283.368 22.566.235 33.849-4.14-4.344-8.5-8.468-12.796-12.655-.69-7.018-.031-14.145-.337-21.201z" fill="#473941"/><path d="M1039.529 503.712c18.606-.11 37.212.016 55.818-.063-.251 18.63-.024 37.267-.11 55.905-9.613-9.448-19.06-19.061-28.619-28.564-8.977-9.142-18.26-17.994-27.09-27.278z" fill="#47303a"/><path d="M773.588 512.125c10.695-.023 21.398-.015 32.092-.008 0 1.6 0 3.2.008 4.799-10.694-.07-21.389-.008-32.084-.032a945.155 945.155 0 0 1-.015-4.759z" fill="#a8cfb2"/><path d="M812.196 512.102c9.597.023 19.202-.016 28.799.039a976.178 976.178 0 0 0-.032 4.783c-9.612-.165-19.233.141-28.838-.165l.07-4.657z" fill="#a8cfb1"/><path d="M773.596 521.816c8.413.07 16.826-.039 25.232-.196-.032 1.663-.047 3.317-.079 4.98-8.374-.056-16.755.007-25.137-.032-.008-1.584-.008-3.168-.016-4.752z" fill="#a9cfb0"/><path d="M754.167 523.918c4.297 4.187 8.656 8.31 12.796 12.655-.384 15.673-.384 31.362.055 47.036-.565 32.398-.235 64.819-.243 97.224-4.203.212-8.405.212-12.6-.094-.455-12.231-.055-24.478-.204-36.718.016-25.615 0-51.223.016-76.838.125-14.42-.267-28.854.18-43.265z" fill="#32232b"/><path d="M773.573 531.382c8.42-.086 16.834-.023 25.255-.04 0 1.585.008 3.176.023 4.768-8.413-.024-16.826.016-25.24-.008-.015-1.576-.03-3.152-.038-4.72z" fill="#a8cfb0"/><path d="M766.963 536.573c6.092 6.068 12.224 12.098 18.214 18.268.086.079.25.243.33.322a145.618 145.618 0 0 1 4.735 4.853c-1.694-.008-3.38.008-5.065.016-.008 1.56-.008 3.12-.008 4.68 7.292-.172 14.56.589 21.86.314-.016.157-.04.463-.047.62-3.372.204-6.743.117-10.107.094a861.836 861.836 0 0 1 2.368 3.92c-4.697.032-9.393.016-14.09-.015 0 1.615.008 3.246.008 4.869 7.269-.032 14.537-.047 21.805.047l-.094 2.077c7.292 7.05 14.647 14.067 21.39 21.64-6.1.009-12.2-.015-18.3.009-1.083.117-2.431-.188-3.184.8-.102 1.317-.078 2.65-.063 3.975 7.277.117 14.56-.016 21.845.023 0-1.505 0-3.003-.032-4.493 3.419 3.074 6.767 6.218 9.919 9.566-4.454 0-8.915-.439-13.369-.063.04 1.568.079 3.144.126 4.72 6.037.04 12.082-.039 18.127.087a640.305 640.305 0 0 0 4.571 4.688c-3.841.024-7.683.016-11.517.016.007 1.568.023 3.152.039 4.728 5.7-.094 11.4.086 17.108.016 3.85 5.292 8.672 9.832 13.925 13.72-4.979-.062-9.965-.007-14.944-.046.063 1.701.133 3.418.204 5.128 4.892-.55 9.8-.22 14.701-.094 1.2-1.294 2.43-2.54 3.67-3.795.188 3.567 2.258 6.476 5.08 8.53-.517.008-1.544.032-2.062.04 0 1.56.008 3.12.016 4.68 8.523.204 17.053-.156 25.56.314-5.449 1.905-11.337.173-16.967.91.91 1.2 1.82 2.383 2.729 3.583a899.306 899.306 0 0 0-11.307.031c-.015 1.576-.015 3.16-.023 4.744 4.994 0 9.981.086 14.976-.008l.564-.04a71.79 71.79 0 0 0 .604-4.296c-.314 5.755 4.783 9.236 8.86 12.278-.008.392-.016 1.169-.024 1.553.338.008.996.016 1.325.016 3.16 3.998 7.057 7.323 10.413 11.149-3.544.243-7.096.306-10.64.118-10.97-.189-21.946.423-32.915-.11-15.164.4-30.344-.337-45.508.188-9.667-.737-19.335.408-29.002-.141-8.664-.345-17.336.533-25.992.031.008-32.405-.322-64.827.243-97.224-.44-15.674-.44-31.363-.055-47.037z" fill="#47303a"/><path d="M785.138 540.9c9.526.024 19.06.009 28.595.009a483.735 483.735 0 0 0-.024 4.775c-9.526-.032-19.053-.024-28.58-.016 0-1.592 0-3.176.009-4.767zm73.749 0c8.421.016 16.85.009 25.279.009a325.387 325.387 0 0 0-.008 4.767c-8.421-.016-16.842-.016-25.255.008-.008-1.6-.016-3.191-.016-4.783z" fill="#aacfb2"/><path d="M820.405 540.932c10.695.063 21.397-.047 32.092.055 0 1.537.008 3.073.024 4.618-10.71.125-21.429-.008-32.14.063.009-1.576.009-3.16.024-4.736z" fill="#fdfefd"/><path d="M785.083 550.458c7.33.024 14.662 0 21.993.016 0 1.568.008 3.136.016 4.712-7.19.008-14.388.094-21.586-.023a11.274 11.274 0 0 0-.33-.322c-.07-1.466-.077-2.924-.093-4.383z" fill="#a9cfb2"/><path d="M813.521 555.131c.024-1.56.047-3.12.086-4.673 6.053.008 12.114-.015 18.175-.062l.588 4.641c-6.28.228-12.569.134-18.849.094z" fill="#e25484"/><path d="M838.533 555.186c0-1.568 0-3.128.008-4.688 14.097.008 28.195 0 42.3.008-.008 1.552 0 3.105.008 4.665-14.105.023-28.21 0-42.316.015z" fill="#fbb48c"/><path d="M887.349 550.388c10.655.149 21.319-.008 31.974.07.024 1.537.047 3.074.079 4.61-10.695.118-21.382.103-32.077.032l.024-4.712z" fill="#e55283"/><path d="M925.847 550.505c36.726 0 73.443-.047 110.17.024.007 1.537.023 3.074.046 4.626-36.757.047-73.522.047-110.279-.008.016-1.552.04-3.097.063-4.642z" fill="#fbb58b"/><path d="M1042.571 555.163c.016-1.568.04-3.129.063-4.689 2.783-.016 5.575-.016 8.366-.008.008 1.56.016 3.129.04 4.697a192.83 192.83 0 0 1-8.469 0z" fill="#acceb4"/><path d="M785.177 560.032c1.686-.008 3.371-.024 5.065-.016 5.63.008 11.251-.015 16.881.016-.023 1.662-.031 3.324-.094 4.994-7.3.275-14.568-.486-21.86-.313 0-1.56 0-3.12.008-4.681z" fill="#a9ccb2"/><path d="M813.552 560.18c6.234-.219 12.546-.642 18.74.205-.032 1.356-.063 2.72-.087 4.085-6.194.886-12.49.666-18.708.274.016-1.529.04-3.042.055-4.563z" fill="#e35586"/><path d="M838.51 560.204c27.677-.039 55.347-.047 83.017.024-.126 1.56.125 3.215-.47 4.696-27.49-.392-54.995-.125-82.485-.14-.031-1.53-.047-3.059-.063-4.58z" fill="#fbb68e"/><path d="M928.034 560.251c4.94-.595 9.919-.196 14.882-.329.078 1.568.149 3.136.235 4.712-5.01.675-10.075.243-15.109.432-.008-1.608-.008-3.215-.008-4.815z" fill="#e45584"/><path d="M949.831 560.04c17.368.313 34.735.063 52.11.125a198.655 198.655 0 0 0 0 4.83c-13.259-.564-26.541-.133-39.815-.25-4.085.023-8.178-.118-12.263.203a342.337 342.337 0 0 1-.032-4.908z" fill="#fbb78d"/><path d="M1008.676 565.09c.055-1.741.094-3.474.149-5.207 6.03.172 12.074-.141 18.104.321-.008 1.443 0 2.894.008 4.344-6.069.659-12.177.228-18.261.541z" fill="#e35482"/><path d="M1033.75 560.197c6.116-.228 12.232-.055 18.348-.032-.024 1.521-.032 3.05-.04 4.58-6.092-.009-12.192-.064-18.284.007a443.6 443.6 0 0 1-.024-4.555z" fill="#fcb68d"/><path d="M1058.77 559.993c2.736-.008 5.48.008 8.225.133a476.066 476.066 0 0 0-.07 4.76c-2.706.054-5.41.07-8.108.07a261.674 261.674 0 0 1-.047-4.963z" fill="#abceb1"/><path d="M785.153 569.645c4.697.031 9.394.047 14.09.015 2.635-.023 5.261-.023 7.904 0-.055 1.631-.11 3.262-.18 4.9-7.27-.093-14.537-.078-21.806-.046 0-1.623-.008-3.254-.008-4.87z" fill="#a0cbaa"/><path d="M813.498 569.723c6.24.031 12.482-.149 18.715.11.008 1.56.016 3.128.04 4.696-6.195.032-12.38-.031-18.575-.047-.063-1.591-.126-3.175-.18-4.759z" fill="#e35483"/><path d="M838.517 569.645c29.81 0 59.62.07 89.439-.04 2.352.024 4.712.079 7.08.071a490.745 490.745 0 0 0-.031 4.861c-32.147-.18-64.302-.063-96.456-.055-.016-1.615-.024-3.23-.032-4.837z" fill="#fcb58c"/><path d="M941.348 569.927c5.183-.345 10.373-.22 15.564-.102-.29 1.482.729 3.716-.965 4.54-4.642.384-9.315-.032-13.964.22-.188-1.561-.4-3.114-.635-4.658z" fill="#e45483"/><path d="M963.223 569.52c11.236.29 22.48.093 33.715.101 6.257.094 12.506 0 18.755.063a505.475 505.475 0 0 0-.047 4.783c-17.461-.04-34.914-.024-52.376-.008-.015-1.655-.023-3.301-.047-4.94z" fill="#fcb58b"/><path d="M1022.154 569.825c6.186-.18 12.38-.126 18.567-.04.023 1.561.039 3.13.07 4.705-6.186.024-12.38.031-18.567.016a470.98 470.98 0 0 1-.07-4.681z" fill="#e45482"/><path d="M1047.26 569.684c6.163-.024 12.333-.047 18.504.031-.016 1.576-.016 3.152-.016 4.744-6.147 0-12.294-.016-18.433.015-.032-1.6-.047-3.199-.055-4.79z" fill="#fcb58d"/><path d="M1072.272 569.684c2.79-.008 5.59-.008 8.39.015a483.336 483.336 0 0 0-.024 4.768c-2.784.023-5.56.023-8.335.039a484.638 484.638 0 0 1-.031-4.822z" fill="#acceb5"/><path d="M773.588 579.226c8.421-.07 16.834-.008 25.255-.04-.015 1.616-.023 3.231-.031 4.846-8.405-.015-16.81.024-25.216-.008-.008-1.607-.008-3.207-.008-4.798z" fill="#9dc9a7"/><path d="M773.596 588.776c8.405-.032 16.819.008 25.224-.016 0 1.608 0 3.215.008 4.822-8.421-.015-16.834.063-25.247-.023 0-1.6.008-3.191.015-4.783z" fill="#9fc9a9"/><path d="M870.217 598.373c2.791-.04 5.583-.04 8.374-.04.016 1.592.023 3.184.047 4.783-2.823 0-5.638-.015-8.452-.054.008-1.569.015-3.129.031-4.69z" fill="#accdb4"/><path d="M785.13 603.1c.016-1.599.023-3.19.055-4.782 4.994.031 9.997.008 14.999.008v4.783c-5.018.015-10.036-.016-15.054-.008z" fill="#a0c9a9"/><path d="M806.778 599.086c.753-.988 2.101-.682 3.183-.8 6.1-.023 12.2 0 18.3-.007.071.078.204.235.267.313.032 1.49.032 2.988.032 4.493-7.284-.04-14.568.094-21.845-.024-.015-1.325-.039-2.658.063-3.975z" fill="#de4276"/><path d="M835.334 598.389c9.503.023 19.006-.024 28.509.023a464.422 464.422 0 0 0-.024 4.673c-9.51-.008-19.014-.04-28.524-.008.008-1.568.023-3.128.039-4.689z" fill="#fbb690"/><path d="M796.436 608.095c7.323.079 14.647-.243 21.97-.204-.04 1.647-.063 3.294-.102 4.94-7.268-.078-14.545-.016-21.813-.031-.023-1.568-.04-3.137-.055-4.705z" fill="#a0caaa"/><path d="M825.078 608.095c4.454-.376 8.915.063 13.369.063 1.662-.008 3.324-.04 4.986-.055-.039 1.592-.07 3.191-.102 4.799-6.045-.126-12.09-.047-18.127-.087a954.746 954.746 0 0 1-.126-4.72z" fill="#e24379"/><path d="M850.137 608.08c11.777.031 23.561-.04 35.338.023 0 1.545.008 3.082.016 4.634-11.77.008-23.546.031-35.323 0a931.77 931.77 0 0 1-.031-4.657z" fill="#fcb58a"/><path d="M891.983 607.82c2.815-.023 5.63.056 8.444.267-.015 1.56-.031 3.121-.031 4.69-2.807.015-5.606.015-8.405.023a351.67 351.67 0 0 1-.008-4.98z" fill="#a9d0af"/><path d="M807.986 617.543c7.315.079 14.638-.015 21.961.055-.023 1.576-.039 3.16-.047 4.752-7.3.008-14.591-.008-21.89 0-.009-1.608-.024-3.215-.024-4.807z" fill="#9dcaac"/><path d="M836.385 617.606c3.834 0 7.676.008 11.517-.016a762.62 762.62 0 0 1 7.096-.008c-.023 1.545-.039 3.09-.102 4.642l-1.364.126c-5.708.07-11.408-.11-17.108-.016-.016-1.576-.032-3.16-.04-4.728z" fill="#e14479"/><path d="M861.428 617.598c11.8-.055 23.592 0 35.393-.031a470.25 470.25 0 0 0 0 4.751c-11.793.024-23.585.055-35.378-.023a929.51 929.51 0 0 1-.015-4.697z" fill="#fcb488"/><path d="M903.485 617.559c2.737.008 5.48.008 8.225 0a954.592 954.592 0 0 0-.016 4.79c-2.728 0-5.457-.007-8.185-.007-.016-1.6-.024-3.2-.024-4.783z" fill="#accfb4"/><path d="M918.351 617.583c15.235 0 30.469-.008 45.703 0-.015 1.576-.03 3.16-.03 4.751-15.212.024-30.423 0-45.626.008-.023-1.592-.031-3.175-.047-4.76z" fill="#fefefd"/><path d="M970.39 617.567c2.799-.008 5.606-.008 8.405.016 0 1.575.008 3.16.016 4.743-2.8.032-5.59.024-8.382.024-.016-1.6-.032-3.2-.04-4.783z" fill="#aacfb0"/><path d="M807.954 627.125c3.952-.016 7.896-.032 11.847-.008-.015 1.591-.015 3.183-.023 4.783-3.928.023-7.856.023-11.785.047-.015-1.616-.031-3.215-.039-4.823z" fill="#9dcaa4"/><path d="M819.26 636.33c3.929-.353 7.88-.267 11.824-.243-.015 1.583.016 3.175-.117 4.759-3.92.392-7.927.423-11.808-.22.023-1.442.062-2.87.101-4.296z" fill="#a1cba7"/><path d="M837.788 636.079c2.713.008 5.434.008 8.154.031 0 1.639-.008 3.285-.015 4.94h-8.115c-.024-1.662-.024-3.317-.024-4.971z" fill="#a1cba9"/><path d="M852.513 636.024c4.979.04 9.965-.016 14.944.047-.008 1.654-.015 3.316-.039 4.987-4.9-.126-9.809-.455-14.701.094-.07-1.71-.141-3.427-.204-5.128z" fill="#e24072"/><path d="M874.122 636.322c6.186-.11 12.372-.063 18.559-.047a923.483 923.483 0 0 0-.016 4.704c-6.202-.125-12.427.392-18.606-.259.016-1.474.04-2.932.063-4.398z" fill="#fbb68a"/><path d="M899.157 636.353c7.308-.345 14.607-.11 21.915-.047a934.37 934.37 0 0 0-.079 4.736c-7.3-.204-14.646.463-21.907-.376l.071-4.313z" fill="#fefdfd"/><path d="M927.776 636.087c2.705 0 5.402 0 8.115-.008v4.994c-2.705-.016-5.41-.023-8.115-.016a515.547 515.547 0 0 1 0-4.97z" fill="#a9cfb3"/><path d="M942.336 636.243c3.904-.22 7.817-.172 11.73-.149a1041.27 1041.27 0 0 0-.04 4.98c-3.928-.04-7.872.156-11.784-.314.023-1.514.062-3.019.094-4.517z" fill="#a9cfb2"/><path d="M819.245 645.809c3.936-.086 7.864-.07 11.8-.07l.047 4.837c-3.96.016-7.911.024-11.863-.04 0-1.583.008-3.159.016-4.727z" fill="#9ecaa7"/><path d="M837.757 645.77c2.744-.024 5.48-.032 8.225-.024a992.5 992.5 0 0 0-.063 4.838c-2.713-.008-5.418-.008-8.123-.008-.016-1.607-.024-3.207-.04-4.806z" fill="#a2c9ad"/><path d="M852.56 645.754c4.987.063 9.981.016 14.976.032.015 1.607.03 3.206.054 4.822-4.994-.016-9.996-.032-14.99.008a503.875 503.875 0 0 1-.04-4.862z" fill="#df3e74"/><path d="M874.106 645.833c.518-.008 1.545-.032 2.062-.04 7.668-.125 15.344-.023 23.02-.039.15 1.686.306 3.38.494 5.073-8.507-.47-17.037-.11-25.56-.314-.008-1.56-.016-3.12-.016-4.68z" fill="#fbb488"/><path d="M905.947 645.778c9.527.008 19.053.008 28.572 0-.008 1.6-.016 3.19-.016 4.798-9.51-.031-19.022-.031-28.532.008l-.024-4.806z" fill="#fefefc"/><path d="M941.215 645.754c2.736 0 5.464 0 8.2-.015-.007 1.607-.007 3.23-.007 4.845-2.72 0-5.434-.008-8.147 0l-.047-4.83z" fill="#adcfb0"/><path d="M956.018 645.746c2.744.016 5.488.008 8.232-.008a970.053 970.053 0 0 0-.03 4.838c-2.722-.016-5.442-.008-8.163 0a1121.63 1121.63 0 0 1-.04-4.83z" fill="#acceb5"/><path d="M819.221 655.359c3.952-.102 7.911-.078 11.871-.086a986.143 986.143 0 0 0-.016 4.869c-3.951.031-7.903.055-11.847-.063-.008-1.584-.008-3.152-.008-4.72z" fill="#9bcaa4"/><path d="M837.764 655.312c2.721-.008 5.442-.008 8.17-.016a490.86 490.86 0 0 0 0 4.854c-2.72-.008-5.433-.024-8.138-.024-.016-1.607-.024-3.214-.032-4.814z" fill="#a2caaa"/><path d="M852.607 655.312c4.979.04 9.965-.008 14.944.031l.07 4.775c-5.01.047-10.027.04-15.038.04l.024-4.846z" fill="#df4277"/><path d="M874.137 655.351c3.764-.04 7.535-.04 11.307-.031 1.246 0 2.493 0 3.748.015-.04 1.576-.071 3.16-.102 4.752-4.995.094-9.982.008-14.976.008.008-1.584.008-3.168.023-4.744z" fill="#fbae80"/><path d="M895.786 655.312c6.107 0 12.208.016 18.308 0 0 1.607 0 3.222.008 4.838-6.1-.032-12.208 0-18.316-.016v-4.822z" fill="#fcfcfb"/><path d="M920.876 655.312c2.713-.008 5.426-.008 8.138 0a486.688 486.688 0 0 0 0 4.83 696.775 696.775 0 0 0-8.13.015c0-1.623-.008-3.238-.008-4.845z" fill="#aed0b4"/><path d="M935.765 655.328c3.897-.024 7.794-.04 11.69.015-.023 1.576-.03 3.168-.039 4.76-3.88.03-7.754.015-11.627.023l-.024-4.798z" fill="#abcfb4"/><path d="M837.78 664.846c2.729.016 5.45.016 8.178.024a480.386 480.386 0 0 0 0 4.798c-2.736.008-5.465 0-8.186-.008 0-1.607 0-3.214.008-4.814z" fill="#9ecaa8"/><path d="M899.118 668.03c-.008-1.059.023-2.086.04-3.129 7.291-.055 14.583-.016 21.882-.023-.008 1.576 0 3.16.008 4.743-6.876-.023-13.752.024-20.628-.023-.33 0-.988-.008-1.325-.016.008-.384.015-1.16.023-1.552z" fill="#fcfefc"/><path d="M942.336 664.885c3.912-.031 7.825-.015 11.737 0 0 1.6 0 3.192.008 4.799-3.936-.031-7.872-.024-11.8-.031.016-1.592.04-3.184.055-4.768z" fill="#abceb2"/><path d="M819.237 664.901c3.952-.047 7.903-.04 11.855-.04-.023 1.593-.031 3.192-.047 4.8-3.944.007-7.88.054-11.824-.071.008-1.568.008-3.136.016-4.689z" fill="#9dcba9"/><path d="M852.576 669.653l.023-4.838c4.995.063 9.981.008 14.976.086.015 1.568.039 3.136.055 4.712-5.018.079-10.036.055-15.054.04z" fill="#e14073"/><path d="M874.145 664.917c6.179-.04 12.357-.016 18.536-.008 0 1.576 0 3.152.023 4.736-6.21-.032-12.42.047-18.63-.047l.071-4.681z" fill="#faad7d"/><path d="M927.815 665.074c2.658-.487 5.402-.134 8.1-.189a951.47 951.47 0 0 0-.016 4.783c-2.83 0-5.661-.008-8.492-.078.118-1.506-.141-3.09.408-4.516z" fill="#aacdb6"/><path d="M808.017 674.412c3.912.008 7.825-.016 11.745.008.008 1.592.016 3.183.032 4.79-3.944.016-7.88 0-11.824.016l.047-4.814z" fill="#a1c9a6"/><path d="M884.722 695.3h80.03v.51c-.494 9.588.016 19.185-.321 28.774-26.564.032-53.137.008-79.709.016.016-9.77.016-19.531 0-29.3z" fill="#c2c4c3"/><path d="M964.752 695.81c.557 9.58-.023 19.185.369 28.767 5.684.086 11.384-.079 17.077.14.047 1.804.094 3.607.149 5.426-39.063.008-78.133.008-117.195 0l.165-5.378c6.468-.322 12.937-.102 19.405-.165 26.572-.008 53.145.016 79.709-.016.337-9.589-.173-19.186.321-28.775z" fill="#e0e2e1"/><path d="M499.784 730.128c121.79.008 243.579-.008 365.368.015 39.062.008 78.132.008 117.195 0 122.315-.023 244.621-.008 366.928-.015.079 8.5.04 16.99.024 25.49-6.116 0-12.223-.016-18.34.016-271.17.03-542.34.015-813.51 0h-.502c-5.731-.032-11.455-.016-17.186-.016-.016-8.5-.055-16.99.023-25.49z" fill="#b08260"/><path d="M516.947 754.38h.502c.015 2.547.047 5.103.094 7.66 18.026.415 36.067.039 54.1.172 159.966 0 319.932-.008 479.898 0 93.132-.055 186.271.086 279.41-.07-.023 2.72-.03 5.449-.03 8.177-8.304 0-16.615-.008-24.918 0-9.072 0-18.144 0-27.215.008-235.966-.015-471.932-.015-707.897 0-9.072-.015-18.151-.008-27.23-.008-8.876-.008-17.76 0-26.636-.008.016-5.308-.094-10.624-.078-15.932z" fill="#816852"/><path d="M517.449 755.634c271.17.015 542.34.031 813.51 0 .008 2.58 0 5.167-.008 7.762-93.14.157-186.279.015-279.41.07-159.966-.008-319.932 0-479.898 0-18.033-.133-36.075.243-54.1-.172a625.785 625.785 0 0 1-.094-7.66z" fill="#6c5a47"/><path d="M1278.788 770.327c9.071-.008 18.143-.008 27.215-.008 11.745 59.668 23.302 119.382 35.212 179.019h-21.444c-3.325-16.262-7.402-32.367-10.993-48.566-9.997-43.484-20.048-86.953-29.99-130.445zm-735.128-.007c9.08 0 18.16-.009 27.23.007-13.728 59.668-27.434 119.351-41.202 179.01h-21.02c3.622-20.118 7.84-40.136 11.674-60.223 7.786-39.596 15.54-79.2 23.318-118.795z" fill="#a78869"/><path d="M767.507 290.117c15.843.007 31.693.014 47.543 0 6.575.007 13.157.007 19.739.007h8.458c6.85.007 13.7.007 20.556 0 4.727 0 9.46.007 14.2 0 11.007-.007 22.014 0 33.027-.007 31.556.007 63.105.007 94.66 0 9.173.02 18.351-.013 27.523.02 0 2.474 0 4.948-.02 7.42-14.923.365-29.853.063-44.782.159-79.937.007-159.874.007-239.819.007-16.337-.13-32.675.234-49.013-.179a523.37 523.37 0 0 1-.021-7.413c10.58-.02 21.16 0 31.741-.007 5.263 0 10.519.007 15.782 0 1.855 0 3.717-.007 5.578-.007 4.947.007 9.894.007 14.847 0z" fill="#997b5f"/><path d="M699.58 296.445c16.337.412 32.675.048 49.013.179 79.944 0 159.881 0 239.818-.007 14.93-.097 29.86.206 44.782-.158-.014 2.555-.028 5.111-.09 7.667-111.162-.007-222.326.034-333.482-.02 0-2.556.01-5.112-.041-7.661z" fill="#af8c6c"/><path d="M731.3 191.3c5.249-.007 10.505.007 15.754-.007.082 32.944 0 65.887.027 98.831-5.263.007-10.519 0-15.781 0-.014-3.916-.01-7.825-.01-11.735 5.09.337 10.202.35 15.3.158.275-2.83.282-5.681.01-8.512-5.105-.144-10.21-.137-15.307.172v-56.812c5.098-.027 10.195.069 15.293-.068a39.606 39.606 0 0 0-.01-8.533c-5.098-.117-10.195-.09-15.286.164 0-4.548-.01-9.103.01-13.658z" fill="#8b1046"/><path d="M863.68 192.626l.473.062c-.048 3.387.117 6.788-.123 10.168-.557 7.228-.124 14.483-.22 21.724.028 3.67.028 7.345 0 11.014a28640.72 28640.72 0 0 0-.028 54.05c-.66-6.081.15-12.196-.536-18.27-6.665-.24-13.336.008-20-.13V213.45c6.692-.075 13.384.138 20.068-.11.358-6.897.385-13.81.365-20.714z" fill="#0b4616"/><path d="M747.301 198.7c4.885-.186 9.75-.653 14.634-.811 1.759 30.752 3.642 61.49 5.572 92.228-4.953.007-9.9.007-14.847 0-1.078-20.748-2.542-41.463-3.676-62.204-.583-9.736-1.374-19.464-1.683-29.213z" fill="#1f5b92"/><path d="M911.03 290.117c.021-21.257-.034-42.52.027-63.785 31.542.014 63.091-.007 94.633.014.014 21.257.014 42.514 0 63.771-31.556.007-63.105.007-94.66 0z" fill="#414c5f"/><path d="M862.71 235.594c4.734.02 9.468.02 14.202-.035-.01 18.186.01 36.38-.01 54.565-4.741.007-9.475 0-14.202 0l-.02-.48c-.015-18.015.01-36.036.027-54.05z" fill="#494949"/><path d="M843.247 270.263c6.664.144 13.335-.116 20 .137.686 6.39-.124 12.822.535 19.218l.021.506c-6.856.007-13.706.007-20.556 0-.01-6.62 0-13.24 0-19.861zm0-77.643c6.808 0 13.617-.008 20.432.006.021 7.425-.01 14.858-.364 22.275-6.685.266-13.377.037-20.068.118-.041-7.469-.014-14.93 0-22.4z" fill="#0c5219"/><path d="M821.935 215.807c.68-6.403 1.099-12.834 1.868-19.223 6.452.666 12.917 1.34 19.395 1.73-.446 6.315-1.195 12.594-1.614 18.908-6.568-.24-13.109-.865-19.65-1.415z" fill="#c8581b"/><path d="M862.93 202.856c4.658.069 9.317.02 13.975.035.01 7.255 0 14.503.01 21.751-4.734.069-9.468.076-14.201-.061.096-7.242-.337-14.497.22-21.725z" fill="#494949"/><path d="M731.293 204.05c5.091-.334 10.189-.37 15.287-.217.309 3.736.309 7.5.01 11.236-5.098.181-10.196.055-15.294.09V204.05z" fill="#76103d"/><path d="M748.476 210.998c4.61-.282 9.227-.577 13.85-.687.166 1.353.337 2.7.51 4.053-4.769.44-9.55.653-14.332.907-.22-1.415-.172-2.851-.027-4.273z" fill="#18456e"/><path d="M821.935 215.807c6.54.55 13.08 1.175 19.649 1.415-.138 1.14-.296 2.281-.44 3.422-6.492-.509-12.985-.983-19.47-1.512.081-1.106.171-2.212.26-3.325z" fill="#ea7637"/><path d="M821.673 219.132c6.486.53 12.979 1.003 19.471 1.512-1.532 18.296-3.38 36.564-4.988 54.853-4.898-.364-9.797-.749-14.702-1.058-1.656-.062-3.216-.639-4.748-1.216 1.587-18.035 3.277-36.063 4.967-54.09z" fill="#c8581b"/><path d="M862.71 223.403c4.734.169 9.468.16 14.202.076v13.444c-4.734.067-9.468.067-14.202.042.028-4.518.028-9.044 0-13.562z" fill="#595959"/><path d="M916.643 278.932c-.2-15.692-.069-31.39-.069-47.083 27.784-.027 55.561.09 83.338-.055.488 3.724.227 7.482.282 11.227 0 13.905 0 27.818-.01 41.724-3.655.04-7.303.034-10.958.013-.076-.096-.227-.288-.303-.378-6.513-8.19-12.916-16.454-19.409-24.657-3.208 4.06-6.375 8.155-9.611 12.195-6.376-7.977-12.628-16.05-18.956-24.06-8.093 10.367-16.379 20.59-24.307 31.074z" fill="#67c8cf"/><path d="M982.517 240.005c4.129-1.553 9.062 2.04 8.485 6.499.076 4.94-6.424 7.818-10.196 4.795-4.15-2.727-3.099-9.927 1.71-11.294z" fill="#f0ae67"/><path d="M916.643 278.932c7.929-10.484 16.214-20.707 24.308-31.075 6.327 8.011 12.58 16.084 18.955 24.06 3.23 4.164 6.403 8.376 9.75 12.443-1.533.343-3.079.687-4.645.639-10.752-.179-21.511 0-32.264-.083-5.413-.075-10.834.289-16.228-.22-.103-1.896-.728-3.964.124-5.764z" fill="#465163"/><path d="M969.518 259.723c6.492 8.203 12.896 16.468 19.409 24.658-4.026.838-8.142.309-12.209.46-2.336-.11-4.85.378-7.063-.481-3.346-4.067-6.52-8.279-9.749-12.442 3.236-4.04 6.403-8.135 9.612-12.195z" fill="#313c50"/><path d="M731.293 268.725c5.098-.413 10.203-.423 15.307-.23a78.251 78.251 0 0 1-.01 11.385c-5.097.257-10.209.238-15.3-.212v-10.943z" fill="#76103d"/><path d="M816.48 273.14l.226.083c1.532.577 3.092 1.154 4.748 1.216 4.905.31 9.804.694 14.702 1.058-.11 1.786-.295 3.573-.625 5.331-.069-.508-.2-1.525-.268-2.026-6.3-.619-12.62-1.01-18.942-1.436.076-1.409.13-2.817.158-4.226z" fill="#ea7637"/><path d="M816.321 277.366c6.321.426 12.642.817 18.942 1.436.07.501.2 1.518.268 2.027.01 3.112-.55 6.19-.742 9.295-6.582 0-13.164 0-19.739-.007.605-4.232.736-8.512 1.271-12.751z" fill="#c8581b"/></svg>