<svg xmlns="http://www.w3.org/2000/svg" width="1858.667" height="959.294" viewBox="0 0 1742.5 899.3379"><path d="M1241.725 604.606c4.887.05 9.536-.06 14.788-.03.037 37.674-.063 76.117-.126 113.792-65.137-.3-130.275-.037-195.425-.125.1-37.625-.347-76.086-.272-113.71 62.24.144 127.305.052 181.035.073z" fill="#202020"/><path d="M1069.354 612.874c19.285.153 39.208.557 58.696.332 32.087-.138 64.175.225 96.262-.225 7.913.062 15.85-.35 23.763.375.612 19.225-.113 38.475.125 57.712-.175 13.65.35 27.325-.363 40.963-27.037.525-54.087.05-81.125.15-32.462.137-64.925.5-97.375 0 .662-35.56.275-67.693.017-99.307z" fill="#141515"/><path d="M1060.962 718.243c65.15.088 130.288-.175 195.425.125 2.494 1.863 5.329 3.525 8.175 5.613-67.587.412-135.187 0-202.787.2-.35 1.987-.713 3.987-1.038 6-.162-3.988-.087-7.975.225-11.938z" fill="#e0e2e1"/><path d="M1060.77 724.024c67.6-.2 136.284.37 203.871-.043-.017 2.125.018 4.577-.002 6.171-68.25.05-135.651.054-203.901.029-.032-2.013.062-4.124.033-6.157z" fill="#c2c4c3"/></svg>