<?xml version="1.0" encoding="UTF-8" standalone="no"?>
<!-- Created with Inkscape (http://www.inkscape.org/) -->

<svg
   xmlns:dc="http://purl.org/dc/elements/1.1/"
   xmlns:cc="http://creativecommons.org/ns#"
   xmlns:rdf="http://www.w3.org/1999/02/22-rdf-syntax-ns#"
   xmlns:svg="http://www.w3.org/2000/svg"
   xmlns="http://www.w3.org/2000/svg"
   xmlns:sodipodi="http://sodipodi.sourceforge.net/DTD/sodipodi-0.dtd"
   xmlns:inkscape="http://www.inkscape.org/namespaces/inkscape"
   width="491.77222mm"
   height="253.81314mm"
   viewBox="0 0 1742.5 899.3379"
   id="svg5494"
   version="1.1"
   inkscape:version="0.91 r13725"
   sodipodi:docname="lay1.svg">
  <defs
     id="defs5496" />
  <sodipodi:namedview
     id="base"
     pagecolor="#ffffff"
     bordercolor="#666666"
     borderopacity="1.0"
     inkscape:pageopacity="0.0"
     inkscape:pageshadow="2"
     inkscape:zoom="0.70710678"
     inkscape:cx="973.74711"
     inkscape:cy="446.56377"
     inkscape:document-units="px"
     inkscape:current-layer="g5608"
     showgrid="false"
     inkscape:window-width="1920"
     inkscape:window-height="1027"
     inkscape:window-x="1272"
     inkscape:window-y="-8"
     inkscape:window-maximized="1"
     fit-margin-top="0"
     fit-margin-left="0"
     fit-margin-right="0"
     fit-margin-bottom="0" />
  <metadata
     id="metadata5499">
    <rdf:RDF>
      <cc:Work
         rdf:about="">
        <dc:format>image/svg+xml</dc:format>
        <dc:type
           rdf:resource="http://purl.org/dc/dcmitype/StillImage" />
        <dc:title></dc:title>
      </cc:Work>
    </rdf:RDF>
  </metadata>
  <g
     inkscape:label="Layer 1"
     inkscape:groupmode="layer"
     id="layer1"
     transform="translate(225.64956,-452.0636)">
    <g
       id="g5608"
       transform="matrix(1.25,0,0,1.25,-225.64956,455.15093)">
      <g
         transform="matrix(0.88904057,0,0,0.88904057,354.05281,-218.59225)"
         id="layer1-0"
         inkscape:label="Layer 1">
        <g
           transform="matrix(0.54963294,0,0,0.54963294,-0.7447385,421.91081)"
           id="g3706">
          <path
             style="fill:#8b1046"
             inkscape:connector-curvature="0"
             d="m 432.01785,1.178271 c 9.55,-0.0125 19.1125,0.0125 28.6625,-0.0125 0.15,59.9375 0,119.874999 0.05,179.812499 -9.575,0.0125 -19.1375,0 -28.7125,0 -0.025,-7.125 -0.0125,-14.2375 -0.0125,-21.35 9.2625,0.6125 18.5625,0.6375 27.8375,0.2875 0.5,-5.15 0.5125,-10.3375 0.0125,-15.4875 -9.2875,-0.2625 -18.575,-0.25 -27.85,0.3125 0,-34.45 0,-68.912499 0,-103.362499 9.275,-0.05 18.55,0.125 27.825,-0.125 0.55,-5.1625 0.55,-10.3625 -0.0125,-15.525 -9.275,-0.2125 -18.55,-0.1625 -27.8125,0.3 0,-8.275 -0.0125,-16.5625 0.0125,-24.85 z"
             id="path3340" />
          <path
             style="fill:#0c5219"
             inkscape:connector-curvature="0"
             d="m 635.69285,3.578506 c 12.3875,0 24.775,-0.013437 37.175,0.013438 0.0375,13.508833 -0.0125,27.031111 -0.6625,40.526501 -12.1625,0.483899 -24.3375,0.06721 -36.5125,0.215066 -0.075,-13.589483 -0.025,-27.165524 0,-40.7550083 z"
             id="path3342" />
          <path
             style="fill:#0b4616"
             inkscape:connector-curvature="0"
             d="m 672.86785,3.590771 0.8625,0.1125 c -0.0875,6.1625 0.2125,12.35 -0.225,18.5 -1.0125,13.15 -0.225,26.35 -0.4,39.525 0.05,6.675 0.05,13.3625 0,20.0375 -0.0375,32.774999 -0.075,65.562499 -0.05,98.337499 -1.2,-11.0625 0.275,-22.1875 -0.975,-33.2375 -12.125,-0.4375 -24.2625,0.0125 -36.3875,-0.2375 0,-35.05 0,-70.099999 0,-105.149999 12.175,-0.1375 24.35,0.25 36.5125,-0.2 0.65,-12.55 0.7,-25.125 0.6625,-37.6875 z"
             id="path3344" />
          <path
             style="fill:#c8581b"
             inkscape:connector-curvature="0"
             d="m 596.91785,45.765771 c 1.2375,-11.65 2,-23.35 3.4,-34.975 11.7375,1.2125 23.5,2.4375 35.2875,3.15 -0.8125,11.4875 -2.175,22.9125 -2.9375,34.4 -11.95,-0.4375 -23.85,-1.575 -35.75,-2.575 z"
             id="path3346" />
          <path
             style="fill:#1f5b92"
             inkscape:connector-curvature="0"
             d="m 461.13035,14.640771 c 8.8875,-0.3375 17.7375,-1.1875 26.625,-1.475 3.2,55.95 6.625,111.874999 10.1375,167.799999 -9.0125,0.0125 -18.0125,0.0125 -27.0125,0 -1.9625,-37.75 -4.625,-75.4375 -6.6875,-113.174999 -1.0625,-17.7125 -2.5,-35.4125 -3.0625,-53.15 z"
             id="path3348" />
          <path
             style="fill:#494949"
             inkscape:connector-curvature="0"
             d="m 671.50535,22.203271 c 8.475,0.125 16.95,0.0375 25.425,0.0625 0.0125,13.2 0,26.3875 0.0125,39.575 -8.6125,0.125 -17.225,0.1375 -25.8375,-0.1125 0.175,-13.175 -0.6125,-26.375 0.4,-39.525 z"
             id="path3350" />
          <path
             style="fill:#76103d"
             inkscape:connector-curvature="0"
             d="m 432.00535,24.375755 c 9.2625,-0.609008 18.5375,-0.674848 27.8125,-0.395033 0.5625,6.797855 0.5625,13.64509 0.0125,20.442945 -9.275,0.329194 -18.55,0.09876 -27.825,0.164598 0,-6.732017 0,-13.480494 0,-20.21251 z"
             id="path3352" />
          <path
             style="fill:#18456e"
             inkscape:connector-curvature="0"
             d="m 463.26785,37.015771 c 8.3875,-0.5125 16.7875,-1.05 25.2,-1.25 0.3,2.4625 0.6125,4.9125 0.925,7.375 -8.675,0.8 -17.375,1.1875 -26.075,1.65 -0.4,-2.575 -0.3125,-5.1875 -0.05,-7.775 z"
             id="path3354" />
          <path
             style="fill:#ea7637"
             inkscape:connector-curvature="0"
             d="m 596.91785,45.765771 c 11.9,1 23.8,2.1375 35.75,2.575 -0.25,2.075 -0.5375,4.15 -0.8,6.225 -11.8125,-0.925 -23.625,-1.7875 -35.425,-2.75 0.15,-2.0125 0.3125,-4.025 0.475,-6.05 z"
             id="path3356" />
          <path
             style="fill:#c8581b"
             inkscape:connector-curvature="0"
             d="m 596.44285,51.815771 c 11.8,0.9625 23.6125,1.825 35.425,2.75 -2.7875,33.2875 -6.15,66.524999 -9.075,99.799999 -8.9125,-0.6625 -17.825,-1.3625 -26.75,-1.925 -3.0125,-0.1125 -5.85,-1.1625 -8.6375,-2.2125 2.8875,-32.8125 5.9625,-65.612499 9.0375,-98.412499 z"
             id="path3358" />
          <path
             style="fill:#595959"
             inkscape:connector-curvature="0"
             d="m 671.10535,59.585415 c 8.6125,0.30786 17.225,0.292467 25.8375,0.138531 0,8.158301 0,16.301213 0,24.459514 -8.6125,0.12315 -17.225,0.12315 -25.8375,0.07696 0.05,-8.219873 0.05,-16.455142 0,-24.675016 z"
             id="path3360" />
          <path
             style="fill:#414c5f"
             inkscape:connector-curvature="0"
             d="m 759.01785,180.96577 c 0.0375,-38.675 -0.0625,-77.3625 0.05,-116.049999 57.3875,0.025 114.7875,-0.0125 172.175,0.025 0.025,38.674999 0.025,77.349999 0,116.024999 -57.4125,0.0125 -114.8125,0.0125 -172.225,0 z"
             id="path3362" />
          <path
             style="fill:#67c8cf"
             inkscape:connector-curvature="0"
             d="m 769.23035,160.61577 c -0.3625,-28.55 -0.125,-57.1125 -0.125,-85.662499 50.55,-0.05 101.0875,0.1625 151.625,-0.1 0.8875,6.775 0.4125,13.6125 0.5125,20.425 0,25.299999 0,50.612499 -0.0125,75.912499 -6.65,0.075 -13.2875,0.0625 -19.9375,0.025 -0.1375,-0.175 -0.4125,-0.525 -0.55,-0.6875 -11.85,-14.9 -23.5,-29.9375 -35.3125,-44.8625 -5.8375,7.3875 -11.6,14.8375 -17.4875,22.1875 -11.6,-14.5125 -22.975,-29.2 -34.4875,-43.775 -14.725,18.8625 -29.8,37.4625 -44.225,56.5375 z"
             id="path3364" />
          <path
             style="fill:#494949"
             inkscape:connector-curvature="0"
             d="m 671.10535,81.765771 c 8.6125,0.0375 17.225,0.0375 25.8375,-0.0625 -0.0125,33.087499 0.0125,66.187499 -0.0125,99.274999 -8.625,0.0125 -17.2375,0 -25.8375,0 l -0.0375,-0.875 c -0.025,-32.775 0.0125,-65.5625 0.05,-98.337499 z"
             id="path3366" />
          <path
             style="fill:#f0ae67"
             inkscape:connector-curvature="0"
             d="m 889.08035,89.790771 c 7.5125,-2.825 16.4875,3.7125 15.4375,11.824999 0.1375,8.9875 -11.6875,14.225 -18.55,8.725 -7.55,-4.9625 -5.6375,-18.062499 3.1125,-20.549999 z"
             id="path3368" />
          <path
             style="fill:#465163"
             inkscape:connector-curvature="0"
             d="m 769.23035,160.61577 c 14.425,-19.075 29.5,-37.675 44.225,-56.5375 11.5125,14.575 22.8875,29.2625 34.4875,43.775 5.875,7.575 11.65,15.2375 17.7375,22.6375 -2.7875,0.625 -5.6,1.25 -8.45,1.1625 -19.5625,-0.325 -39.1375,0 -58.7,-0.15 -9.85,-0.1375 -19.7125,0.525 -29.525,-0.4 -0.1875,-3.45 -1.325,-7.2125 0.225,-10.4875 z"
             id="path3370" />
          <path
             style="fill:#313c50"
             inkscape:connector-curvature="0"
             d="m 865.43035,125.66577 c 11.8125,14.925 23.4625,29.9625 35.3125,44.8625 -7.325,1.525 -14.8125,0.5625 -22.2125,0.8375 -4.25,-0.2 -8.825,0.6875 -12.85,-0.875 -6.0875,-7.4 -11.8625,-15.0625 -17.7375,-22.6375 5.8875,-7.35 11.65,-14.8 17.4875,-22.1875 z"
             id="path3372" />
          <path
             style="fill:#76103d"
             inkscape:connector-curvature="0"
             d="m 432.00535,142.04485 c 9.275,-0.75225 18.5625,-0.76898 27.85,-0.41793 0.5,6.8874 0.4875,13.82495 -0.0125,20.71233 -9.275,0.46807 -18.575,0.43465 -27.8375,-0.38449 0,-6.63664 0,-13.27328 0,-19.90991 z"
             id="path3374" />
          <path
             style="fill:#0c5219"
             inkscape:connector-curvature="0"
             d="m 635.69285,144.84256 c 12.125,0.26299 24.2625,-0.2104 36.3875,0.24984 1.25,11.62428 -0.225,23.32747 0.975,34.96491 l 0.0375,0.92047 c -12.475,0.0131 -24.9375,0.0131 -37.4,0 -0.0125,-12.04507 0,-24.09015 0,-36.13522 z"
             id="path3376" />
          <path
             style="fill:#ea7637"
             inkscape:connector-curvature="0"
             d="m 586.99285,150.07827 0.4125,0.15 c 2.7875,1.05 5.625,2.1 8.6375,2.2125 8.925,0.5625 17.8375,1.2625 26.75,1.925 -0.2,3.25 -0.5375,6.5 -1.1375,9.7 -0.125,-0.925 -0.3625,-2.775 -0.4875,-3.6875 -11.4625,-1.125 -22.9625,-1.8375 -34.4625,-2.6125 0.1375,-2.5625 0.2375,-5.125 0.2875,-7.6875 z"
             id="path3378" />
          <path
             style="fill:#c8581b"
             inkscape:connector-curvature="0"
             d="m 586.70535,157.76577 c 11.5,0.775 23,1.4875 34.4625,2.6125 0.125,0.9125 0.3625,2.7625 0.4875,3.6875 0.0125,5.6625 -1,11.2625 -1.35,16.9125 -11.975,0 -23.95,0 -35.9125,-0.0125 1.1,-7.7 1.3375,-15.4875 2.3125,-23.2 z"
             id="path3380" />
          <path
             style="fill:#997b5f"
             inkscape:connector-curvature="0"
             d="m 497.89285,180.96577 c 28.825,0.0125 57.6625,0.025 86.5,0 11.9625,0.0125 23.9375,0.0125 35.9125,0.0125 5.125,0 10.25,0 15.3875,0 12.4625,0.0125 24.925,0.0125 37.4,0 8.6,0 17.2125,0.0125 25.8375,0 20.025,-0.0125 40.05,0 60.0875,-0.0125 57.4125,0.0125 114.8125,0.0125 172.225,0 16.6875,0.0375 33.3875,-0.025 50.075,0.0375 0,4.5 0,9 -0.0375,13.5 -27.15,0.6625 -54.3125,0.1125 -81.475,0.2875 -145.4375,0.0125 -290.875,0.0125 -436.325,0.0125 -29.725,-0.2375 -59.45,0.425 -89.175,-0.325 -0.05,-4.5 -0.05,-8.9875 -0.0375,-13.4875 19.25,-0.0375 38.5,0 57.75,-0.0125 9.575,0 19.1375,0.0125 28.7125,0 3.375,0 6.7625,-0.0125 10.15,-0.0125 9,0.0125 18,0.0125 27.0125,0 z"
             id="path3382" />
          <path
             style="fill:#af8c6c"
             inkscape:connector-curvature="0"
             d="m 374.30535,192.47827 c 29.725,0.75 59.45,0.0875 89.175,0.325 145.45,0 290.8875,0 436.325,-0.0125 27.1625,-0.175 54.325,0.375 81.475,-0.2875 -0.025,4.65 -0.05,9.3 -0.1625,13.95 -202.25,-0.0125 -404.5,0.0625 -606.7375,-0.0375 0,-4.65 0.0125,-9.3 -0.075,-13.9375 z"
             id="path3384" />
          <path
             style="fill:#161916"
             inkscape:connector-curvature="0"
             d="m 387.25535,392.67827 c 4.125,-0.75 8.3625,-0.275 12.5375,-0.375 189.175,0.025 378.3625,-0.025 567.5375,0.025 4.4375,-0.6125 7.175,3.9375 6.5875,7.9 -0.05,111.75 0.0625,223.4875 -0.05,335.2375 0.425,4.2875 -3.825,7.1375 -7.7625,6.5875 -74.4625,-0.0125 -148.925,0 -223.4,-0.0125 -42.525,0 -85.0625,0 -127.5875,0 -74.75,0 -149.5,0 -224.25,0 -2.4625,0.1875 -4.95,-0.7375 -6.55,-2.65 -1.5625,-4.0875 -0.9,-8.575 -1.025,-12.85 0.05,-108.775 -0.0125,-217.5625 0.0375,-326.3375 -0.025,-2.95 0.675,-6.55 3.925,-7.525 z"
             id="path3386" />
          <path
             style="fill:#f6f7f5"
             inkscape:connector-curvature="0"
             d="m 406.48035,415.50327 c 181.4625,-0.0375 362.9375,0 544.4,-0.0125 -0.375,6.4875 -0.2125,12.9875 -0.2125,19.4875 -174.5625,0.075 -349.1125,0.025 -523.6625,0.05 -6.8625,0 -13.7125,-0.0125 -20.5625,-0.0125 0.0375,-6.5 0.0125,-13 0.0375,-19.5125 z"
             id="path3388" />
          <path
             style="fill:#5a454e"
             inkscape:connector-curvature="0"
             d="m 950.88035,415.49077 c 0.9375,6.9625 0.75,14.0375 0.025,21.0125 -29.6625,0.125 -59.325,-0.075 -88.9875,0.1 14.075,14.8 28.875,28.9125 43.1875,43.4875 15.2375,15.15 30.3,30.475 45.625,45.5375 0.05,64.4875 0.0375,128.9625 0,193.45 -80.725,0.2125 -161.45,0.0125 -242.175,0.1125 -17.275,-0.2875 -34.5625,0.6 -51.8125,-0.35 -5.35,-6.1 -11.5625,-11.4 -16.6,-17.775 10.9625,0.075 21.925,0 32.8875,0.0375 -0.0125,-2.525 -0.025,-5.05 -0.0125,-7.5625 -11.6375,0.0125 -23.2625,-0.05 -34.8875,0.0375 -0.025,1.6625 -0.075,3.3 -0.0625,4.9875 -6.5,-4.85 -14.625,-10.4 -14.125,-19.575 -0.2625,2.2875 -0.5625,4.575 -0.9625,6.85 l -0.9,0.0625 c 0.05,-2.5375 0.1,-5.0625 0.1625,-7.575 -2,-0.025 -3.9875,-0.025 -5.975,-0.025 -1.45,-1.9125 -2.9,-3.8 -4.35,-5.7125 8.975,-1.175 18.3625,1.5875 27.05,-1.45 -0.3,-2.7 -0.55,-5.4 -0.7875,-8.0875 -12.2375,0.025 -24.475,-0.1375 -36.7,0.0625 -4.5,-3.275 -7.8,-7.9125 -8.1,-13.6 -1.975,2 -3.9375,3.9875 -5.85,6.05 0.0375,-2.6625 0.05,-5.3125 0.0625,-7.95 -8.375,-6.2 -16.0625,-13.4375 -22.2,-21.875 0.5375,-0.05 1.625,-0.15 2.175,-0.2 0.1,-2.475 0.125,-4.9375 0.1625,-7.4 -3.775,-0.0125 -7.55,-0.0125 -11.3125,0.0125 -2.45,-2.4875 -4.875,-4.975 -7.2875,-7.475 0.05,-2.5625 0.1,-5.1125 0.1625,-7.65 -2.65,0.025 -5.3,0.075 -7.95,0.0875 -5.025,-5.3375 -10.3625,-10.35 -15.8125,-15.25 -0.1,-0.125 -0.3125,-0.375 -0.425,-0.5 -10.75,-12.075 -22.475,-23.2625 -34.1,-34.5 0.05,-1.1125 0.1,-2.2125 0.15,-3.3125 0.1125,-2.6125 0.2,-5.2125 0.2875,-7.8125 -4.2125,-0.0375 -8.4,-0.0375 -12.6,0 -1.2625,-2.1 -2.5125,-4.175 -3.775,-6.25 5.3625,0.0375 10.7375,0.175 16.1125,-0.15 0.0125,-0.25 0.05,-0.7375 0.075,-0.9875 0.1,-2.6625 0.1125,-5.3125 0.15,-7.9625 -8.975,-0.05 -17.9375,-0.0125 -26.9125,-0.025 -2.4625,-2.6375 -4.975,-5.225 -7.55,-7.7375 11.475,0.1875 22.95,0.05 34.4125,0.0375 -0.0125,-2.5125 -0.025,-5.0125 -0.025,-7.5125 -11.6875,-0.025 -23.375,0.0125 -35.0625,-0.025 0.025,2.325 0.0375,4.65 0.15,6.9875 -9.55,-9.8375 -19.325,-19.45 -29.0375,-29.125 0.2125,-17.9875 0.225,-35.975 -0.375,-53.9625 174.55,-0.025 349.1,0.025 523.6625,-0.05 0,-6.5 -0.1625,-13 0.2125,-19.4875 z"
             id="path3390" />
          <path
             style="fill:#e175b2"
             inkscape:connector-curvature="0"
             d="m 414.08035,427.35327 c -3.65,-3.875 2.725,-9.6625 6.7,-6.7375 3.3875,0.9125 1.85,5 2.025,7.5375 -2.8875,0.825 -6.6375,2.25 -8.725,-0.8 z"
             id="path3392" />
          <path
             style="fill:#f4ab94"
             inkscape:connector-curvature="0"
             d="m 429.26785,421.40327 c 1.4125,-0.5625 2.8125,-1.1125 4.225,-1.675 1.4875,0.5125 2.9875,1.0375 4.4875,1.5625 -0.05,2.1875 -0.075,4.3875 -0.1,6.5875 -1.5375,0.65 -3.05,1.325 -4.575,2 -1.4625,-0.925 -2.925,-1.8375 -4.375,-2.75 0.1125,-1.9125 0.225,-3.825 0.3375,-5.725 z"
             id="path3394" />
          <path
             style="fill:#c0c798"
             inkscape:connector-curvature="0"
             d="m 446.26785,420.56577 c 3.3875,-2.275 8.175,1.1 7.8875,4.9 -1.2125,2.8375 -4.9125,5.2625 -7.8375,3.3 -3.2125,-1.3375 -3.4375,-6.95 -0.05,-8.2 z"
             id="path3396" />
          <path
             style="fill:#473941"
             inkscape:connector-curvature="0"
             d="m 406.44285,435.01577 c 6.85,0 13.7,0.0125 20.5625,0.0125 0.6,17.9875 0.5875,35.975 0.375,53.9625 -6.6,-6.925 -13.55,-13.5 -20.4,-20.175 -1.1,-11.1875 -0.05,-22.55 -0.5375,-33.8 z"
             id="path3398" />
          <path
             style="fill:#47303a"
             inkscape:connector-curvature="0"
             d="m 861.91785,436.60327 c 29.6625,-0.175 59.325,0.025 88.9875,-0.1 -0.4,29.7 -0.0375,59.4125 -0.175,89.125 -15.325,-15.0625 -30.3875,-30.3875 -45.625,-45.5375 -14.3125,-14.575 -29.1125,-28.6875 -43.1875,-43.4875 z"
             id="path3400" />
          <path
             style="fill:#a8cfb2"
             inkscape:connector-curvature="0"
             d="m 437.94285,450.01577 c 17.05,-0.0375 34.1125,-0.025 51.1625,-0.0125 0,2.55 0,5.1 0.0125,7.65 -17.05,-0.1125 -34.1,-0.0125 -51.15,-0.05 -0.0125,-2.525 -0.025,-5.0625 -0.025,-7.5875 z"
             id="path3402" />
          <path
             style="fill:#a8cfb1"
             inkscape:connector-curvature="0"
             d="m 499.49285,449.97827 c 15.3,0.0375 30.6125,-0.025 45.9125,0.0625 -0.025,2.5375 -0.0375,5.075 -0.05,7.625 -15.325,-0.2625 -30.6625,0.225 -45.975,-0.2625 0.0375,-2.475 0.075,-4.95 0.1125,-7.425 z"
             id="path3404" />
          <path
             style="fill:#a9cfb0"
             inkscape:connector-curvature="0"
             d="m 437.95535,465.46577 c 13.4125,0.1125 26.825,-0.0625 40.225,-0.3125 -0.05,2.65 -0.075,5.2875 -0.125,7.9375 -13.35,-0.0875 -26.7125,0.0125 -40.075,-0.05 -0.0125,-2.525 -0.0125,-5.05 -0.025,-7.575 z"
             id="path3406" />
          <path
             style="fill:#32232b"
             inkscape:connector-curvature="0"
             d="m 406.98035,468.81577 c 6.85,6.675 13.8,13.25 20.4,20.175 -0.6125,24.9875 -0.6125,50 0.0875,74.9875 -0.9,51.65 -0.375,103.3375 -0.3875,155 -6.7,0.3375 -13.4,0.3375 -20.0875,-0.15 -0.725,-19.5 -0.0875,-39.025 -0.325,-58.5375 0.025,-40.8375 0,-81.6625 0.025,-122.5 0.2,-22.9875 -0.425,-46 0.2875,-68.975 z"
             id="path3408" />
          <path
             style="fill:#a8cfb0"
             inkscape:connector-curvature="0"
             d="m 437.91785,480.71577 c 13.425,-0.1375 26.8375,-0.0375 40.2625,-0.0625 0,2.525 0.0125,5.0625 0.0375,7.6 -13.4125,-0.0375 -26.825,0.025 -40.2375,-0.0125 -0.025,-2.5125 -0.05,-5.025 -0.0625,-7.525 z"
             id="path3410" />
          <path
             style="fill:#47303a"
             inkscape:connector-curvature="0"
             d="m 427.38035,488.99077 c 9.7125,9.675 19.4875,19.2875 29.0375,29.125 0.1375,0.125 0.4,0.3875 0.525,0.5125 2.575,2.5125 5.0875,5.1 7.55,7.7375 -2.7,-0.0125 -5.3875,0.0125 -8.075,0.025 -0.0125,2.4875 -0.0125,4.975 -0.0125,7.4625 11.625,-0.275 23.2125,0.9375 34.85,0.5 -0.025,0.25 -0.0625,0.7375 -0.075,0.9875 -5.375,0.325 -10.75,0.1875 -16.1125,0.15 1.2625,2.075 2.5125,4.15 3.775,6.25 -7.4875,0.05 -14.975,0.025 -22.4625,-0.025 0,2.575 0.0125,5.175 0.0125,7.7625 11.5875,-0.05 23.175,-0.075 34.7625,0.075 -0.05,1.1 -0.1,2.2 -0.15,3.3125 11.625,11.2375 23.35,22.425 34.1,34.5 -9.725,0.0125 -19.45,-0.025 -29.175,0.0125 -1.725,0.1875 -3.875,-0.3 -5.075,1.275 -0.1625,2.1 -0.125,4.225 -0.1,6.3375 11.6,0.1875 23.2125,-0.025 34.825,0.0375 0,-2.4 0,-4.7875 -0.05,-7.1625 5.45,4.9 10.7875,9.9125 15.8125,15.25 -7.1,0 -14.2125,-0.7 -21.3125,-0.1 0.0625,2.5 0.125,5.0125 0.2,7.525 9.625,0.0625 19.2625,-0.0625 28.9,0.1375 2.4125,2.5 4.8375,4.9875 7.2875,7.475 -6.125,0.0375 -12.25,0.025 -18.3625,0.025 0.0125,2.5 0.0375,5.025 0.0625,7.5375 9.0875,-0.15 18.175,0.1375 27.275,0.025 6.1375,8.4375 13.825,15.675 22.2,21.875 -7.9375,-0.1 -15.8875,-0.0125 -23.825,-0.075 0.1,2.7125 0.2125,5.45 0.325,8.175 7.8,-0.875 15.625,-0.35 23.4375,-0.15 1.9125,-2.0625 3.875,-4.05 5.85,-6.05 0.3,5.6875 3.6,10.325 8.1,13.6 -0.825,0.0125 -2.4625,0.05 -3.2875,0.0625 0,2.4875 0.0125,4.975 0.025,7.4625 13.5875,0.325 27.1875,-0.25 40.75,0.5 -8.6875,3.0375 -18.075,0.275 -27.05,1.45 1.45,1.9125 2.9,3.8 4.35,5.7125 -6.0125,-0.0125 -12.025,-0.0125 -18.025,0.05 -0.025,2.5125 -0.025,5.0375 -0.0375,7.5625 7.9625,0 15.9125,0.1375 23.875,-0.0125 l 0.9,-0.0625 c 0.4,-2.275 0.7,-4.5625 0.9625,-6.85 -0.5,9.175 7.625,14.725 14.125,19.575 -0.0125,0.625 -0.025,1.8625 -0.0375,2.475 0.5375,0.0125 1.5875,0.025 2.1125,0.025 5.0375,6.375 11.25,11.675 16.6,17.775 -5.65,0.3875 -11.3125,0.4875 -16.9625,0.1875 -17.4875,-0.3 -34.9875,0.675 -52.475,-0.175 -24.175,0.6375 -48.375,-0.5375 -72.55,0.3 -15.4125,-1.175 -30.825,0.65 -46.2375,-0.225 -13.8125,-0.55 -27.6375,0.85 -41.4375,0.05 0.0125,-51.6625 -0.5125,-103.35 0.3875,-155 -0.7,-24.9875 -0.7,-50 -0.0875,-74.9875 z"
             id="path3412" />
          <path
             style="fill:#aacfb2"
             inkscape:connector-curvature="0"
             d="m 456.35535,495.89077 c 15.1875,0.0375 30.3875,0.0125 45.5875,0.0125 -0.025,2.525 -0.0375,5.0625 -0.0375,7.6125 -15.1875,-0.05 -30.375,-0.0375 -45.5625,-0.025 0,-2.5375 0,-5.0625 0.0125,-7.6 z"
             id="path3414" />
          <path
             style="fill:#aacfb2"
             inkscape:connector-curvature="0"
             d="m 573.93035,495.89077 c 13.425,0.025 26.8625,0.0125 40.3,0.0125 -0.025,2.5375 -0.025,5.0625 -0.0125,7.6 -13.425,-0.025 -26.85,-0.025 -40.2625,0.0125 -0.0125,-2.55 -0.025,-5.0875 -0.025,-7.625 z"
             id="path3416" />
          <path
             style="fill:#fdfefd"
             inkscape:connector-curvature="0"
             d="m 512.58035,495.94077 c 17.05,0.1 34.1125,-0.075 51.1625,0.0875 0,2.45 0.0125,4.9 0.0375,7.3625 -17.075,0.2 -34.1625,-0.0125 -51.2375,0.1 0.0125,-2.5125 0.0125,-5.0375 0.0375,-7.55 z"
             id="path3418" />
          <path
             style="fill:#a9cfb2"
             inkscape:connector-curvature="0"
             d="m 456.26785,511.12827 c 11.6875,0.0375 23.375,0 35.0625,0.025 0,2.5 0.0125,5 0.025,7.5125 -11.4625,0.0125 -22.9375,0.15 -34.4125,-0.0375 -0.125,-0.125 -0.3875,-0.3875 -0.525,-0.5125 -0.1125,-2.3375 -0.125,-4.6625 -0.15,-6.9875 z"
             id="path3420" />
          <path
             style="fill:#e25484"
             inkscape:connector-curvature="0"
             d="m 501.60535,518.57827 c 0.0375,-2.4875 0.075,-4.975 0.1375,-7.45 9.65,0.0125 19.3125,-0.025 28.975,-0.1 0.3125,2.4625 0.625,4.925 0.9375,7.4 -10.0125,0.3625 -20.0375,0.2125 -30.05,0.15 z"
             id="path3422" />
          <path
             style="fill:#fbb48c"
             inkscape:connector-curvature="0"
             d="m 541.48035,518.66577 c 0,-2.5 0,-4.9875 0.0125,-7.475 22.475,0.0125 44.95,0 67.4375,0.0125 -0.0125,2.475 0,4.95 0.0125,7.4375 -22.4875,0.0375 -44.975,0 -67.4625,0.025 z"
             id="path3424" />
          <path
             style="fill:#e55283"
             inkscape:connector-curvature="0"
             d="m 619.30535,511.01577 c 16.9875,0.2375 33.9875,-0.0125 50.975,0.1125 0.0375,2.45 0.075,4.9 0.125,7.35 -17.05,0.1875 -34.0875,0.1625 -51.1375,0.05 0.0125,-2.5125 0.025,-5.0125 0.0375,-7.5125 z"
             id="path3426" />
          <path
             style="fill:#fbb58b"
             inkscape:connector-curvature="0"
             d="m 680.68035,511.20327 c 58.55,0 117.0875,-0.075 175.6375,0.0375 0.0125,2.45 0.0375,4.9 0.075,7.375 -58.6,0.075 -117.2125,0.075 -175.8125,-0.0125 0.025,-2.475 0.0625,-4.9375 0.1,-7.4 z"
             id="path3428" />
          <path
             style="fill:#acceb4"
             inkscape:connector-curvature="0"
             d="m 866.76785,518.62827 c 0.025,-2.5 0.0625,-4.9875 0.1,-7.475 4.4375,-0.025 8.8875,-0.025 13.3375,-0.0125 0.0125,2.4875 0.025,4.9875 0.0625,7.4875 -4.5125,0.1 -9.0125,0.1 -13.5,0 z"
             id="path3430" />
          <path
             style="fill:#a9ccb2"
             inkscape:connector-curvature="0"
             d="m 456.41785,526.39077 c 2.6875,-0.0125 5.375,-0.0375 8.075,-0.025 8.975,0.0125 17.9375,-0.025 26.9125,0.025 -0.0375,2.65 -0.05,5.3 -0.15,7.9625 -11.6375,0.4375 -23.225,-0.775 -34.85,-0.5 0,-2.4875 0,-4.975 0.0125,-7.4625 z"
             id="path3432" />
          <path
             style="fill:#e35586"
             inkscape:connector-curvature="0"
             d="m 501.65535,526.62827 c 9.9375,-0.35 20,-1.025 29.875,0.325 -0.05,2.1625 -0.1,4.3375 -0.1375,6.5125 -9.875,1.4125 -19.9125,1.0625 -29.825,0.4375 0.025,-2.4375 0.0625,-4.85 0.0875,-7.275 z"
             id="path3434" />
          <path
             style="fill:#fbb68e"
             inkscape:connector-curvature="0"
             d="m 541.44285,526.66577 c 44.125,-0.0625 88.2375,-0.075 132.35,0.0375 -0.2,2.4875 0.2,5.125 -0.75,7.4875 -43.825,-0.625 -87.675,-0.2 -131.5,-0.225 -0.05,-2.4375 -0.075,-4.875 -0.1,-7.3 z"
             id="path3436" />
          <path
             style="fill:#e45584"
             inkscape:connector-curvature="0"
             d="m 684.16785,526.74077 c 7.875,-0.95 15.8125,-0.3125 23.725,-0.525 0.125,2.5 0.2375,5 0.375,7.5125 -7.9875,1.075 -16.0625,0.3875 -24.0875,0.6875 -0.0125,-2.5625 -0.0125,-5.125 -0.0125,-7.675 z"
             id="path3438" />
          <path
             style="fill:#fbb78d"
             inkscape:connector-curvature="0"
             d="m 718.91785,526.40327 c 27.6875,0.5 55.375,0.1 83.075,0.2 -0.025,2.5625 -0.0375,5.125 0,7.7 -21.1375,-0.9 -42.3125,-0.2125 -63.475,-0.4 -6.5125,0.0375 -13.0375,-0.1875 -19.55,0.325 -0.0375,-2.6125 -0.05,-5.225 -0.05,-7.825 z"
             id="path3440" />
          <path
             style="fill:#e35482"
             inkscape:connector-curvature="0"
             d="m 812.73035,534.45327 c 0.0875,-2.775 0.15,-5.5375 0.2375,-8.3 9.6125,0.275 19.25,-0.225 28.8625,0.5125 -0.0125,2.3 0,4.6125 0.0125,6.925 -9.675,1.05 -19.4125,0.3625 -29.1125,0.8625 z"
             id="path3442" />
          <path
             style="fill:#fcb68d"
             inkscape:connector-curvature="0"
             d="m 852.70535,526.65327 c 9.75,-0.3625 19.5,-0.0875 29.25,-0.05 -0.0375,2.425 -0.05,4.8625 -0.0625,7.3 -9.7125,-0.0125 -19.4375,-0.1 -29.15,0.0125 -0.025,-2.425 -0.0375,-4.85 -0.0375,-7.2625 z"
             id="path3444" />
          <path
             style="fill:#abceb1"
             inkscape:connector-curvature="0"
             d="m 892.59285,526.32827 c 4.3625,-0.0125 8.7375,0.0125 13.1125,0.2125 -0.05,2.525 -0.0875,5.05 -0.1125,7.5875 -4.3125,0.0875 -8.625,0.1125 -12.925,0.1125 -0.05,-2.6375 -0.075,-5.275 -0.075,-7.9125 z"
             id="path3446" />
          <path
             style="fill:#a0cbaa"
             inkscape:connector-curvature="0"
             d="m 456.38035,541.71577 c 7.4875,0.05 14.975,0.075 22.4625,0.025 4.2,-0.0375 8.3875,-0.0375 12.6,0 -0.0875,2.6 -0.175,5.2 -0.2875,7.8125 -11.5875,-0.15 -23.175,-0.125 -34.7625,-0.075 0,-2.5875 -0.0125,-5.1875 -0.0125,-7.7625 z"
             id="path3454" />
          <path
             style="fill:#e35483"
             inkscape:connector-curvature="0"
             d="m 501.56785,541.84077 c 9.95,0.05 19.9,-0.2375 29.8375,0.175 0.0125,2.4875 0.025,4.9875 0.0625,7.4875 -9.875,0.05 -19.7375,-0.05 -29.6125,-0.075 -0.1,-2.5375 -0.2,-5.0625 -0.2875,-7.5875 z"
             id="path3456" />
          <path
             style="fill:#fcb58c"
             inkscape:connector-curvature="0"
             d="m 541.45535,541.71577 c 47.525,0 95.05,0.1125 142.5875,-0.0625 3.75,0.0375 7.5125,0.125 11.2875,0.1125 -0.025,2.575 -0.05,5.1625 -0.05,7.75 -51.25,-0.2875 -102.5125,-0.1 -153.775,-0.0875 -0.025,-2.575 -0.0375,-5.15 -0.05,-7.7125 z"
             id="path3458" />
          <path
             style="fill:#e45483"
             inkscape:connector-curvature="0"
             d="m 705.39285,542.16577 c 8.2625,-0.55 16.5375,-0.35 24.8125,-0.1625 -0.4625,2.3625 1.1625,5.925 -1.5375,7.2375 -7.4,0.6125 -14.85,-0.05 -22.2625,0.35 -0.3,-2.4875 -0.6375,-4.9625 -1.0125,-7.425 z"
             id="path3460" />
          <path
             style="fill:#fcb58b"
             inkscape:connector-curvature="0"
             d="m 740.26785,541.51577 c 17.9125,0.4625 35.8375,0.15 53.75,0.1625 9.975,0.15 19.9375,0 29.9,0.1 -0.0375,2.5375 -0.0625,5.075 -0.075,7.625 -27.8375,-0.0625 -55.6625,-0.0375 -83.5,-0.0125 -0.025,-2.6375 -0.0375,-5.2625 -0.075,-7.875 z"
             id="path3462" />
          <path
             style="fill:#e45482"
             inkscape:connector-curvature="0"
             d="m 834.21785,542.00327 c 9.8625,-0.2875 19.7375,-0.2 29.6,-0.0625 0.0375,2.4875 0.0625,4.9875 0.1125,7.5 -9.8625,0.0375 -19.7375,0.05 -29.6,0.025 -0.05,-2.5 -0.0875,-4.9875 -0.1125,-7.4625 z"
             id="path3464" />
          <path
             style="fill:#fcb58d"
             inkscape:connector-curvature="0"
             d="m 874.24285,541.77827 c 9.825,-0.0375 19.6625,-0.075 29.5,0.05 -0.025,2.5125 -0.025,5.025 -0.025,7.5625 -9.8,0 -19.6,-0.025 -29.3875,0.025 -0.05,-2.55 -0.075,-5.1 -0.0875,-7.6375 z"
             id="path3466" />
          <path
             style="fill:#acceb5"
             inkscape:connector-curvature="0"
             d="m 914.11785,541.77827 c 4.45,-0.0125 8.9125,-0.0125 13.375,0.025 -0.025,2.525 -0.0375,5.0625 -0.0375,7.6 -4.4375,0.0375 -8.8625,0.0375 -13.2875,0.0625 -0.025,-2.5625 -0.05,-5.125 -0.05,-7.6875 z"
             id="path3468" />
          <path
             style="fill:#9dc9a7"
             inkscape:connector-curvature="0"
             d="m 437.94285,556.99077 c 13.425,-0.1125 26.8375,-0.0125 40.2625,-0.0625 -0.025,2.575 -0.0375,5.15 -0.05,7.725 -13.4,-0.025 -26.8,0.0375 -40.2,-0.0125 -0.0125,-2.5625 -0.0125,-5.1125 -0.0125,-7.65 z"
             id="path3470" />
          <path
             style="fill:#9fc9a9"
             inkscape:connector-curvature="0"
             d="m 437.95535,572.21577 c 13.4,-0.05 26.8125,0.0125 40.2125,-0.025 0,2.5625 0,5.125 0.0125,7.6875 -13.425,-0.025 -26.8375,0.1 -40.25,-0.0375 0,-2.55 0.0125,-5.0875 0.025,-7.625 z"
             id="path3472" />
          <path
             style="fill:#accdb4"
             inkscape:connector-curvature="0"
             d="m 591.99285,587.51577 c 4.45,-0.0625 8.9,-0.0625 13.35,-0.0625 0.025,2.5375 0.0375,5.075 0.075,7.625 -4.5,0 -8.9875,-0.025 -13.475,-0.0875 0.0125,-2.5 0.025,-4.9875 0.05,-7.475 z"
             id="path3474" />
          <path
             style="fill:#a0c9a9"
             inkscape:connector-curvature="0"
             d="m 456.34285,595.05327 c 0.025,-2.55 0.0375,-5.0875 0.0875,-7.625 7.9625,0.05 15.9375,0.0125 23.9125,0.0125 0,2.5375 0,5.075 0,7.625 -8,0.025 -16,-0.025 -24,-0.0125 z"
             id="path3476" />
          <path
             style="fill:#de4276"
             inkscape:connector-curvature="0"
             d="m 490.85535,588.65327 c 1.2,-1.575 3.35,-1.0875 5.075,-1.275 9.725,-0.0375 19.45,0 29.175,-0.0125 0.1125,0.125 0.325,0.375 0.425,0.5 0.05,2.375 0.05,4.7625 0.05,7.1625 -11.6125,-0.0625 -23.225,0.15 -34.825,-0.0375 -0.025,-2.1125 -0.0625,-4.2375 0.1,-6.3375 z"
             id="path3478" />
          <path
             style="fill:#fbb690"
             inkscape:connector-curvature="0"
             d="m 536.38035,587.54077 c 15.15,0.0375 30.3,-0.0375 45.45,0.0375 -0.025,2.475 -0.0375,4.9625 -0.0375,7.45 -15.1625,-0.0125 -30.3125,-0.0625 -45.475,-0.0125 0.0125,-2.5 0.0375,-4.9875 0.0625,-7.475 z"
             id="path3480" />
          <path
             style="fill:#a0caaa"
             inkscape:connector-curvature="0"
             d="m 474.36785,603.01577 c 11.675,0.125 23.35,-0.3875 35.025,-0.325 -0.0625,2.625 -0.1,5.25 -0.1625,7.875 -11.5875,-0.125 -23.1875,-0.025 -34.775,-0.05 -0.0375,-2.5 -0.0625,-5 -0.0875,-7.5 z"
             id="path3482" />
          <path
             style="fill:#e24379"
             inkscape:connector-curvature="0"
             d="m 520.03035,603.01577 c 7.1,-0.6 14.2125,0.1 21.3125,0.1 2.65,-0.0125 5.3,-0.0625 7.95,-0.0875 -0.0625,2.5375 -0.1125,5.0875 -0.1625,7.65 -9.6375,-0.2 -19.275,-0.075 -28.9,-0.1375 -0.075,-2.5125 -0.1375,-5.025 -0.2,-7.525 z"
             id="path3484" />
          <path
             style="fill:#fcb58a"
             inkscape:connector-curvature="0"
             d="m 559.98035,602.99077 c 18.775,0.05 37.5625,-0.0625 56.3375,0.0375 0,2.4625 0.0125,4.9125 0.025,7.3875 -18.7625,0.0125 -37.5375,0.05 -56.3125,0 -0.025,-2.475 -0.0375,-4.95 -0.05,-7.425 z"
             id="path3486" />
          <path
             style="fill:#a9d0af"
             inkscape:connector-curvature="0"
             d="m 626.69285,602.57827 c 4.4875,-0.0375 8.975,0.0875 13.4625,0.425 -0.025,2.4875 -0.05,4.975 -0.05,7.475 -4.475,0.025 -8.9375,0.025 -13.4,0.0375 -0.025,-2.65 -0.025,-5.3 -0.0125,-7.9375 z"
             id="path3488" />
          <path
             style="fill:#9dcaac"
             inkscape:connector-curvature="0"
             d="m 492.78035,618.07827 c 11.6625,0.125 23.3375,-0.025 35.0125,0.0875 -0.0375,2.5125 -0.0625,5.0375 -0.075,7.575 -11.6375,0.0125 -23.2625,-0.0125 -34.9,0 -0.0125,-2.5625 -0.0375,-5.125 -0.0375,-7.6625 z"
             id="path3490" />
          <path
             style="fill:#e14479"
             inkscape:connector-curvature="0"
             d="m 538.05535,618.17827 c 6.1125,0 12.2375,0.0125 18.3625,-0.025 3.7625,-0.025 7.5375,-0.025 11.3125,-0.0125 -0.0375,2.4625 -0.0625,4.925 -0.1625,7.4 -0.55,0.05 -1.6375,0.15 -2.175,0.2 -9.1,0.1125 -18.1875,-0.175 -27.275,-0.025 -0.025,-2.5125 -0.05,-5.0375 -0.0625,-7.5375 z"
             id="path3492" />
          <path
             style="fill:#fcb488"
             inkscape:connector-curvature="0"
             d="m 577.98035,618.16577 c 18.8125,-0.0875 37.6125,0 56.425,-0.05 -0.0125,2.5125 -0.0125,5.0375 0,7.575 -18.8,0.0375 -37.6,0.0875 -56.4,-0.0375 -0.0125,-2.5125 -0.025,-5.0125 -0.025,-7.4875 z"
             id="path3494" />
          <path
             style="fill:#accfb4"
             inkscape:connector-curvature="0"
             d="m 645.03035,618.10327 c 4.3625,0.0125 8.7375,0.0125 13.1125,0 -0.0125,2.5375 -0.025,5.0875 -0.025,7.6375 -4.35,0 -8.7,-0.0125 -13.05,-0.0125 -0.025,-2.55 -0.0375,-5.1 -0.0375,-7.625 z"
             id="path3496" />
          <path
             style="fill:#fefefd"
             inkscape:connector-curvature="0"
             d="m 668.73035,618.14077 c 24.2875,0 48.575,-0.0125 72.8625,0 -0.025,2.5125 -0.05,5.0375 -0.05,7.575 -24.25,0.0375 -48.5,0 -72.7375,0.0125 -0.0375,-2.5375 -0.05,-5.0625 -0.075,-7.5875 z"
             id="path3498" />
          <path
             style="fill:#aacfb0"
             inkscape:connector-curvature="0"
             d="m 751.69285,618.11577 c 4.4625,-0.0125 8.9375,-0.0125 13.4,0.025 0,2.5125 0.0125,5.0375 0.025,7.5625 -4.4625,0.05 -8.9125,0.0375 -13.3625,0.0375 -0.025,-2.55 -0.05,-5.1 -0.0625,-7.625 z"
             id="path3500" />
          <path
             style="fill:#9dcaa4"
             inkscape:connector-curvature="0"
             d="m 492.73035,633.35327 c 6.3,-0.025 12.5875,-0.05 18.8875,-0.0125 -0.025,2.5375 -0.025,5.075 -0.0375,7.625 -6.2625,0.0375 -12.525,0.0375 -18.7875,0.075 -0.025,-2.575 -0.05,-5.125 -0.0625,-7.6875 z"
             id="path3502" />
          <path
             style="fill:#a1cba7"
             inkscape:connector-curvature="0"
             d="m 510.75535,648.02827 c 6.2625,-0.5625 12.5625,-0.425 18.85,-0.3875 -0.025,2.525 0.025,5.0625 -0.1875,7.5875 -6.25,0.625 -12.6375,0.675 -18.825,-0.35 0.0375,-2.3 0.1,-4.575 0.1625,-6.85 z"
             id="path3504" />
          <path
             style="fill:#a1cba9"
             inkscape:connector-curvature="0"
             d="m 540.29285,647.62827 c 4.325,0.0125 8.6625,0.0125 13,0.05 0,2.6125 -0.0125,5.2375 -0.025,7.875 -4.3125,0 -8.6375,0 -12.9375,0 -0.0375,-2.65 -0.0375,-5.2875 -0.0375,-7.925 z"
             id="path3506" />
          <path
             style="fill:#e24072"
             inkscape:connector-curvature="0"
             d="m 563.76785,647.54077 c 7.9375,0.0625 15.8875,-0.025 23.825,0.075 -0.0125,2.6375 -0.025,5.2875 -0.0625,7.95 -7.8125,-0.2 -15.6375,-0.725 -23.4375,0.15 -0.1125,-2.725 -0.225,-5.4625 -0.325,-8.175 z"
             id="path3508" />
          <path
             style="fill:#fbb68a"
             inkscape:connector-curvature="0"
             d="m 598.21785,648.01577 c 9.8625,-0.175 19.725,-0.1 29.5875,-0.075 -0.0125,2.5 -0.025,5 -0.025,7.5 -9.8875,-0.2 -19.8125,0.625 -29.6625,-0.4125 0.025,-2.35 0.0625,-4.675 0.1,-7.0125 z"
             id="path3510" />
          <path
             style="fill:#fefdfd"
             inkscape:connector-curvature="0"
             d="m 638.13035,648.06577 c 11.65,-0.55 23.2875,-0.175 34.9375,-0.075 -0.05,2.5125 -0.0875,5.025 -0.125,7.55 -11.6375,-0.325 -23.35,0.7375 -34.925,-0.6 0.0375,-2.3125 0.075,-4.5875 0.1125,-6.875 z"
             id="path3512" />
          <path
             style="fill:#a9cfb3"
             inkscape:connector-curvature="0"
             d="m 683.75535,647.64077 c 4.3125,0 8.6125,0 12.9375,-0.0125 0,2.65 0,5.3 0,7.9625 -4.3125,-0.025 -8.625,-0.0375 -12.9375,-0.025 -0.0125,-2.65 -0.0125,-5.2875 0,-7.925 z"
             id="path3514" />
          <path
             style="fill:#a9cfb2"
             inkscape:connector-curvature="0"
             d="m 706.96785,647.89077 c 6.225,-0.35 12.4625,-0.275 18.7,-0.2375 -0.025,2.6375 -0.05,5.2875 -0.0625,7.9375 -6.2625,-0.0625 -12.55,0.25 -18.7875,-0.5 0.0375,-2.4125 0.1,-4.8125 0.15,-7.2 z"
             id="path3516" />
          <path
             style="fill:#9ecaa7"
             inkscape:connector-curvature="0"
             d="m 510.73035,663.14077 c 6.275,-0.1375 12.5375,-0.1125 18.8125,-0.1125 0.025,2.5625 0.05,5.125 0.075,7.7125 -6.3125,0.025 -12.6125,0.0375 -18.9125,-0.0625 0,-2.525 0.0125,-5.0375 0.025,-7.5375 z"
             id="path3518" />
          <path
             style="fill:#a2c9ad"
             inkscape:connector-curvature="0"
             d="m 540.24285,663.07827 c 4.375,-0.0375 8.7375,-0.05 13.1125,-0.0375 -0.0375,2.5625 -0.075,5.1375 -0.1,7.7125 -4.325,-0.0125 -8.6375,-0.0125 -12.95,-0.0125 -0.025,-2.5625 -0.0375,-5.1125 -0.0625,-7.6625 z"
             id="path3520" />
          <path
             style="fill:#df3e74"
             inkscape:connector-curvature="0"
             d="m 563.84285,663.05327 c 7.95,0.1 15.9125,0.025 23.875,0.05 0.025,2.5625 0.05,5.1125 0.0875,7.6875 -7.9625,-0.025 -15.9375,-0.05 -23.9,0.0125 -0.0375,-2.5875 -0.05,-5.1625 -0.0625,-7.75 z"
             id="path3522" />
          <path
             style="fill:#fbb488"
             inkscape:connector-curvature="0"
             d="m 598.19285,663.17827 c 0.825,-0.0125 2.4625,-0.05 3.2875,-0.0625 12.225,-0.2 24.4625,-0.0375 36.7,-0.0625 0.2375,2.6875 0.4875,5.3875 0.7875,8.0875 -13.5625,-0.75 -27.1625,-0.175 -40.75,-0.5 -0.0125,-2.4875 -0.025,-4.975 -0.025,-7.4625 z"
             id="path3524" />
          <path
             style="fill:#fefefc"
             inkscape:connector-curvature="0"
             d="m 648.95535,663.09077 c 15.1875,0.0125 30.375,0.0125 45.55,0 -0.0125,2.55 -0.025,5.0875 -0.025,7.65 -15.1625,-0.05 -30.325,-0.05 -45.4875,0.0125 -0.0125,-2.5625 -0.025,-5.1125 -0.0375,-7.6625 z"
             id="path3526" />
          <path
             style="fill:#adcfb0"
             inkscape:connector-curvature="0"
             d="m 705.18035,663.05327 c 4.3625,0 8.7125,0 13.075,-0.025 -0.0125,2.5625 -0.0125,5.15 -0.0125,7.725 -4.3375,0 -8.6625,-0.0125 -12.9875,0 -0.025,-2.575 -0.05,-5.1375 -0.075,-7.7 z"
             id="path3528" />
          <path
             style="fill:#acceb5"
             inkscape:connector-curvature="0"
             d="m 728.78035,663.04077 c 4.375,0.025 8.75,0.0125 13.125,-0.0125 -0.025,2.5625 -0.0375,5.1375 -0.05,7.7125 -4.3375,-0.025 -8.675,-0.0125 -13.0125,0 -0.025,-2.575 -0.05,-5.1375 -0.0625,-7.7 z"
             id="path3530" />
          <path
             style="fill:#9bcaa4"
             inkscape:connector-curvature="0"
             d="m 510.69285,678.36577 c 6.3,-0.1625 12.6125,-0.125 18.925,-0.1375 -0.0125,2.5875 -0.025,5.1625 -0.025,7.7625 -6.3,0.05 -12.6,0.0875 -18.8875,-0.1 -0.0125,-2.525 -0.0125,-5.025 -0.0125,-7.525 z"
             id="path3532" />
          <path
             style="fill:#a2caaa"
             inkscape:connector-curvature="0"
             d="m 540.25535,678.29077 c 4.3375,-0.0125 8.675,-0.0125 13.025,-0.025 -0.0125,2.5625 -0.0125,5.15 0,7.7375 -4.3375,-0.0125 -8.6625,-0.0375 -12.975,-0.0375 -0.025,-2.5625 -0.0375,-5.125 -0.05,-7.675 z"
             id="path3534" />
          <path
             style="fill:#df4277"
             inkscape:connector-curvature="0"
             d="m 563.91785,678.29077 c 7.9375,0.0625 15.8875,-0.0125 23.825,0.05 0.0375,2.525 0.075,5.0625 0.1125,7.6125 -7.9875,0.075 -15.9875,0.0625 -23.975,0.0625 0.0125,-2.5875 0.025,-5.1625 0.0375,-7.725 z"
             id="path3536" />
          <path
             style="fill:#fbae80"
             inkscape:connector-curvature="0"
             d="m 598.24285,678.35327 c 6,-0.0625 12.0125,-0.0625 18.025,-0.05 1.9875,0 3.975,0 5.975,0.025 -0.0625,2.5125 -0.1125,5.0375 -0.1625,7.575 -7.9625,0.15 -15.9125,0.0125 -23.875,0.0125 0.0125,-2.525 0.0125,-5.05 0.0375,-7.5625 z"
             id="path3538" />
          <path
             style="fill:#fcfcfb"
             inkscape:connector-curvature="0"
             d="m 632.75535,678.29077 c 9.7375,0 19.4625,0.025 29.1875,0 0,2.5625 0,5.1375 0.0125,7.7125 -9.725,-0.05 -19.4625,0 -29.2,-0.025 0,-2.575 0,-5.125 0,-7.6875 z"
             id="path3540" />
          <path
             style="fill:#aed0b4"
             inkscape:connector-curvature="0"
             d="m 672.75535,678.29077 c 4.325,-0.0125 8.65,-0.0125 12.975,0 -0.0125,2.5625 -0.0125,5.125 0,7.7 -4.325,-0.0125 -8.65,-0.0125 -12.9625,0.025 0,-2.5875 -0.0125,-5.1625 -0.0125,-7.725 z"
             id="path3542" />
          <path
             style="fill:#abcfb4"
             inkscape:connector-curvature="0"
             d="m 696.49285,678.31577 c 6.2125,-0.0375 12.425,-0.0625 18.6375,0.025 -0.0375,2.5125 -0.05,5.05 -0.0625,7.5875 -6.1875,0.05 -12.3625,0.025 -18.5375,0.0375 -0.0125,-2.5625 -0.025,-5.1125 -0.0375,-7.65 z"
             id="path3544" />
          <path
             style="fill:#9ecaa8"
             inkscape:connector-curvature="0"
             d="m 540.28035,693.49077 c 4.35,0.025 8.6875,0.025 13.0375,0.0375 -0.0125,2.5375 -0.0125,5.0875 0,7.65 -4.3625,0.0125 -8.7125,0 -13.05,-0.0125 0,-2.5625 0,-5.125 0.0125,-7.675 z"
             id="path3546" />
          <path
             style="fill:#fcfefc"
             inkscape:connector-curvature="0"
             d="m 638.06785,698.56577 c -0.0125,-1.6875 0.0375,-3.325 0.0625,-4.9875 11.625,-0.0875 23.25,-0.025 34.8875,-0.0375 -0.0125,2.5125 0,5.0375 0.0125,7.5625 -10.9625,-0.0375 -21.925,0.0375 -32.8875,-0.0375 -0.525,0 -1.575,-0.0125 -2.1125,-0.025 0.0125,-0.6125 0.025,-1.85 0.0375,-2.475 z"
             id="path3548" />
          <path
             style="fill:#abceb2"
             inkscape:connector-curvature="0"
             d="m 706.96785,693.55327 c 6.2375,-0.05 12.475,-0.025 18.7125,0 0,2.55 0,5.0875 0.0125,7.65 -6.275,-0.05 -12.55,-0.0375 -18.8125,-0.05 0.025,-2.5375 0.0625,-5.075 0.0875,-7.6 z"
             id="path3550" />
          <path
             style="fill:#9dcba9"
             inkscape:connector-curvature="0"
             d="m 510.71785,693.57827 c 6.3,-0.075 12.6,-0.0625 18.9,-0.0625 -0.0375,2.5375 -0.05,5.0875 -0.075,7.65 -6.2875,0.0125 -12.5625,0.0875 -18.85,-0.1125 0.0125,-2.5 0.0125,-5 0.025,-7.475 z"
             id="path3552" />
          <path
             style="fill:#e14073"
             inkscape:connector-curvature="0"
             d="m 563.86785,701.15327 c 0.0125,-2.5875 0.025,-5.15 0.0375,-7.7125 7.9625,0.1 15.9125,0.0125 23.875,0.1375 0.025,2.5 0.0625,5 0.0875,7.5125 -8,0.125 -16,0.0875 -24,0.0625 z"
             id="path3554" />
          <path
             style="fill:#faad7d"
             inkscape:connector-curvature="0"
             d="m 598.25535,693.60327 c 9.85,-0.0625 19.7,-0.025 29.55,-0.0125 0,2.5125 0,5.025 0.0375,7.55 -9.9,-0.05 -19.8,0.075 -29.7,-0.075 0.0375,-2.5 0.075,-4.9875 0.1125,-7.4625 z"
             id="path3556" />
          <path
             style="fill:#aacdb6"
             inkscape:connector-curvature="0"
             d="m 683.81785,693.85327 c 4.2375,-0.775 8.6125,-0.2125 12.9125,-0.3 -0.0125,2.5375 -0.025,5.075 -0.025,7.625 -4.5125,0 -9.025,-0.0125 -13.5375,-0.125 0.1875,-2.4 -0.225,-4.925 0.65,-7.2 z"
             id="path3558" />
          <path
             style="fill:#a1c9a6"
             inkscape:connector-curvature="0"
             d="m 492.83035,708.74077 c 6.2375,0.0125 12.475,-0.025 18.725,0.0125 0.0125,2.5375 0.025,5.075 0.05,7.6375 -6.2875,0.025 -12.5625,0 -18.85,0.025 0.025,-2.5625 0.05,-5.125 0.075,-7.675 z"
             id="path3560" />
          <path
             style="fill:#c2c4c3"
             inkscape:connector-curvature="0"
             d="m 615.11785,742.04077 c 42.525,0 85.0625,0 127.5875,0 l 0,0.8125 c -0.7875,15.2875 0.025,30.5875 -0.5125,45.875 -42.35,0.05 -84.7125,0.0125 -127.075,0.025 0.025,-15.575 0.025,-31.1375 0,-46.7125 z"
             id="path3562" />
          <path
             style="fill:#e0e2e1"
             inkscape:connector-curvature="0"
             d="m 742.70535,742.85327 c 0.8875,15.275 -0.0375,30.5875 0.5875,45.8625 9.0625,0.1375 18.15,-0.125 27.225,0.225 0.075,2.875 0.15,5.75 0.2375,8.65 -62.275,0.0125 -124.5625,0.0125 -186.8375,0 0.0875,-2.8625 0.175,-5.725 0.2625,-8.575 10.3125,-0.5125 20.625,-0.1625 30.9375,-0.2625 42.3625,-0.0125 84.725,0.025 127.075,-0.025 0.5375,-15.2875 -0.275,-30.5875 0.5125,-45.875 z"
             id="path3564" />
          <path
             style="fill:#b08260"
             inkscape:connector-curvature="0"
             d="m 1.43035,797.56577 c 194.1625,0.0125 388.325,-0.0125 582.4875,0.025 62.275,0.0125 124.5625,0.0125 186.8375,0 195,-0.0375 389.98755,-0.0125 584.97505,-0.025 0.125,13.55 0.062,27.0875 0.038,40.6375 -9.75,0 -19.4875,-0.025 -29.2375,0.025 -432.31255,0.05 -864.62505,0.025 -1296.93755,0 l -0.8,0 c -9.1375,-0.05 -18.2625,-0.025 -27.4,-0.025 -0.025,-13.55 -0.0875,-27.0875 0.0375,-40.6375 z"
             id="path3566" />
          <path
             style="fill:#816852"
             inkscape:connector-curvature="0"
             d="m 28.79285,836.22827 0.8,0 c 0.025,4.0625 0.075,8.1375 0.15,12.2125 28.7375,0.6625 57.5,0.0625 86.25,0.275 255.025,0 510.05,-0.0125 765.075,0 148.47495,-0.0875 296.96255,0.1375 445.45005,-0.1125 -0.038,4.3375 -0.05,8.6875 -0.05,13.0375 -13.2376,0 -26.4876,-0.0125 -39.7251,0 -14.4624,0 -28.9249,0 -43.3874,0.0125 -376.18755,-0.025 -752.37505,-0.025 -1128.56255,0 -14.4625,-0.025 -28.9375,-0.0125 -43.4125,-0.0125 -14.15,-0.0125 -28.3125,0 -42.4625,-0.0125 0.025,-8.4625 -0.15,-16.9375 -0.125,-25.4 z"
             id="path3568" />
          <path
             style="fill:#6c5a47"
             inkscape:connector-curvature="0"
             d="m 29.59285,838.22827 c 432.3125,0.025 864.625,0.05 1296.93745,0 0.013,4.1125 0,8.2375 -0.012,12.375 -148.4875,0.25 -296.9751,0.025 -445.45005,0.1125 -255.025,-0.0125 -510.05,0 -765.075,0 -28.75,-0.2125 -57.5125,0.3875 -86.25,-0.275 -0.075,-4.075 -0.125,-8.15 -0.15,-12.2125 z"
             id="path3570" />
          <path
             style="fill:#a78869"
             inkscape:connector-curvature="0"
             d="m 1243.3554,861.65327 c 14.4625,-0.0125 28.925,-0.0125 43.3874,-0.0125 18.7251,95.125 37.1501,190.32503 56.1376,285.40003 l -34.1875,0 c -5.3,-25.925 -11.8,-51.6 -17.525,-77.425 -15.9375,-69.325 -31.9625,-138.62503 -47.8125,-207.96253 z"
             id="path3572" />
          <path
             style="fill:#a78869"
             inkscape:connector-curvature="0"
             d="m 71.38035,861.64077 c 14.475,0 28.95,-0.0125 43.4125,0.0125 -21.8875,95.125 -43.7375,190.27503 -65.6875,285.38753 l -33.5125,0 c 5.775,-32.075 12.5,-63.9875 18.6125,-96.0125 12.4125,-63.12503 24.775,-126.26253 37.175,-189.38753 z"
             id="path3574" />
        </g>
      </g>
    </g>
  </g>
</svg>
