<?xml version="1.0" encoding="UTF-8" standalone="no"?>
<!-- Created with Inkscape (http://www.inkscape.org/) -->

<svg
   xmlns:dc="http://purl.org/dc/elements/1.1/"
   xmlns:cc="http://creativecommons.org/ns#"
   xmlns:rdf="http://www.w3.org/1999/02/22-rdf-syntax-ns#"
   xmlns:svg="http://www.w3.org/2000/svg"
   xmlns="http://www.w3.org/2000/svg"
   xmlns:sodipodi="http://sodipodi.sourceforge.net/DTD/sodipodi-0.dtd"
   xmlns:inkscape="http://www.inkscape.org/namespaces/inkscape"
   width="491.77222mm"
   height="253.81314mm"
   viewBox="0 0 1742.5 899.3379"
   id="svg5494"
   version="1.1"
   inkscape:version="0.91 r13725"
   sodipodi:docname="lay3.svg">
  <defs
     id="defs5496" />
  <sodipodi:namedview
     id="base"
     pagecolor="#ffffff"
     bordercolor="#666666"
     borderopacity="1.0"
     inkscape:pageopacity="0.0"
     inkscape:pageshadow="2"
     inkscape:zoom="0.70710678"
     inkscape:cx="973.74711"
     inkscape:cy="446.56377"
     inkscape:document-units="px"
     inkscape:current-layer="g5608"
     showgrid="false"
     inkscape:window-width="1920"
     inkscape:window-height="1027"
     inkscape:window-x="1272"
     inkscape:window-y="-8"
     inkscape:window-maximized="1"
     fit-margin-top="0"
     fit-margin-left="0"
     fit-margin-right="0"
     fit-margin-bottom="0" />
  <metadata
     id="metadata5499">
    <rdf:RDF>
      <cc:Work
         rdf:about="">
        <dc:format>image/svg+xml</dc:format>
        <dc:type
           rdf:resource="http://purl.org/dc/dcmitype/StillImage" />
        <dc:title></dc:title>
      </cc:Work>
    </rdf:RDF>
  </metadata>
  <g
     inkscape:label="Layer 1"
     inkscape:groupmode="layer"
     id="layer1"
     transform="translate(225.64956,-452.0636)">
    <g
       id="g5608"
       transform="matrix(1.25,0,0,1.25,-225.64956,455.15093)">
      <g
         transform="matrix(0.8,0,0,0.8,368.11749,-35.389307)"
         id="layer1-4"
         inkscape:label="Layer 1">
        <g
           transform="matrix(1.25,0,0,1.25,-454.10714,44.237205)"
           id="g8022">
          <path
             sodipodi:nodetypes="ccccccccccccccc"
             style="fill:#7bbe1c"
             inkscape:connector-curvature="0"
             d="m 331.27339,445.42589 c 0.03,6.74 -0.0334,13.66411 0.0166,20.41411 1.53,-1.09 3.05,-2.19 4.58,-3.27 0.25,0.33 0.75,0.97 1,1.3 0.29,0.25 0.87,0.77 1.16,1.02 -2.25,1.63 -4.49,3.28 -6.73,4.92 -0.03,2.62 -0.04,5.25 -0.05,7.89 -0.79,-0.01 -2.38,-0.01 -3.17,-0.01 -0.34,-4.27 0.1,-8.54 0.02,-12.81 0.14,-2.75 -2.9,-3.84 -4.5,-5.52 0.45,-0.54 0.89,-1.09 1.3,-1.65 l 0.33,-0.88 c 0.64,0.49 1.93,1.47 2.57,1.96 0.49,-4.18 0.26286,-10.15571 0.0929,-14.32571 0.64266,2.09045 1.8126,1.5358 3.38049,0.9616 z"
             id="path8002" />
          <path
             style="fill:#ffce41"
             inkscape:connector-curvature="0"
             d="m 1198.73,232.12 c 4.73,-0.39 9.48,-0.34 14.23,-0.29 26.49,-0.01 52.98,0 79.48,-0.01 7.21,47.8 14.18,95.65 21.25,143.47 -20.64,0.03 -41.28,0 -61.92,0.01 -3.71,0 -7.41,0 -11.11,0 -21.01,-0.01 -42.02,0.03 -63.03,-0.02 7.02,-47.72 14.22,-95.42 21.1,-143.16 z"
             id="path7986" />
          <path
             style="fill:#4b5161"
             inkscape:connector-curvature="0"
             d="m 1240.66,375.3 c 3.7,0 7.4,0 11.11,0 -0.01,113.9 0,227.8 0,341.7 l -11.11,0 c 0,-113.9 0,-227.8 0,-341.7 z"
             id="path7988" />
          <path
             style="fill:#6cae0d"
             inkscape:connector-curvature="0"
             d="m 321.3,434.96 c -0.01,-6.18 4.29,-11.12 8.78,-14.85 0.24,8.58 -0.12,17.16 0.04,25.74 -0.36,0.06 -1.06,0.18 -1.42,0.24 -4.9,-1.15 -7.81,-6.31 -7.4,-11.13 z"
             id="path7990" />
          <path
             sodipodi:nodetypes="ccccc"
             style="fill:#5ea018"
             inkscape:connector-curvature="0"
             d="m 329.97899,420.11 c 4.15,3.85 8.04,8.87 7.78,14.85 0.24,4.38 -2.1,9.43 -6.6,10.64 l -1.14,0.28125 c -0.16,-8.58 0.2,-17.19125 -0.04,-25.77125 z"
             id="path7992" />
          <path
             style="fill:#5ea018"
             inkscape:connector-curvature="0"
             d="m 300.31,440.39 c 5.83,-1.59 12.42,-1.63 17.75,1.54 5.17,2.77 9.02,8.96 7.17,14.9 l -0.33,0.88 c -8.41,-5.45 -17.07,-10.66 -24.59,-17.32 z"
             id="path7994" />
          <path
             style="fill:#6cae0d"
             inkscape:connector-curvature="0"
             d="m 349,441.12 c 5.87,-1.65 12.06,-0.68 17.86,0.8 l -0.56,0.39 c -9.91,7.04 -19.67,14.31 -29.43,21.56 -0.25,-0.33 -0.75,-0.97 -1,-1.3 -1.67,-3.13 -1.82,-7 -0.4,-10.25 2.32,-5.66 7.7,-9.68 13.53,-11.2 z"
             id="path7996" />
          <path
             style="fill:#6cae0d"
             inkscape:connector-curvature="0"
             d="m 305.18,456.84 c -4.13,-4.58 -6.42,-10.99 -5.69,-17.15 l 0.82,0.7 c 7.52,6.66 16.18,11.87 24.59,17.32 -0.41,0.56 -0.85,1.11 -1.3,1.65 -5.37,5.04 -13.96,2.46 -18.42,-2.52 z"
             id="path7998" />
          <path
             style="fill:#5ea018"
             inkscape:connector-curvature="0"
             d="m 336.87,463.87 c 9.76,-7.25 19.52,-14.52 29.43,-21.56 -0.61,7.85 -3.33,16.09 -9.8,21.05 -5.08,4.02 -13.02,5.88 -18.47,1.53 -0.29,-0.25 -0.87,-0.77 -1.16,-1.02 z"
             id="path8000" />
          <path
             sodipodi:nodetypes="cccccc"
             style="fill:#202020"
             inkscape:connector-curvature="0"
             d="m 941.96,445.84 c 3.91002,0.04 7.62876,-0.0479 11.83037,-0.0242 0.03,30.14 -0.0504,60.89417 -0.10037,91.03417 -52.11,-0.24 -104.22,-0.03 -156.34,-0.1 0.08,-30.1 -0.27786,-60.86857 -0.21786,-90.96857 49.79212,0.11525 101.84368,0.0418 144.82786,0.0586 z"
             id="path8004" />
          <path
             sodipodi:nodetypes="ccccccccc"
             style="fill:#141515"
             inkscape:connector-curvature="0"
             d="M 804.06322,452.45492 C 819.4917,452.57728 835.43,452.9 851.02,452.72 c 25.67,-0.11 51.34,0.18 77.01,-0.18 6.33,0.05 12.68,-0.28 19.01,0.3 0.49,15.38 -0.09,30.78 0.1,46.17 -0.14,10.92 0.28,21.86 -0.29,32.77 -21.63,0.42 -43.27,0.04 -64.9,0.12 -25.97,0.11 -51.94,0.4 -77.9,0 0.52914,-28.44715 0.21981,-54.15428 0.0132,-79.44508 z"
             id="path8006" />
          <path
             style="fill:#9f4e26"
             inkscape:connector-curvature="0"
             d="m 308.82,477.73 c 6.42,-0.06 12.84,-0.02 19.26,-0.04 0.79,0 2.38,0 3.17,0.01 6.18,0 12.36,0 18.55,0 0.01,2.53 0.01,5.08 0,7.62 -0.51,0 -1.54,0 -2.05,0 -11.92,-0.02 -23.84,-0.02 -35.75,0.02 -0.8,-0.01 -2.39,-0.03 -3.18,-0.04 -0.01,-2.53 -0.01,-5.05 0,-7.57 z"
             id="path8008" />
          <path
             style="fill:#cc5b31"
             inkscape:connector-curvature="0"
             d="m 312,485.34 c 11.91,-0.04 23.83,-0.04 35.75,-0.02 -2.43,8.51 -4.84,17.03 -7.33,25.53 -7.12,-0.07 -14.25,0.11 -21.37,-0.12 -2.13,-8.53 -4.92,-16.87 -7.05,-25.39 z"
             id="path8010" />
          <path
             sodipodi:nodetypes="cccccc"
             style="fill:#e0e2e1"
             inkscape:connector-curvature="0"
             d="m 797.35,536.75 c 52.12,0.07 104.23,-0.14 156.34,0.1 1.99492,1.49033 4.26272,2.82 6.54,4.49 -54.07,0.33 -108.15,0 -162.23,0.16 -0.28,1.59 -0.57,3.19 -0.83,4.8 -0.13,-3.19 -0.07,-6.38 0.18,-9.55 z"
             id="path8012" />
          <path
             sodipodi:nodetypes="ccccc"
             style="fill:#c2c4c3"
             inkscape:connector-curvature="0"
             d="m 797.19643,541.375 c 54.08,-0.16 109.0267,0.295 163.0967,-0.035 -0.0138,1.70005 0.0145,3.66155 -0.002,4.93737 -54.6,0.04 -108.52077,0.0426 -163.12077,0.0226 -0.0257,-1.61 0.05,-3.29929 0.0264,-4.925 z"
             id="path8014" />
        </g>
      </g>
    </g>
  </g>
</svg>
