<svg xmlns="http://www.w3.org/2000/svg" width="1858.667" height="959.294" viewBox="0 0 1742.5 899.3379"><path d="M0 0v899.338h1742.5V.674C1161.662 0 580.838 1.124 0 0zm160.182 180.607c107.032.206 214.051-.165 321.084.206-.243 148.415.026 296.87-.149 445.285-106.965-.206-213.943.124-320.908-.205-.014-148.415.04-296.83-.027-445.286z" fill="#210a34"/><path d="M1260.463 132.675c13.162-1.663 26.837.325 38.712 6.325 17.875 8.712 31.4 25.8 35.638 45.237 4.362 18.4.15 38.55-10.938 53.825-10.037 14.05-25.725 23.95-42.75 26.838-17.087 3.15-35.325-.913-49.55-10.85-17.437-11.8-28.637-32.363-28.812-53.438-.475-13.362 3.337-26.812 10.65-37.987 10.4-16.15 28-27.413 47.05-29.95z" fill="#066e7c"/><path d="M1258.2 140.412c13.775-2.212 28.387-.512 40.525 6.675 18.113 10.113 30.45 30.188 30.387 51.05.388 14.713-5.225 29.35-14.975 40.313-11.837 13.462-29.95 21.312-47.912 20.025-29.8-.988-56.325-27.85-56.025-57.825-.912-15.35 5.188-30.638 15.488-41.9 8.524-9.35 20.15-15.775 32.512-18.338z" fill="#fff"/><path d="M1267.763 141.262c.797.05 1.654.317 2.127 1.006.52.762.547 1.724.529 2.615-.026 1.168-.222 2.337-.094 3.504-.815.182-1.632.357-2.45.525a97.647 97.647 0 0 1-.112-7.65z" fill="#10737a"/><path d="M1266.588 153.05c-.243-2.957 4.905-2.782 3.681.26.118 13.713-.015 27.427.056 41.14-.841 2.978 2.578 2.768 3.854 4.428 2.101 1.747 4.64 2.819 6.984 4.184-.372 1.562-.084 4.403-2.359 2.883-3.055-1.1-5.612-3.166-8.454-4.683-.05 3.7-.05 7.4-.05 11.1-1.875.22-4.428 1.158-3.702-1.714-.162-3.822-.101-7.65-.047-11.473-6.435-3.948-13.104-7.495-19.57-11.39-2.137-1.833.557-4.848 2.603-2.75 5.832 2.767 11.041 6.67 16.892 9.402.15-13.795-.088-27.592.112-41.387z"/><path d="M497.488 170.088c-116.362.212-232.738-.001-349.113.111-.088 156.913.15 313.826-.113 470.739l.039.4c-4.625-.038-9.238-.026-13.863-.014.087 7.213-.2 14.426.15 21.639 127.137-.188 254.275-.026 381.412-.076.063-7.2-.187-14.4.188-21.575-6.238.05-12.464-.1-18.676.1a99.028 99.028 0 0 1-.2-5.775v-238.85c.126-75.562-.236-151.137.176-226.7zm-323.25 22.15c99.3.075 198.588-.05 297.875.063-.275 40.1.05 80.199-.138 120.299-93.563.1-187.137.037-280.7.037-5.712-.038-11.45.325-17.138-.375.312-40 .101-80.024.101-120.024zm.012 137.5c99.287.063 198.562-.05 297.85.063-.225 45.1.025 90.212-.137 135.312-99.225-.062-198.463.038-297.688-.062-.012-45.1.037-90.2-.025-135.313zm297.213 152.725c.925 5.6.511 11.274.549 16.924.012 40.262-.024 80.526.013 120.8-95.7.276-191.4-.013-287.1.137-3.6.063-7.213.025-10.788-.437.325-45.788.062-91.6.125-137.387 99.062.038 198.138.1 297.2-.037z" fill="#e9e9e7"/><path d="M497.487 170.087c.85 1.713 1.7 3.5 1.613 5.463-.1 84.187.025 168.362-.013 252.55-.062 66.675-.012 133.35.013 200.025-.238 4.412 1.112 9.375-1.588 13.287a99.016 99.016 0 0 1-.2-5.775v-238.85c.125-75.562-.237-151.137.175-226.7zm-324.45 20.363c.65.275 1.963.85 2.625 1.137l-.3-1.375c98.875.113 197.75.1 296.625.013.038.512.1 1.562.125 2.075-99.287-.113-198.575.012-297.875-.063 0 40 .213 80.025-.1 120.025-.237.2-.712.625-.95.825-.312-40.875 0-81.762-.15-122.637z"/><path d="M1211.513 198.125c.701-.864 1.754-1.384 2.843-1.553 1.611-.27 3.248-.022 4.869-.135a140.9 140.9 0 0 0 .1 3.25c-1.853-.113-3.744.206-5.565-.263a4.712 4.712 0 0 1-2.247-1.3zm107.775-1.525c2.035-.226 4.084-.087 6.125-.05.211.72.286 1.571-.18 2.212-.495.665-1.35.896-2.136.994-1.288.143-2.59-.01-3.858-.24-.578-.136-1.046-.654-1.078-1.255a1.61 1.61 0 0 1 1.126-1.661z" fill="#14757c"/><path d="M1263.037 197.075c1.163.7 2.325 1.4 3.513 2.1-14.975 1.162-29.9 3.512-44.9 3.862.962-1.6 2.662-2.2 4.45-2.237 12.313-1.225 24.663-2.15 36.938-3.725z" fill="#f09b88"/><path d="M1267.887 247.375c.6.1 1.8.312 2.4.412-.312 2.263.938 5.225-.862 6.988-2.063 1.137-1.538-1.7-1.725-2.863 0-1.525.05-3.037.188-4.537z" fill="#10737a"/><path d="M173.075 465.037c-.025-45.787.013-91.562-.025-137.337 99.662.062 199.325.087 298.975-.025.025.537.063 1.6.075 2.125-99.288-.113-198.563 0-297.85-.063.062 45.113.012 90.213.025 135.313-.3 0-.9-.013-1.2-.013z"/><path d="M1230.925 406.362c.237-3.225-.838-9.45 4.075-9.125 5.625-1.062 4.75 5.563 4.787 9.125-.137 4.5.3 9.063-.537 13.513-2.212 2.212-7.75 2.175-8.025-1.713-.488-3.912-.25-7.862-.3-11.8zm57.225-7.762c1.525-1.838 4.275-1.525 6.362-1.013 2.55 2 1.538 5.9 2 8.775-.137 4.525.488 9.263-.95 13.65-1.962 1.875-5.537 1.738-7.437-.125-.775-4.475-.375-9.025-.475-13.525.025-2.6-.037-5.212.5-7.762z" fill="#61687d"/><path d="M1203.563 409.162c.137-1.862 2.112-2.85 3.812-2.737 7.837-.263 15.7.025 23.55-.063.05 3.938-.188 7.888.3 11.8.275 3.888 5.813 3.925 8.025 1.713.838-4.45.4-9.013.537-13.513 15.95-.025 31.9-.012 47.863 0 .1 4.5-.3 9.05.475 13.525 1.9 1.863 5.475 2 7.437.125 1.438-4.387.813-9.125.95-13.65 7.413.125 14.85-.3 22.263.138 1.55-.075 3.037 1.337 3.087 2.9.463 5.65.05 11.325.163 16.987-39.563-.012-79.125-.025-118.675.013.138-5.75-.375-11.513.213-17.238z" fill="#f05755"/><path d="M1203.337 428.175c0-.45.013-1.338.013-1.775 39.55-.038 79.112-.025 118.675-.013-.025 26.45.087 52.888-.063 79.325-.362.488-1.075 1.463-1.437 1.95-37.713.313-75.45.15-113.175.088-2.8.512-4.237-2.188-4.013-4.613-.012-24.987 0-49.975 0-74.962z" fill="#fef6e9"/><path d="M1275.263 436.525c4.679.025 9.358.025 14.037.025.05 4.895.05 9.791.037 14.687-4.729.025-9.458.025-14.187-.025 0-4.896-.025-9.793.112-14.687zm-38.575 14.725c0-4.938-.176-9.888.212-14.813 4.65.138 9.313.113 13.975.175 0 4.875.013 9.75 0 14.638-4.737.012-9.463.012-14.188 0zm19.35-.063c.212-4.924-.675-9.96.675-14.787 4.572.2 9.15.162 13.725.15.037 4.891.037 9.783.024 14.675-4.808.05-9.617.05-14.424-.038zm37.812-14.662c4.7.037 9.387.025 14.1.037.037 4.888.037 9.775.037 14.663a502.4 502.4 0 0 1-14.425-.038c0-4.887-.225-9.8.288-14.662zm-18.575 21.175c4.662.037 9.338.037 14.025.037.05 4.913.05 9.825.025 14.738-4.85.05-9.7.05-14.537-.063.25-4.9.412-9.8.487-14.712zm-58.1.187c4.775-.037 9.55-.125 14.338.15.025 4.85.037 9.7.025 14.563a464.83 464.83 0 0 1-14.413.025c-.012-4.913-.012-9.825.05-14.738zm19.55-.162c4.662.025 9.338.025 14.013-.063.224 4.938.15 9.888.137 14.838-4.737 0-9.463-.013-14.175.012-.05-4.937-.05-9.862.025-14.787zm19.475.037a900.8 900.8 0 0 1 14.238-.012c.037 4.912.037 9.812.024 14.725-4.812.037-9.624.037-14.424-.038-.025-4.9-.113-9.787.162-14.675zm37.625-.05c4.7.025 9.412.013 14.125.025.037 4.913.037 9.813.037 14.725-4.825.05-9.625.063-14.437-.025 0-4.912-.188-9.837.275-14.725zm-56.85 22.05c4.75-.025 9.5 0 14.25-.037.113 4.987.9 10.125-.537 15-4.475-.25-8.963.025-13.425-.275-.725-4.863-.113-9.8-.288-14.688zm19.6-.012c4.725 0 9.45 0 14.188.012-.025 4.975.212 9.963-.238 14.938-4.675-.163-9.35-.025-14.013-.288.076-4.887.038-9.775.063-14.662zm18.838.012c4.725-.012 9.45-.012 14.187 0-.075 4.763.238 9.55-.125 14.325-4.437 1.2-9.462.263-14.112.338.075-4.9.025-9.775.05-14.663zm18.675-.012c4.725 0 9.45 0 14.2.012 0 4.875-.05 9.763.05 14.638-4.675.275-9.35.137-14.013.3-.438-4.975-.237-9.963-.237-14.95z" fill="#f05755"/><path d="M172.962 480.95c99.95.237 199.913-.125 299.863.175-.338.337-1.025 1-1.363 1.337-99.062.138-198.137.075-297.2.038-.062 45.787.2 91.6-.125 137.387-.237.225-.7.65-.925.863-.4-46.6.088-93.213-.25-139.8z"/><path d="M1217.25 480.212c4.8-.05 9.6-.05 14.412-.012.025 4.875.025 9.75 0 14.625-4.812.037-9.625.037-14.412-.013-.025-4.875-.025-9.737 0-14.6z" fill="#f05755"/><path d="M648.5 491.1c5.387-.5 10.813-.163 16.225-.25.05 18.05.025 36.1 0 54.137-11.887-2.125-23.988-1.2-35.975-.912-6 .137-12.112 1.3-18.038-.138 2.4-14.075 3.75-28.412 3.05-42.687.313-.513.938-1.525 1.25-2.038 16.263-.275 32.538.275 48.8-.212.013-2.4.025-4.8.05-7.2-4.437-.35-8.9-.35-13.337.075l-2.025-.775z" fill="#fcda92"/><path d="M537.275 549.35c1.225-8.65-.037-17.3-.787-25.913 5.887.363 11.8.275 17.7.613l.375 4.937c6.287-.237 12.825-.137 18.8-2.375.25-.625.774-1.887 1.037-2.512 5.038-.25 10.088-.3 15.137-.613 1.825 7.25.913 14.775-.225 22.063-1.625 10.087-2.075 20.487-.212 30.575-9.875-3.363-20.225.85-30.3 1.025-8.537.512-18.475-1.525-23.425-9.188-.112-6.25 1.763-12.362 1.9-18.612z" fill="#d7d8da"/><path d="M605.388 582.962c17.187-.037 34.362.038 51.55.013-.35 11.287-.038 22.6.787 33.862.15 2.213-.1 4.438-.587 6.6-16.513 5.313-34.075 4.738-51.175 3.95.075-14.812-.05-29.625-.575-44.425z" fill="#ff73a8"/><path d="M516.188 641.312c1.162 7.838.212 15.8.787 23.7-127.15-.175-254.313.075-381.463-.137-.237-.475-.7-1.438-.925-1.913 127.138-.187 254.275-.025 381.413-.075.063-7.2-.188-14.4.188-21.575z"/><path fill="#fbd17f" fill-rule="evenodd" d="M613.664 490.502h51.096v10.694h-51.096z"/><path d="M629.593 489.175c6.487.012 12.962-.75 19.312-2.088.075 2.163.15 4.338.175 6.513-6.325-.65-12.712-.5-19.062-.363-.1-1.012-.313-3.05-.425-4.062z" fill="#e77b5c" fill-opacity=".784"/><path fill="#fe679e" d="M605.357 573.49h51.563v10.401h-51.562z"/><path d="M621.587 572.575c6.4.05 12.75-.888 19.025-2.025.388 2 .85 4 1.475 5.95-6.812-.013-13.612.125-20.412.337-.025-1.437-.05-2.85-.088-4.262z" fill="#e4be86" fill-opacity=".784"/><path fill="#bbbcbf" d="M536.265 523.119h54.296v8.333h-54.296z"/><path d="M554.836 521.326c6.025-.113 11.95-1.3 17.962-1.788.263 2 .55 4.025 1.413 5.888-6.738-.138-13.475.287-20.213-.05-1.225-1.213-1.337-4.138.838-4.05z" fill="#26a09d" fill-opacity=".784"/></svg>