<svg xmlns="http://www.w3.org/2000/svg" width="1858.667" height="959.294" viewBox="0 0 1742.5 899.3379"><path d="M334.585 559.562c.037 8.425-.042 17.08.02 25.517 1.913-1.362 3.813-2.737 5.725-4.087.313.412.938 1.212 1.25 1.625.363.312 1.088.962 1.45 1.275-2.812 2.037-5.612 4.1-8.412 6.15-.038 3.275-.05 6.562-.063 9.862-.987-.012-2.975-.012-3.962-.012-.425-5.338.125-10.675.025-16.013.175-3.437-3.625-4.8-5.625-6.9a41.988 41.988 0 0 0 1.625-2.062l.412-1.1c.8.612 2.413 1.837 3.213 2.45.612-5.225.328-12.695.116-17.907.803 2.613 2.266 1.92 4.226 1.202z" fill="#7bbe1c"/><path d="M322.118 546.48c-.013-7.726 5.362-13.9 10.975-18.563.3 10.725-.15 21.45.05 32.175-.45.075-1.325.225-1.775.3-6.125-1.438-9.763-7.888-9.25-13.913z" fill="#6cae0d"/><path d="M332.967 527.917c5.187 4.812 10.05 11.087 9.725 18.562.3 5.475-2.625 11.788-8.25 13.3l-1.425.352c-.2-10.725.25-21.49-.05-32.214zm-37.087 25.35c7.288-1.988 15.525-2.038 22.188 1.925 6.462 3.462 11.275 11.2 8.962 18.625l-.412 1.1c-10.513-6.813-21.338-13.325-30.738-21.65z" fill="#5ea018"/><path d="M356.743 554.18c7.337-2.063 15.075-.85 22.325 1l-.7.487c-12.388 8.8-24.588 17.887-36.788 26.95-.312-.413-.937-1.213-1.25-1.625-2.087-3.913-2.275-8.75-.5-12.813 2.9-7.075 9.625-12.1 16.913-14zm-54.775 19.65c-5.163-5.726-8.025-13.738-7.113-21.438l1.025.875c9.4 8.325 20.225 14.837 30.738 21.65-.513.7-1.063 1.387-1.625 2.062-6.713 6.3-17.45 3.075-23.025-3.15z" fill="#6cae0d"/><path d="M341.58 582.617c12.2-9.063 24.4-18.15 36.788-26.95-.763 9.812-4.163 20.112-12.25 26.312-6.35 5.025-16.275 7.35-23.088 1.913-.362-.313-1.087-.963-1.45-1.275z" fill="#5ea018"/><path d="M306.518 599.942c8.025-.075 16.05-.025 24.075-.05.987 0 2.975 0 3.962.012h23.188c.012 3.163.012 6.35 0 9.525h-2.563c-14.9-.025-29.8-.025-44.687.025l-3.975-.05c-.013-3.162-.013-6.312 0-9.462z" fill="#9f4e26"/><path d="M310.493 609.454c14.887-.05 29.787-.05 44.687-.025-3.037 10.638-6.05 21.288-9.162 31.913-8.9-.088-17.813.137-26.713-.15-2.662-10.663-6.15-21.088-8.812-31.738z" fill="#cc5b31"/></svg>