<?xml version="1.0" encoding="UTF-8" standalone="no"?>
<!-- Created with Inkscape (http://www.inkscape.org/) -->

<svg
   xmlns:dc="http://purl.org/dc/elements/1.1/"
   xmlns:cc="http://creativecommons.org/ns#"
   xmlns:rdf="http://www.w3.org/1999/02/22-rdf-syntax-ns#"
   xmlns:svg="http://www.w3.org/2000/svg"
   xmlns="http://www.w3.org/2000/svg"
   xmlns:sodipodi="http://sodipodi.sourceforge.net/DTD/sodipodi-0.dtd"
   xmlns:inkscape="http://www.inkscape.org/namespaces/inkscape"
   width="491.77222mm"
   height="253.81314mm"
   viewBox="0 0 1742.5 899.3379"
   id="svg4827"
   version="1.1"
   inkscape:version="0.91 r13725"
   sodipodi:docname="lay4.svg">
  <defs
     id="defs4829" />
  <sodipodi:namedview
     id="base"
     pagecolor="#ffffff"
     bordercolor="#666666"
     borderopacity="1.0"
     inkscape:pageopacity="0.0"
     inkscape:pageshadow="2"
     inkscape:zoom="2.8"
     inkscape:cx="1293.8862"
     inkscape:cy="85.337473"
     inkscape:document-units="px"
     inkscape:current-layer="layer1-0"
     showgrid="false"
     fit-margin-top="0"
     fit-margin-left="0"
     fit-margin-right="0"
     fit-margin-bottom="0"
     inkscape:window-width="1920"
     inkscape:window-height="1027"
     inkscape:window-x="1272"
     inkscape:window-y="-8"
     inkscape:window-maximized="1" />
  <metadata
     id="metadata4832">
    <rdf:RDF>
      <cc:Work
         rdf:about="">
        <dc:format>image/svg+xml</dc:format>
        <dc:type
           rdf:resource="http://purl.org/dc/dcmitype/StillImage" />
        <dc:title />
      </cc:Work>
    </rdf:RDF>
  </metadata>
  <g
     inkscape:label="Layer 1"
     inkscape:groupmode="layer"
     id="layer1"
     transform="translate(-205.89286,-31.26469)">
    <g
       id="layer1-0"
       inkscape:label="Layer 1"
       transform="translate(-1008.5738,65.95826)">
      <g
         id="g4810"
         transform="translate(2529.6693,959.58149)">
        <path
           id="path8004"
           d="m -73.4779,-389.66937 c 4.887525,0.05 9.53595,-0.0599 14.787963,-0.0302 0.0375,37.675 -0.063,76.11771 -0.125463,113.79271 -65.1375,-0.3 -130.275,-0.0375 -195.425,-0.125 0.1,-37.625 -0.34732,-76.08571 -0.27232,-113.71071 62.24015,0.14406 127.3046,0.0523 181.03482,0.0732 z"
           inkscape:connector-curvature="0"
           style="fill:#202020"
           sodipodi:nodetypes="cccccc" />
        <path
           id="path8006"
           d="m -245.84887,-381.40072 c 19.2856,0.15295 39.20847,0.55635 58.69597,0.33135 32.0875,-0.1375 64.175,0.225 96.2625,-0.225 7.9125,0.0625 15.85,-0.35 23.7625,0.375 0.6125,19.225 -0.1125,38.475 0.125,57.7125 -0.175,13.65 0.35,27.325 -0.3625,40.9625 -27.0375,0.525 -54.0875,0.05 -81.125,0.15 -32.4625,0.1375 -64.925,0.5 -97.375,0 0.66143,-35.55894 0.27476,-67.69285 0.0165,-99.30635 z"
           inkscape:connector-curvature="0"
           style="fill:#141515"
           sodipodi:nodetypes="ccccccccc" />
        <path
           id="path8012"
           d="m -254.2404,-276.03187 c 65.15,0.0875 130.2875,-0.175 195.425,0.125 2.49365,1.86291 5.3284,3.525 8.175,5.6125 -67.5875,0.4125 -135.1875,0 -202.7875,0.2 -0.35,1.9875 -0.7125,3.9875 -1.0375,6 -0.1625,-3.9875 -0.0875,-7.975 0.225,-11.9375 z"
           inkscape:connector-curvature="0"
           style="fill:#e0e2e1"
           sodipodi:nodetypes="cccccc" />
        <path
           id="path8014"
           d="m -254.43236,-270.25062 c 67.6,-0.2 136.28337,0.36875 203.870873,-0.0437 -0.01725,2.12506 0.01812,4.57694 -0.0025,6.17171 -68.250003,0.05 -135.650963,0.0532 -203.900963,0.0283 -0.0321,-2.0125 0.0625,-4.12411 0.033,-6.15625 z"
           inkscape:connector-curvature="0"
           style="fill:#c2c4c3"
           sodipodi:nodetypes="ccccc" />
      </g>
    </g>
  </g>
</svg>
