<?xml version="1.0" encoding="UTF-8" standalone="no"?>
<!-- Created with Inkscape (http://www.inkscape.org/) -->

<svg
   xmlns:dc="http://purl.org/dc/elements/1.1/"
   xmlns:cc="http://creativecommons.org/ns#"
   xmlns:rdf="http://www.w3.org/1999/02/22-rdf-syntax-ns#"
   xmlns:svg="http://www.w3.org/2000/svg"
   xmlns="http://www.w3.org/2000/svg"
   xmlns:sodipodi="http://sodipodi.sourceforge.net/DTD/sodipodi-0.dtd"
   xmlns:inkscape="http://www.inkscape.org/namespaces/inkscape"
   width="491.77222mm"
   height="253.81314mm"
   viewBox="0 0 1742.5 899.3379"
   id="svg4827"
   version="1.1"
   inkscape:version="0.91 r13725"
   sodipodi:docname="lay5.svg">
  <defs
     id="defs4829" />
  <sodipodi:namedview
     id="base"
     pagecolor="#ffffff"
     bordercolor="#666666"
     borderopacity="1.0"
     inkscape:pageopacity="0.0"
     inkscape:pageshadow="2"
     inkscape:zoom="0.35"
     inkscape:cx="1010.698"
     inkscape:cy="688.61712"
     inkscape:document-units="px"
     inkscape:current-layer="layer1-0"
     showgrid="false"
     fit-margin-top="0"
     fit-margin-left="0"
     fit-margin-right="0"
     fit-margin-bottom="0"
     inkscape:window-width="1920"
     inkscape:window-height="1027"
     inkscape:window-x="1272"
     inkscape:window-y="-8"
     inkscape:window-maximized="1" />
  <metadata
     id="metadata4832">
    <rdf:RDF>
      <cc:Work
         rdf:about="">
        <dc:format>image/svg+xml</dc:format>
        <dc:type
           rdf:resource="http://purl.org/dc/dcmitype/StillImage" />
        <dc:title></dc:title>
      </cc:Work>
    </rdf:RDF>
  </metadata>
  <g
     inkscape:label="Layer 1"
     inkscape:groupmode="layer"
     id="layer1"
     transform="translate(-205.89286,-31.26469)">
    <g
       id="layer1-0"
       inkscape:label="Layer 1"
       transform="translate(-1008.5738,65.95826)">
      <g
         id="g4806"
         transform="translate(2468.4888,915.3637)">
        <path
           id="path7986"
           d="m 247.4846,-656.81937 c 5.9125,-0.4875 11.85,-0.425 17.7875,-0.3625 33.1125,-0.0125 66.225,0 99.35,-0.0125 9.0125,59.75 17.725,119.5625 26.5625,179.3375 -25.8,0.0375 -51.6,0 -77.4,0.0125 -4.6375,0 -9.2625,0 -13.8875,0 -26.2625,-0.0125 -52.525,0.0375 -78.7875,-0.025 8.775,-59.65 17.775,-119.275 26.375,-178.95 z"
           inkscape:connector-curvature="0"
           style="fill:#ffce41" />
        <path
           id="path7988"
           d="m 299.8971,-477.84437 c 4.625,0 9.25,0 13.8875,0 -0.0125,142.375 0,284.75 0,427.125 l -13.8875,0 c 0,-142.375 0,-284.75 0,-427.125 z"
           inkscape:connector-curvature="0"
           style="fill:#4b5161" />
      </g>
    </g>
  </g>
</svg>
